<svg width="30" height="30" viewBox="0 0 30 30" fill="none" xmlns="http://www.w3.org/2000/svg">
<path d="M22.2714 22.2715C26.3715 18.1714 26.3715 11.5239 22.2714 7.42384C18.1714 3.32378 11.5239 3.32378 7.42382 7.42384C3.32376 11.5239 3.32376 18.1714 7.42382 22.2715C11.5239 26.3715 18.1714 26.3715 22.2714 22.2715Z" fill="url(#paint0_radial_484_4247)"/>
<path d="M22.2714 22.2715C26.3715 18.1714 26.3715 11.5239 22.2714 7.42384C18.1714 3.32378 11.5239 3.32378 7.42382 7.42384C3.32376 11.5239 3.32376 18.1714 7.42382 22.2715C11.5239 26.3715 18.1714 26.3715 22.2714 22.2715Z" fill="url(#paint1_radial_484_4247)"/>
<path opacity="0.18" d="M7.23303 12.4711C7.07753 12.8326 6.86392 13.1487 6.52813 13.11C6.27579 13.0809 6.11288 12.8229 6.05136 12.5765C5.90241 11.9816 6.12285 11.3573 6.40567 10.8133C6.99237 9.68544 7.85591 8.61257 8.90998 7.892C9.07716 7.7778 9.26115 7.67555 9.46279 7.65761C9.66443 7.63967 9.88658 7.72539 9.97772 7.90624C10.2494 8.44624 9.10365 9.38753 8.78951 9.74724C8.29081 10.3177 7.871 10.9568 7.54319 11.6401C7.45575 11.8223 7.36547 12.1633 7.23303 12.4714V12.4711Z" fill="white"/>
<path d="M13.7766 19.1781C13.4223 19.1716 13.0848 19.0246 12.8388 18.7694L9.39772 15.1996C8.88536 14.6682 8.90102 13.822 9.43247 13.3096C9.96421 12.7973 10.8101 12.8129 11.3225 13.3444L13.8362 15.9521L18.9883 10.9856C19.5198 10.4732 20.3659 10.4889 20.8783 11.0204C21.3907 11.5518 21.375 12.398 20.8436 12.9103L14.7293 18.8044C14.4741 19.0505 14.1315 19.1849 13.7772 19.1784L13.7766 19.1781Z" fill="white"/>
<defs>
<radialGradient id="paint0_radial_484_4247" cx="0" cy="0" r="1" gradientUnits="userSpaceOnUse" gradientTransform="translate(13.4527 14.2796) rotate(7.2) scale(13.6178)">
<stop stop-color="#75D982"/>
<stop offset="0.13" stop-color="#70D179"/>
<stop offset="0.47" stop-color="#67BF67"/>
<stop offset="0.74" stop-color="#51AA59"/>
<stop offset="0.84" stop-color="#48A153"/>
<stop offset="0.93" stop-color="#49A254"/>
<stop offset="0.96" stop-color="#50A958"/>
<stop offset="0.99" stop-color="#5CB460"/>
<stop offset="1" stop-color="#67BF67"/>
</radialGradient>
<radialGradient id="paint1_radial_484_4247" cx="0" cy="0" r="1" gradientUnits="userSpaceOnUse" gradientTransform="translate(13.4527 14.2796) rotate(7.2) scale(13.6178)">
<stop stop-color="#67BF67"/>
<stop offset="1" stop-color="#67BF67"/>
</radialGradient>
</defs>
</svg>
