<svg width="331" height="110" viewBox="0 0 331 110" fill="none" xmlns="http://www.w3.org/2000/svg">
<g clip-path="url(#clip0_110_1023)">
<path d="M232.123 56.9289C232.123 42.1145 232.123 27.3 232.129 12.4856C232.129 11.0197 232.123 9.54186 232.315 8.0999C232.626 5.81431 234.51 4.29458 236.718 4.36039C238.986 4.42621 240.877 6.11946 241.14 8.33923C241.224 9.07516 241.277 9.82307 241.277 10.565C241.283 18.6663 241.307 26.7735 241.277 34.8748C241.182 57.4435 241.068 80.0121 240.954 102.581C240.954 103.724 240.966 104.872 240.859 106.003C240.661 108.073 239.01 109.725 237.011 109.964C234.911 110.209 232.877 109.055 232.219 107.08C231.95 106.278 231.926 105.369 231.926 104.507" fill="#FFAFAB" fill-opacity="0.5"/>
<path d="M54.0029 101.306C54.0029 102.659 53.8533 103.939 52.89 104.986C51.5737 106.422 49.6591 106.931 47.9359 106.296C46.0691 105.608 44.9203 103.975 44.9024 101.863C44.8725 98.3567 44.8904 94.8505 44.8845 91.3443C44.8785 83.8892 44.8785 76.4282 44.8605 68.9731C44.8127 47.7686 44.7588 26.5641 44.7109 5.36557C44.7109 2.95433 46.7811 0.937991 49.2223 0.914058C51.5138 0.896108 53.6618 2.93638 53.6738 5.25189C53.7217 13.3053 53.7516 21.3587 53.7635 29.4121C53.7755 37.4894 53.7635 45.5728 53.7635 53.6501" fill="#FFAFAB" fill-opacity="0.5"/>
<path d="M278.062 11.0377C278.062 10.0684 278.062 9.09912 278.146 8.13583C278.343 5.82631 280.396 3.96553 282.663 4.00143C284.931 4.03733 286.959 5.95195 287.091 8.24352C287.193 10.0505 287.276 11.8634 287.276 13.6763C287.306 42.5812 287.318 71.4861 287.33 100.397C287.33 102.258 287.444 104.13 287.27 105.973C287.079 108.055 284.979 109.713 282.879 109.695C280.821 109.677 278.804 108.008 278.475 106.015C278.379 105.453 278.332 104.878 278.332 104.316C278.32 93.8035 278.32 83.2909 278.32 72.7725C278.32 67.4534 278.32 62.1343 278.32 56.8152" fill="#FFAFAB" fill-opacity="0.5"/>
<path d="M122.708 8.87178C122.708 6.9033 123.396 5.38955 125.066 4.36642C126.49 3.49287 127.997 3.55271 129.397 4.36044C130.851 5.20407 131.749 6.49645 131.755 8.24953C131.779 12.8446 131.779 17.4457 131.791 22.0408C131.85 47.9122 131.904 73.7836 131.964 99.655C131.964 101.468 132.084 103.287 131.964 105.094C131.785 107.774 129.792 109.545 127.303 109.42C124.868 109.3 123.001 107.284 122.989 104.675C122.965 98.7336 122.977 92.7983 122.977 86.857C122.977 76.7154 122.977 66.5799 122.977 56.4383" fill="#FFAFAB" fill-opacity="0.5"/>
<path d="M255.942 60.5847C255.942 70.9237 255.948 81.2626 255.924 91.6076C255.924 92.4871 255.859 93.4265 255.559 94.2342C254.776 96.3463 252.598 97.4652 250.444 97.0224C248.356 96.5916 246.836 94.7009 246.842 92.4991C246.89 82.208 246.95 71.9169 246.991 61.6257C247.039 51.209 247.063 40.7982 247.123 30.3814C247.123 29.3463 247.183 28.2813 247.41 27.2761C247.859 25.3076 249.75 23.9435 251.76 23.9913C253.788 24.0392 255.565 25.4512 256.014 27.4197C256.134 27.9462 256.2 28.4967 256.206 29.0352C256.218 36.7176 256.206 44.4001 256.206 52.0765" fill="#FFAFAB" fill-opacity="0.5"/>
<path d="M292.847 28.0359C292.847 25.2537 294.462 23.4528 297.155 23.1596C299.207 22.9323 301.648 24.9007 301.78 26.9649C301.881 28.5505 301.887 30.142 301.893 31.7336C301.959 47.7387 302.007 63.7497 302.079 79.7548C302.091 82.8122 302.192 85.8637 302.216 88.9211C302.222 90.0878 302.157 91.2546 302.073 92.4213C301.965 93.9709 300.356 95.73 298.71 96.1428C296.957 96.5856 294.875 95.8257 293.9 94.2162C293.469 93.5042 293.122 92.6127 293.11 91.793C293.02 85.9295 293.026 80.06 293.008 74.1964C292.996 69.3979 293.008 64.5993 293.008 59.8068" fill="#FFAFAB" fill-opacity="0.5"/>
<path d="M39.0089 85.7919C39.0089 86.8868 39.0508 87.9758 39.0568 89.0707C39.0747 91.2964 37.5012 93.1572 35.2156 93.6299C33.3847 94.0068 31.0513 92.7563 30.3333 90.8776C30.058 90.1596 29.9803 89.328 29.9743 88.5442C29.8845 68.3389 29.8247 48.1276 29.7589 27.9223C29.7589 26.929 29.7409 25.9358 29.7708 24.9426C29.8307 22.4476 31.8291 20.533 34.3121 20.5629C36.6994 20.5928 38.7217 22.5972 38.7277 25.0204C38.7397 35.7603 38.7277 46.4941 38.7277 57.234" fill="#FFAFAB" fill-opacity="0.5"/>
<path d="M146.731 90.6502C146.731 91.9606 146.653 93.2111 145.731 94.288C144.547 95.6642 142.674 96.3223 141.047 95.8317C139.21 95.2753 137.87 93.7017 137.774 91.823C137.678 90.016 137.666 88.1971 137.66 86.3842C137.594 66.7772 137.54 47.1702 137.481 27.5633C137.475 25.0623 139.132 23.1716 141.567 22.8664C143.853 22.5852 146.39 24.6076 146.431 26.9051C146.521 32.272 146.527 37.639 146.539 43.0059C146.557 48.4507 146.539 53.8894 146.539 59.3341" fill="#FFAFAB" fill-opacity="0.5"/>
<path d="M59.3938 25.6487C59.3938 24.9307 59.4237 24.1947 59.5853 23.5067C60.0759 21.4185 62.1102 19.8928 64.1086 20.0245C66.3702 20.18 68.0276 21.7356 68.3447 24.0093C68.3926 24.3802 68.4404 24.7512 68.4404 25.1221C68.5002 33.9414 68.578 42.7607 68.6079 51.5799C68.6498 63.7557 68.6498 75.9316 68.6678 88.1074C68.6678 90.7699 67.4352 92.5529 65.2454 93.0316C62.2777 93.6778 59.669 91.5059 59.6571 88.3408C59.6391 83.3687 59.6451 78.4026 59.6451 73.4306C59.6451 67.8423 59.6451 62.248 59.6451 56.6597" fill="#FFAFAB" fill-opacity="0.5"/>
<path d="M107.75 28.9574C107.75 27.2163 107.989 25.5948 109.473 24.4041C110.855 23.2913 112.357 23.1178 113.955 23.7639C115.522 24.3982 116.533 25.5649 116.689 27.2761C116.815 28.73 116.815 30.2019 116.821 31.6678C116.845 36.4902 116.839 41.3127 116.857 46.1292C116.916 61.3146 116.976 76.494 117.036 91.6794C117.048 94.9522 114.445 97.0702 111.352 96.3343C109.515 95.8975 108.055 93.965 108.049 91.9546C108.019 85.3671 107.989 78.7855 107.971 72.198C107.96 68.1953 107.971 64.1985 107.971 60.1957" fill="#FFAFAB" fill-opacity="0.5"/>
<path d="M263.14 35.0902C263.14 32.6311 263.128 30.166 263.254 27.7129C263.367 25.4273 265.42 23.6204 267.693 23.6144C269.865 23.6024 271.846 25.3794 272.073 27.5992C272.163 28.4608 272.175 29.3343 272.175 30.2019C272.253 50.2038 272.324 70.2116 272.402 90.2135C272.402 90.8597 272.444 91.5059 272.438 92.1521C272.408 94.6531 270.464 96.7232 268.112 96.7651C265.557 96.813 263.517 94.8625 263.403 92.2658C263.391 92.0204 263.403 91.7691 263.403 91.5179C263.367 81.5259 263.332 71.5399 263.302 61.5479C263.302 61.153 263.302 60.7522 263.302 60.3573" fill="#FFAFAB" fill-opacity="0.5"/>
<path d="M217.386 60.3273C217.386 49.8388 217.38 39.3502 217.404 28.8616C217.404 28.03 217.524 27.1624 217.787 26.3786C218.446 24.4221 220.528 23.2673 222.741 23.5126C224.465 23.7041 226.158 25.3914 226.361 27.2701C226.505 28.5984 226.529 29.9506 226.523 31.2848C226.475 42.8683 226.391 54.4458 226.349 66.0293C226.319 74.4058 226.355 82.7823 226.325 91.1588C226.325 92.0084 226.158 92.894 225.889 93.7077C225.29 95.5325 223.16 96.8249 221.311 96.6035C219.146 96.3403 217.333 94.653 217.207 92.6127C217.105 91.0033 217.177 89.3818 217.177 87.7663" fill="#FFAFAB" fill-opacity="0.5"/>
<path d="M85.5404 57.3537C85.5404 65.4549 85.5583 73.5562 85.5165 81.6575C85.5165 82.5789 85.3788 83.5661 85.0139 84.3978C84.1403 86.3663 82.1479 87.2817 80.1615 86.8389C78.2588 86.4141 76.7092 84.7089 76.7211 82.543C76.757 75.1896 76.7511 67.8303 76.7929 60.4769C76.8408 51.0833 76.9186 41.6896 76.9784 32.296C77.0023 29.1548 79.7307 26.9889 82.5847 27.8445C84.4574 28.4069 85.7558 30.142 85.7498 32.1584C85.7199 39.9605 85.678 47.7626 85.6421 55.5707" fill="#FFAFAB" fill-opacity="0.5"/>
<path d="M163.609 60.0103C163.609 67.6149 163.609 75.2256 163.609 82.8302C163.609 83.7756 163.585 84.7209 163.502 85.6603C163.304 87.9459 161.587 89.6631 159.427 89.7827C157.159 89.9024 155.293 88.4485 154.82 86.1569C154.706 85.6005 154.652 85.0261 154.658 84.4577C154.76 69.368 154.874 54.2843 154.993 39.1947C155.005 37.5792 154.94 35.9578 155.095 34.3543C155.311 32.0687 157.267 30.4771 159.565 30.531C161.802 30.5908 163.639 32.302 163.753 34.5756C163.849 36.4843 163.813 38.3989 163.819 40.3135" fill="#FFAFAB" fill-opacity="0.5"/>
<path d="M209.022 62.4992C209.088 68.9312 209.171 76.6795 209.243 84.4337C209.243 85.032 209.237 85.6244 209.195 86.2227C209.028 88.5561 207.233 90.3152 205.001 90.3451C202.554 90.381 200.687 88.7536 200.478 86.3304C200.382 85.2414 200.406 84.1465 200.4 83.0516C200.34 74.5315 200.28 66.0054 200.233 57.4853C200.215 54.0569 200.233 50.6286 200.197 47.2002C200.167 43.5265 200.095 39.8468 200.065 36.1731C200.053 34.7671 200.376 33.4627 201.435 32.4336C202.662 31.237 204.146 30.8241 205.761 31.2968C207.317 31.7515 208.346 32.8524 208.735 34.444C208.908 35.162 209.01 35.9158 209.01 36.6518C209.028 44.8248 209.022 53.0039 209.022 62.4992Z" fill="#FFAFAB" fill-opacity="0.5"/>
<path d="M100.875 57.6289C100.875 64.6353 100.875 71.6476 100.875 78.6539C100.875 80.1078 100.576 81.478 99.4394 82.5131C98.153 83.6858 96.6392 84.0328 95.0058 83.4524C93.2946 82.8362 92.3074 81.5438 92.086 79.7309C91.9723 78.7975 91.9245 77.8522 91.9245 76.9068C91.9185 64.6053 91.9245 52.3039 91.9305 39.9964C91.9305 38.6083 91.9963 37.2142 92.0621 35.8261C92.1758 33.5345 93.7912 31.919 96.2204 31.6139C97.9855 31.3925 100.026 32.8285 100.606 34.7671C100.774 35.3295 100.869 35.9338 100.869 36.5201C100.887 43.5564 100.881 50.5867 100.881 57.6229L100.875 57.6289Z" fill="#FFAFAB" fill-opacity="0.5"/>
<path d="M185.119 61.0752C185.119 53.8953 185.119 46.7095 185.119 39.5297C185.119 37.0526 186.914 35.1559 189.361 35.0243C191.689 34.9046 193.561 36.5739 193.813 39.0271C193.884 39.6912 193.878 40.3673 193.884 41.0374C193.89 54.6791 193.896 68.3269 193.902 81.9686C193.902 83.0276 193.807 84.0447 193.238 84.9781C192.197 86.6953 190.289 87.503 188.374 87.0005C186.519 86.5158 185.125 84.7867 185.119 82.8481C185.101 75.5905 185.113 68.3328 185.113 61.0812L185.119 61.0752Z" fill="#FFAFAB" fill-opacity="0.5"/>
<path d="M178.861 60.6624C178.861 67.8243 178.813 74.9802 178.884 82.1421C178.908 84.3799 176.832 86.3124 175.067 86.5219C173.015 86.7731 170.891 85.4808 170.287 83.4225C170.101 82.7943 170.095 82.0943 170.095 81.4301C170.089 74.5973 170.101 67.7585 170.107 60.9257C170.107 54.0629 170.101 47.2062 170.119 40.3434C170.119 39.3801 170.119 38.3809 170.382 37.4715C170.963 35.4492 173.021 34.1867 174.977 34.4799C177.203 34.8149 178.849 36.6159 178.855 38.8117C178.873 46.0933 178.855 53.3808 178.855 60.6624H178.861Z" fill="#FFAFAB" fill-opacity="0.5"/>
</g>
<path d="M307.639 55.8407C307.639 48.6608 307.639 41.475 307.639 34.2952C307.639 31.8181 309.434 29.9214 311.882 29.7898C314.209 29.6701 316.082 31.3394 316.333 33.7926C316.405 34.4567 316.399 35.1328 316.405 35.8029C316.411 49.4446 316.417 63.0924 316.423 76.7341C316.423 77.7931 316.327 78.8102 315.759 79.7436C314.718 81.4608 312.809 82.2686 310.894 81.766C309.039 81.2813 307.645 79.5522 307.639 77.6136C307.621 70.356 307.633 63.0983 307.633 55.8467L307.639 55.8407Z" fill="#FFAFAB" fill-opacity="0.5"/>
<path d="M24.1073 55.8407C24.1073 48.6608 24.1073 41.475 24.1073 34.2952C24.1073 31.8181 22.3123 29.9214 19.8652 29.7898C17.5377 29.6701 15.665 31.3394 15.4137 33.7926C15.3419 34.4567 15.3479 35.1328 15.3419 35.8029C15.3359 49.4446 15.3299 63.0924 15.3239 76.7341C15.3239 77.7931 15.4197 78.8102 15.9881 79.7436C17.0292 81.4608 18.9378 82.2686 20.8524 81.766C22.7072 81.2813 24.1013 79.5522 24.1073 77.6136C24.1252 70.356 24.1133 63.0983 24.1133 55.8467L24.1073 55.8407Z" fill="#FFAFAB" fill-opacity="0.5"/>
<path d="M322.074 55.8407C322.074 48.6608 322.074 50.4967 322.074 43.3169C322.074 40.8398 323.869 38.9432 326.316 38.8115C328.644 38.6919 330.517 40.3612 330.768 42.8143C330.84 43.4784 330.834 44.1545 330.84 44.8247C330.846 58.4664 330.852 54.0705 330.858 67.7123C330.858 68.7713 330.762 69.7884 330.193 70.7218C329.152 72.439 327.244 73.2467 325.329 72.7441C323.474 72.2595 322.08 70.5304 322.074 68.5918C322.056 61.3342 322.068 63.0983 322.068 55.8466L322.074 55.8407Z" fill="#FFAFAB" fill-opacity="0.5"/>
<path d="M9.67248 55.8407C9.67248 48.6608 9.67248 50.4967 9.67248 43.3169C9.67248 40.8398 7.87752 38.9432 5.43039 38.8115C3.10292 38.6919 1.23017 40.3612 0.978874 42.8143C0.907076 43.4784 0.913062 44.1545 0.907079 44.8247C0.901095 58.4664 0.895113 54.0705 0.88913 67.7123C0.88913 68.7713 0.984853 69.7884 1.55326 70.7218C2.59434 72.439 4.50298 73.2467 6.41761 72.7441C8.27241 72.2595 9.6665 70.5304 9.67248 68.5918C9.69043 61.3342 9.67847 63.0983 9.67847 55.8466L9.67248 55.8407Z" fill="#FFAFAB" fill-opacity="0.5"/>
<defs>
<clipPath id="clip0_110_1023">
<rect width="272.458" height="109.086" fill="white" transform="translate(29.7589 0.914062)"/>
</clipPath>
</defs>
</svg>
