<svg width="29" height="29" viewBox="0 0 29 29" fill="none" xmlns="http://www.w3.org/2000/svg">
<g clip-path="url(#clip0_110_1058)">
<path d="M0 4.54501C0 4.18639 0.0408451 3.82852 0.122535 3.47898C0.585446 1.49369 2.40608 0.0115353 4.44757 0.00850895C11.1477 -0.00132669 17.8478 -0.00359645 24.5479 0.00926554C26.9699 0.0138051 28.9788 2.03238 28.9902 4.46027C29.0068 7.85735 28.9962 11.2552 28.994 14.6523C28.994 15.3748 28.5189 15.8651 27.8495 15.8567C27.19 15.8492 26.7323 15.365 26.7316 14.6538C26.7286 11.3036 26.7323 7.95343 26.7293 4.60326C26.7286 3.49411 26.069 2.62933 25.0494 2.35242C24.8315 2.2934 24.6046 2.27071 24.3792 2.26995C17.813 2.26919 11.2468 2.26844 4.68054 2.26995C3.21163 2.26995 2.25026 3.23989 2.26614 4.71146C2.33422 11.2234 2.42121 17.7338 2.26614 24.2443C2.23059 25.7431 3.19575 26.735 4.67525 26.7357C7.45876 26.7365 10.243 26.7357 13.0266 26.7365C13.6377 26.7365 14.0568 27.0149 14.2095 27.5127C14.3994 28.1294 14.0991 28.7225 13.488 28.9419H13.4864C13.3979 28.9745 13.2482 29.0009 13.1536 29.0009H4.41505C4.26302 29.0009 4.01643 28.9782 3.86742 28.9495H3.86591C1.94392 28.5924 0.707981 27.4726 0.147496 25.6046C0.0499218 25.277 0 24.9373 0 24.5961C0 17.9124 0 11.2287 0 4.54501Z" fill="#0A3E94"/>
<path d="M22.0866 29C21.5473 28.8199 21.2137 28.4681 21.1737 27.8674C20.3916 27.8674 19.6268 27.8424 18.8652 27.8727C17.1247 27.9415 15.8865 26.5676 15.6323 25.0854C15.596 24.8728 15.5726 24.6534 15.5802 24.4385C15.5953 23.9868 15.8018 23.6365 16.2254 23.4572C16.928 23.1591 17.2435 22.6447 17.217 21.8813C17.1875 21.052 17.1784 20.219 17.4666 19.4193C18.074 17.7321 19.2358 16.6237 20.9513 16.1062C21.1328 16.0518 21.2001 15.9837 21.1827 15.8013C21.1691 15.6515 21.1782 15.4994 21.1805 15.3489C21.1918 14.6453 21.657 14.1633 22.3181 14.1663C22.9784 14.1701 23.4345 14.6528 23.4443 15.361C23.4474 15.5864 23.4443 15.8112 23.4443 16.0412C23.6652 16.1153 23.8709 16.1773 24.0714 16.2538C26.0312 17.0013 27.336 18.8776 27.3556 20.9734C27.3587 21.3411 27.3572 21.7095 27.3564 22.0772C27.3564 22.6507 27.5984 23.1205 28.1188 23.3301C28.9153 23.6509 29.0764 24.2479 28.9471 25.0551C28.7164 26.4957 27.5969 27.6881 26.212 27.8386C25.5683 27.909 24.9117 27.8606 24.2605 27.8651C23.9973 27.8666 23.734 27.8651 23.4512 27.8651C23.4103 28.4643 23.079 28.8184 22.5389 28.9977H22.0859L22.0866 29ZM26.3723 25.3782C26.516 25.2329 26.4994 24.9946 26.3459 24.8607C26.3451 24.8607 26.3443 24.8592 26.3436 24.8584C25.6643 24.2638 25.2249 23.5299 25.1394 22.6257C25.0857 22.0644 25.1039 21.4962 25.0895 20.931C25.0539 19.5056 23.9201 18.3087 22.4958 18.1914C21.101 18.0764 19.7668 19.0872 19.5414 20.4861C19.4536 21.0301 19.4899 21.5945 19.4771 22.1498C19.4514 23.2582 19.03 24.1783 18.1814 24.897C18.1814 24.897 18.1799 24.8978 18.1791 24.8985C18.0536 25.0052 18.0392 25.1944 18.1451 25.3199C18.2964 25.5008 18.496 25.6006 18.763 25.6006C21.1109 25.6014 23.4595 25.6022 25.8073 25.6006C26.0425 25.6006 26.2279 25.5235 26.3716 25.3782H26.3723Z" fill="#0A3E94"/>
<path d="M16.7359 8.66822C14.944 8.66822 13.1521 8.67201 11.3595 8.66671C10.5456 8.66368 10.0048 7.92525 10.2536 7.17623C10.4064 6.71623 10.824 6.41132 11.3285 6.40527C11.8474 6.39846 12.3662 6.40376 12.8844 6.40376C15.95 6.40376 19.0149 6.40376 22.0806 6.40376C22.7046 6.40376 23.1282 6.68899 23.2757 7.19969C23.5003 7.9767 22.9769 8.66217 22.1403 8.66671C20.7637 8.67352 19.3863 8.66898 18.0089 8.66898C17.5846 8.66898 17.1602 8.66898 16.7359 8.66898V8.66822Z" fill="#0A3E94"/>
<path d="M14.3677 13.2002C15.3669 13.2002 16.3668 13.1911 17.366 13.2032C18.1754 13.213 18.6874 13.9159 18.4598 14.6778C18.3138 15.1681 17.8932 15.4624 17.3131 15.4639C15.6823 15.4669 14.0508 15.4654 12.42 15.4654C12.0614 15.4654 11.7029 15.4714 11.3451 15.4631C10.6659 15.4472 10.1909 14.9698 10.1977 14.3199C10.2045 13.6814 10.6742 13.21 11.3406 13.2032C12.3496 13.1934 13.3579 13.2009 14.3669 13.2002H14.3677Z" fill="#0A3E94"/>
<path d="M12.6824 22.6568C12.2489 22.6568 11.8155 22.6613 11.3821 22.656C10.6802 22.6469 10.1969 22.1809 10.1984 21.5211C10.2006 20.8614 10.6825 20.3976 11.3882 20.3931C12.255 20.3878 13.1218 20.387 13.9886 20.3931C14.6906 20.3976 15.1747 20.8674 15.1724 21.5264C15.1709 22.1854 14.6868 22.6469 13.9826 22.6553C13.5492 22.6605 13.1158 22.656 12.6824 22.656V22.6568Z" fill="#0A3E94"/>
<path d="M6.79092 6.40376C7.41418 6.40149 7.9308 6.91445 7.92701 7.53107C7.92248 8.16887 7.43309 8.66141 6.79999 8.66368C6.16614 8.66595 5.67373 8.17871 5.66465 7.54015C5.65633 6.92277 6.16841 6.40602 6.79092 6.40376Z" fill="#0A3E94"/>
<path d="M7.92702 14.3297C7.92097 14.9675 7.43083 15.4586 6.79698 15.4593C6.15253 15.4601 5.65634 14.9539 5.6639 14.3048C5.67147 13.6995 6.18127 13.2002 6.79319 13.1994C7.4157 13.1986 7.93156 13.7131 7.92627 14.329L7.92702 14.3297Z" fill="#0A3E94"/>
<path d="M7.92694 21.5143C7.92618 22.1521 7.43831 22.6469 6.80597 22.653C6.16228 22.659 5.66079 22.1559 5.66457 21.5067C5.6676 20.9007 6.17438 20.3983 6.78554 20.393C7.40881 20.3878 7.92845 20.8977 7.92694 21.5143Z" fill="#0A3E94"/>
</g>
<defs>
<clipPath id="clip0_110_1058">
<rect width="29" height="29" fill="white"/>
</clipPath>
</defs>
</svg>
