<svg width="30" height="34" viewBox="0 0 30 34" fill="none" xmlns="http://www.w3.org/2000/svg">
<path d="M4.60436 33.9992C4.38582 33.9485 4.16651 33.9017 3.949 33.8468C1.66356 33.269 0.0124446 31.1603 0.00859703 28.7489C-0.0021761 21.7997 -0.00371512 14.8503 0.00911004 7.90111C0.0139836 5.27305 1.9511 3.05979 4.49484 2.70966C4.61078 2.69363 4.72543 2.66918 4.86395 2.64474C4.86395 2.21786 4.8601 1.7986 4.86471 1.3796C4.87395 0.579464 5.43826 -0.00986352 6.17981 0.000125083C6.90828 0.0101137 7.44821 0.594972 7.45514 1.38591C7.45873 1.79387 7.45565 2.20209 7.45565 2.63265H12.6401C12.6401 2.22338 12.6375 1.81779 12.6406 1.41193C12.6468 0.598127 13.1857 0.00669653 13.9242 0.000125083C14.6793 -0.00644636 15.2269 0.587087 15.2315 1.41982C15.2336 1.81674 15.2318 2.21365 15.2318 2.63291H20.4162C20.4162 2.22285 20.4137 1.817 20.4168 1.41141C20.4229 0.597601 20.9623 0.00617081 21.7008 0.000125083C22.4565 -0.00618351 23.0031 0.587087 23.0074 1.42061C23.0095 1.81779 23.0077 2.21497 23.0077 2.62056C23.3901 2.6931 23.7628 2.7391 24.1225 2.8361C26.4092 3.45171 27.9864 5.53302 27.9957 7.94868C28.0034 9.9627 27.999 11.9767 27.9964 13.9905C27.9954 14.8056 27.4552 15.3968 26.716 15.4044C25.9634 15.412 25.4081 14.8161 25.4068 13.986C25.4037 11.972 25.414 9.95797 25.4024 7.94422C25.3945 6.56158 24.3602 5.43603 23.008 5.33588C23.008 5.72307 23.01 6.10842 23.0074 6.49403C23.0021 7.30573 22.4595 7.8969 21.7193 7.90058C20.9782 7.90426 20.425 7.31441 20.417 6.50796C20.4132 6.12261 20.4162 5.73726 20.4162 5.3322H15.2318C15.2318 5.72754 15.2341 6.11183 15.2313 6.49613C15.2256 7.30705 14.6816 7.89795 13.9411 7.90084C13.2003 7.90347 12.6486 7.31362 12.6406 6.50612C12.637 6.12103 12.6401 5.73595 12.6401 5.33167H7.45565C7.45565 5.72938 7.45796 6.11394 7.45514 6.49823C7.4495 7.3081 6.90366 7.89927 6.16313 7.90084C5.42235 7.90242 4.87241 7.31257 4.86471 6.50428C4.86112 6.12944 4.8642 5.75435 4.8642 5.34876C4.18626 5.42499 3.65966 5.7349 3.23438 6.23117C2.77114 6.77161 2.59235 7.41298 2.59287 8.12795C2.598 13.5943 2.59569 19.0607 2.59569 24.5274C2.59569 25.8664 2.59364 27.2054 2.5962 28.5441C2.59928 30.2075 3.7007 31.3409 5.31796 31.343C7.23993 31.3457 9.16217 31.3396 11.0841 31.3465C11.7328 31.3488 12.2469 31.8038 12.3636 32.4449C12.4762 33.0634 12.1235 33.6812 11.5197 33.9232C11.4604 33.9472 11.4022 33.9742 11.3437 34H4.60436V33.9992Z" fill="#0FB287"/>
<path d="M15.0304 34C14.5555 33.8238 14.1442 33.5612 14.038 33.028C13.986 32.767 13.9829 32.4673 14.0566 32.2143C14.5555 30.5011 15.0732 28.7935 15.6056 27.0907C15.6817 26.8471 15.8319 26.6012 16.0116 26.42C18.419 23.9879 20.8315 21.5605 23.2567 19.146C24.4254 17.9827 26.1622 17.6835 27.6396 18.3474C29.144 19.0236 30.0696 20.5159 29.9959 22.1845C29.9526 23.1623 29.6117 24.0372 28.9237 24.7337C26.4877 27.2002 24.0396 29.6545 21.5842 32.1011C21.4061 32.2787 21.1451 32.4058 20.9002 32.4766C19.1731 32.9742 17.44 33.4507 15.7089 33.9351C15.6575 33.9496 15.6101 33.9778 15.5608 33.9997H15.0307L15.0304 34ZM17.2674 30.7302C17.6545 30.6254 17.9768 30.5093 18.3091 30.4537C19.4624 30.261 20.3601 29.6919 21.152 28.8157C22.3159 27.5276 23.5817 26.3324 24.7698 25.1319C24.1524 24.5079 23.5342 23.8831 22.8924 23.2346C21.3272 24.8171 19.7391 26.4221 18.1534 28.0297C18.0938 28.0901 18.0416 28.1703 18.017 28.2511C17.7696 29.055 17.5289 29.8608 17.2671 30.7302H17.2674ZM26.7397 23.1625C27.1864 22.7924 27.4618 22.3296 27.3152 21.7032C27.1869 21.1547 26.8315 20.8119 26.2884 20.6985C25.6822 20.5718 25.2309 20.8478 24.8789 21.289C25.5044 21.9188 26.1176 22.5359 26.7397 23.1625Z" fill="#0FB287"/>
<path d="M13.5322 13.0006C15.9162 13.0006 18.3001 12.9987 20.6839 13.0016C21.6033 13.0028 22.2115 13.6516 21.9312 14.3204C21.7729 14.6979 21.3366 14.9678 20.8352 14.9971C20.7731 15.0006 20.7103 14.9998 20.648 14.9998C15.8801 14.9998 11.1124 15.0004 6.34444 14.9994C5.59571 14.9994 5.04536 14.6162 5.00281 14.073C4.95508 13.4668 5.51953 13.0022 6.31798 13.0014C8.64975 12.9991 10.9818 13.0006 13.3135 13.0006C13.3865 13.0006 13.4592 13.0006 13.5322 13.0006Z" fill="#0FB287"/>
<path d="M12.4948 19.9987C10.4424 19.9987 8.39006 20.0026 6.33794 19.9969C5.39355 19.9943 4.76628 19.3131 5.08288 18.6531C5.27383 18.2548 5.7535 18.0035 6.34904 18.0017C7.40232 17.9986 8.4556 18.0007 9.50887 18.0007C12.5492 18.0007 15.5899 17.9989 18.6302 18.0019C19.5878 18.0029 20.2218 18.6543 19.9274 19.322C19.7431 19.74 19.2523 19.9975 18.6191 19.9981C16.5776 19.9999 14.5363 19.9987 12.4948 19.9987Z" fill="#0FB287"/>
<path d="M9.49916 23.0011C10.5656 23.0011 11.6319 22.999 12.6981 23.0017C13.4592 23.0034 13.9998 23.6286 14 24.4995C14 25.3692 13.4587 25.9973 12.6983 25.9982C10.5656 26.0006 8.43301 26.0006 6.30023 25.9982C5.53917 25.9973 5 25.3716 5 24.4995C5 23.6271 5.53869 23.0034 6.29999 23.0014C7.36638 22.9987 8.43277 23.0008 9.49892 23.0008L9.49916 23.0011Z" fill="#0FB287"/>
</svg>
