<svg width="38" height="38" viewBox="0 0 38 38" fill="none" xmlns="http://www.w3.org/2000/svg">
<g clip-path="url(#clip0_110_1013)">
<path d="M1.52804 28.8667C1.52427 26.0942 1.52176 23.3216 1.51673 20.5491C1.51673 20.3455 1.50919 20.1418 1.50417 19.9382C2.25308 19.9345 3.002 19.9307 3.74966 19.9257C4.4747 19.9219 4.90445 19.565 4.8944 18.978C4.8856 18.3999 4.4546 18.053 3.7283 18.0492C2.99572 18.0455 2.26188 18.0492 1.52804 18.0492C1.52427 15.3395 1.52176 12.6298 1.51673 9.92138C1.51673 9.65493 1.50793 9.38974 1.50417 9.12329C2.25308 9.11952 3.002 9.11701 3.75217 9.11324C4.47722 9.10947 4.90194 8.7563 4.89691 8.16308C4.89188 7.58494 4.45962 7.23555 3.73207 7.23178C2.99823 7.22801 2.26439 7.23178 1.53055 7.23304C1.52804 6.15217 1.38982 5.04994 1.55568 3.99546C1.807 2.40433 2.7155 1.18521 4.20328 0.461281C4.84916 0.149589 5.53525 0.00882536 6.24144 0.00882536C15.187 0.00128443 24.1325 -0.00374286 33.0781 0.00254125C35.4128 0.00379807 37.1682 1.47554 37.7437 3.26776C37.9196 3.81574 37.9963 4.38382 37.9963 4.96447C37.9963 14.2888 38.0026 23.6132 37.9963 32.9375C37.9963 34.6204 37.471 36.0947 36.0323 37.0976C35.2645 37.633 34.4176 38.0013 33.445 38.0013C24.3273 37.9963 15.2096 38.0013 6.09191 37.9912C3.85019 37.9887 1.90124 36.2782 1.54689 33.9945C1.38353 32.9375 1.50919 31.8366 1.50291 30.7557C2.28198 30.7507 3.06231 30.7431 3.84139 30.7431C4.1882 30.7431 4.48224 30.6438 4.7034 30.3636C4.95848 30.0393 4.91576 29.6937 4.76246 29.3518C4.59156 28.9698 4.22464 28.8881 3.86652 28.8768C3.08745 28.8529 2.30711 28.8692 1.52804 28.868V28.8667ZM24.3474 19.8666C24.4115 19.7811 24.4316 19.7372 24.4655 19.7108C26.7588 17.9198 27.7364 15.6035 27.1734 12.7203C26.8015 10.8187 25.8214 9.32439 24.1438 8.26112C22.6535 7.31599 21.0376 7.08599 19.3626 7.25566C17.861 7.40773 16.5667 8.07511 15.4961 9.19242C13.9204 10.8389 13.2531 12.7643 13.5509 15.0153C13.7985 16.8867 14.6793 18.4012 16.191 19.5423C16.5428 19.8075 16.529 19.8628 16.1206 20.0463C13.1501 21.3735 11.1936 23.6157 10.1381 26.6735C9.92571 27.2894 9.79628 27.9266 9.71084 28.5663C9.54623 29.7942 10.3429 30.8525 11.6648 30.8475C17.538 30.8248 23.4112 30.8349 29.2845 30.8299C30.1377 30.8299 30.8187 30.2542 31.0499 29.4386C31.2083 28.8793 31.0273 28.3652 30.9394 27.8386C30.5486 25.5286 29.4265 23.6107 27.7439 22.0082C26.7701 21.0807 25.6366 20.397 24.3499 19.8653L24.3474 19.8666Z" fill="#0FB287"/>
<path d="M1.53175 18.0504C2.26559 18.0504 2.99817 18.0467 3.73201 18.0504C4.45705 18.0542 4.88806 18.4011 4.89811 18.9792C4.90816 19.5662 4.47716 19.9231 3.75337 19.9269C3.00445 19.9306 2.25554 19.9344 1.50788 19.9394C1.3219 19.9394 1.13467 19.9482 0.949958 19.9394C0.407119 19.9118 0.00501602 19.4983 0.0125555 18.9868C0.0200949 18.4991 0.417172 18.0919 0.928597 18.0605C1.12965 18.0479 1.33196 18.0555 1.53301 18.053L1.53175 18.0504Z" fill="white"/>
<path d="M1.52793 28.8667C2.30826 28.8667 3.08733 28.8503 3.86641 28.8755C4.22453 28.8868 4.59019 28.9685 4.76234 29.3505C4.91565 29.6924 4.95837 30.038 4.70329 30.3623C4.48213 30.6426 4.18809 30.7418 3.84128 30.7418C3.0622 30.7418 2.28187 30.7494 1.5028 30.7544C1.13462 30.7444 0.756392 30.8173 0.419631 30.5847C0.0740731 30.3472 -0.0679195 30.0204 0.0300931 29.6233C0.135645 29.1934 0.425913 28.9257 0.875766 28.8767C1.09064 28.8528 1.31054 28.8692 1.52793 28.8667Z" fill="white"/>
<path d="M1.53439 7.23551C2.26823 7.23551 3.00207 7.23048 3.73591 7.23425C4.46221 7.23802 4.89572 7.58742 4.90075 8.16556C4.90578 8.75878 4.48231 9.11194 3.75601 9.11571C3.0071 9.11948 2.25818 9.122 1.50801 9.12577C1.33711 9.12577 1.16622 9.13079 0.99658 9.12577C0.437406 9.10817 0.0327894 8.7349 0.0101711 8.22086C-0.0111906 7.7131 0.351959 7.32097 0.929982 7.25059C1.12852 7.22671 1.33209 7.24054 1.53439 7.23677V7.23551Z" fill="white"/>
<path d="M24.3473 19.8678C25.6327 20.3994 26.7674 21.0832 27.7413 22.0107C29.4238 23.6131 30.5447 25.531 30.9367 27.8411C31.0259 28.3664 31.2069 28.8817 31.0473 29.441C30.8161 30.2567 30.1363 30.8311 29.2818 30.8323C23.4086 30.8373 17.5354 30.8273 11.6622 30.8499C10.3402 30.8549 9.54358 29.7967 9.70819 28.5688C9.79364 27.9291 9.92306 27.2919 10.1354 26.676C11.1909 23.6182 13.1474 21.376 16.118 20.0488C16.5264 19.8666 16.5402 19.8113 16.1883 19.5448C14.6767 18.4036 13.7958 16.8891 13.5483 15.0177C13.2505 12.7668 13.919 10.8413 15.4934 9.19488C16.564 8.07631 17.8583 7.41019 19.3599 7.25812C21.0349 7.08845 22.6509 7.31845 24.1412 8.26358C25.8187 9.32685 26.8001 10.8212 27.1708 12.7228C27.7337 15.6059 26.7561 17.921 24.4629 19.7132C24.4289 19.7396 24.4076 19.7836 24.3447 19.8691L24.3473 19.8678Z" fill="white"/>
</g>
<defs>
<clipPath id="clip0_110_1013">
<rect width="38" height="38" fill="white"/>
</clipPath>
</defs>
</svg>
