<svg width="38" height="38" viewBox="0 0 38 38" fill="none" xmlns="http://www.w3.org/2000/svg">
<g clip-path="url(#clip0_110_989)">
<path d="M27.9521 17.8873C33.5071 17.8873 38.0062 22.3988 38.0004 27.9628C37.9942 33.5148 33.4971 37.9818 27.9411 37.9995C22.3989 38.0177 17.7374 33.412 17.8971 27.6142C18.0414 22.3572 22.4157 17.8749 27.9526 17.8873H27.9521ZM26.8344 26.8204C26.7086 26.8204 26.6149 26.8204 26.5212 26.8204C25.5097 26.8204 24.4981 26.8147 23.4865 26.8228C22.8426 26.8281 22.355 27.3211 22.3583 27.9393C22.3616 28.5772 22.8512 29.0563 23.5042 29.0573C24.5239 29.0583 25.5431 29.0573 26.5628 29.0573C26.6465 29.0573 26.7306 29.0649 26.8339 29.0702C26.8339 29.1902 26.8339 29.2849 26.8339 29.3791C26.8344 30.3909 26.8286 31.4032 26.8382 32.415C26.8444 33.0792 27.3583 33.5635 28.0028 33.5377C28.6032 33.5138 29.0636 33.0242 29.0683 32.3806C29.076 31.3688 29.0703 30.357 29.0712 29.3447C29.0712 29.2529 29.0798 29.1615 29.0851 29.0573H29.3767C30.3883 29.0573 31.3998 29.0549 32.4114 29.0587C32.6959 29.0597 32.9445 28.9727 33.1553 28.7871C33.5196 28.4672 33.6329 28.0015 33.4646 27.5496C33.2973 27.0997 32.9143 26.8238 32.4186 26.8204C31.407 26.8142 30.3954 26.8185 29.3839 26.8185C29.2902 26.8185 29.196 26.8185 29.0707 26.8185C29.0707 26.6971 29.0707 26.6033 29.0707 26.5101C29.0707 25.5141 29.0793 24.518 29.0674 23.522C29.0588 22.8162 28.5769 22.3357 27.9244 22.3481C27.2852 22.3606 26.8353 22.8535 26.8344 23.5464C26.8334 24.5424 26.8344 25.5385 26.8344 26.5345C26.8344 26.6196 26.8344 26.7052 26.8344 26.819V26.8204Z" fill="#F5B51B"/>
<path d="M15.6674 2.67317e-05C20.5995 -0.0119275 24.5803 3.98699 24.5971 8.96998C24.6133 13.8602 20.5991 17.8543 15.6488 17.8735C10.7573 17.8926 6.73343 13.8812 6.72195 8.9738C6.70952 4.00468 10.6898 0.0119809 15.6674 2.67317e-05Z" fill="#F5B51B"/>
<path d="M18.4531 20.1146C16.6379 22.4122 15.6712 24.968 15.6593 27.8614C15.6473 30.751 16.5485 33.3307 18.3489 35.6422C17.844 35.6752 17.3789 35.7163 16.9132 35.7344C15.2142 35.8014 13.519 35.7502 11.8358 35.5021C9.14574 35.1057 6.58095 34.3468 4.32546 32.7636C2.14981 31.2363 0.700335 29.2075 0.200762 26.5646C0.0128849 25.5696 -0.100893 24.5592 0.128575 23.5517C0.544009 21.7256 2.15985 20.3193 4.02237 20.149C4.25184 20.128 4.48322 20.1165 4.71317 20.1161C9.1835 20.1141 13.6538 20.1146 18.1237 20.1146H18.4531Z" fill="#F5B51B"/>
</g>
<defs>
<clipPath id="clip0_110_989">
<rect width="38" height="38" fill="white"/>
</clipPath>
</defs>
</svg>
