<svg width="37" height="37" viewBox="0 0 37 37" fill="none" xmlns="http://www.w3.org/2000/svg">
<g clip-path="url(#clip0_110_998)">
<path d="M16.7894 30.25H6.79248V20.2467C6.96323 20.2335 7.1549 20.2071 7.34658 20.2071C10.2988 20.2049 13.2522 20.2137 16.2044 20.1961C16.6693 20.1928 16.8378 20.3017 16.8345 20.8036C16.8125 23.7719 16.8257 26.7413 16.8246 29.7097C16.8246 29.8714 16.8048 30.0332 16.7905 30.25H16.7894ZM10.0675 23.5628C10.0675 24.6205 10.0532 25.6231 10.0873 26.6236C10.0917 26.7369 10.3616 26.9273 10.5158 26.9361C11.1548 26.9714 11.7959 26.9515 12.437 26.9515C12.773 26.9515 13.109 26.9515 13.4394 26.9515V23.5628H10.0686H10.0675Z" fill="#0A3E94"/>
<path d="M20.2669 6.75549H30.2539V16.7677C30.0842 16.7798 29.9234 16.8018 29.7626 16.8018C26.7729 16.8018 23.7843 16.793 20.7946 16.8095C20.3727 16.8117 20.214 16.7159 20.2173 16.268C20.2339 13.2622 20.225 10.2576 20.2272 7.25186C20.2272 7.09228 20.2526 6.93159 20.268 6.75659L20.2669 6.75549ZM23.5981 13.4659C24.6446 13.4659 25.6316 13.478 26.6175 13.4504C26.7442 13.4471 26.9678 13.2413 26.9711 13.1236C26.9998 12.2277 26.9965 11.3307 26.9711 10.4348C26.9678 10.3082 26.7927 10.0826 26.6924 10.0793C25.6724 10.0529 24.6512 10.0628 23.5981 10.0628V13.4648V13.4659Z" fill="#0A3E94"/>
<path d="M6.76929 16.7545V6.77643H16.7783C16.7937 6.92391 16.8234 7.08019 16.8234 7.23648C16.8267 10.2422 16.8201 13.2469 16.8323 16.2526C16.8334 16.6378 16.7463 16.8128 16.3167 16.8106C13.273 16.7963 10.2283 16.804 7.18458 16.8007C7.06011 16.8007 6.93452 16.7732 6.77039 16.7545H6.76929ZM13.4372 13.4373V10.0606C12.3896 10.0606 11.386 10.0518 10.3825 10.0738C10.2756 10.076 10.084 10.2532 10.0817 10.3523C10.0597 11.3703 10.0685 12.3906 10.0685 13.4384H13.4372V13.4373Z" fill="#0A3E94"/>
<path d="M0.0529785 0.00992805C1.17439 0.00992805 2.23742 0.00992805 3.30045 0.00992805C5.37363 0.00992805 7.44791 0.0242359 9.52109 2.26428e-05C9.97164 -0.00548036 10.084 0.145302 10.0708 0.565731C10.0443 1.45832 10.0631 2.35201 10.0631 3.31503C9.79979 3.31503 9.60481 3.31503 9.40873 3.31503C7.57349 3.31503 5.73825 3.32824 3.90412 3.30623C3.45357 3.30072 3.30375 3.42399 3.30926 3.88845C3.3335 5.72205 3.31917 7.55565 3.31917 9.38925C3.31917 9.58626 3.31917 9.78216 3.31917 10.0188H0.0529785V0.00992805Z" fill="#0A3E94"/>
<path d="M26.991 3.31499C26.991 2.25841 26.9767 1.28878 27.0108 0.321352C27.0153 0.212393 27.2929 0.0274919 27.4482 0.0241901C28.4561 -0.00332493 29.4663 0.00988228 30.4753 0.00988228C32.4383 0.00988228 34.4014 0.00988228 36.3655 0.00988228H37.0011V10.0165H33.7305C33.7305 9.80743 33.7305 9.61373 33.7305 9.41892C33.7305 7.56661 33.7162 5.7154 33.7382 3.86309C33.7437 3.42395 33.6082 3.30068 33.1764 3.30508C31.3423 3.32599 29.507 3.31389 27.6718 3.31389C27.4735 3.31389 27.2752 3.31389 26.991 3.31389V3.31499Z" fill="#0A3E94"/>
<path d="M3.31913 26.9504C3.31913 27.5425 3.31913 28.0521 3.31913 28.5617C3.31913 30.0464 3.34887 31.5333 3.30371 33.0169C3.28608 33.6003 3.47996 33.7158 4.01974 33.7059C5.7988 33.6729 7.57895 33.6949 9.35911 33.6949C9.5585 33.6949 9.75789 33.6949 10.0113 33.6949V36.967H0.0419184C0.0309026 36.7942 0.0110741 36.6192 0.0110741 36.4442C0.00887093 33.4737 0.0187852 30.5032 5.82598e-05 27.5337C-0.00324649 27.0759 0.13335 26.9273 0.587202 26.9427C1.46516 26.9724 2.34533 26.9515 3.31803 26.9515L3.31913 26.9504Z" fill="#0A3E94"/>
<path d="M36.9956 36.9978C34.8563 36.9978 32.7666 36.9978 30.6769 36.9978C29.5951 36.9978 28.5123 37.0077 27.4305 36.9857C27.2829 36.9824 27.0152 36.8217 27.013 36.7271C26.9822 35.7431 26.9943 34.7581 26.9943 33.7246C27.2477 33.7125 27.4426 33.696 27.6387 33.696C29.4552 33.6938 31.2706 33.6795 33.0871 33.7048C33.5785 33.7114 33.7536 33.5892 33.7437 33.0665C33.7117 31.2527 33.7316 29.4378 33.7316 27.6229C33.7316 27.4259 33.7316 27.2289 33.7316 26.9933H36.9967V37L36.9956 36.9978Z" fill="#0A3E94"/>
<path d="M23.5938 23.5836H30.2682V30.2346H26.9855C26.9855 29.3475 26.9855 28.4758 26.9855 27.6041C26.9855 27.1302 26.7432 26.8924 26.2585 26.891C25.3992 26.8888 24.54 26.891 23.6125 26.891V23.5671L23.5949 23.5847L23.5938 23.5836Z" fill="#0A3E94"/>
<path d="M23.6125 23.5661H20.2362C20.2362 22.4919 20.2296 21.4738 20.2494 20.4547C20.2505 20.371 20.4311 20.2202 20.5303 20.218C21.5162 20.2004 22.5032 20.207 23.5949 20.207C23.5949 21.3671 23.5949 22.4743 23.5949 23.5826L23.6136 23.565L23.6125 23.5661Z" fill="#0A3E94"/>
<path d="M23.5255 30.2401H20.2825V27.0065H23.5255V30.2401Z" fill="#0A3E94"/>
<g clip-path="url(#clip1_110_998)">
<path d="M205.7 -4.91999C321.9 -4.91999 416.01 89.43 415.89 205.79C415.76 321.9 321.69 415.32 205.47 415.69C89.5399 416.07 -7.97004 319.75 -4.63004 198.5C-1.61004 88.56 89.89 -5.17999 205.71 -4.91999H205.7ZM182.32 181.9C179.69 181.9 177.73 181.9 175.77 181.9C154.61 181.9 133.45 181.78 112.29 181.95C98.82 182.06 88.62 192.37 88.69 205.3C88.76 218.64 99 228.66 112.66 228.68C133.99 228.7 155.31 228.68 176.64 228.68C178.39 228.68 180.15 228.84 182.31 228.95C182.31 231.46 182.31 233.44 182.31 235.41C182.32 256.57 182.2 277.74 182.4 298.9C182.53 312.79 193.28 322.92 206.76 322.38C219.32 321.88 228.95 311.64 229.05 298.18C229.21 277.02 229.09 255.86 229.11 234.69C229.11 232.77 229.29 230.86 229.4 228.68H235.5C256.66 228.68 277.82 228.63 298.98 228.71C304.93 228.73 310.13 226.91 314.54 223.03C322.16 216.34 324.53 206.6 321.01 197.15C317.51 187.74 309.5 181.97 299.13 181.9C277.97 181.77 256.81 181.86 235.65 181.86C233.69 181.86 231.72 181.86 229.1 181.86C229.1 179.32 229.1 177.36 229.1 175.41C229.1 154.58 229.28 133.75 229.03 112.92C228.85 98.16 218.77 88.11 205.12 88.37C191.75 88.63 182.34 98.94 182.32 113.43C182.3 134.26 182.32 155.09 182.32 175.92C182.32 177.7 182.32 179.49 182.32 181.87V181.9Z" fill="#0A3E94"/>
</g>
</g>
<defs>
<clipPath id="clip0_110_998">
<rect width="37" height="37" fill="white"/>
</clipPath>
<clipPath id="clip1_110_998">
<rect width="794.88" height="794.7" fill="white" transform="translate(-379 -379)"/>
</clipPath>
</defs>
</svg>
