<svg width="135" height="44" viewBox="0 0 135 44" fill="none" xmlns="http://www.w3.org/2000/svg">
<path d="M134.3 37.8C134.3 41.1 131.7 43.7 128.4 43.7H6.70007C3.40007 43.7 0.800049 41.1 0.800049 37.8V5.90001C0.800049 2.60001 3.40007 0 6.70007 0H128.4C131.7 0 134.3 2.60001 134.3 5.90001V37.8Z" fill="black"/>
<path d="M23.8 7.5H12.9001C11.6001 7.5 10.5001 8.60001 10.5001 9.90001V34C10.5001 35.3 11.6001 36.4 12.9001 36.4H23.8C25.1 36.4 26.2001 35.3 26.2001 34V9.8C26.2001 8.5 25.2 7.5 23.8 7.5ZM18.4001 34.5C17.5001 34.5 16.8 33.8 16.8 32.9C16.8 32 17.5001 31.3 18.4001 31.3C19.3001 31.3 20.0001 32 20.0001 32.9C20.0001 33.8 19.3001 34.5 18.4001 34.5ZM24.4001 30.6H12.5001V12.8H24.4001V30.6Z" fill="white"/>
<path d="M35.1001 11.8001L34.4001 13.8001H33.6001L35.8 7.40009H36.8L39.0001 13.8001H38.1001L37.4001 11.8001H35.1001ZM37.2001 11.1001L36.6001 9.30008C36.5001 8.90008 36.4 8.50008 36.3 8.10008C36.2 8.50008 36.1001 8.90008 36.0001 9.30008L35.4001 11.1001H37.2001Z" fill="white"/>
<path d="M39.8 9.20007L40.7001 11.8001C40.9001 12.2001 41.0001 12.6001 41.1001 13.0001C41.2001 12.6001 41.3001 12.2001 41.5001 11.8001L42.4001 9.20007H43.3L41.5001 13.8001H40.7001L39.0001 9.20007H39.8Z" fill="white"/>
<path d="M47.0001 12.7001C47.0001 13.1001 47.0001 13.5001 47.1001 13.8001H46.4001L46.3 13.2001C46.1 13.6001 45.6001 13.9001 44.9001 13.9001C44.0001 13.9001 43.5001 13.2001 43.5001 12.6001C43.5001 11.5001 44.5001 10.9001 46.2001 10.9001V10.8001C46.2001 10.4001 46.1001 9.70012 45.2001 9.70012C44.8001 9.70012 44.3001 9.80012 44.0001 10.0001L43.8 9.40013C44.2 9.20013 44.7 9.00012 45.3 9.00012C46.7 9.00012 47.0001 10.0001 47.0001 10.9001V12.7001ZM46.2001 11.4001C45.3001 11.4001 44.3 11.5001 44.3 12.4001C44.3 12.9001 44.7001 13.2001 45.1001 13.2001C45.7001 13.2001 46.1001 12.8001 46.2001 12.4001C46.2001 12.3001 46.2001 12.2001 46.2001 12.1001V11.4001Z" fill="white"/>
<path d="M48.7001 8.40009C48.4001 8.40009 48.2001 8.20009 48.2001 7.90009C48.2001 7.60009 48.4001 7.40009 48.7001 7.40009C49.0001 7.40009 49.2001 7.60009 49.2001 7.90009C49.3001 8.10009 49.1001 8.40009 48.7001 8.40009ZM48.3 13.8001V9.20007H49.1001V13.8001H48.3Z" fill="white"/>
<path d="M50.5001 7.1001H51.3V13.8001H50.5001V7.1001Z" fill="white"/>
<path d="M55.9001 12.7001C55.9001 13.1001 55.9001 13.5001 56.0001 13.8001H55.3L55.2001 13.2001C55.0001 13.6001 54.5 13.9001 53.8 13.9001C52.9 13.9001 52.4001 13.2001 52.4001 12.6001C52.4001 11.5001 53.4001 10.9001 55.1001 10.9001V10.8001C55.1001 10.4001 55.0001 9.70012 54.1001 9.70012C53.7001 9.70012 53.2001 9.80012 52.9001 10.0001L52.7001 9.40013C53.1001 9.20013 53.6001 9.00012 54.2001 9.00012C55.6001 9.00012 55.9001 10.0001 55.9001 10.9001V12.7001ZM55.1001 11.4001C54.2001 11.4001 53.2001 11.5001 53.2001 12.4001C53.2001 12.9001 53.6001 13.2001 54.0001 13.2001C54.6001 13.2001 55.0001 12.8001 55.1001 12.4001C55.1001 12.3001 55.1001 12.2001 55.1001 12.1001V11.4001Z" fill="white"/>
<path d="M57.2001 7.1001H58.0001V10.0001C58.3001 9.50009 58.8001 9.20009 59.6001 9.20009C60.7001 9.20009 61.5001 10.1001 61.5001 11.5001C61.5001 13.1001 60.5001 14.0001 59.4001 14.0001C58.7001 14.0001 58.2001 13.7001 57.9001 13.1001V13.9001H57.2001C57.2001 13.6001 57.2001 13.1001 57.2001 12.7001V7.1001ZM58.0001 11.9001C58.0001 12.0001 58.0001 12.1001 58.0001 12.2001C58.2001 12.8001 58.7001 13.2001 59.2001 13.2001C60.1001 13.2001 60.6001 12.5001 60.6001 11.4001C60.6001 10.5001 60.1001 9.70009 59.2001 9.70009C58.6001 9.70009 58.1001 10.1001 57.9001 10.7001C57.9001 10.8001 57.9001 10.9001 57.9001 11.0001V11.9001H58.0001Z" fill="white"/>
<path d="M62.5001 7.1001H63.3V13.8001H62.5001V7.1001Z" fill="white"/>
<path d="M65.1001 11.6001C65.1001 12.7001 65.8001 13.2001 66.7001 13.2001C67.3001 13.2001 67.7001 13.1001 68.0001 13.0001L68.2001 13.6001C67.9001 13.7001 67.4001 13.9001 66.7001 13.9001C65.3001 13.9001 64.5001 13.0001 64.5001 11.6001C64.5001 10.2001 65.3001 9.1001 66.7001 9.1001C68.2001 9.1001 68.6001 10.4001 68.6001 11.3001C68.6001 11.5001 68.6001 11.6001 68.6001 11.7001L65.1001 11.6001ZM67.5001 11.0001C67.5001 10.5001 67.3001 9.6001 66.4001 9.6001C65.6001 9.6001 65.2001 10.4001 65.1001 11.0001H67.5001Z" fill="white"/>
<path d="M73.1001 13.9001C71.9001 13.9001 70.9001 13.0001 70.9001 11.5001C70.9001 10.0001 71.9001 9.1001 73.2001 9.1001C74.5001 9.1001 75.4001 10.1001 75.4001 11.4001C75.4001 13.1001 74.2001 13.9001 73.1001 13.9001ZM73.2001 13.2001C74.0001 13.2001 74.6001 12.5001 74.6001 11.4001C74.6001 10.6001 74.2001 9.70009 73.2001 9.70009C72.2001 9.70009 71.8 10.6001 71.8 11.5001C71.8 12.5001 72.4001 13.2001 73.2001 13.2001Z" fill="white"/>
<path d="M76.4001 10.4001C76.4001 9.9001 76.4001 9.50009 76.4001 9.20009H77.1001V9.9001C77.3001 9.5001 77.9001 9.1001 78.6001 9.1001C79.2001 9.1001 80.2001 9.50009 80.2001 11.0001V13.7001H79.4001V11.1001C79.4001 10.4001 79.1 9.70009 78.3 9.70009C77.8 9.70009 77.3001 10.1001 77.2001 10.5001C77.2001 10.6001 77.1001 10.8001 77.1001 10.9001V13.7001H76.3V10.4001H76.4001Z" fill="white"/>
<path d="M84.6001 8.1001V9.20009H85.8V9.80009H84.6001V12.3001C84.6001 12.9001 84.8001 13.2001 85.2001 13.2001C85.4001 13.2001 85.6001 13.2001 85.7001 13.1001V13.7001C85.5001 13.8001 85.3001 13.8001 85.0001 13.8001C84.6001 13.8001 84.3001 13.7001 84.1001 13.5001C83.9001 13.2001 83.8 12.8001 83.8 12.3001V9.80009H83.1001V9.20009H83.8V8.4001L84.6001 8.1001Z" fill="white"/>
<path d="M86.6001 7.1001H87.4001V10.0001C87.5001 9.80009 87.7001 9.5001 88.0001 9.4001C88.2001 9.2001 88.5001 9.20009 88.9001 9.20009C89.5001 9.20009 90.5001 9.60009 90.5001 11.2001V13.9001H89.7001V11.3001C89.7001 10.6001 89.4001 9.9001 88.6001 9.9001C88.1001 9.9001 87.6001 10.3001 87.5001 10.7001C87.5001 10.8001 87.4001 10.9001 87.4001 11.1001V13.9001H86.6001V7.1001Z" fill="white"/>
<path d="M92.3 11.6001C92.3 12.7001 93.0001 13.2001 93.9001 13.2001C94.5001 13.2001 94.9001 13.1001 95.2001 13.0001L95.4001 13.6001C95.1001 13.7001 94.6001 13.9001 93.9001 13.9001C92.5001 13.9001 91.7001 13.0001 91.7001 11.6001C91.7001 10.2001 92.5001 9.1001 93.9001 9.1001C95.4001 9.1001 95.8 10.4001 95.8 11.3001C95.8 11.5001 95.8 11.6001 95.8 11.7001L92.3 11.6001ZM94.7001 11.0001C94.7001 10.5001 94.5001 9.6001 93.6001 9.6001C92.8001 9.6001 92.4 10.4001 92.3 11.0001H94.7001Z" fill="white"/>
<path d="M98.9001 8.40009C98.6001 8.40009 98.4001 8.20009 98.4001 7.90009C98.4001 7.60009 98.6001 7.40009 98.9001 7.40009C99.2001 7.40009 99.4001 7.60009 99.4001 7.90009C99.4001 8.10009 99.2001 8.40009 98.9001 8.40009ZM98.5001 13.8001V9.20007H99.3V13.8001H98.5001Z" fill="white"/>
<path d="M100.7 7.50008C101.1 7.40008 101.6 7.40009 102.3 7.40009C103.1 7.40009 103.7 7.60009 104.1 7.90009C104.4 8.20009 104.7 8.70007 104.7 9.20007C104.7 9.80007 104.5 10.2001 104.2 10.6001C103.8 11.1001 103.1 11.3001 102.3 11.3001C102.1 11.3001 101.8 11.3001 101.6 11.2001V13.7001H100.8V7.50008H100.7ZM101.5 10.5001C101.7 10.5001 101.9 10.6001 102.2 10.6001C103.2 10.6001 103.8 10.1001 103.8 9.20007C103.8 8.40007 103.2 7.90009 102.3 7.90009C101.9 7.90009 101.7 7.90008 101.5 8.00008V10.5001Z" fill="white"/>
<path d="M105.6 7.1001H106.4V10.0001C106.5 9.80009 106.7 9.5001 107 9.4001C107.2 9.2001 107.5 9.20009 107.9 9.20009C108.5 9.20009 109.5 9.60009 109.5 11.2001V13.9001H108.7V11.3001C108.7 10.6001 108.4 9.9001 107.6 9.9001C107.1 9.9001 106.6 10.3001 106.5 10.7001C106.5 10.8001 106.4 10.9001 106.4 11.1001V13.9001H105.6V7.1001Z" fill="white"/>
<path d="M112.6 13.9001C111.4 13.9001 110.4 13.0001 110.4 11.5001C110.4 10.0001 111.4 9.1001 112.7 9.1001C114 9.1001 114.9 10.1001 114.9 11.4001C114.9 13.1001 113.7 13.9001 112.6 13.9001ZM112.6 13.2001C113.4 13.2001 114 12.5001 114 11.4001C114 10.6001 113.6 9.70009 112.6 9.70009C111.6 9.70009 111.2 10.6001 111.2 11.5001C111.3 12.5001 111.8 13.2001 112.6 13.2001Z" fill="white"/>
<path d="M115.9 10.4001C115.9 9.9001 115.9 9.50009 115.9 9.20009H116.6V9.9001C116.8 9.5001 117.4 9.1001 118.1 9.1001C118.7 9.1001 119.7 9.50009 119.7 11.0001V13.7001H118.9V11.1001C118.9 10.4001 118.6 9.70009 117.8 9.70009C117.3 9.70009 116.8 10.1001 116.7 10.5001C116.7 10.6001 116.6 10.8001 116.6 10.9001V13.7001H115.8V10.4001H115.9Z" fill="white"/>
<path d="M121.6 11.6001C121.6 12.7001 122.3 13.2001 123.2 13.2001C123.8 13.2001 124.2 13.1001 124.5 13.0001L124.7 13.6001C124.4 13.7001 123.9 13.9001 123.2 13.9001C121.8 13.9001 121 13.0001 121 11.6001C121 10.2001 121.8 9.1001 123.2 9.1001C124.7 9.1001 125.1 10.4001 125.1 11.3001C125.1 11.5001 125.1 11.6001 125.1 11.7001L121.6 11.6001ZM124 11.0001C124 10.5001 123.8 9.6001 122.9 9.6001C122 9.6001 121.7 10.4001 121.6 11.0001H124Z" fill="white"/>
<path d="M39.0001 18.1L33.4001 34.6H36.0001L37.7001 29.5H43.1001L44.8 34.6H47.4001L41.8 18.1H39.0001ZM40.4001 20.8C40.6001 21.5 40.8001 22.3 41.1001 23.1L42.6001 27.5H38.3L39.8 23.1C39.9 22.4 40.2001 21.6 40.4001 20.8Z" fill="white"/>
<path d="M54.7001 22.3C53.0001 22.3 51.6001 23 50.7001 24.2L50.6001 22.6001H48.3V22.8C48.4 23.8 48.4001 24.9001 48.4001 26.6001V39.3H50.9001V33.4001C51.7001 34.3001 52.9 34.9001 54.3 34.9001C55.8 34.9001 57.1001 34.3 58.1001 33.3C59.2001 32.1 59.8 30.5 59.8 28.5C59.8 26.7 59.3001 25.2001 58.4001 24.1001C57.4001 22.9001 56.1001 22.3 54.7001 22.3ZM54.1001 24.4001C56.3001 24.4001 57.3 26.5 57.3 28.5C57.3 31.1 56.0001 32.8 54.0001 32.8C52.6001 32.8 51.4001 31.9 51.1001 30.5C51.0001 30.3 51.0001 30 51.0001 29.7V27.7C51.0001 27.5 51.0001 27.3001 51.1001 27.1001C51.1001 27.0001 51.1001 27.0001 51.1001 26.9001C51.4001 25.4001 52.7001 24.4001 54.1001 24.4001Z" fill="white"/>
<path d="M67.5001 22.3C65.8001 22.3 64.4001 23 63.5001 24.2L63.4001 22.6001H61.1001V22.8C61.2001 23.8 61.2001 24.9001 61.2001 26.6001V39.3H63.7001V33.4001C64.5001 34.3001 65.7001 34.9001 67.1001 34.9001C68.6001 34.9001 69.9001 34.3 70.9001 33.3C72.0001 32.1 72.6001 30.5 72.6001 28.5C72.6001 26.7 72.1001 25.2001 71.2001 24.1001C70.3001 22.9001 69.0001 22.3 67.5001 22.3ZM66.9001 24.4001C69.1001 24.4001 70.1001 26.5 70.1001 28.5C70.1001 31.1 68.8 32.8 66.8 32.8C65.4 32.8 64.2001 31.9 63.9001 30.5C63.8001 30.3 63.8 30 63.8 29.7V27.7C63.8 27.5 63.8001 27.3001 63.9001 27.1001C63.9001 27.0001 63.9001 27.0001 63.9001 26.9001C64.3001 25.4001 65.5001 24.4001 66.9001 24.4001Z" fill="white"/>
<path d="M83.6001 25.1001C81.3001 24.2001 80.5001 23.5 80.5001 22.2C80.5001 21.1 81.4 20 83.3 20C84.9 20 85.9001 20.6 86.2001 20.7L86.4001 20.8L87.1001 18.7L87.0001 18.6001C86.6001 18.4001 85.4001 17.8 83.4001 17.8C80.2001 17.8 78.0001 19.7001 78.0001 22.4001C78.0001 24.6001 79.4001 26.1 82.4001 27.2C84.5001 28 85.3 28.8 85.3 30.2C85.3 31.8 84.1001 32.7 82.1001 32.7C80.8001 32.7 79.5001 32.3 78.5001 31.7L78.3 31.6001L77.6001 33.7L77.7001 33.8C78.6001 34.4 80.4001 34.9001 81.9001 34.9001C86.2001 34.9001 87.7001 32.3 87.7001 30C87.8001 27.7 86.6001 26.2001 83.6001 25.1001Z" fill="white"/>
<path d="M92.3 19.8L89.9001 20.6001V22.7H88.1001V24.7H89.9001V30.8C89.9001 32.3 90.2 33.3 90.8 34C91.4 34.6 92.2001 34.9001 93.2001 34.9001C94.1001 34.9001 94.8001 34.7001 95.1001 34.6001H95.2001L95.1001 32.6001L94.9001 32.7C94.6001 32.8 94.3001 32.8 93.7001 32.8C92.7001 32.8 92.3 32.2 92.3 30.8V24.8H95.3V22.8H92.3V19.8Z" fill="white"/>
<path d="M101.5 22.3C98.0001 22.3 95.6001 24.9001 95.6001 28.6001C95.6001 32.2001 98 34.7 101.3 34.7C104.2 34.7 107.2 32.7 107.2 28.3C107.2 26.5 106.7 25.0001 105.6 23.9001C104.6 22.9001 103.2 22.3 101.5 22.3ZM101.4 24.3C103.6 24.3 104.7 26.5 104.7 28.5C104.7 31 103.3 32.8 101.4 32.8C99.5001 32.8 98.1001 31.0001 98.1001 28.6001C98.1001 26.5001 99.1001 24.3 101.4 24.3Z" fill="white"/>
<path d="M114.9 22.5H114.8C114.6 22.4 114.4 22.4 114.2 22.4C112.9 22.4 111.7 23.2 111.1 24.4L111 22.7H108.8V22.9C108.9 23.9 108.9 25 108.9 26.5V34.6H111.4V28.2C111.4 27.9 111.4 27.5 111.5 27.2C111.8 25.7 112.8 24.7 114.1 24.7C114.4 24.7 114.6 24.7 114.8 24.7H115.1V22.5H114.9Z" fill="white"/>
<path d="M120.5 22.3C117.2 22.3 114.9 25 114.9 28.7C114.9 32.4 117.2 34.7 120.8 34.7C122.7 34.7 124 34.3001 124.7 33.9001L124.8 33.8L124.3 31.9001L124.1 32C123.4 32.3 122.5 32.6001 121 32.6001C119.9 32.6001 117.4 32.2 117.3 29H125.3V28.8C125.4 28.5 125.4 28.2 125.4 27.8C125.4 25.4 124.1 22.3 120.5 22.3ZM120.3 24.2C121.1 24.2 121.7 24.4001 122.1 24.9001C122.8 25.6001 122.9 26.7 123 27.2H117.3C117.6 25.8 118.5 24.2 120.3 24.2Z" fill="white"/>
</svg>
