<svg width="41" height="42" viewBox="0 0 41 42" fill="none" xmlns="http://www.w3.org/2000/svg">
<path d="M20.6001 41.2C31.7562 41.2 40.8 32.1562 40.8 21.0001C40.8 9.84391 31.7562 0.800049 20.6001 0.800049C9.44395 0.800049 0.400146 9.84391 0.400146 21.0001C0.400146 32.1562 9.44395 41.2 20.6001 41.2Z" fill="#104A64"/>
<path d="M22.5001 32.1001V22.4001H25.7001L26.3 18.4001H22.5001V15.8001C22.5001 14.7001 23 13.6001 24.8 13.6001H26.5001V10.2001C26.5001 10.2001 24.9001 9.90015 23.4001 9.90015C20.2001 9.90015 18.2001 11.8001 18.2001 15.3001V18.4001H14.7001V22.4001H18.2001V32.1001H22.5001Z" fill="white"/>
</svg>
