<svg width="135" height="44" viewBox="0 0 135 44" fill="none" xmlns="http://www.w3.org/2000/svg">
<path d="M134.1 37.8C134.1 41.1 131.5 43.7 128.2 43.7H6.50012C3.20012 43.7 0.600098 41.1 0.600098 37.8V5.90001C0.600098 2.60001 3.20012 0 6.50012 0H128.2C131.5 0 134.1 2.60001 134.1 5.90001V37.8Z" fill="black"/>
<mask id="mask0_239_22" style="mask-type:luminance" maskUnits="userSpaceOnUse" x="10" y="8" width="26" height="30">
<path d="M29.5001 19.2L23.5001 15.7C23.5001 15.7 12.5001 9.39996 11.9001 8.99996C11.3001 8.59996 10.6001 8.89997 10.6001 9.59997C10.6001 10.9 10.6001 23.1 10.6001 23.1C10.6001 23.1 10.6001 36.3 10.6001 36.9C10.6001 37.5 11.1001 37.7 11.6001 37.4C12.2001 37.1 23.5001 30.5 23.5001 30.5L29.5001 27C29.5001 27 34.6 24.1 35.3 23.7C36 23.3 35.9 22.8 35.3 22.5C34.8 22.3 29.5001 19.2 29.5001 19.2Z" fill="white"/>
</mask>
<g mask="url(#mask0_239_22)">
<path d="M10.6001 8.39996V23.2V38L25.5001 23.2L10.6001 8.39996Z" fill="url(#paint0_linear_239_22)"/>
</g>
<mask id="mask1_239_22" style="mask-type:luminance" maskUnits="userSpaceOnUse" x="10" y="8" width="26" height="30">
<path d="M29.5001 19.2L23.5001 15.7C23.5001 15.7 12.5001 9.39996 11.9001 8.99996C11.3001 8.59996 10.6001 8.89997 10.6001 9.59997C10.6001 10.9 10.6001 23.1 10.6001 23.1C10.6001 23.1 10.6001 36.3 10.6001 36.9C10.6001 37.5 11.1001 37.7 11.6001 37.4C12.2001 37.1 23.5001 30.5 23.5001 30.5L29.5001 27C29.5001 27 34.6 24.1 35.3 23.7C36 23.3 35.9 22.8 35.3 22.5C34.8 22.3 29.5001 19.2 29.5001 19.2Z" fill="white"/>
</mask>
<g mask="url(#mask1_239_22)">
<path d="M29.5001 19.1999L23.5001 15.6999L10.6001 8.29993V8.39993L25.5001 23.1999L29.5001 19.1999Z" fill="url(#paint1_linear_239_22)"/>
</g>
<mask id="mask2_239_22" style="mask-type:luminance" maskUnits="userSpaceOnUse" x="10" y="8" width="26" height="30">
<path d="M29.5001 19.2L23.5001 15.7C23.5001 15.7 12.5001 9.39996 11.9001 8.99996C11.3001 8.59996 10.6001 8.89997 10.6001 9.59997C10.6001 10.9 10.6001 23.1 10.6001 23.1C10.6001 23.1 10.6001 36.3 10.6001 36.9C10.6001 37.5 11.1001 37.7 11.6001 37.4C12.2001 37.1 23.5001 30.5 23.5001 30.5L29.5001 27C29.5001 27 34.6 24.1 35.3 23.7C36 23.3 35.9 22.8 35.3 22.5C34.8 22.3 29.5001 19.2 29.5001 19.2Z" fill="white"/>
</mask>
<g mask="url(#mask2_239_22)">
<path d="M10.6001 38V38.1L23.5001 30.6L29.5001 27.2L25.5001 23.2L10.6001 38Z" fill="url(#paint2_linear_239_22)"/>
</g>
<mask id="mask3_239_22" style="mask-type:luminance" maskUnits="userSpaceOnUse" x="10" y="8" width="26" height="30">
<path d="M29.5001 19.2L23.5001 15.7C23.5001 15.7 12.5001 9.39996 11.9001 8.99996C11.3001 8.59996 10.6001 8.89997 10.6001 9.59997C10.6001 10.9 10.6001 23.1 10.6001 23.1C10.6001 23.1 10.6001 36.3 10.6001 36.9C10.6001 37.5 11.1001 37.7 11.6001 37.4C12.2001 37.1 23.5001 30.5 23.5001 30.5L29.5001 27C29.5001 27 34.6 24.1 35.3 23.7C36 23.3 35.9 22.8 35.3 22.5C34.8 22.3 29.5001 19.2 29.5001 19.2Z" fill="white"/>
</mask>
<g mask="url(#mask3_239_22)">
<path d="M29.5001 19.2L25.5001 23.2L29.5001 27.2L36.4001 23.2L29.5001 19.2Z" fill="url(#paint3_linear_239_22)"/>
</g>
<path d="M104.5 29.0001C103.9 29.0001 103.4 28.9001 103 28.7001C102.5 28.5001 102.1 28.2001 101.8 27.7001H101.7C101.8 28.2001 101.8 28.7001 101.8 29.1001V32.6001H100.5V20.1001H101.6L101.8 21.3001H101.9C102.2 20.8001 102.6 20.5001 103.1 20.3001C103.5 20.1001 104.1 20.0001 104.6 20.0001C105.7 20.0001 106.6 20.4001 107.2 21.2001C107.8 22.0001 108.1 23.1001 108.1 24.5001C108.1 25.9001 107.8 27.0001 107.2 27.8001C106.5 28.6001 105.6 29.0001 104.5 29.0001ZM104.3 21.2001C103.4 21.2001 102.8 21.4001 102.4 21.9001C102 22.4001 101.8 23.2001 101.8 24.2001V24.5001C101.8 25.7001 102 26.6001 102.4 27.1001C102.8 27.6001 103.4 27.9001 104.3 27.9001C105 27.9001 105.6 27.6001 106 27.0001C106.4 26.4001 106.6 25.6001 106.6 24.5001C106.6 23.4001 106.4 22.6001 106 22.0001C105.7 21.5001 105.1 21.2001 104.3 21.2001Z" fill="#F9F9F9"/>
<path d="M111.1 28.8001H109.8V16.6001H111.1V28.8001Z" fill="#F9F9F9"/>
<path d="M118.6 28.8001L118.3 27.6001H118.2C117.8 28.1001 117.3 28.5001 116.9 28.7001C116.5 28.9001 115.9 29.0001 115.3 29.0001C114.4 29.0001 113.8 28.8001 113.3 28.3001C112.8 27.9001 112.6 27.2001 112.6 26.4001C112.6 24.7001 114 23.8001 116.8 23.7001H118.3V23.2001C118.3 22.5001 118.2 22.0001 117.9 21.7001C117.6 21.4001 117.1 21.2001 116.5 21.2001C115.8 21.2001 115 21.4001 114.1 21.9001L113.7 20.9001C114.1 20.7001 114.6 20.5001 115.1 20.4001C115.6 20.3001 116.1 20.2001 116.6 20.2001C117.6 20.2001 118.4 20.4001 118.9 20.9001C119.4 21.4001 119.6 22.1001 119.6 23.1001V29.0001H118.6V28.8001ZM115.6 27.9001C116.4 27.9001 117 27.7001 117.5 27.2001C118 26.8001 118.2 26.1001 118.2 25.3001V24.5001L116.9 24.6001C115.9 24.6001 115.1 24.8001 114.7 25.1001C114.2 25.4001 114 25.8001 114 26.4001C114 26.9001 114.1 27.2001 114.4 27.5001C114.7 27.8001 115.1 27.9001 115.6 27.9001Z" fill="#F9F9F9"/>
<path d="M120.3 20.2001H121.7L123.6 25.1001C124 26.2001 124.3 27.0001 124.4 27.5001H124.5C124.6 27.2001 124.7 26.8001 124.9 26.1001C125.1 25.5001 125.8 23.5001 127 20.1001H128.4L124.7 29.9001C124.3 30.9001 123.9 31.6001 123.4 32.0001C122.9 32.4001 122.3 32.6001 121.6 32.6001C121.2 32.6001 120.8 32.6001 120.4 32.5001V31.5001C120.7 31.6001 121 31.6001 121.4 31.6001C122.3 31.6001 122.9 31.1001 123.3 30.1001L123.8 28.9001L120.3 20.2001Z" fill="#F9F9F9"/>
<path d="M80.4001 21.0001C80.8001 21.3001 81.7001 22.1001 81.7001 23.4001C81.7001 24.7001 80.9001 25.4001 80.2001 26.0001C80.0001 26.2001 79.7001 26.5001 79.7001 26.9001C79.7001 27.3001 80.0001 27.5001 80.2001 27.7001L80.8 28.2001C81.6 28.9001 82.3 29.5001 82.3 30.7001C82.3 32.4001 80.7001 34.1001 77.6001 34.1001C75.0001 34.1001 73.7001 32.9001 73.7001 31.5001C73.7001 30.9001 74.0001 29.9001 75.1001 29.3001C76.2001 28.6001 77.7001 28.5001 78.5001 28.5001C78.2001 28.2001 78.0001 27.8001 78.0001 27.3001C78.0001 27.0001 78.1001 26.8001 78.2001 26.6001C78.0001 26.6001 77.8001 26.6001 77.6001 26.6001C75.7001 26.6001 74.6001 25.2001 74.6001 23.8001C74.6001 23.0001 75 22.1001 75.8 21.4001C76.8 20.6001 78.0001 20.4001 79.0001 20.4001H82.7001L81.5001 21.0001H80.4001ZM79.1001 29.0001C79.0001 29.0001 78.9001 29.0001 78.7001 29.0001C78.5001 29.0001 77.6 29.0001 76.8 29.3001C76.4 29.4001 75.3 29.9001 75.3 31.2001C75.3 32.5001 76.5001 33.4001 78.5001 33.4001C80.2001 33.4001 81.1001 32.6001 81.1001 31.5001C81.0001 30.5001 80.4001 30.0001 79.1001 29.0001ZM79.6001 25.6001C80.0001 25.2001 80.0001 24.6001 80.0001 24.3001C80.0001 23.0001 79.2001 21.0001 77.7001 21.0001C77.2001 21.0001 76.7001 21.2001 76.4001 21.6001C76.1001 22.0001 76.0001 22.5001 76.0001 22.9001C76.0001 24.1001 76.7001 26.1001 78.2001 26.1001C78.8001 26.1001 79.3001 25.9001 79.6001 25.6001Z" fill="#F9F9F9"/>
<path d="M69.0001 28.7001C66.1001 28.7001 64.6001 26.5001 64.6001 24.5001C64.6001 22.1001 66.5 20.1001 69.3 20.1001C71.9 20.1001 73.6001 22.2001 73.6001 24.3001C73.6001 26.5001 72.0001 28.7001 69.0001 28.7001ZM71.3 27.3001C71.7 26.7001 71.8 26.0001 71.8 25.3001C71.8 23.7001 71 20.7001 68.8 20.7001C68.2 20.7001 67.6001 20.9001 67.2001 21.3001C66.5001 21.9001 66.4001 22.7001 66.4001 23.5001C66.4001 25.3001 67.3001 28.2001 69.5001 28.2001C70.1001 28.2001 70.9 27.8001 71.3 27.3001Z" fill="#F9F9F9"/>
<path d="M59.3 28.7001C56.4 28.7001 54.9001 26.5001 54.9001 24.5001C54.9001 22.1001 56.8001 20.1001 59.6001 20.1001C62.2001 20.1001 63.9001 22.2001 63.9001 24.3001C63.9001 26.5001 62.2 28.7001 59.3 28.7001ZM61.5001 27.3001C61.9001 26.7001 62.0001 26.0001 62.0001 25.3001C62.0001 23.7001 61.2001 20.7001 59.0001 20.7001C58.4001 20.7001 57.8001 20.9001 57.4001 21.3001C56.7001 21.9001 56.6001 22.7001 56.6001 23.5001C56.6001 25.3001 57.5001 28.2001 59.7001 28.2001C60.4001 28.2001 61.1001 27.8001 61.5001 27.3001Z" fill="#F9F9F9"/>
<path d="M53.5001 28.4001L50.9001 29.0001C49.9001 29.2001 48.9001 29.3001 47.9001 29.3001C42.9001 29.3001 41.0001 25.6001 41.0001 22.8001C41.0001 19.3001 43.7 16.0001 48.3 16.0001C49.3 16.0001 50.2001 16.1001 51.1001 16.4001C52.5001 16.8001 53.1001 17.2001 53.5001 17.5001L52.0001 18.9001L51.4001 19.0001L51.9001 18.3001C51.3001 17.7001 50.2001 16.6001 48.0001 16.6001C45.1001 16.6001 43.0001 18.8001 43.0001 21.9001C43.0001 25.3001 45.5001 28.5001 49.4001 28.5001C50.6001 28.5001 51.2001 28.3001 51.7001 28.0001V25.1001L49.0001 25.2001L50.4001 24.4001H54.2001L53.7001 24.9001C53.6001 25.0001 53.6001 25.0001 53.5001 25.2001C53.5001 25.4001 53.5001 25.9001 53.5001 26.1001V28.4001Z" fill="#F9F9F9"/>
<path d="M86.1001 27.9001C85.5001 27.8001 85.4001 27.7001 85.4001 27.0001V26.8001V16.8001V16.7001C85.5001 16.1001 85.7001 16.0001 86.2001 15.6001H83.6001L82.2001 16.3001H83.6001V26.8001V27.4001C83.6001 27.8001 83.5001 27.8001 83.1001 28.4001H86.3L87.0001 28.0001C86.7001 28.0001 86.4001 27.9001 86.1001 27.9001Z" fill="#F9F9F9"/>
<path d="M93.4001 28.1001C93.2001 28.2001 93 28.3001 92.8 28.4001C92.2 28.7001 91.6001 28.7001 91.1001 28.7001C90.5001 28.7001 89.6001 28.7001 88.7001 28.0001C87.4001 27.1001 86.9001 25.6001 86.9001 24.2001C86.9001 21.4001 89.2001 20.1001 91.0001 20.1001C91.6001 20.1001 92.3 20.3001 92.8 20.6001C93.7 21.2001 93.9001 22.0001 94.1001 22.4001L89.9001 24.1001L88.5001 24.2001C88.9001 26.5001 90.5001 27.8001 92.2001 27.8001C93.1001 27.8001 93.8001 27.5001 94.4001 27.2001L93.4001 28.1001ZM91.7001 22.7001C92.0001 22.6001 92.2001 22.5001 92.2001 22.2001C92.2001 21.5001 91.4001 20.7001 90.4001 20.7001C89.7001 20.7001 88.3 21.3001 88.3 23.2001C88.3 23.5001 88.3001 23.8001 88.4001 24.2001L91.7001 22.7001Z" fill="#F9F9F9"/>
<path d="M95.1001 20.2001V21.4001H95.0001V20.2001H94.6001V20.1001H95.5001V20.2001H95.1001Z" fill="#F9F9F9"/>
<path d="M96.8 21.4001V20.2001L96.4001 21.4001H96.3L95.9001 20.2001V21.4001H95.8V20.1001H96.0001L96.3 21.2001L96.6001 20.1001H96.8V21.4001Z" fill="#F9F9F9"/>
<path d="M44.7001 12.5H43.8C43.8 12.4 43.7001 12 43.5001 11.5H42.2001C42.0001 12.1 41.9001 12.4 41.9001 12.5H41.1001C41.1001 12.4 41.3 11.8 41.8 10.7C42.2 9.60004 42.5001 9.00005 42.5001 8.80005H43.6001C43.6001 8.90005 43.8001 9.50005 44.2001 10.6001C44.5001 11.8001 44.7001 12.4 44.7001 12.5ZM43.4001 10.9001C43.1001 9.90005 42.9001 9.40005 42.9001 9.30005C42.9001 9.40005 42.7001 9.90005 42.4001 10.9001H43.4001Z" fill="#F8F8F8"/>
<path d="M48.3 12.5H47.6001C47.6001 12.4 47.3 12 46.8 11.3C46.3 10.5 46.0001 10 45.9001 9.70001C45.9001 10.1 46.0001 10.5 46.0001 10.8C46.0001 11.3 46.0001 11.8 46.0001 12.5H45.3C45.3 11.9 45.3 11.3 45.3 10.6C45.3 9.90002 45.3 9.30002 45.3 8.90002H46.1001C46.1001 9.00002 46.3 9.40002 46.8 10.1C47.3 10.8 47.6001 11.3 47.6001 11.6C47.6001 11.2 47.5001 10.8 47.5001 10.5C47.5001 10 47.5001 9.50002 47.5001 8.90002H48.2001C48.2001 9.40002 48.2001 9.90002 48.2001 10.6C48.3001 11.3 48.3 12 48.3 12.5Z" fill="#F8F8F8"/>
<path d="M52.4001 10.6001C52.4001 11.1001 52.2001 11.6001 51.9001 12.0001C51.6001 12.4001 51.1001 12.6001 50.5001 12.6001C50.2001 12.6001 49.8001 12.6001 49.4001 12.6001C49.4001 12.0001 49.4001 11.4001 49.4001 10.7001C49.4001 10.0001 49.4001 9.40006 49.4001 9.00006H49.9001C50.0001 9.00006 50.1 9.00006 50.3 9.00006C50.5 9.00006 50.6001 9.00006 50.6001 9.00006C51.3001 9.00006 51.8001 9.20006 52.1001 9.50006C52.2001 9.70006 52.4001 10.1001 52.4001 10.6001ZM51.6001 10.7001C51.6001 10.3001 51.5 10.0001 51.3 9.80006C51.1 9.60006 50.8 9.40007 50.3 9.40007C50.2 9.40007 50.1001 9.40007 50.0001 9.40007C50.0001 9.80007 50.0001 10.2001 50.0001 10.6001C50.0001 11.0001 50.0001 11.5001 50.0001 11.9001C50.1001 11.9001 50.2001 11.9001 50.4001 11.9001C50.8001 11.9001 51.1 11.8001 51.3 11.5001C51.5 11.4001 51.6001 11.1001 51.6001 10.7001Z" fill="#F8F8F8"/>
<path d="M56.1001 12.5001H55.3C55.1 11.8001 54.9 11.4001 54.8 11.3001C54.7 11.1001 54.5001 11.1001 54.2001 11.1001C54.1001 11.1001 54.0001 11.1001 53.9001 11.1001C53.9001 11.6001 53.9001 12.1001 53.9001 12.6001H53.1001C53.1001 12.0001 53.1001 11.4001 53.1001 10.7001C53.1001 10.0001 53.1001 9.40006 53.1001 9.00006H53.6001C53.7001 9.00006 53.8001 9.00006 54.0001 9.00006C54.2001 9.00006 54.3001 9.00006 54.5001 9.00006C55.4001 9.00006 55.8 9.30007 55.8 9.90007C55.8 10.4001 55.6001 10.7001 55.1001 10.9001C55.3001 11.0001 55.5001 11.1001 55.6001 11.3001C55.7001 11.4001 55.9001 11.9001 56.1001 12.5001ZM55.1001 10.0001C55.1001 9.60006 54.9001 9.40007 54.4001 9.40007C54.2001 9.40007 54.1001 9.40007 53.9001 9.40007C53.9001 9.70007 53.9001 10.1001 53.9001 10.5001C54.0001 10.5001 54.1001 10.5001 54.2001 10.5001C54.8001 10.6001 55.1001 10.4001 55.1001 10.0001Z" fill="#F8F8F8"/>
<path d="M60.1001 10.6001C60.1001 11.2001 59.9001 11.6 59.6001 12C59.2001 12.4 58.8 12.6001 58.3 12.6001C57.8 12.6001 57.4001 12.4001 57.1001 12.1001C56.8001 11.8001 56.6001 11.3 56.6001 10.8C56.6001 10.2 56.8001 9.80005 57.1001 9.40005C57.5001 9.00005 57.9001 8.80005 58.4001 8.80005C58.9001 8.80005 59.3001 9.00005 59.6001 9.30005C60.0001 9.70005 60.1001 10.1001 60.1001 10.6001ZM59.4001 10.7C59.4001 10.3 59.3001 10 59.1001 9.70004C58.9001 9.50004 58.7001 9.30005 58.4001 9.30005C58.1001 9.30005 57.9001 9.40004 57.7001 9.70004C57.5001 9.90004 57.4001 10.3001 57.4001 10.6001C57.4001 11.0001 57.5001 11.3 57.7001 11.5C57.9001 11.7 58.1001 11.9001 58.4001 11.9001C58.7001 11.9001 58.9001 11.8 59.1001 11.5C59.3001 11.4 59.4001 11.1 59.4001 10.7Z" fill="#F8F8F8"/>
<path d="M61.7001 12.5H60.9001C60.9001 11.9 60.9001 11.3 60.9001 10.6C60.9001 9.90002 60.9001 9.30002 60.9001 8.90002H61.7001C61.7001 9.40002 61.7001 10 61.7001 10.6C61.7001 11.3 61.7001 12 61.7001 12.5Z" fill="#F8F8F8"/>
<path d="M65.8 10.6001C65.8 11.1001 65.6 11.6001 65.3 12.0001C65 12.4001 64.5001 12.6001 63.9001 12.6001C63.6001 12.6001 63.2 12.6001 62.8 12.6001C62.8 12.0001 62.8 11.4001 62.8 10.7001C62.8 10.0001 62.8 9.40006 62.8 9.00006H63.3C63.4 9.00006 63.5001 9.00006 63.7001 9.00006C63.9001 9.00006 64.0001 9.00006 64.0001 9.00006C64.7001 9.00006 65.2001 9.20006 65.5001 9.50006C65.6001 9.70006 65.8 10.1001 65.8 10.6001ZM65.0001 10.7001C65.0001 10.3001 64.9001 10.0001 64.7001 9.80006C64.5001 9.60006 64.2001 9.40007 63.7001 9.40007C63.6001 9.40007 63.5001 9.40007 63.4001 9.40007C63.4001 9.80007 63.4001 10.2001 63.4001 10.6001C63.4001 11.0001 63.4001 11.5001 63.4001 11.9001C63.5001 11.9001 63.6 11.9001 63.8 11.9001C64.2 11.9001 64.5001 11.8001 64.7001 11.5001C64.9001 11.4001 65.0001 11.1001 65.0001 10.7001Z" fill="#F8F8F8"/>
<path d="M71.2001 12.5H70.3C70.3 12.4 70.2001 12 70.0001 11.5H68.7001C68.5001 12.1 68.4001 12.4 68.4001 12.5H67.6001C67.6001 12.4 67.8 11.8 68.3 10.7C68.7 9.60004 69.0001 9.00005 69.0001 8.80005H70.1001C70.1001 8.90005 70.3001 9.50005 70.7001 10.6001C71.0001 11.8001 71.2001 12.4 71.2001 12.5ZM69.9001 10.9001C69.6001 9.90005 69.4001 9.40005 69.4001 9.30005C69.4001 9.40005 69.2001 9.90005 68.9001 10.9001H69.9001Z" fill="#F8F8F8"/>
<path d="M74.4001 9.80002C74.4001 10.2 74.2001 10.6 73.9001 10.8C73.6001 11 73.2001 11.1 72.7001 11.1C72.6001 11.1 72.5001 11.1 72.5001 11.1C72.5001 11.5 72.5001 11.9 72.5001 12.5H71.7001C71.7001 12 71.7001 11.3 71.7001 10.6C71.7001 9.90002 71.7001 9.30002 71.7001 8.90002H72.2001C72.3001 8.90002 72.4001 8.90002 72.6001 8.90002C72.8001 8.90002 73.0001 8.90002 73.1001 8.90002C73.5001 8.90002 73.8001 9.00002 74.0001 9.10002C74.3001 9.30002 74.4001 9.50002 74.4001 9.80002ZM73.7001 10C73.7001 9.60002 73.4001 9.40002 72.9001 9.40002C72.8001 9.40002 72.6001 9.40002 72.5001 9.40002C72.5001 9.80002 72.5001 10.2 72.5001 10.6C72.5001 10.6 72.6001 10.6 72.7001 10.6C73.4001 10.6 73.7001 10.4 73.7001 10Z" fill="#F8F8F8"/>
<path d="M77.8 9.80002C77.8 10.2 77.6 10.6 77.3 10.8C77 11 76.6001 11.1 76.1001 11.1C76.0001 11.1 75.9001 11.1 75.9001 11.1C75.9001 11.5 75.9001 11.9 75.9001 12.5H75.1001C75.1001 12 75.1001 11.3 75.1001 10.6C75.1001 9.90002 75.1001 9.30002 75.1001 8.90002H75.6001C75.7001 8.90002 75.8001 8.90002 76.0001 8.90002C76.2001 8.90002 76.4001 8.90002 76.5001 8.90002C76.9001 8.90002 77.2001 9.00002 77.4001 9.10002C77.7001 9.30002 77.8 9.50002 77.8 9.80002ZM77.1001 10C77.1001 9.60002 76.8 9.40002 76.3 9.40002C76.2 9.40002 76.0001 9.40002 75.9001 9.40002C75.9001 9.80002 75.9001 10.2 75.9001 10.6C75.9001 10.6 76.0001 10.6 76.1001 10.6C76.7001 10.6 77.1001 10.4 77.1001 10Z" fill="#F8F8F8"/>
<path d="M83.3 10.6001C83.3 11.2001 83.1 11.6 82.8 12C82.4 12.4 82.0001 12.6001 81.5001 12.6001C81.0001 12.6001 80.6 12.4001 80.3 12.1001C80 11.8001 79.8 11.3 79.8 10.8C79.8 10.2 80 9.80005 80.3 9.40005C80.7 9.00005 81.1001 8.80005 81.6001 8.80005C82.1001 8.80005 82.5 9.00005 82.8 9.30005C83.1 9.70005 83.3 10.1001 83.3 10.6001ZM82.5001 10.7C82.5001 10.3 82.4001 10 82.2001 9.70004C82.0001 9.40004 81.8001 9.30005 81.5001 9.30005C81.2001 9.30005 81 9.40004 80.8 9.70004C80.6 9.90004 80.5001 10.3001 80.5001 10.6001C80.5001 11.0001 80.6 11.3 80.8 11.5C81 11.7 81.2001 11.9001 81.5001 11.9001C81.8001 11.9001 82.0001 11.8 82.2001 11.5C82.4001 11.4 82.5001 11.1 82.5001 10.7Z" fill="#F8F8F8"/>
<path d="M87.1001 12.5H86.4001C86.4001 12.4 86.1001 12 85.6001 11.3C85.1001 10.5 84.8001 10 84.7001 9.70001C84.7001 10.1 84.8 10.5 84.8 10.8C84.8 11.3 84.8 11.8 84.8 12.5H84.1001C84.1001 11.9 84.1001 11.3 84.1001 10.6C84.1001 9.90002 84.1001 9.30002 84.1001 8.90002H84.9001C84.9001 9.00002 85.1001 9.40002 85.6001 10.1C86.1001 10.8 86.4001 11.3 86.4001 11.6C86.4001 11.2 86.3 10.8 86.3 10.5C86.3 10 86.3 9.50002 86.3 8.90002H87.0001C87.0001 9.40002 87.0001 9.90002 87.0001 10.6C87.1001 11.3 87.1001 12 87.1001 12.5Z" fill="#F8F8F8"/>
<defs>
<linearGradient id="paint0_linear_239_22" x1="18.0585" y1="8.40646" x2="18.0585" y2="37.9792" gradientUnits="userSpaceOnUse">
<stop stop-color="#257DAF"/>
<stop offset="0.201" stop-color="#3B8FB2"/>
<stop offset="0.7393" stop-color="#72BCB8"/>
<stop offset="1" stop-color="#88CDBB"/>
</linearGradient>
<linearGradient id="paint1_linear_239_22" x1="10.6023" y1="15.746" x2="29.5199" y2="15.746" gradientUnits="userSpaceOnUse">
<stop stop-color="#51BEAB"/>
<stop offset="1" stop-color="#DDE798"/>
</linearGradient>
<linearGradient id="paint2_linear_239_22" x1="20.0609" y1="23.1931" x2="20.0609" y2="38.0867" gradientUnits="userSpaceOnUse">
<stop stop-color="#EA403D"/>
<stop offset="0.1937" stop-color="#D54251"/>
<stop offset="0.7369" stop-color="#9E4886"/>
<stop offset="1" stop-color="#884A9B"/>
</linearGradient>
<linearGradient id="paint3_linear_239_22" x1="30.9568" y1="19.2214" x2="30.9568" y2="27.1644" gradientUnits="userSpaceOnUse">
<stop stop-color="#F38679"/>
<stop offset="0.6121" stop-color="#F9AF76"/>
<stop offset="1" stop-color="#FCC574"/>
</linearGradient>
</defs>
</svg>
