<svg width="41" height="42" viewBox="0 0 41 42" fill="none" xmlns="http://www.w3.org/2000/svg">
<path d="M20.7001 41.2C31.8562 41.2 40.9001 32.1562 40.9001 21.0001C40.9001 9.84391 31.8562 0.800049 20.7001 0.800049C9.54392 0.800049 0.500122 9.84391 0.500122 21.0001C0.500122 32.1562 9.54392 41.2 20.7001 41.2Z" fill="#104A64"/>
<path d="M25.9001 14.7C25.3001 14.7 24.8 15.2 24.8 15.8C24.8 16.4 25.3001 16.9 25.9001 16.9C26.5001 16.9 27.0001 16.4 27.0001 15.8C27.0001 15.2 26.5001 14.7 25.9001 14.7Z" fill="white"/>
<path d="M20.8 16.2C18.1 16.2 16.0001 18.4 16.0001 21C16.0001 23.7 18.2 25.8 20.8 25.8C23.4 25.8 25.6001 23.6 25.6001 21C25.6001 18.4 23.4 16.2 20.8 16.2ZM20.8 24.0999C19.1 24.0999 17.7001 22.7 17.7001 21C17.7001 19.3 19.1 17.9 20.8 17.9C22.5 17.9 23.9001 19.3 23.9001 21C23.9001 22.7 22.5 24.0999 20.8 24.0999Z" fill="white"/>
<path d="M24.6001 30.8H16.8C13.6 30.8 10.9001 28.2 10.9001 24.9V17.0999C10.9001 13.8999 13.5 11.2 16.8 11.2H24.6001C27.8001 11.2 30.5001 13.7999 30.5001 17.0999V24.9C30.5001 28.1 27.8001 30.8 24.6001 30.8ZM16.8 13.0999C14.6 13.0999 12.8 14.8999 12.8 17.0999V24.9C12.8 27.1 14.6 28.9 16.8 28.9H24.6001C26.8001 28.9 28.6001 27.1 28.6001 24.9V17.0999C28.6001 14.8999 26.8001 13.0999 24.6001 13.0999H16.8Z" fill="white"/>
</svg>
