<svg width="42" height="42" viewBox="0 0 42 42" fill="none" xmlns="http://www.w3.org/2000/svg">
<path d="M20.9001 41.2C32.0563 41.2 41.1001 32.1562 41.1001 21.0001C41.1001 9.84391 32.0563 0.800049 20.9001 0.800049C9.74399 0.800049 0.700073 9.84391 0.700073 21.0001C0.700073 32.1562 9.74399 41.2 20.9001 41.2Z" fill="#104A64"/>
<path d="M11.3 17.7001H15.4001V30.9001H11.3V17.7001ZM13.3 11.1001C14.6 11.1001 15.7001 12.2001 15.7001 13.5001C15.7001 14.8001 14.6 15.9001 13.3 15.9001C12 15.9001 10.9001 14.8001 10.9001 13.5001C10.9001 12.2001 12 11.1001 13.3 11.1001Z" fill="white"/>
<path d="M18.0001 17.7001H21.9001V19.5002H22.0001C22.5001 18.5002 23.9001 17.4001 25.9001 17.4001C30.1001 17.4001 30.8 20.1001 30.8 23.7001V30.9001H26.7001V24.5002C26.7001 23.0002 26.7001 21.0002 24.6001 21.0002C22.5001 21.0002 22.1001 22.7001 22.1001 24.4001V30.9001H18.0001V17.7001Z" fill="white"/>
</svg>
