<svg width="42" height="41" viewBox="0 0 42 41" fill="none" xmlns="http://www.w3.org/2000/svg">
<path d="M21.0001 40.5001C32.1563 40.5001 41.2001 31.4563 41.2001 20.3001C41.2001 9.14396 32.1563 0.100098 21.0001 0.100098C9.84397 0.100098 0.800049 9.14396 0.800049 20.3001C0.800049 31.4563 9.84397 40.5001 21.0001 40.5001Z" fill="#104A64"/>
<path d="M22.5001 19L28.5001 12H27.1001L21.9001 18.1L17.7001 12H12.9001L19.2001 21.2L12.9001 28.5H14.3L19.8 22.1L24.2001 28.5H29.0001L22.5001 19ZM20.6001 21.3L20.0001 20.4L14.9001 13.1H17.1001L21.2001 19L21.8 19.9L27.1001 27.5H24.9001L20.6001 21.3Z" fill="white"/>
</svg>
