<svg width="41" height="42" viewBox="0 0 41 42" fill="none" xmlns="http://www.w3.org/2000/svg">
<path d="M20.2001 41.2C31.3562 41.2 40.4001 32.1562 40.4001 21.0001C40.4001 9.84391 31.3562 0.800049 20.2001 0.800049C9.04392 0.800049 0.00012207 9.84391 0.00012207 21.0001C0.00012207 32.1562 9.04392 41.2 20.2001 41.2Z" fill="#104A64"/>
<path d="M32.2001 17.9C32.2001 15 29.9001 12.7 27.0001 12.7H13.6001C10.7001 12.7 8.40015 15 8.40015 17.9V24.0999C8.40015 26.9999 10.7001 29.3 13.6001 29.3H27.0001C29.9001 29.3 32.2001 26.9999 32.2001 24.0999V17.9ZM24.3 21.5L18.3 24.5C18.1 24.6 17.3 24.5 17.3 24.2V18.0999C17.3 17.7999 18.1 17.7 18.3 17.8L24.1001 20.9C24.3001 21 24.5 21.3 24.3 21.5Z" fill="white"/>
</svg>
