<svg width="33" height="33" viewBox="0 0 33 33" fill="none" xmlns="http://www.w3.org/2000/svg">
<path fill-rule="evenodd" clip-rule="evenodd" d="M16.7001 2.09998C9.00007 2.09998 2.80005 8.29998 2.80005 15.9C2.80005 18.9 3.80012 21.7 5.50012 24L3.80005 29.1L9.20007 27.4C11.4001 28.8 14.0001 29.7 16.9001 29.7C24.6001 29.7 30.8 23.5 30.8 15.9C30.6 8.29998 24.3001 2.09998 16.7001 2.09998Z" fill="url(#paint0_linear_213_1953)"/>
<path fill-rule="evenodd" clip-rule="evenodd" d="M32.4001 15.8C32.4001 24.5 25.3001 31.5 16.6001 31.5C13.8001 31.5 11.2001 30.8 9.00012 29.6L0.300049 32.4L3.1001 24C1.7001 21.6 0.800049 18.9 0.800049 15.9C0.800049 7.19996 7.9001 0.199951 16.6001 0.199951C25.3001 0.199951 32.4001 7.19996 32.4001 15.8ZM16.6001 2.69995C9.3001 2.69995 3.30005 8.59996 3.30005 15.9C3.30005 18.8 4.20005 21.4 5.80005 23.6L4.1001 28.5L9.20007 26.9C11.3001 28.3 13.8001 29.1 16.5001 29.1C23.8001 29.1 29.8 23.2 29.8 15.9C29.8 8.59996 23.9001 2.69995 16.6001 2.69995ZM24.5001 19.4C24.4001 19.2 24.1 19.1 23.8 19C23.4 18.8 21.5001 17.9 21.2001 17.8C20.8001 17.7 20.6 17.6 20.3 18C20 18.4 19.3001 19.2 19.1001 19.5C18.9001 19.8 18.6 19.8 18.3 19.6C17.9 19.4 16.7001 19 15.2001 17.7C14.1001 16.7 13.3001 15.4 13.0001 15C12.8001 14.6 13.0001 14.4 13.2001 14.2C13.4001 14 13.6 13.8 13.8 13.5C14 13.3 14.1001 13.1 14.2001 12.9C14.3001 12.6 14.3001 12.4 14.2001 12.2C14.1001 12 13.3001 10.1 13.0001 9.29996C12.7001 8.49996 12.4001 8.59996 12.1001 8.59996C11.9001 8.59996 11.5001 8.69995 11.5001 8.69995C11.5001 8.69995 10.7001 8.79995 10.4001 9.19995C10.0001 9.59995 9.00012 10.5 9.00012 12.4C9.00012 14.3 10.4001 16.1 10.6001 16.4C10.8001 16.7 13.3001 20.7 17.2001 22.2C21.1001 23.7 21.1 23.2 21.8 23.2C22.5 23.1 24.1001 22.3 24.4001 21.4C24.6001 20.4 24.6001 19.6 24.5001 19.4Z" fill="white"/>
<defs>
<linearGradient id="paint0_linear_213_1953" x1="16.6511" y1="2.12588" x2="16.6511" y2="29.7731" gradientUnits="userSpaceOnUse">
<stop stop-color="#00C03E"/>
<stop offset="1" stop-color="#008430"/>
</linearGradient>
</defs>
</svg>
