<svg width="171" height="26" viewBox="0 0 171 26" fill="none" xmlns="http://www.w3.org/2000/svg">
<path d="M28.1312 2.72727V10H27.0339V2.72727H28.1312ZM30.6057 6.76136V10H29.544V4.54545H30.5631V5.43324H30.6306C30.7561 5.14441 30.9526 4.91241 31.2201 4.73722C31.49 4.56203 31.8297 4.47443 32.2393 4.47443C32.611 4.47443 32.9365 4.55256 33.2158 4.70881C33.4952 4.86269 33.7118 5.09233 33.8657 5.39773C34.0196 5.70312 34.0965 6.08073 34.0965 6.53054V10H33.0347V6.65838C33.0347 6.26302 32.9317 5.95407 32.7258 5.73153C32.5198 5.50663 32.2369 5.39418 31.8771 5.39418C31.6308 5.39418 31.4119 5.44744 31.2201 5.55398C31.0307 5.66051 30.8804 5.81676 30.7691 6.02273C30.6602 6.22633 30.6057 6.47254 30.6057 6.76136ZM37.9667 4.54545V5.39773H34.9873V4.54545H37.9667ZM35.7863 3.23864H36.8481V8.39844C36.8481 8.6044 36.8789 8.75947 36.9404 8.86364C37.002 8.96544 37.0813 9.03527 37.1783 9.07315C37.2778 9.10866 37.3855 9.12642 37.5015 9.12642C37.5867 9.12642 37.6613 9.1205 37.7252 9.10866C37.7891 9.09683 37.8388 9.08736 37.8744 9.08026L38.0661 9.95739C38.0046 9.98106 37.917 10.0047 37.8033 10.0284C37.6897 10.0545 37.5476 10.0687 37.3772 10.071C37.0978 10.0758 36.8374 10.026 36.5959 9.92188C36.3545 9.81771 36.1592 9.65672 36.01 9.43892C35.8609 9.22112 35.7863 8.94768 35.7863 8.61861V3.23864ZM41.3335 10.1101C40.7961 10.1101 40.3332 9.99527 39.945 9.76562C39.5591 9.53362 39.2608 9.2081 39.0501 8.78906C38.8418 8.36766 38.7376 7.87405 38.7376 7.30824C38.7376 6.74953 38.8418 6.2571 39.0501 5.83097C39.2608 5.40483 39.5544 5.07221 39.9308 4.8331C40.3096 4.59399 40.7523 4.47443 41.2589 4.47443C41.5667 4.47443 41.865 4.52533 42.1538 4.62713C42.4426 4.72893 42.7018 4.88873 42.9315 5.10653C43.1611 5.32434 43.3422 5.60724 43.4748 5.95526C43.6074 6.3009 43.6737 6.72112 43.6737 7.21591V7.59233H39.3377V6.79688H42.6332C42.6332 6.51752 42.5764 6.27012 42.4627 6.05469C42.3491 5.83688 42.1893 5.66525 41.9833 5.53977C41.7797 5.4143 41.5406 5.35156 41.266 5.35156C40.9677 5.35156 40.7073 5.42495 40.4848 5.57173C40.2646 5.71615 40.0941 5.90554 39.9734 6.13991C39.855 6.37192 39.7958 6.62405 39.7958 6.89631V7.51776C39.7958 7.88234 39.8598 8.19247 39.9876 8.44815C40.1178 8.70384 40.2989 8.89915 40.5309 9.03409C40.7629 9.16667 41.034 9.23295 41.3441 9.23295C41.5454 9.23295 41.7288 9.20455 41.8946 9.14773C42.0603 9.08854 42.2035 9.00095 42.3242 8.88494C42.445 8.76894 42.5373 8.62571 42.6012 8.45526L43.6062 8.63636C43.5257 8.93229 43.3813 9.19152 43.173 9.41406C42.967 9.63423 42.7078 9.80587 42.3953 9.92898C42.0851 10.0497 41.7312 10.1101 41.3335 10.1101ZM44.7518 10V4.54545H45.778V5.41193H45.8349C45.9343 5.11837 46.1095 4.88755 46.3604 4.71946C46.6137 4.54901 46.9002 4.46378 47.2198 4.46378C47.2861 4.46378 47.3642 4.46615 47.4542 4.47088C47.5465 4.47562 47.6187 4.48153 47.6708 4.48864V5.50426C47.6282 5.49242 47.5524 5.4794 47.4435 5.4652C47.3346 5.44863 47.2257 5.44034 47.1168 5.44034C46.8659 5.44034 46.6422 5.49361 46.4457 5.60014C46.2515 5.70431 46.0976 5.84991 45.984 6.03693C45.8704 6.22159 45.8136 6.43229 45.8136 6.66903V10H44.7518ZM50.0282 10.1207C49.6825 10.1207 49.37 10.0568 49.0907 9.92898C48.8113 9.79877 48.59 9.61056 48.4266 9.36435C48.2656 9.11813 48.1851 8.81629 48.1851 8.45881C48.1851 8.15104 48.2443 7.89773 48.3627 7.69886C48.4811 7.5 48.6409 7.34257 48.8421 7.22656C49.0433 7.11056 49.2682 7.02296 49.5168 6.96378C49.7654 6.90459 50.0187 6.85961 50.2768 6.82884C50.6035 6.79096 50.8686 6.76018 51.0722 6.73651C51.2758 6.71046 51.4238 6.66903 51.5161 6.61222C51.6084 6.5554 51.6546 6.46307 51.6546 6.33523V6.31037C51.6546 6.00024 51.567 5.75994 51.3918 5.58949C51.219 5.41903 50.961 5.33381 50.6177 5.33381C50.2602 5.33381 49.9785 5.41312 49.7725 5.57173C49.5689 5.72798 49.428 5.90199 49.3499 6.09375L48.3521 5.86648C48.4704 5.53504 48.6432 5.26752 48.8705 5.06392C49.1002 4.85795 49.3641 4.70881 49.6624 4.61648C49.9607 4.52178 50.2744 4.47443 50.6035 4.47443C50.8213 4.47443 51.0521 4.50047 51.2959 4.55256C51.5422 4.60227 51.7718 4.6946 51.9849 4.82955C52.2003 4.96449 52.3767 5.15743 52.514 5.40838C52.6513 5.65696 52.7199 5.98011 52.7199 6.37784V10H51.683V9.25426H51.6404C51.5717 9.39157 51.4688 9.52652 51.3315 9.65909C51.1941 9.79167 51.0178 9.90175 50.8023 9.98935C50.5869 10.0769 50.3289 10.1207 50.0282 10.1207ZM50.259 9.26847C50.5526 9.26847 50.8035 9.21046 51.0119 9.09446C51.2226 8.97846 51.3824 8.82694 51.4913 8.63991C51.6025 8.45052 51.6582 8.24811 51.6582 8.03267V7.32955C51.6203 7.36742 51.5469 7.40294 51.438 7.43608C51.3315 7.46686 51.2095 7.49408 51.0722 7.51776C50.9349 7.53906 50.8012 7.55919 50.6709 7.57812C50.5407 7.5947 50.4318 7.6089 50.3442 7.62074C50.1383 7.64678 49.9501 7.69058 49.7796 7.75213C49.6115 7.81368 49.4766 7.90246 49.3748 8.01847C49.2753 8.1321 49.2256 8.28362 49.2256 8.47301C49.2256 8.7358 49.3227 8.93466 49.5168 9.0696C49.711 9.20218 49.9583 9.26847 50.259 9.26847ZM56.3318 10.1101C55.8038 10.1101 55.3493 9.99053 54.9681 9.75142C54.5893 9.50994 54.2982 9.17732 54.0946 8.75355C53.891 8.32978 53.7892 7.84446 53.7892 7.29759C53.7892 6.74361 53.8933 6.25473 54.1017 5.83097C54.31 5.40483 54.6036 5.07221 54.9823 4.8331C55.3611 4.59399 55.8074 4.47443 56.3211 4.47443C56.7354 4.47443 57.1047 4.55137 57.4291 4.70526C57.7534 4.85677 58.015 5.06984 58.2139 5.34446C58.4151 5.61908 58.5347 5.93987 58.5725 6.30682H57.5392C57.4823 6.05114 57.3521 5.83097 57.1485 5.64631C56.9473 5.46165 56.6774 5.36932 56.3389 5.36932C56.0429 5.36932 55.7837 5.44744 55.5612 5.60369C55.341 5.75758 55.1694 5.97775 55.0463 6.2642C54.9232 6.5483 54.8616 6.88447 54.8616 7.27273C54.8616 7.67045 54.922 8.01373 55.0427 8.30256C55.1634 8.59138 55.3339 8.8151 55.5541 8.97372C55.7766 9.13234 56.0382 9.21165 56.3389 9.21165C56.5401 9.21165 56.7224 9.17495 56.8858 9.10156C57.0515 9.0258 57.19 8.91809 57.3012 8.77841C57.4149 8.63873 57.4942 8.47064 57.5392 8.27415H58.5725C58.5347 8.62689 58.4198 8.94176 58.2281 9.21875C58.0363 9.49574 57.7795 9.71354 57.4575 9.87216C57.1379 10.0308 56.7626 10.1101 56.3318 10.1101ZM62.1542 4.54545V5.39773H59.1748V4.54545H62.1542ZM59.9738 3.23864H61.0356V8.39844C61.0356 8.6044 61.0663 8.75947 61.1279 8.86364C61.1895 8.96544 61.2688 9.03527 61.3658 9.07315C61.4653 9.10866 61.573 9.12642 61.689 9.12642C61.7742 9.12642 61.8488 9.1205 61.9127 9.10866C61.9766 9.09683 62.0263 9.08736 62.0619 9.08026L62.2536 9.95739C62.1921 9.98106 62.1045 10.0047 61.9908 10.0284C61.8772 10.0545 61.7351 10.0687 61.5647 10.071C61.2853 10.0758 61.0249 10.026 60.7834 9.92188C60.542 9.81771 60.3467 9.65672 60.1975 9.43892C60.0484 9.22112 59.9738 8.94768 59.9738 8.61861V3.23864ZM63.2287 10V4.54545H64.2905V10H63.2287ZM63.7649 3.70384C63.5803 3.70384 63.4217 3.64228 63.2891 3.51918C63.1589 3.3937 63.0938 3.24455 63.0938 3.07173C63.0938 2.89654 63.1589 2.7474 63.2891 2.62429C63.4217 2.49882 63.5803 2.43608 63.7649 2.43608C63.9496 2.43608 64.107 2.49882 64.2372 2.62429C64.3698 2.7474 64.4361 2.89654 64.4361 3.07173C64.4361 3.24455 64.3698 3.3937 64.2372 3.51918C64.107 3.64228 63.9496 3.70384 63.7649 3.70384ZM70.2851 4.54545L68.3072 10H67.1708L65.1893 4.54545H66.3292L67.7106 8.7429H67.7674L69.1452 4.54545H70.2851ZM73.3483 10.1101C72.8109 10.1101 72.3481 9.99527 71.9598 9.76562C71.5739 9.53362 71.2756 9.2081 71.0649 8.78906C70.8566 8.36766 70.7524 7.87405 70.7524 7.30824C70.7524 6.74953 70.8566 6.2571 71.0649 5.83097C71.2756 5.40483 71.5692 5.07221 71.9456 4.8331C72.3244 4.59399 72.7671 4.47443 73.2737 4.47443C73.5815 4.47443 73.8798 4.52533 74.1686 4.62713C74.4575 4.72893 74.7167 4.88873 74.9463 5.10653C75.176 5.32434 75.3571 5.60724 75.4897 5.95526C75.6222 6.3009 75.6885 6.72112 75.6885 7.21591V7.59233H71.3526V6.79688H74.648C74.648 6.51752 74.5912 6.27012 74.4776 6.05469C74.3639 5.83688 74.2041 5.66525 73.9982 5.53977C73.7946 5.4143 73.5555 5.35156 73.2809 5.35156C72.9826 5.35156 72.7221 5.42495 72.4996 5.57173C72.2794 5.71615 72.109 5.90554 71.9882 6.13991C71.8699 6.37192 71.8107 6.62405 71.8107 6.89631V7.51776C71.8107 7.88234 71.8746 8.19247 72.0024 8.44815C72.1326 8.70384 72.3138 8.89915 72.5458 9.03409C72.7778 9.16667 73.0488 9.23295 73.359 9.23295C73.5602 9.23295 73.7437 9.20455 73.9094 9.14773C74.0751 9.08854 74.2184 9.00095 74.3391 8.88494C74.4598 8.76894 74.5522 8.62571 74.6161 8.45526L75.621 8.63636C75.5406 8.93229 75.3961 9.19152 75.1878 9.41406C74.9818 9.63423 74.7226 9.80587 74.4101 9.92898C74.1 10.0497 73.746 10.1101 73.3483 10.1101ZM78.148 9.00568L78.0947 9.39276C78.0592 9.67685 77.9989 9.97277 77.9136 10.2805C77.8308 10.5907 77.7444 10.8783 77.6544 11.1435C77.5668 11.4086 77.4946 11.6193 77.4378 11.7756H76.6849C76.7157 11.6288 76.7583 11.4299 76.8128 11.179C76.8672 10.9304 76.9205 10.6522 76.9726 10.3445C77.0247 10.0367 77.0637 9.72301 77.0898 9.40341L77.1253 9.00568H78.148ZM86.0286 4.63778C85.9907 4.30161 85.8345 4.04119 85.5599 3.85653C85.2852 3.66951 84.9396 3.57599 84.5229 3.57599C84.2246 3.57599 83.9666 3.62334 83.7488 3.71804C83.531 3.81037 83.3617 3.93821 83.241 4.10156C83.1226 4.26255 83.0634 4.44602 83.0634 4.65199C83.0634 4.82481 83.1037 4.97396 83.1842 5.09943C83.267 5.22491 83.3747 5.33026 83.5073 5.41548C83.6423 5.49834 83.7867 5.56818 83.9405 5.625C84.0944 5.67945 84.2424 5.72443 84.3844 5.75994L85.0947 5.9446C85.3267 6.00142 85.5646 6.07836 85.8084 6.17543C86.0523 6.27249 86.2784 6.40033 86.4867 6.55895C86.695 6.71757 86.8631 6.91406 86.991 7.14844C87.1212 7.38281 87.1863 7.66335 87.1863 7.99006C87.1863 8.40199 87.0798 8.76776 86.8667 9.08736C86.656 9.40696 86.3494 9.65909 85.9469 9.84375C85.5468 10.0284 85.0627 10.1207 84.4945 10.1207C83.95 10.1207 83.4789 10.0343 83.0812 9.86151C82.6834 9.68868 82.3721 9.44366 82.1472 9.12642C81.9223 8.80682 81.798 8.42803 81.7744 7.99006H82.8752C82.8965 8.25284 82.9817 8.47183 83.1309 8.64702C83.2824 8.81984 83.4753 8.94886 83.7097 9.03409C83.9465 9.11695 84.2057 9.15838 84.4874 9.15838C84.7976 9.15838 85.0734 9.10985 85.3148 9.01278C85.5587 8.91335 85.7504 8.77604 85.8901 8.60085C86.0298 8.4233 86.0996 8.21615 86.0996 7.9794C86.0996 7.76397 86.0381 7.58759 85.915 7.45028C85.7942 7.31297 85.6297 7.19934 85.4214 7.10938C85.2154 7.01941 84.9822 6.9401 84.7218 6.87145L83.8624 6.63707C83.28 6.47846 82.8184 6.24527 82.4775 5.9375C82.1389 5.62973 81.9697 5.22254 81.9697 4.71591C81.9697 4.29687 82.0833 3.93111 82.3106 3.61861C82.5378 3.30611 82.8456 3.06345 83.2339 2.89062C83.6221 2.71544 84.0601 2.62784 84.5478 2.62784C85.0402 2.62784 85.4746 2.71425 85.8511 2.88707C86.2298 3.0599 86.5281 3.29782 86.7459 3.60085C86.9637 3.90151 87.0774 4.24716 87.0869 4.63778H86.0286ZM88.3975 10V2.72727H92.9572V3.67188H89.4948V5.88778H92.7193V6.82884H89.4948V9.0554H92.9998V10H88.3975ZM100.64 6.36364C100.64 7.14015 100.498 7.80777 100.214 8.36648C99.9302 8.92282 99.5407 9.35133 99.0459 9.65199C98.5535 9.95028 97.9936 10.0994 97.3663 10.0994C96.7365 10.0994 96.1743 9.95028 95.6795 9.65199C95.187 9.35133 94.7988 8.92164 94.5147 8.36293C94.2306 7.80421 94.0886 7.13778 94.0886 6.36364C94.0886 5.58712 94.2306 4.92069 94.5147 4.36435C94.7988 3.80563 95.187 3.37713 95.6795 3.07884C96.1743 2.77817 96.7365 2.62784 97.3663 2.62784C97.9936 2.62784 98.5535 2.77817 99.0459 3.07884C99.5407 3.37713 99.9302 3.80563 100.214 4.36435C100.498 4.92069 100.64 5.58712 100.64 6.36364ZM99.5538 6.36364C99.5538 5.77178 99.4579 5.27344 99.2661 4.86861C99.0767 4.46141 98.8163 4.15365 98.4849 3.94531C98.1558 3.73461 97.7829 3.62926 97.3663 3.62926C96.9472 3.62926 96.5732 3.73461 96.2441 3.94531C95.915 4.15365 95.6546 4.46141 95.4628 4.86861C95.2735 5.27344 95.1788 5.77178 95.1788 6.36364C95.1788 6.95549 95.2735 7.45502 95.4628 7.86222C95.6546 8.26705 95.915 8.57481 96.2441 8.78551C96.5732 8.99384 96.9472 9.09801 97.3663 9.09801C97.7829 9.09801 98.1558 8.99384 98.4849 8.78551C98.8163 8.57481 99.0767 8.26705 99.2661 7.86222C99.4579 7.45502 99.5538 6.95549 99.5538 6.36364ZM105.037 6.46662V7.38636H101.813V6.46662H105.037ZM108.65 10.1101C108.138 10.1101 107.692 9.9929 107.311 9.75852C106.93 9.52415 106.634 9.19626 106.423 8.77486C106.212 8.35346 106.107 7.86103 106.107 7.29759C106.107 6.73177 106.212 6.23698 106.423 5.81321C106.634 5.38944 106.93 5.06037 107.311 4.82599C107.692 4.59162 108.138 4.47443 108.65 4.47443C109.161 4.47443 109.607 4.59162 109.989 4.82599C110.37 5.06037 110.666 5.38944 110.876 5.81321C111.087 6.23698 111.192 6.73177 111.192 7.29759C111.192 7.86103 111.087 8.35346 110.876 8.77486C110.666 9.19626 110.37 9.52415 109.989 9.75852C109.607 9.9929 109.161 10.1101 108.65 10.1101ZM108.653 9.21875C108.985 9.21875 109.259 9.13116 109.477 8.95597C109.695 8.78078 109.856 8.54759 109.96 8.25639C110.067 7.9652 110.12 7.64441 110.12 7.29403C110.12 6.94602 110.067 6.62642 109.96 6.33523C109.856 6.04167 109.695 5.80611 109.477 5.62855C109.259 5.45099 108.985 5.36222 108.653 5.36222C108.319 5.36222 108.043 5.45099 107.822 5.62855C107.605 5.80611 107.442 6.04167 107.336 6.33523C107.232 6.62642 107.18 6.94602 107.18 7.29403C107.18 7.64441 107.232 7.9652 107.336 8.25639C107.442 8.54759 107.605 8.78078 107.822 8.95597C108.043 9.13116 108.319 9.21875 108.653 9.21875ZM112.278 12.0455V4.54545H113.314V5.42969H113.403C113.465 5.31605 113.554 5.18466 113.67 5.03551C113.786 4.88636 113.947 4.75616 114.153 4.64489C114.359 4.53125 114.631 4.47443 114.969 4.47443C115.41 4.47443 115.803 4.5857 116.148 4.80824C116.494 5.03078 116.765 5.35156 116.961 5.7706C117.16 6.18963 117.26 6.69389 117.26 7.28338C117.26 7.87287 117.162 8.37831 116.965 8.79972C116.769 9.21875 116.499 9.5419 116.155 9.76918C115.812 9.99408 115.42 10.1065 114.98 10.1065C114.649 10.1065 114.377 10.0509 114.167 9.93963C113.958 9.82836 113.795 9.69815 113.677 9.54901C113.558 9.39986 113.467 9.26728 113.403 9.15128H113.339V12.0455H112.278ZM113.318 7.27273C113.318 7.65625 113.374 7.99242 113.485 8.28125C113.596 8.57008 113.757 8.79616 113.968 8.95952C114.179 9.1205 114.437 9.20099 114.742 9.20099C115.059 9.20099 115.324 9.11695 115.537 8.94886C115.751 8.77841 115.912 8.54759 116.02 8.25639C116.132 7.9652 116.187 7.63731 116.187 7.27273C116.187 6.91288 116.133 6.58973 116.024 6.30327C115.917 6.01681 115.756 5.79072 115.541 5.625C115.328 5.45928 115.062 5.37642 114.742 5.37642C114.434 5.37642 114.174 5.45573 113.961 5.61435C113.75 5.77296 113.59 5.99432 113.481 6.27841C113.372 6.5625 113.318 6.89394 113.318 7.27273ZM120.896 4.54545V5.39773H117.916V4.54545H120.896ZM118.715 3.23864H119.777V8.39844C119.777 8.6044 119.808 8.75947 119.869 8.86364C119.931 8.96544 120.01 9.03527 120.107 9.07315C120.207 9.10866 120.314 9.12642 120.43 9.12642C120.516 9.12642 120.59 9.1205 120.654 9.10866C120.718 9.09683 120.768 9.08736 120.803 9.08026L120.995 9.95739C120.933 9.98106 120.846 10.0047 120.732 10.0284C120.619 10.0545 120.477 10.0687 120.306 10.071C120.027 10.0758 119.766 10.026 119.525 9.92188C119.283 9.81771 119.088 9.65672 118.939 9.43892C118.79 9.22112 118.715 8.94768 118.715 8.61861V3.23864ZM121.97 10V4.54545H123.032V10H121.97ZM122.506 3.70384C122.322 3.70384 122.163 3.64228 122.03 3.51918C121.9 3.3937 121.835 3.24455 121.835 3.07173C121.835 2.89654 121.9 2.7474 122.03 2.62429C122.163 2.49882 122.322 2.43608 122.506 2.43608C122.691 2.43608 122.848 2.49882 122.979 2.62429C123.111 2.7474 123.178 2.89654 123.178 3.07173C123.178 3.24455 123.111 3.3937 122.979 3.51918C122.848 3.64228 122.691 3.70384 122.506 3.70384ZM124.36 10V4.54545H125.38V5.43324H125.447C125.561 5.13258 125.746 4.8982 126.005 4.73011C126.263 4.55966 126.572 4.47443 126.931 4.47443C127.296 4.47443 127.601 4.55966 127.848 4.73011C128.096 4.90057 128.28 5.13494 128.398 5.43324H128.455C128.585 5.14205 128.792 4.91004 129.076 4.73722C129.36 4.56203 129.699 4.47443 130.092 4.47443C130.587 4.47443 130.99 4.6295 131.303 4.93963C131.618 5.24976 131.775 5.71733 131.775 6.34233V10H130.713V6.44176C130.713 6.07244 130.613 5.80492 130.411 5.6392C130.21 5.47348 129.97 5.39062 129.691 5.39062C129.345 5.39062 129.076 5.49716 128.885 5.71023C128.693 5.92093 128.597 6.192 128.597 6.52344V10H127.539V6.37429C127.539 6.07836 127.446 5.84044 127.262 5.66051C127.077 5.48059 126.837 5.39062 126.541 5.39062C126.34 5.39062 126.154 5.44389 125.983 5.55043C125.815 5.65459 125.679 5.80019 125.575 5.98722C125.473 6.17424 125.422 6.39086 125.422 6.63707V10H124.36ZM133.098 10V4.54545H134.16V10H133.098ZM133.634 3.70384C133.45 3.70384 133.291 3.64228 133.159 3.51918C133.028 3.3937 132.963 3.24455 132.963 3.07173C132.963 2.89654 133.028 2.7474 133.159 2.62429C133.291 2.49882 133.45 2.43608 133.634 2.43608C133.819 2.43608 133.977 2.49882 134.107 2.62429C134.239 2.7474 134.306 2.89654 134.306 3.07173C134.306 3.24455 134.239 3.3937 134.107 3.51918C133.977 3.64228 133.819 3.70384 133.634 3.70384ZM135.375 10V9.27202L138.329 5.51847V5.46875H135.471V4.54545H139.654V5.3196L136.813 9.02699V9.0767H139.753V10H135.375ZM143.101 10.1101C142.563 10.1101 142.1 9.99527 141.712 9.76562C141.326 9.53362 141.028 9.2081 140.817 8.78906C140.609 8.36766 140.505 7.87405 140.505 7.30824C140.505 6.74953 140.609 6.2571 140.817 5.83097C141.028 5.40483 141.322 5.07221 141.698 4.8331C142.077 4.59399 142.519 4.47443 143.026 4.47443C143.334 4.47443 143.632 4.52533 143.921 4.62713C144.21 4.72893 144.469 4.88873 144.699 5.10653C144.928 5.32434 145.109 5.60724 145.242 5.95526C145.375 6.3009 145.441 6.72112 145.441 7.21591V7.59233H141.105V6.79688H144.4C144.4 6.51752 144.344 6.27012 144.23 6.05469C144.116 5.83688 143.956 5.66525 143.751 5.53977C143.547 5.4143 143.308 5.35156 143.033 5.35156C142.735 5.35156 142.474 5.42495 142.252 5.57173C142.032 5.71615 141.861 5.90554 141.741 6.13991C141.622 6.37192 141.563 6.62405 141.563 6.89631V7.51776C141.563 7.88234 141.627 8.19247 141.755 8.44815C141.885 8.70384 142.066 8.89915 142.298 9.03409C142.53 9.16667 142.801 9.23295 143.111 9.23295C143.313 9.23295 143.496 9.20455 143.662 9.14773C143.827 9.08854 143.971 9.00095 144.091 8.88494C144.212 8.76894 144.304 8.62571 144.368 8.45526L145.373 8.63636C145.293 8.93229 145.148 9.19152 144.94 9.41406C144.734 9.63423 144.475 9.80587 144.162 9.92898C143.852 10.0497 143.498 10.1101 143.101 10.1101ZM148.561 10.1065C148.121 10.1065 147.728 9.99408 147.382 9.76918C147.039 9.5419 146.769 9.21875 146.572 8.79972C146.378 8.37831 146.281 7.87287 146.281 7.28338C146.281 6.69389 146.379 6.18963 146.576 5.7706C146.775 5.35156 147.047 5.03078 147.393 4.80824C147.738 4.5857 148.13 4.47443 148.568 4.47443C148.907 4.47443 149.179 4.53125 149.385 4.64489C149.593 4.75616 149.754 4.88636 149.868 5.03551C149.984 5.18466 150.074 5.31605 150.138 5.42969H150.201V2.72727H151.263V10H150.226V9.15128H150.138C150.074 9.26728 149.981 9.39986 149.861 9.54901C149.742 9.69815 149.579 9.82836 149.371 9.93963C149.162 10.0509 148.892 10.1065 148.561 10.1065ZM148.795 9.20099C149.101 9.20099 149.359 9.1205 149.569 8.95952C149.782 8.79616 149.943 8.57008 150.052 8.28125C150.164 7.99242 150.219 7.65625 150.219 7.27273C150.219 6.89394 150.165 6.5625 150.056 6.27841C149.947 5.99432 149.787 5.77296 149.576 5.61435C149.366 5.45573 149.105 5.37642 148.795 5.37642C148.476 5.37642 148.209 5.45928 147.996 5.625C147.783 5.79072 147.622 6.01681 147.513 6.30327C147.407 6.58973 147.353 6.91288 147.353 7.27273C147.353 7.63731 147.408 7.9652 147.517 8.25639C147.626 8.54759 147.787 8.77841 148 8.94886C148.215 9.11695 148.48 9.20099 148.795 9.20099ZM26.9486 25.0455V17.5455H27.9856V18.4297H28.0744C28.1359 18.3161 28.2247 18.1847 28.3407 18.0355C28.4567 17.8864 28.6177 17.7562 28.8236 17.6449C29.0296 17.5312 29.3019 17.4744 29.6404 17.4744C30.0807 17.4744 30.4737 17.5857 30.8194 17.8082C31.165 18.0308 31.4361 18.3516 31.6326 18.7706C31.8315 19.1896 31.9309 19.6939 31.9309 20.2834C31.9309 20.8729 31.8326 21.3783 31.6361 21.7997C31.4396 22.2187 31.1698 22.5419 30.8265 22.7692C30.4832 22.9941 30.0914 23.1065 29.6511 23.1065C29.3196 23.1065 29.0485 23.0509 28.8378 22.9396C28.6295 22.8284 28.4662 22.6982 28.3478 22.549C28.2294 22.3999 28.1383 22.2673 28.0744 22.1513H28.0104V25.0455H26.9486ZM27.9891 20.2727C27.9891 20.6562 28.0448 20.9924 28.156 21.2812C28.2673 21.5701 28.4283 21.7962 28.639 21.9595C28.8497 22.1205 29.1077 22.201 29.4131 22.201C29.7304 22.201 29.9955 22.117 30.2086 21.9489C30.4217 21.7784 30.5826 21.5476 30.6915 21.2564C30.8028 20.9652 30.8584 20.6373 30.8584 20.2727C30.8584 19.9129 30.804 19.5897 30.6951 19.3033C30.5886 19.0168 30.4276 18.7907 30.2121 18.625C29.9991 18.4593 29.7327 18.3764 29.4131 18.3764C29.1054 18.3764 28.8449 18.4557 28.6319 18.6143C28.4212 18.773 28.2614 18.9943 28.1525 19.2784C28.0436 19.5625 27.9891 19.8939 27.9891 20.2727ZM33.0205 23V17.5455H34.0468V18.4119H34.1036C34.203 18.1184 34.3782 17.8875 34.6292 17.7195C34.8825 17.549 35.169 17.4638 35.4886 17.4638C35.5548 17.4638 35.633 17.4661 35.7229 17.4709C35.8153 17.4756 35.8875 17.4815 35.9396 17.4886V18.5043C35.8969 18.4924 35.8212 18.4794 35.7123 18.4652C35.6034 18.4486 35.4945 18.4403 35.3856 18.4403C35.1346 18.4403 34.9109 18.4936 34.7144 18.6001C34.5203 18.7043 34.3664 18.8499 34.2528 19.0369C34.1391 19.2216 34.0823 19.4323 34.0823 19.669V23H33.0205ZM38.8607 23.1101C38.3493 23.1101 37.9031 22.9929 37.5219 22.7585C37.1407 22.5241 36.8448 22.1963 36.6341 21.7749C36.4234 21.3535 36.3181 20.861 36.3181 20.2976C36.3181 19.7318 36.4234 19.237 36.6341 18.8132C36.8448 18.3894 37.1407 18.0604 37.5219 17.826C37.9031 17.5916 38.3493 17.4744 38.8607 17.4744C39.372 17.4744 39.8183 17.5916 40.1995 17.826C40.5806 18.0604 40.8765 18.3894 41.0872 18.8132C41.2979 19.237 41.4033 19.7318 41.4033 20.2976C41.4033 20.861 41.2979 21.3535 41.0872 21.7749C40.8765 22.1963 40.5806 22.5241 40.1995 22.7585C39.8183 22.9929 39.372 23.1101 38.8607 23.1101ZM38.8642 22.2188C39.1957 22.2188 39.4703 22.1312 39.6881 21.956C39.9059 21.7808 40.0669 21.5476 40.171 21.2564C40.2776 20.9652 40.3309 20.6444 40.3309 20.294C40.3309 19.946 40.2776 19.6264 40.171 19.3352C40.0669 19.0417 39.9059 18.8061 39.6881 18.6286C39.4703 18.451 39.1957 18.3622 38.8642 18.3622C38.5304 18.3622 38.2534 18.451 38.0333 18.6286C37.8155 18.8061 37.6533 19.0417 37.5468 19.3352C37.4426 19.6264 37.3905 19.946 37.3905 20.294C37.3905 20.6444 37.4426 20.9652 37.5468 21.2564C37.6533 21.5476 37.8155 21.7808 38.0333 21.956C38.2534 22.1312 38.5304 22.2188 38.8642 22.2188ZM45.0844 17.5455V18.3977H42.002V17.5455H45.0844ZM42.8472 23V16.9134C42.8472 16.5724 42.9217 16.2895 43.0709 16.0646C43.22 15.8374 43.4177 15.6681 43.6639 15.5568C43.9101 15.4432 44.1776 15.3864 44.4665 15.3864C44.6795 15.3864 44.8618 15.4041 45.0133 15.4396C45.1649 15.4728 45.2773 15.5036 45.3507 15.532L45.1021 16.3913C45.0524 16.3771 44.9885 16.3606 44.9104 16.3416C44.8322 16.3203 44.7375 16.3097 44.6263 16.3097C44.3682 16.3097 44.1836 16.3736 44.0723 16.5014C43.9634 16.6293 43.9089 16.8139 43.9089 17.0554V23H42.8472ZM46.0799 23V17.5455H47.1417V23H46.0799ZM46.6161 16.7038C46.4315 16.7038 46.2728 16.6423 46.1403 16.5192C46.0101 16.3937 45.9449 16.2446 45.9449 16.0717C45.9449 15.8965 46.0101 15.7474 46.1403 15.6243C46.2728 15.4988 46.4315 15.4361 46.6161 15.4361C46.8008 15.4361 46.9582 15.4988 47.0884 15.6243C47.221 15.7474 47.2873 15.8965 47.2873 16.0717C47.2873 16.2446 47.221 16.3937 47.0884 16.5192C46.9582 16.6423 46.8008 16.7038 46.6161 16.7038ZM49.5319 15.7273V23H48.4701V15.7273H49.5319ZM53.2112 23.1101C52.6738 23.1101 52.211 22.9953 51.8227 22.7656C51.4368 22.5336 51.1385 22.2081 50.9278 21.7891C50.7195 21.3677 50.6153 20.8741 50.6153 20.3082C50.6153 19.7495 50.7195 19.2571 50.9278 18.831C51.1385 18.4048 51.4321 18.0722 51.8085 17.8331C52.1873 17.594 52.63 17.4744 53.1366 17.4744C53.4444 17.4744 53.7427 17.5253 54.0315 17.6271C54.3204 17.7289 54.5796 17.8887 54.8092 18.1065C55.0389 18.3243 55.22 18.6072 55.3525 18.9553C55.4851 19.3009 55.5514 19.7211 55.5514 20.2159V20.5923H51.2155V19.7969H54.5109C54.5109 19.5175 54.4541 19.2701 54.3405 19.0547C54.2268 18.8369 54.067 18.6652 53.8611 18.5398C53.6575 18.4143 53.4184 18.3516 53.1437 18.3516C52.8454 18.3516 52.585 18.425 52.3625 18.5717C52.1423 18.7161 51.9719 18.9055 51.8511 19.1399C51.7328 19.3719 51.6736 19.6241 51.6736 19.8963V20.5178C51.6736 20.8823 51.7375 21.1925 51.8653 21.4482C51.9955 21.7038 52.1766 21.8991 52.4087 22.0341C52.6407 22.1667 52.9117 22.233 53.2219 22.233C53.4231 22.233 53.6066 22.2045 53.7723 22.1477C53.938 22.0885 54.0812 22.0009 54.202 21.8849C54.3227 21.7689 54.415 21.6257 54.479 21.4553L55.4839 21.6364C55.4034 21.9323 55.259 22.1915 55.0507 22.4141C54.8447 22.6342 54.5855 22.8059 54.273 22.929C53.9629 23.0497 53.6089 23.1101 53.2112 23.1101ZM60.7169 18.8771L59.7545 19.0476C59.7143 18.9245 59.6503 18.8073 59.5627 18.696C59.4775 18.5848 59.3615 18.4936 59.2147 18.4226C59.0679 18.3516 58.8845 18.3161 58.6643 18.3161C58.3636 18.3161 58.1127 18.3835 57.9115 18.5185C57.7102 18.651 57.6096 18.8227 57.6096 19.0334C57.6096 19.2157 57.6771 19.3625 57.812 19.4737C57.947 19.585 58.1648 19.6761 58.4654 19.7472L59.3319 19.946C59.8338 20.062 60.2079 20.2408 60.4541 20.4822C60.7003 20.7237 60.8234 21.0374 60.8234 21.4233C60.8234 21.75 60.7287 22.0412 60.5393 22.2969C60.3523 22.5502 60.0907 22.7491 59.7545 22.8935C59.4207 23.0379 59.0336 23.1101 58.5933 23.1101C57.9825 23.1101 57.4841 22.9799 57.0983 22.7195C56.7124 22.4567 56.4756 22.0838 56.388 21.6009L57.4143 21.4446C57.4782 21.7121 57.6096 21.9145 57.8085 22.0518C58.0073 22.1868 58.2666 22.2543 58.5862 22.2543C58.9342 22.2543 59.2124 22.1821 59.4207 22.0376C59.629 21.8909 59.7332 21.7121 59.7332 21.5014C59.7332 21.331 59.6693 21.1877 59.5414 21.0717C59.416 20.9557 59.223 20.8681 58.9626 20.8089L58.0393 20.6065C57.5303 20.4905 57.1539 20.3059 56.91 20.0526C56.6686 19.7992 56.5478 19.4785 56.5478 19.0902C56.5478 18.7682 56.6378 18.4865 56.8177 18.245C56.9976 18.0036 57.2462 17.8153 57.5634 17.6804C57.8807 17.5431 58.2441 17.4744 58.6536 17.4744C59.2431 17.4744 59.7072 17.6023 60.0457 17.858C60.3842 18.1113 60.608 18.451 60.7169 18.8771ZM65.6198 23L64.0147 17.5455H65.112L66.1809 21.5511H66.2342L67.3066 17.5455H68.4039L69.4693 21.5334H69.5225L70.5843 17.5455H71.6816L70.0801 23H68.997L67.889 19.0618H67.8073L66.6994 23H65.6198ZM72.5893 23V17.5455H73.6511V23H72.5893ZM73.1255 16.7038C72.9408 16.7038 72.7822 16.6423 72.6496 16.5192C72.5194 16.3937 72.4543 16.2446 72.4543 16.0717C72.4543 15.8965 72.5194 15.7474 72.6496 15.6243C72.7822 15.4988 72.9408 15.4361 73.1255 15.4361C73.3101 15.4361 73.4676 15.4988 73.5978 15.6243C73.7304 15.7474 73.7967 15.8965 73.7967 16.0717C73.7967 16.2446 73.7304 16.3937 73.5978 16.5192C73.4676 16.6423 73.3101 16.7038 73.1255 16.7038ZM77.5257 17.5455V18.3977H74.5463V17.5455H77.5257ZM75.3453 16.2386H76.4071V21.3984C76.4071 21.6044 76.4378 21.7595 76.4994 21.8636C76.5609 21.9654 76.6403 22.0353 76.7373 22.0732C76.8367 22.1087 76.9445 22.1264 77.0605 22.1264C77.1457 22.1264 77.2203 22.1205 77.2842 22.1087C77.3481 22.0968 77.3978 22.0874 77.4333 22.0803L77.6251 22.9574C77.5635 22.9811 77.476 23.0047 77.3623 23.0284C77.2487 23.0545 77.1066 23.0687 76.9362 23.071C76.6568 23.0758 76.3964 23.026 76.1549 22.9219C75.9135 22.8177 75.7181 22.6567 75.569 22.4389C75.4198 22.2211 75.3453 21.9477 75.3453 21.6186V16.2386ZM79.7792 19.7614V23H78.7174V15.7273H79.765V18.4332H79.8324C79.9603 18.1397 80.1556 17.9065 80.4184 17.7337C80.6812 17.5608 81.0244 17.4744 81.4482 17.4744C81.8223 17.4744 82.149 17.5514 82.4283 17.7053C82.7101 17.8591 82.9279 18.0888 83.0817 18.3942C83.238 18.6972 83.3161 19.076 83.3161 19.5305V23H82.2543V19.6584C82.2543 19.2583 82.1513 18.9482 81.9454 18.728C81.7394 18.5054 81.4529 18.3942 81.086 18.3942C80.8351 18.3942 80.6101 18.4474 80.4113 18.554C80.2148 18.6605 80.0597 18.8168 79.9461 19.0227C79.8348 19.2263 79.7792 19.4725 79.7792 19.7614ZM87.1795 23V17.5455H88.2058V18.4119H88.2626C88.362 18.1184 88.5372 17.8875 88.7882 17.7195C89.0415 17.549 89.3279 17.4638 89.6475 17.4638C89.7138 17.4638 89.792 17.4661 89.8819 17.4709C89.9742 17.4756 90.0465 17.4815 90.0985 17.4886V18.5043C90.0559 18.4924 89.9802 18.4794 89.8713 18.4652C89.7624 18.4486 89.6535 18.4403 89.5446 18.4403C89.2936 18.4403 89.0699 18.4936 88.8734 18.6001C88.6793 18.7043 88.5254 18.8499 88.4117 19.0369C88.2981 19.2216 88.2413 19.4323 88.2413 19.669V23H87.1795ZM93.0729 23.1101C92.5355 23.1101 92.0727 22.9953 91.6844 22.7656C91.2985 22.5336 91.0003 22.2081 90.7896 21.7891C90.5812 21.3677 90.4771 20.8741 90.4771 20.3082C90.4771 19.7495 90.5812 19.2571 90.7896 18.831C91.0003 18.4048 91.2938 18.0722 91.6702 17.8331C92.049 17.594 92.4917 17.4744 92.9984 17.4744C93.3061 17.4744 93.6044 17.5253 93.8932 17.6271C94.1821 17.7289 94.4413 17.8887 94.6709 18.1065C94.9006 18.3243 95.0817 18.6072 95.2143 18.9553C95.3468 19.3009 95.4131 19.7211 95.4131 20.2159V20.5923H91.0772V19.7969H94.3726C94.3726 19.5175 94.3158 19.2701 94.2022 19.0547C94.0886 18.8369 93.9288 18.6652 93.7228 18.5398C93.5192 18.4143 93.2801 18.3516 93.0055 18.3516C92.7072 18.3516 92.4467 18.425 92.2242 18.5717C92.004 18.7161 91.8336 18.9055 91.7128 19.1399C91.5945 19.3719 91.5353 19.6241 91.5353 19.8963V20.5178C91.5353 20.8823 91.5992 21.1925 91.7271 21.4482C91.8573 21.7038 92.0384 21.8991 92.2704 22.0341C92.5024 22.1667 92.7735 22.233 93.0836 22.233C93.2848 22.233 93.4683 22.2045 93.634 22.1477C93.7997 22.0885 93.943 22.0009 94.0637 21.8849C94.1844 21.7689 94.2768 21.6257 94.3407 21.4553L95.3457 21.6364C95.2652 21.9323 95.1208 22.1915 94.9124 22.4141C94.7065 22.6342 94.4472 22.8059 94.1347 22.929C93.8246 23.0497 93.4707 23.1101 93.0729 23.1101ZM98.0786 23.1207C97.7329 23.1207 97.4204 23.0568 97.1411 22.929C96.8617 22.7988 96.6404 22.6106 96.477 22.3643C96.316 22.1181 96.2355 21.8163 96.2355 21.4588C96.2355 21.151 96.2947 20.8977 96.4131 20.6989C96.5315 20.5 96.6913 20.3426 96.8925 20.2266C97.0937 20.1106 97.3186 20.023 97.5672 19.9638C97.8158 19.9046 98.0691 19.8596 98.3272 19.8288C98.6539 19.791 98.919 19.7602 99.1226 19.7365C99.3262 19.7105 99.4742 19.669 99.5665 19.6122C99.6588 19.5554 99.705 19.4631 99.705 19.3352V19.3104C99.705 19.0002 99.6174 18.7599 99.4422 18.5895C99.2694 18.419 99.0113 18.3338 98.6681 18.3338C98.3106 18.3338 98.0289 18.4131 97.8229 18.5717C97.6193 18.728 97.4784 18.902 97.4003 19.0938L96.4024 18.8665C96.5208 18.535 96.6936 18.2675 96.9209 18.0639C97.1505 17.858 97.4145 17.7088 97.7128 17.6165C98.0111 17.5218 98.3248 17.4744 98.6539 17.4744C98.8717 17.4744 99.1025 17.5005 99.3463 17.5526C99.5925 17.6023 99.8222 17.6946 100.035 17.8295C100.251 17.9645 100.427 18.1574 100.564 18.4084C100.702 18.657 100.77 18.9801 100.77 19.3778V23H99.7334V22.2543H99.6908C99.6221 22.3916 99.5192 22.5265 99.3818 22.6591C99.2445 22.7917 99.0682 22.9018 98.8527 22.9893C98.6373 23.0769 98.3792 23.1207 98.0786 23.1207ZM98.3094 22.2685C98.603 22.2685 98.8539 22.2105 99.0622 22.0945C99.2729 21.9785 99.4327 21.8269 99.5416 21.6399C99.6529 21.4505 99.7086 21.2481 99.7086 21.0327V20.3295C99.6707 20.3674 99.5973 20.4029 99.4884 20.4361C99.3818 20.4669 99.2599 20.4941 99.1226 20.5178C98.9853 20.5391 98.8515 20.5592 98.7213 20.5781C98.5911 20.5947 98.4822 20.6089 98.3946 20.6207C98.1887 20.6468 98.0005 20.6906 97.83 20.7521C97.6619 20.8137 97.527 20.9025 97.4252 21.0185C97.3257 21.1321 97.276 21.2836 97.276 21.473C97.276 21.7358 97.3731 21.9347 97.5672 22.0696C97.7613 22.2022 98.0087 22.2685 98.3094 22.2685ZM103.146 15.7273V23H102.085V15.7273H103.146ZM107.689 19.4666V20.3864H104.464V19.4666H107.689ZM111.55 17.5455V18.3977H108.57V17.5455H111.55ZM109.369 16.2386H110.431V21.3984C110.431 21.6044 110.462 21.7595 110.524 21.8636C110.585 21.9654 110.664 22.0353 110.762 22.0732C110.861 22.1087 110.969 22.1264 111.085 22.1264C111.17 22.1264 111.244 22.1205 111.308 22.1087C111.372 22.0968 111.422 22.0874 111.458 22.0803L111.649 22.9574C111.588 22.9811 111.5 23.0047 111.387 23.0284C111.273 23.0545 111.131 23.0687 110.96 23.071C110.681 23.0758 110.421 23.026 110.179 22.9219C109.938 22.8177 109.742 22.6567 109.593 22.4389C109.444 22.2211 109.369 21.9477 109.369 21.6186V16.2386ZM112.624 23V17.5455H113.686V23H112.624ZM113.161 16.7038C112.976 16.7038 112.817 16.6423 112.685 16.5192C112.555 16.3937 112.489 16.2446 112.489 16.0717C112.489 15.8965 112.555 15.7474 112.685 15.6243C112.817 15.4988 112.976 15.4361 113.161 15.4361C113.345 15.4361 113.503 15.4988 113.633 15.6243C113.766 15.7474 113.832 15.8965 113.832 16.0717C113.832 16.2446 113.766 16.3937 113.633 16.5192C113.503 16.6423 113.345 16.7038 113.161 16.7038ZM115.015 23V17.5455H116.034V18.4332H116.101C116.215 18.1326 116.401 17.8982 116.659 17.7301C116.917 17.5597 117.226 17.4744 117.586 17.4744C117.95 17.4744 118.256 17.5597 118.502 17.7301C118.75 17.9006 118.934 18.1349 119.052 18.4332H119.109C119.239 18.142 119.446 17.91 119.731 17.7372C120.015 17.562 120.353 17.4744 120.746 17.4744C121.241 17.4744 121.645 17.6295 121.957 17.9396C122.272 18.2498 122.429 18.7173 122.429 19.3423V23H121.368V19.4418C121.368 19.0724 121.267 18.8049 121.066 18.6392C120.865 18.4735 120.624 18.3906 120.345 18.3906C119.999 18.3906 119.731 18.4972 119.539 18.7102C119.347 18.9209 119.251 19.192 119.251 19.5234V23H118.193V19.3743C118.193 19.0784 118.101 18.8404 117.916 18.6605C117.731 18.4806 117.491 18.3906 117.195 18.3906C116.994 18.3906 116.808 18.4439 116.638 18.5504C116.469 18.6546 116.333 18.8002 116.229 18.9872C116.127 19.1742 116.076 19.3909 116.076 19.6371V23H115.015ZM126.103 23.1101C125.566 23.1101 125.103 22.9953 124.715 22.7656C124.329 22.5336 124.031 22.2081 123.82 21.7891C123.612 21.3677 123.508 20.8741 123.508 20.3082C123.508 19.7495 123.612 19.2571 123.82 18.831C124.031 18.4048 124.324 18.0722 124.701 17.8331C125.079 17.594 125.522 17.4744 126.029 17.4744C126.337 17.4744 126.635 17.5253 126.924 17.6271C127.213 17.7289 127.472 17.8887 127.701 18.1065C127.931 18.3243 128.112 18.6072 128.245 18.9553C128.377 19.3009 128.444 19.7211 128.444 20.2159V20.5923H124.108V19.7969H127.403C127.403 19.5175 127.346 19.2701 127.233 19.0547C127.119 18.8369 126.959 18.6652 126.753 18.5398C126.55 18.4143 126.311 18.3516 126.036 18.3516C125.738 18.3516 125.477 18.425 125.255 18.5717C125.035 18.7161 124.864 18.9055 124.743 19.1399C124.625 19.3719 124.566 19.6241 124.566 19.8963V20.5178C124.566 20.8823 124.63 21.1925 124.758 21.4482C124.888 21.7038 125.069 21.8991 125.301 22.0341C125.533 22.1667 125.804 22.233 126.114 22.233C126.315 22.233 126.499 22.2045 126.664 22.1477C126.83 22.0885 126.973 22.0009 127.094 21.8849C127.215 21.7689 127.307 21.6257 127.371 21.4553L128.376 21.6364C128.296 21.9323 128.151 22.1915 127.943 22.4141C127.737 22.6342 127.478 22.8059 127.165 22.929C126.855 23.0497 126.501 23.1101 126.103 23.1101ZM135.523 20.7379V17.5455H136.589V23H135.545V22.0554H135.488C135.362 22.3466 135.161 22.5893 134.884 22.7834C134.61 22.9751 134.268 23.071 133.858 23.071C133.508 23.071 133.197 22.9941 132.928 22.8402C132.66 22.6839 132.449 22.4531 132.295 22.1477C132.144 21.8423 132.068 21.4647 132.068 21.0149V17.5455H133.13V20.8871C133.13 21.2588 133.233 21.5547 133.439 21.7749C133.645 21.995 133.912 22.1051 134.241 22.1051C134.44 22.1051 134.638 22.0554 134.835 21.956C135.033 21.8565 135.198 21.7062 135.328 21.505C135.461 21.3037 135.526 21.0481 135.523 20.7379ZM137.915 25.0455V17.5455H138.952V18.4297H139.041C139.103 18.3161 139.191 18.1847 139.307 18.0355C139.423 17.8864 139.584 17.7562 139.79 17.6449C139.996 17.5312 140.269 17.4744 140.607 17.4744C141.048 17.4744 141.441 17.5857 141.786 17.8082C142.132 18.0308 142.403 18.3516 142.599 18.7706C142.798 19.1896 142.898 19.6939 142.898 20.2834C142.898 20.8729 142.799 21.3783 142.603 21.7997C142.406 22.2187 142.137 22.5419 141.793 22.7692C141.45 22.9941 141.058 23.1065 140.618 23.1065C140.286 23.1065 140.015 23.0509 139.805 22.9396C139.596 22.8284 139.433 22.6982 139.315 22.549C139.196 22.3999 139.105 22.2673 139.041 22.1513H138.977V25.0455H137.915ZM138.956 20.2727C138.956 20.6562 139.012 20.9924 139.123 21.2812C139.234 21.5701 139.395 21.7962 139.606 21.9595C139.816 22.1205 140.075 22.201 140.38 22.201C140.697 22.201 140.962 22.117 141.175 21.9489C141.388 21.7784 141.549 21.5476 141.658 21.2564C141.77 20.9652 141.825 20.6373 141.825 20.2727C141.825 19.9129 141.771 19.5897 141.662 19.3033C141.555 19.0168 141.394 18.7907 141.179 18.625C140.966 18.4593 140.7 18.3764 140.38 18.3764C140.072 18.3764 139.812 18.4557 139.599 18.6143C139.388 18.773 139.228 18.9943 139.119 19.2784C139.01 19.5625 138.956 19.8939 138.956 20.2727ZM146.029 23.1065C145.589 23.1065 145.196 22.9941 144.85 22.7692C144.507 22.5419 144.237 22.2187 144.041 21.7997C143.846 21.3783 143.749 20.8729 143.749 20.2834C143.749 19.6939 143.848 19.1896 144.044 18.7706C144.243 18.3516 144.515 18.0308 144.861 17.8082C145.207 17.5857 145.598 17.4744 146.036 17.4744C146.375 17.4744 146.647 17.5312 146.853 17.6449C147.061 17.7562 147.222 17.8864 147.336 18.0355C147.452 18.1847 147.542 18.3161 147.606 18.4297H147.67V15.7273H148.732V23H147.695V22.1513H147.606C147.542 22.2673 147.45 22.3999 147.329 22.549C147.211 22.6982 147.047 22.8284 146.839 22.9396C146.631 23.0509 146.361 23.1065 146.029 23.1065ZM146.264 22.201C146.569 22.201 146.827 22.1205 147.038 21.9595C147.251 21.7962 147.412 21.5701 147.521 21.2812C147.632 20.9924 147.688 20.6562 147.688 20.2727C147.688 19.8939 147.633 19.5625 147.524 19.2784C147.415 18.9943 147.256 18.773 147.045 18.6143C146.834 18.4557 146.574 18.3764 146.264 18.3764C145.944 18.3764 145.678 18.4593 145.465 18.625C145.252 18.7907 145.091 19.0168 144.982 19.3033C144.875 19.5897 144.822 19.9129 144.822 20.2727C144.822 20.6373 144.876 20.9652 144.985 21.2564C145.094 21.5476 145.255 21.7784 145.468 21.9489C145.684 22.117 145.949 22.201 146.264 22.201ZM151.734 23.1207C151.389 23.1207 151.076 23.0568 150.797 22.929C150.518 22.7988 150.296 22.6106 150.133 22.3643C149.972 22.1181 149.891 21.8163 149.891 21.4588C149.891 21.151 149.951 20.8977 150.069 20.6989C150.187 20.5 150.347 20.3426 150.548 20.2266C150.75 20.1106 150.974 20.023 151.223 19.9638C151.472 19.9046 151.725 19.8596 151.983 19.8288C152.31 19.791 152.575 19.7602 152.778 19.7365C152.982 19.7105 153.13 19.669 153.222 19.6122C153.315 19.5554 153.361 19.4631 153.361 19.3352V19.3104C153.361 19.0002 153.273 18.7599 153.098 18.5895C152.925 18.419 152.667 18.3338 152.324 18.3338C151.966 18.3338 151.685 18.4131 151.479 18.5717C151.275 18.728 151.134 18.902 151.056 19.0938L150.058 18.8665C150.177 18.535 150.349 18.2675 150.577 18.0639C150.806 17.858 151.07 17.7088 151.369 17.6165C151.667 17.5218 151.981 17.4744 152.31 17.4744C152.528 17.4744 152.758 17.5005 153.002 17.5526C153.248 17.6023 153.478 17.6946 153.691 17.8295C153.907 17.9645 154.083 18.1574 154.22 18.4084C154.358 18.657 154.426 18.9801 154.426 19.3778V23H153.389V22.2543H153.347C153.278 22.3916 153.175 22.5265 153.038 22.6591C152.9 22.7917 152.724 22.9018 152.509 22.9893C152.293 23.0769 152.035 23.1207 151.734 23.1207ZM151.965 22.2685C152.259 22.2685 152.51 22.2105 152.718 22.0945C152.929 21.9785 153.089 21.8269 153.198 21.6399C153.309 21.4505 153.364 21.2481 153.364 21.0327V20.3295C153.327 20.3674 153.253 20.4029 153.144 20.4361C153.038 20.4669 152.916 20.4941 152.778 20.5178C152.641 20.5391 152.507 20.5592 152.377 20.5781C152.247 20.5947 152.138 20.6089 152.05 20.6207C151.845 20.6468 151.656 20.6906 151.486 20.7521C151.318 20.8137 151.183 20.9025 151.081 21.0185C150.982 21.1321 150.932 21.2836 150.932 21.473C150.932 21.7358 151.029 21.9347 151.223 22.0696C151.417 22.2022 151.665 22.2685 151.965 22.2685ZM158.287 17.5455V18.3977H155.307V17.5455H158.287ZM156.106 16.2386H157.168V21.3984C157.168 21.6044 157.199 21.7595 157.26 21.8636C157.322 21.9654 157.401 22.0353 157.498 22.0732C157.598 22.1087 157.705 22.1264 157.821 22.1264C157.907 22.1264 157.981 22.1205 158.045 22.1087C158.109 22.0968 158.159 22.0874 158.194 22.0803L158.386 22.9574C158.324 22.9811 158.237 23.0047 158.123 23.0284C158.01 23.0545 157.868 23.0687 157.697 23.071C157.418 23.0758 157.157 23.026 156.916 22.9219C156.674 22.8177 156.479 22.6567 156.33 22.4389C156.181 22.2211 156.106 21.9477 156.106 21.6186V16.2386ZM161.653 23.1101C161.116 23.1101 160.653 22.9953 160.265 22.7656C159.879 22.5336 159.581 22.2081 159.37 21.7891C159.162 21.3677 159.058 20.8741 159.058 20.3082C159.058 19.7495 159.162 19.2571 159.37 18.831C159.581 18.4048 159.874 18.0722 160.251 17.8331C160.629 17.594 161.072 17.4744 161.579 17.4744C161.887 17.4744 162.185 17.5253 162.474 17.6271C162.763 17.7289 163.022 17.8887 163.251 18.1065C163.481 18.3243 163.662 18.6072 163.795 18.9553C163.927 19.3009 163.994 19.7211 163.994 20.2159V20.5923H159.658V19.7969H162.953C162.953 19.5175 162.896 19.2701 162.783 19.0547C162.669 18.8369 162.509 18.6652 162.303 18.5398C162.1 18.4143 161.861 18.3516 161.586 18.3516C161.288 18.3516 161.027 18.425 160.805 18.5717C160.585 18.7161 160.414 18.9055 160.293 19.1399C160.175 19.3719 160.116 19.6241 160.116 19.8963V20.5178C160.116 20.8823 160.18 21.1925 160.308 21.4482C160.438 21.7038 160.619 21.8991 160.851 22.0341C161.083 22.1667 161.354 22.233 161.664 22.233C161.865 22.233 162.049 22.2045 162.214 22.1477C162.38 22.0885 162.523 22.0009 162.644 21.8849C162.765 21.7689 162.857 21.6257 162.921 21.4553L163.926 21.6364C163.846 21.9323 163.701 22.1915 163.493 22.4141C163.287 22.6342 163.028 22.8059 162.715 22.929C162.405 23.0497 162.051 23.1101 161.653 23.1101ZM169.159 18.8771L168.197 19.0476C168.156 18.9245 168.093 18.8073 168.005 18.696C167.92 18.5848 167.804 18.4936 167.657 18.4226C167.51 18.3516 167.327 18.3161 167.106 18.3161C166.806 18.3161 166.555 18.3835 166.354 18.5185C166.152 18.651 166.052 18.8227 166.052 19.0334C166.052 19.2157 166.119 19.3625 166.254 19.4737C166.389 19.585 166.607 19.6761 166.908 19.7472L167.774 19.946C168.276 20.062 168.65 20.2408 168.896 20.4822C169.142 20.7237 169.266 21.0374 169.266 21.4233C169.266 21.75 169.171 22.0412 168.981 22.2969C168.794 22.5502 168.533 22.7491 168.197 22.8935C167.863 23.0379 167.476 23.1101 167.035 23.1101C166.425 23.1101 165.926 22.9799 165.54 22.7195C165.155 22.4567 164.918 22.0838 164.83 21.6009L165.856 21.4446C165.92 21.7121 166.052 21.9145 166.251 22.0518C166.45 22.1868 166.709 22.2543 167.028 22.2543C167.376 22.2543 167.655 22.1821 167.863 22.0376C168.071 21.8909 168.175 21.7121 168.175 21.5014C168.175 21.331 168.111 21.1877 167.984 21.0717C167.858 20.9557 167.665 20.8681 167.405 20.8089L166.481 20.6065C165.972 20.4905 165.596 20.3059 165.352 20.0526C165.111 19.7992 164.99 19.4785 164.99 19.0902C164.99 18.7682 165.08 18.4865 165.26 18.245C165.44 18.0036 165.688 17.8153 166.006 17.6804C166.323 17.5431 166.686 17.4744 167.096 17.4744C167.685 17.4744 168.149 17.6023 168.488 17.858C168.826 18.1113 169.05 18.451 169.159 18.8771Z" fill="black"/>
<g clip-path="url(#clip0_270_36)">
<path d="M18.1587 20.9238C22.2587 16.8238 22.2587 10.1762 18.1587 6.07618C14.0586 1.97612 7.41108 1.97613 3.31102 6.07618C-0.789038 10.1762 -0.789038 16.8238 3.31102 20.9238C7.41108 25.0239 14.0586 25.0239 18.1587 20.9238Z" fill="url(#paint0_radial_270_36)"/>
<path d="M18.1587 20.9238C22.2587 16.8238 22.2587 10.1762 18.1587 6.07618C14.0586 1.97612 7.41108 1.97613 3.31102 6.07618C-0.789038 10.1762 -0.789038 16.8238 3.31102 20.9238C7.41108 25.0239 14.0586 25.0239 18.1587 20.9238Z" fill="url(#paint1_radial_270_36)"/>
<path opacity="0.18" d="M3.12024 11.1236C2.96473 11.485 2.75113 11.8012 2.41534 11.7624C2.163 11.7334 2.00009 11.4753 1.93857 11.229C1.78962 10.634 2.01006 10.0097 2.29287 9.46574C2.87958 8.3379 3.74311 7.26503 4.79719 6.54447C4.96437 6.43026 5.14835 6.32802 5.35 6.31007C5.55164 6.29213 5.77379 6.37786 5.86493 6.55871C6.13663 7.09871 4.99085 8.03999 4.67671 8.39971C4.17801 8.97018 3.75821 9.60928 3.43039 10.2925C3.34296 10.4748 3.25267 10.8157 3.12024 11.1239V11.1236Z" fill="white"/>
<path d="M9.66373 17.8304C9.30943 17.8239 8.97193 17.6769 8.72585 17.4217L5.28481 13.852C4.77244 13.3205 4.78811 12.4744 5.31956 11.962C5.85129 11.4496 6.69717 11.4653 7.20954 11.9967L9.72325 14.6044L14.8754 9.63796C15.4069 9.12559 16.253 9.14125 16.7654 9.67271C17.2778 10.2042 17.2621 11.0503 16.7307 11.5627L10.6164 17.4568C10.3612 17.7029 10.0186 17.8373 9.6643 17.8307L9.66373 17.8304Z" fill="white"/>
</g>
<defs>
<radialGradient id="paint0_radial_270_36" cx="0" cy="0" r="1" gradientUnits="userSpaceOnUse" gradientTransform="translate(9.33992 12.932) rotate(7.2) scale(13.6178)">
<stop stop-color="#75D982"/>
<stop offset="0.13" stop-color="#70D179"/>
<stop offset="0.47" stop-color="#67BF67"/>
<stop offset="0.74" stop-color="#51AA59"/>
<stop offset="0.84" stop-color="#48A153"/>
<stop offset="0.93" stop-color="#49A254"/>
<stop offset="0.96" stop-color="#50A958"/>
<stop offset="0.99" stop-color="#5CB460"/>
<stop offset="1" stop-color="#67BF67"/>
</radialGradient>
<radialGradient id="paint1_radial_270_36" cx="0" cy="0" r="1" gradientUnits="userSpaceOnUse" gradientTransform="translate(9.33992 12.932) rotate(7.2) scale(13.6178)">
<stop stop-color="#67BF67"/>
<stop offset="1" stop-color="#67BF67"/>
</radialGradient>
<clipPath id="clip0_270_36">
<rect width="21" height="21" fill="white" transform="translate(0.234863 3)"/>
</clipPath>
</defs>
</svg>
