<svg width="133" height="25" viewBox="0 0 133 25" fill="none" xmlns="http://www.w3.org/2000/svg">
<path d="M31.0005 3.63778C30.9626 3.30161 30.8064 3.04119 30.5317 2.85653C30.2571 2.66951 29.9115 2.57599 29.4948 2.57599C29.1965 2.57599 28.9385 2.62334 28.7207 2.71804C28.5029 2.81037 28.3336 2.93821 28.2128 3.10156C28.0945 3.26255 28.0353 3.44602 28.0353 3.65199C28.0353 3.82481 28.0755 3.97396 28.156 4.09943C28.2389 4.22491 28.3466 4.33026 28.4792 4.41548C28.6141 4.49834 28.7585 4.56818 28.9124 4.625C29.0663 4.67945 29.2143 4.72443 29.3563 4.75994L30.0665 4.9446C30.2985 5.00142 30.5365 5.07836 30.7803 5.17543C31.0242 5.27249 31.2503 5.40033 31.4586 5.55895C31.6669 5.71757 31.835 5.91406 31.9628 6.14844C32.0931 6.38281 32.1582 6.66335 32.1582 6.99006C32.1582 7.40199 32.0516 7.76776 31.8386 8.08736C31.6279 8.40696 31.3213 8.65909 30.9188 8.84375C30.5187 9.02841 30.0346 9.12074 29.4664 9.12074C28.9219 9.12074 28.4508 9.03433 28.053 8.86151C27.6553 8.68868 27.344 8.44366 27.1191 8.12642C26.8942 7.80682 26.7699 7.42803 26.7462 6.99006H27.8471C27.8684 7.25284 27.9536 7.47183 28.1028 7.64702C28.2543 7.81984 28.4472 7.94886 28.6816 8.03409C28.9183 8.11695 29.1776 8.15838 29.4593 8.15838C29.7694 8.15838 30.0452 8.10985 30.2867 8.01278C30.5306 7.91335 30.7223 7.77604 30.862 7.60085C31.0017 7.4233 31.0715 7.21615 31.0715 6.9794C31.0715 6.76397 31.01 6.58759 30.8869 6.45028C30.7661 6.31297 30.6016 6.19934 30.3932 6.10938C30.1873 6.01941 29.9541 5.9401 29.6937 5.87145L28.8343 5.63707C28.2519 5.47846 27.7903 5.24527 27.4494 4.9375C27.1108 4.62973 26.9415 4.22254 26.9415 3.71591C26.9415 3.29687 27.0552 2.93111 27.2824 2.61861C27.5097 2.30611 27.8175 2.06345 28.2057 1.89062C28.594 1.71544 29.032 1.62784 29.5197 1.62784C30.0121 1.62784 30.4465 1.71425 30.8229 1.88707C31.2017 2.0599 31.5 2.29782 31.7178 2.60085C31.9356 2.90151 32.0493 3.24716 32.0587 3.63778H31.0005ZM33.2842 9V3.54545H34.3034V4.43324H34.3708C34.4845 4.13258 34.6703 3.8982 34.9284 3.73011C35.1864 3.55966 35.4954 3.47443 35.8552 3.47443C36.2198 3.47443 36.5252 3.55966 36.7714 3.73011C37.02 3.90057 37.2035 4.13494 37.3218 4.43324H37.3786C37.5089 4.14205 37.716 3.91004 38.0001 3.73722C38.2842 3.56203 38.6227 3.47443 39.0157 3.47443C39.5105 3.47443 39.9142 3.6295 40.2267 3.93963C40.5415 4.24976 40.699 4.71733 40.699 5.34233V9H39.6372V5.44176C39.6372 5.07244 39.5366 4.80492 39.3353 4.6392C39.1341 4.47348 38.8938 4.39062 38.6144 4.39062C38.2688 4.39062 38.0001 4.49716 37.8083 4.71023C37.6166 4.92093 37.5207 5.192 37.5207 5.52344V9H36.4625V5.37429C36.4625 5.07836 36.3701 4.84044 36.1855 4.66051C36.0008 4.48059 35.7605 4.39062 35.4646 4.39062C35.2634 4.39062 35.0775 4.44389 34.9071 4.55043C34.739 4.65459 34.6028 4.80019 34.4987 4.98722C34.3969 5.17424 34.346 5.39086 34.346 5.63707V9H33.2842ZM43.6094 9.12074C43.2638 9.12074 42.9513 9.05682 42.6719 8.92898C42.3926 8.79877 42.1712 8.61056 42.0079 8.36435C41.8469 8.11813 41.7664 7.81629 41.7664 7.45881C41.7664 7.15104 41.8256 6.89773 41.944 6.69886C42.0623 6.5 42.2221 6.34257 42.4234 6.22656C42.6246 6.11056 42.8495 6.02296 43.0981 5.96378C43.3467 5.90459 43.6 5.85961 43.858 5.82884C44.1847 5.79096 44.4499 5.76018 44.6535 5.73651C44.8571 5.71046 45.005 5.66903 45.0974 5.61222C45.1897 5.5554 45.2359 5.46307 45.2359 5.33523V5.31037C45.2359 5.00024 45.1483 4.75994 44.9731 4.58949C44.8003 4.41903 44.5422 4.33381 44.1989 4.33381C43.8414 4.33381 43.5597 4.41312 43.3538 4.57173C43.1502 4.72798 43.0093 4.90199 42.9312 5.09375L41.9333 4.86648C42.0517 4.53504 42.2245 4.26752 42.4518 4.06392C42.6814 3.85795 42.9454 3.70881 43.2437 3.61648C43.542 3.52178 43.8556 3.47443 44.1847 3.47443C44.4025 3.47443 44.6333 3.50047 44.8772 3.55256C45.1234 3.60227 45.353 3.6946 45.5661 3.82955C45.7815 3.96449 45.9579 4.15743 46.0952 4.40838C46.2325 4.65696 46.3012 4.98011 46.3012 5.37784V9H45.2643V8.25426H45.2217C45.153 8.39157 45.05 8.52652 44.9127 8.65909C44.7754 8.79167 44.599 8.90175 44.3836 8.98935C44.1681 9.07694 43.9101 9.12074 43.6094 9.12074ZM43.8403 8.26847C44.1338 8.26847 44.3848 8.21046 44.5931 8.09446C44.8038 7.97846 44.9636 7.82694 45.0725 7.63991C45.1838 7.45052 45.2394 7.24811 45.2394 7.03267V6.32955C45.2015 6.36742 45.1281 6.40294 45.0192 6.43608C44.9127 6.46686 44.7908 6.49408 44.6535 6.51776C44.5162 6.53906 44.3824 6.55919 44.2522 6.57812C44.122 6.5947 44.0131 6.6089 43.9255 6.62074C43.7195 6.64678 43.5313 6.69058 43.3609 6.75213C43.1928 6.81368 43.0578 6.90246 42.956 7.01847C42.8566 7.1321 42.8069 7.28362 42.8069 7.47301C42.8069 7.7358 42.9039 7.93466 43.0981 8.0696C43.2922 8.20218 43.5396 8.26847 43.8403 8.26847ZM47.6154 9V3.54545H48.6417V4.41193H48.6985C48.798 4.11837 48.9732 3.88755 49.2241 3.71946C49.4774 3.54901 49.7639 3.46378 50.0835 3.46378C50.1498 3.46378 50.2279 3.46615 50.3179 3.47088C50.4102 3.47562 50.4824 3.48153 50.5345 3.48864V4.50426C50.4919 4.49242 50.4161 4.4794 50.3072 4.4652C50.1983 4.44863 50.0894 4.44034 49.9805 4.44034C49.7295 4.44034 49.5058 4.49361 49.3093 4.60014C49.1152 4.70431 48.9613 4.84991 48.8477 5.03693C48.734 5.22159 48.6772 5.43229 48.6772 5.66903V9H47.6154ZM54.2218 3.54545V4.39773H51.2424V3.54545H54.2218ZM52.0414 2.23864H53.1032V7.39844C53.1032 7.6044 53.1339 7.75947 53.1955 7.86364C53.257 7.96544 53.3363 8.03527 53.4334 8.07315C53.5328 8.10866 53.6406 8.12642 53.7566 8.12642C53.8418 8.12642 53.9164 8.1205 53.9803 8.10866C54.0442 8.09683 54.0939 8.08736 54.1294 8.08026L54.3212 8.95739C54.2596 8.98106 54.172 9.00473 54.0584 9.02841C53.9448 9.05445 53.8027 9.06866 53.6323 9.07102C53.3529 9.07576 53.0925 9.02604 52.851 8.92188C52.6095 8.81771 52.4142 8.65672 52.2651 8.43892C52.1159 8.22112 52.0414 7.94768 52.0414 7.61861V2.23864ZM57.8428 9V3.54545H58.9046V9H57.8428ZM58.379 2.70384C58.1943 2.70384 58.0357 2.64228 57.9032 2.51918C57.7729 2.3937 57.7078 2.24455 57.7078 2.07173C57.7078 1.89654 57.7729 1.7474 57.9032 1.62429C58.0357 1.49882 58.1943 1.43608 58.379 1.43608C58.5637 1.43608 58.7211 1.49882 58.8513 1.62429C58.9839 1.7474 59.0502 1.89654 59.0502 2.07173C59.0502 2.24455 58.9839 2.3937 58.8513 2.51918C58.7211 2.64228 58.5637 2.70384 58.379 2.70384ZM61.2948 5.76136V9H60.233V3.54545H61.2522V4.43324H61.3197C61.4451 4.14441 61.6416 3.91241 61.9092 3.73722C62.179 3.56203 62.5188 3.47443 62.9283 3.47443C63.3 3.47443 63.6255 3.55256 63.9049 3.70881C64.1842 3.86269 64.4009 4.09233 64.5547 4.39773C64.7086 4.70312 64.7856 5.08073 64.7856 5.53054V9H63.7238V5.65838C63.7238 5.26302 63.6208 4.95407 63.4148 4.73153C63.2089 4.50663 62.926 4.39418 62.5661 4.39418C62.3199 4.39418 62.1009 4.44744 61.9092 4.55398C61.7198 4.66051 61.5694 4.81676 61.4582 5.02273C61.3493 5.22633 61.2948 5.47254 61.2948 5.76136ZM68.6557 3.54545V4.39773H65.6763V3.54545H68.6557ZM66.4753 2.23864H67.5371V7.39844C67.5371 7.6044 67.5679 7.75947 67.6295 7.86364C67.691 7.96544 67.7703 8.03527 67.8674 8.07315C67.9668 8.10866 68.0745 8.12642 68.1905 8.12642C68.2758 8.12642 68.3503 8.1205 68.4143 8.10866C68.4782 8.09683 68.5279 8.08736 68.5634 8.08026L68.7552 8.95739C68.6936 8.98106 68.606 9.00473 68.4924 9.02841C68.3788 9.05445 68.2367 9.06866 68.0663 9.07102C67.7869 9.07576 67.5265 9.02604 67.285 8.92188C67.0435 8.81771 66.8482 8.65672 66.6991 8.43892C66.5499 8.22112 66.4753 7.94768 66.4753 7.61861V2.23864ZM69.7303 9V3.54545H70.7566V4.41193H70.8134C70.9128 4.11837 71.088 3.88755 71.3389 3.71946C71.5923 3.54901 71.8787 3.46378 72.1983 3.46378C72.2646 3.46378 72.3427 3.46615 72.4327 3.47088C72.525 3.47562 72.5972 3.48153 72.6493 3.48864V4.50426C72.6067 4.49242 72.5309 4.4794 72.422 4.4652C72.3131 4.44863 72.2042 4.44034 72.0953 4.44034C71.8444 4.44034 71.6207 4.49361 71.4242 4.60014C71.23 4.70431 71.0762 4.84991 70.9625 5.03693C70.8489 5.22159 70.7921 5.43229 70.7921 5.66903V9H69.7303ZM75.5704 9.11009C75.0591 9.11009 74.6128 8.9929 74.2317 8.75852C73.8505 8.52415 73.5546 8.19626 73.3439 7.77486C73.1332 7.35346 73.0278 6.86103 73.0278 6.29759C73.0278 5.73177 73.1332 5.23698 73.3439 4.81321C73.5546 4.38944 73.8505 4.06037 74.2317 3.82599C74.6128 3.59162 75.0591 3.47443 75.5704 3.47443C76.0818 3.47443 76.5281 3.59162 76.9092 3.82599C77.2904 4.06037 77.5863 4.38944 77.797 4.81321C78.0077 5.23698 78.1131 5.73177 78.1131 6.29759C78.1131 6.86103 78.0077 7.35346 77.797 7.77486C77.5863 8.19626 77.2904 8.52415 76.9092 8.75852C76.5281 8.9929 76.0818 9.11009 75.5704 9.11009ZM75.574 8.21875C75.9054 8.21875 76.1801 8.13116 76.3979 7.95597C76.6157 7.78078 76.7766 7.54759 76.8808 7.25639C76.9873 6.9652 77.0406 6.64441 77.0406 6.29403C77.0406 5.94602 76.9873 5.62642 76.8808 5.33523C76.7766 5.04167 76.6157 4.80611 76.3979 4.62855C76.1801 4.45099 75.9054 4.36222 75.574 4.36222C75.2402 4.36222 74.9632 4.45099 74.743 4.62855C74.5252 4.80611 74.3631 5.04167 74.2565 5.33523C74.1524 5.62642 74.1003 5.94602 74.1003 6.29403C74.1003 6.64441 74.1524 6.9652 74.2565 7.25639C74.3631 7.54759 74.5252 7.78078 74.743 7.95597C74.9632 8.13116 75.2402 8.21875 75.574 8.21875ZM81.2402 9.10653C80.7998 9.10653 80.4068 8.99408 80.0612 8.76918C79.7179 8.5419 79.448 8.21875 79.2515 7.79972C79.0574 7.37831 78.9603 6.87287 78.9603 6.28338C78.9603 5.69389 79.0586 5.18963 79.2551 4.7706C79.4539 4.35156 79.7262 4.03078 80.0718 3.80824C80.4175 3.5857 80.8093 3.47443 81.2473 3.47443C81.5858 3.47443 81.8581 3.53125 82.064 3.64489C82.2724 3.75616 82.4333 3.88636 82.547 4.03551C82.663 4.18466 82.7529 4.31605 82.8169 4.42969H82.8808V1.72727H83.9426V9H82.9056V8.15128H82.8169C82.7529 8.26728 82.6606 8.39986 82.5399 8.54901C82.4215 8.69815 82.2581 8.82836 82.0498 8.93963C81.8415 9.0509 81.5716 9.10653 81.2402 9.10653ZM81.4745 8.20099C81.7799 8.20099 82.038 8.1205 82.2487 7.95952C82.4617 7.79616 82.6227 7.57008 82.7316 7.28125C82.8429 6.99242 82.8985 6.65625 82.8985 6.27273C82.8985 5.89394 82.8441 5.5625 82.7352 5.27841C82.6263 4.99432 82.4665 4.77296 82.2558 4.61435C82.0451 4.45573 81.7847 4.37642 81.4745 4.37642C81.1549 4.37642 80.8886 4.45928 80.6755 4.625C80.4625 4.79072 80.3015 5.01681 80.1926 5.30327C80.086 5.58973 80.0328 5.91288 80.0328 6.27273C80.0328 6.63731 80.0872 6.9652 80.1961 7.25639C80.305 7.54759 80.466 7.77841 80.6791 7.94886C80.8945 8.11695 81.1597 8.20099 81.4745 8.20099ZM88.8133 6.73793V3.54545H89.8786V9H88.8346V8.0554H88.7778C88.6523 8.34659 88.4511 8.58925 88.1741 8.78338C87.8994 8.97514 87.5574 9.07102 87.1478 9.07102C86.7974 9.07102 86.4873 8.99408 86.2174 8.8402C85.9499 8.68395 85.7392 8.45312 85.5853 8.14773C85.4338 7.84233 85.358 7.46473 85.358 7.01491V3.54545H86.4198V6.88707C86.4198 7.25876 86.5228 7.55469 86.7288 7.77486C86.9347 7.99503 87.2022 8.10511 87.5313 8.10511C87.7302 8.10511 87.9279 8.0554 88.1244 7.95597C88.3232 7.85653 88.4878 7.7062 88.618 7.50497C88.7505 7.30374 88.8156 7.04806 88.8133 6.73793ZM93.5029 9.11009C92.9749 9.11009 92.5204 8.99053 92.1392 8.75142C91.7604 8.50994 91.4692 8.17732 91.2656 7.75355C91.0621 7.32978 90.9603 6.84446 90.9603 6.29759C90.9603 5.74361 91.0644 5.25473 91.2728 4.83097C91.4811 4.40483 91.7746 4.07221 92.1534 3.8331C92.5322 3.59399 92.9785 3.47443 93.4922 3.47443C93.9065 3.47443 94.2758 3.55137 94.6002 3.70526C94.9245 3.85677 95.1861 4.06984 95.385 4.34446C95.5862 4.61908 95.7058 4.93987 95.7436 5.30682H94.7103C94.6534 5.05114 94.5232 4.83097 94.3196 4.64631C94.1184 4.46165 93.8485 4.36932 93.51 4.36932C93.214 4.36932 92.9548 4.44744 92.7323 4.60369C92.5121 4.75758 92.3405 4.97775 92.2174 5.2642C92.0942 5.5483 92.0327 5.88447 92.0327 6.27273C92.0327 6.67045 92.0931 7.01373 92.2138 7.30256C92.3345 7.59138 92.505 7.8151 92.7252 7.97372C92.9477 8.13234 93.2093 8.21165 93.51 8.21165C93.7112 8.21165 93.8935 8.17495 94.0568 8.10156C94.2226 8.0258 94.3611 7.91809 94.4723 7.77841C94.586 7.63873 94.6653 7.47064 94.7103 7.27415H95.7436C95.7058 7.62689 95.5909 7.94176 95.3992 8.21875C95.2074 8.49574 94.9505 8.71354 94.6286 8.87216C94.309 9.03078 93.9337 9.11009 93.5029 9.11009ZM99.3253 3.54545V4.39773H96.3459V3.54545H99.3253ZM97.1449 2.23864H98.2067V7.39844C98.2067 7.6044 98.2374 7.75947 98.299 7.86364C98.3605 7.96544 98.4399 8.03527 98.5369 8.07315C98.6364 8.10866 98.7441 8.12642 98.8601 8.12642C98.9453 8.12642 99.0199 8.1205 99.0838 8.10866C99.1477 8.09683 99.1974 8.08736 99.2329 8.08026L99.4247 8.95739C99.3632 8.98106 99.2756 9.00473 99.1619 9.02841C99.0483 9.05445 98.9062 9.06866 98.7358 9.07102C98.4564 9.07576 98.196 9.02604 97.9545 8.92188C97.7131 8.81771 97.5177 8.65672 97.3686 8.43892C97.2194 8.22112 97.1449 7.94768 97.1449 7.61861V2.23864ZM100.4 9V3.54545H101.462V9H100.4ZM100.936 2.70384C100.751 2.70384 100.593 2.64228 100.46 2.51918C100.33 2.3937 100.265 2.24455 100.265 2.07173C100.265 1.89654 100.33 1.7474 100.46 1.62429C100.593 1.49882 100.751 1.43608 100.936 1.43608C101.121 1.43608 101.278 1.49882 101.408 1.62429C101.541 1.7474 101.607 1.89654 101.607 2.07173C101.607 2.24455 101.541 2.3937 101.408 2.51918C101.278 2.64228 101.121 2.70384 100.936 2.70384ZM105.088 9.11009C104.576 9.11009 104.13 8.9929 103.749 8.75852C103.368 8.52415 103.072 8.19626 102.861 7.77486C102.65 7.35346 102.545 6.86103 102.545 6.29759C102.545 5.73177 102.65 5.23698 102.861 4.81321C103.072 4.38944 103.368 4.06037 103.749 3.82599C104.13 3.59162 104.576 3.47443 105.088 3.47443C105.599 3.47443 106.045 3.59162 106.426 3.82599C106.808 4.06037 107.103 4.38944 107.314 4.81321C107.525 5.23698 107.63 5.73177 107.63 6.29759C107.63 6.86103 107.525 7.35346 107.314 7.77486C107.103 8.19626 106.808 8.52415 106.426 8.75852C106.045 8.9929 105.599 9.11009 105.088 9.11009ZM105.091 8.21875C105.423 8.21875 105.697 8.13116 105.915 7.95597C106.133 7.78078 106.294 7.54759 106.398 7.25639C106.505 6.9652 106.558 6.64441 106.558 6.29403C106.558 5.94602 106.505 5.62642 106.398 5.33523C106.294 5.04167 106.133 4.80611 105.915 4.62855C105.697 4.45099 105.423 4.36222 105.091 4.36222C104.757 4.36222 104.48 4.45099 104.26 4.62855C104.042 4.80611 103.88 5.04167 103.774 5.33523C103.67 5.62642 103.617 5.94602 103.617 6.29403C103.617 6.64441 103.67 6.9652 103.774 7.25639C103.88 7.54759 104.042 7.78078 104.26 7.95597C104.48 8.13116 104.757 8.21875 105.091 8.21875ZM109.777 5.76136V9H108.715V3.54545H109.735V4.43324H109.802C109.928 4.14441 110.124 3.91241 110.392 3.73722C110.661 3.56203 111.001 3.47443 111.411 3.47443C111.782 3.47443 112.108 3.55256 112.387 3.70881C112.667 3.86269 112.883 4.09233 113.037 4.39773C113.191 4.70312 113.268 5.08073 113.268 5.53054V9H112.206V5.65838C112.206 5.26302 112.103 4.95407 111.897 4.73153C111.691 4.50663 111.408 4.39418 111.049 4.39418C110.802 4.39418 110.583 4.44744 110.392 4.55398C110.202 4.66051 110.052 4.81676 109.941 5.02273C109.832 5.22633 109.777 5.47254 109.777 5.76136ZM118.679 4.87713L117.717 5.04759C117.677 4.92448 117.613 4.80729 117.525 4.69602C117.44 4.58475 117.324 4.49361 117.177 4.42259C117.03 4.35156 116.847 4.31605 116.627 4.31605C116.326 4.31605 116.075 4.38352 115.874 4.51847C115.673 4.65104 115.572 4.82268 115.572 5.03338C115.572 5.21567 115.64 5.36245 115.775 5.47372C115.909 5.58499 116.127 5.67614 116.428 5.74716L117.294 5.94602C117.796 6.06203 118.17 6.24077 118.417 6.48224C118.663 6.72372 118.786 7.03741 118.786 7.4233C118.786 7.75 118.691 8.04119 118.502 8.29688C118.315 8.55019 118.053 8.74905 117.717 8.89347C117.383 9.03788 116.996 9.11009 116.556 9.11009C115.945 9.11009 115.447 8.97988 115.061 8.71946C114.675 8.45668 114.438 8.08381 114.351 7.60085L115.377 7.4446C115.441 7.71212 115.572 7.91454 115.771 8.05185C115.97 8.18679 116.229 8.25426 116.549 8.25426C116.897 8.25426 117.175 8.18205 117.383 8.03764C117.592 7.89086 117.696 7.71212 117.696 7.50142C117.696 7.33097 117.632 7.18774 117.504 7.07173C117.378 6.95573 117.186 6.86813 116.925 6.80895L116.002 6.60653C115.493 6.49053 115.116 6.30587 114.873 6.05256C114.631 5.79924 114.51 5.47846 114.51 5.0902C114.51 4.76823 114.6 4.48651 114.78 4.24503C114.96 4.00355 115.209 3.81534 115.526 3.6804C115.843 3.54309 116.207 3.47443 116.616 3.47443C117.206 3.47443 117.67 3.60227 118.008 3.85795C118.347 4.11127 118.57 4.45099 118.679 4.87713ZM28.536 22.1207C28.1904 22.1207 27.8779 22.0568 27.5985 21.929C27.3191 21.7988 27.0978 21.6106 26.9344 21.3643C26.7735 21.1181 26.693 20.8163 26.693 20.4588C26.693 20.151 26.7521 19.8977 26.8705 19.6989C26.9889 19.5 27.1487 19.3426 27.3499 19.2266C27.5512 19.1106 27.7761 19.023 28.0246 18.9638C28.2732 18.9046 28.5265 18.8596 28.7846 18.8288C29.1113 18.791 29.3764 18.7602 29.58 18.7365C29.7836 18.7105 29.9316 18.669 30.0239 18.6122C30.1163 18.5554 30.1624 18.4631 30.1624 18.3352V18.3104C30.1624 18.0002 30.0748 17.7599 29.8996 17.5895C29.7268 17.419 29.4688 17.3338 29.1255 17.3338C28.768 17.3338 28.4863 17.4131 28.2803 17.5717C28.0767 17.728 27.9359 17.902 27.8577 18.0938L26.8599 17.8665C26.9782 17.535 27.1511 17.2675 27.3783 17.0639C27.608 16.858 27.8719 16.7088 28.1702 16.6165C28.4685 16.5218 28.7822 16.4744 29.1113 16.4744C29.3291 16.4744 29.5599 16.5005 29.8038 16.5526C30.05 16.6023 30.2796 16.6946 30.4927 16.8295C30.7081 16.9645 30.8845 17.1574 31.0218 17.4084C31.1591 17.657 31.2278 17.9801 31.2278 18.3778V22H30.1908V21.2543H30.1482C30.0796 21.3916 29.9766 21.5265 29.8393 21.6591C29.702 21.7917 29.5256 21.9018 29.3101 21.9893C29.0947 22.0769 28.8367 22.1207 28.536 22.1207ZM28.7668 21.2685C29.0604 21.2685 29.3113 21.2105 29.5197 21.0945C29.7304 20.9785 29.8902 20.8269 29.9991 20.6399C30.1103 20.4505 30.166 20.2481 30.166 20.0327V19.3295C30.1281 19.3674 30.0547 19.4029 29.9458 19.4361C29.8393 19.4669 29.7173 19.4941 29.58 19.5178C29.4427 19.5391 29.309 19.5592 29.1788 19.5781C29.0485 19.5947 28.9396 19.6089 28.8521 19.6207C28.6461 19.6468 28.4579 19.6906 28.2874 19.7521C28.1193 19.8137 27.9844 19.9025 27.8826 20.0185C27.7832 20.1321 27.7334 20.2836 27.7334 20.473C27.7334 20.7358 27.8305 20.9347 28.0246 21.0696C28.2188 21.2022 28.4662 21.2685 28.7668 21.2685ZM33.6038 18.7614V22H32.542V16.5455H33.5612V17.4332H33.6286C33.7541 17.1444 33.9506 16.9124 34.2181 16.7372C34.488 16.562 34.8277 16.4744 35.2373 16.4744C35.609 16.4744 35.9345 16.5526 36.2139 16.7088C36.4932 16.8627 36.7099 17.0923 36.8637 17.3977C37.0176 17.7031 37.0946 18.0807 37.0946 18.5305V22H36.0328V18.6584C36.0328 18.263 35.9298 17.9541 35.7238 17.7315C35.5179 17.5066 35.2349 17.3942 34.8751 17.3942C34.6289 17.3942 34.4099 17.4474 34.2181 17.554C34.0287 17.6605 33.8784 17.8168 33.7671 18.0227C33.6582 18.2263 33.6038 18.4725 33.6038 18.7614ZM40.4605 22.1065C40.0201 22.1065 39.6271 21.9941 39.2815 21.7692C38.9382 21.5419 38.6683 21.2187 38.4718 20.7997C38.2777 20.3783 38.1806 19.8729 38.1806 19.2834C38.1806 18.6939 38.2789 18.1896 38.4754 17.7706C38.6742 17.3516 38.9465 17.0308 39.2921 16.8082C39.6378 16.5857 40.0296 16.4744 40.4676 16.4744C40.8061 16.4744 41.0784 16.5312 41.2843 16.6449C41.4927 16.7562 41.6536 16.8864 41.7673 17.0355C41.8833 17.1847 41.9733 17.3161 42.0372 17.4297H42.1011V14.7273H43.1629V22H42.126V21.1513H42.0372C41.9733 21.2673 41.8809 21.3999 41.7602 21.549C41.6418 21.6982 41.4785 21.8284 41.2701 21.9396C41.0618 22.0509 40.7919 22.1065 40.4605 22.1065ZM40.6948 21.201C41.0002 21.201 41.2583 21.1205 41.469 20.9595C41.6821 20.7962 41.843 20.5701 41.9519 20.2812C42.0632 19.9924 42.1188 19.6562 42.1188 19.2727C42.1188 18.8939 42.0644 18.5625 41.9555 18.2784C41.8466 17.9943 41.6868 17.773 41.4761 17.6143C41.2654 17.4557 41.005 17.3764 40.6948 17.3764C40.3752 17.3764 40.1089 17.4593 39.8958 17.625C39.6828 17.7907 39.5218 18.0168 39.4129 18.3033C39.3063 18.5897 39.2531 18.9129 39.2531 19.2727C39.2531 19.6373 39.3075 19.9652 39.4164 20.2564C39.5253 20.5476 39.6863 20.7784 39.8994 20.9489C40.1148 21.117 40.38 21.201 40.6948 21.201ZM49.4757 22.1101C48.9383 22.1101 48.4754 21.9953 48.0872 21.7656C47.7013 21.5336 47.403 21.2081 47.1923 20.7891C46.984 20.3677 46.8798 19.8741 46.8798 19.3082C46.8798 18.7495 46.984 18.2571 47.1923 17.831C47.403 17.4048 47.6965 17.0722 48.073 16.8331C48.4518 16.594 48.8945 16.4744 49.4011 16.4744C49.7089 16.4744 50.0072 16.5253 50.296 16.6271C50.5848 16.7289 50.844 16.8887 51.0737 17.1065C51.3033 17.3243 51.4844 17.6072 51.617 17.9553C51.7496 18.3009 51.8159 18.7211 51.8159 19.2159V19.5923H47.4799V18.7969H50.7754C50.7754 18.5175 50.7186 18.2701 50.6049 18.0547C50.4913 17.8369 50.3315 17.6652 50.1255 17.5398C49.9219 17.4143 49.6828 17.3516 49.4082 17.3516C49.1099 17.3516 48.8495 17.425 48.6269 17.5717C48.4068 17.7161 48.2363 17.9055 48.1156 18.1399C47.9972 18.3719 47.938 18.6241 47.938 18.8963V19.5178C47.938 19.8823 48.0019 20.1925 48.1298 20.4482C48.26 20.7038 48.4411 20.8991 48.6731 21.0341C48.9051 21.1667 49.1762 21.233 49.4863 21.233C49.6876 21.233 49.871 21.2045 50.0367 21.1477C50.2025 21.0885 50.3457 21.0009 50.4664 20.8849C50.5872 20.7689 50.6795 20.6257 50.7434 20.4553L51.7484 20.6364C51.6679 20.9323 51.5235 21.1915 51.3152 21.4141C51.1092 21.6342 50.85 21.8059 50.5375 21.929C50.2273 22.0497 49.8734 22.1101 49.4757 22.1101ZM53.9557 18.7614V22H52.894V16.5455H53.9131V17.4332H53.9806C54.1061 17.1444 54.3026 16.9124 54.5701 16.7372C54.84 16.562 55.1797 16.4744 55.5893 16.4744C55.961 16.4744 56.2865 16.5526 56.5658 16.7088C56.8452 16.8627 57.0618 17.0923 57.2157 17.3977C57.3696 17.7031 57.4465 18.0807 57.4465 18.5305V22H56.3847V18.6584C56.3847 18.263 56.2817 17.9541 56.0758 17.7315C55.8698 17.5066 55.5869 17.3942 55.2271 17.3942C54.9808 17.3942 54.7619 17.4474 54.5701 17.554C54.3807 17.6605 54.2304 17.8168 54.1191 18.0227C54.0102 18.2263 53.9557 18.4725 53.9557 18.7614ZM61.0574 24.1591C60.6242 24.1591 60.2513 24.1023 59.9388 23.9886C59.6287 23.875 59.3754 23.7247 59.1789 23.5376C58.9824 23.3506 58.8356 23.1458 58.7386 22.9233L59.6512 22.5469C59.7151 22.651 59.8003 22.7611 59.9069 22.8771C60.0158 22.9955 60.1626 23.0961 60.3472 23.179C60.5342 23.2618 60.7745 23.3033 61.0681 23.3033C61.4706 23.3033 61.8032 23.205 62.066 23.0085C62.3288 22.8144 62.4601 22.5043 62.4601 22.0781V21.0057H62.3927C62.3288 21.1217 62.2364 21.2507 62.1157 21.3928C61.9973 21.5348 61.834 21.6579 61.6256 21.7621C61.4173 21.8662 61.1462 21.9183 60.8124 21.9183C60.3815 21.9183 59.9933 21.8177 59.6476 21.6165C59.3044 21.4129 59.0321 21.1134 58.8309 20.718C58.632 20.3203 58.5326 19.8314 58.5326 19.2514C58.5326 18.6714 58.6308 18.1742 58.8273 17.7599C59.0262 17.3456 59.2985 17.0284 59.6441 16.8082C59.9897 16.5857 60.3815 16.4744 60.8195 16.4744C61.1581 16.4744 61.4315 16.5312 61.6398 16.6449C61.8482 16.7562 62.0103 16.8864 62.1263 17.0355C62.2447 17.1847 62.3359 17.3161 62.3998 17.4297H62.4779V16.5455H63.5184V22.1207C63.5184 22.5895 63.4095 22.9742 63.1917 23.2749C62.9739 23.5755 62.6791 23.7981 62.3074 23.9425C61.9381 24.0869 61.5215 24.1591 61.0574 24.1591ZM61.0468 21.0376C61.3522 21.0376 61.6102 20.9666 61.8209 20.8246C62.034 20.6802 62.195 20.4742 62.3039 20.2067C62.4152 19.9368 62.4708 19.6136 62.4708 19.2372C62.4708 18.8703 62.4163 18.5471 62.3074 18.2678C62.1985 17.9884 62.0387 17.7706 61.828 17.6143C61.6173 17.4557 61.3569 17.3764 61.0468 17.3764C60.7272 17.3764 60.4609 17.4593 60.2478 17.625C60.0347 17.7884 59.8737 18.0109 59.7648 18.2926C59.6583 18.5743 59.605 18.8892 59.605 19.2372C59.605 19.5947 59.6595 19.9084 59.7684 20.1783C59.8773 20.4482 60.0383 20.6589 60.2513 20.8104C60.4668 20.9619 60.7319 21.0376 61.0468 21.0376ZM66.4297 22.1207C66.0841 22.1207 65.7716 22.0568 65.4922 21.929C65.2129 21.7988 64.9915 21.6106 64.8282 21.3643C64.6672 21.1181 64.5867 20.8163 64.5867 20.4588C64.5867 20.151 64.6459 19.8977 64.7643 19.6989C64.8826 19.5 65.0424 19.3426 65.2437 19.2266C65.4449 19.1106 65.6698 19.023 65.9184 18.9638C66.167 18.9046 66.4203 18.8596 66.6783 18.8288C67.005 18.791 67.2702 18.7602 67.4738 18.7365C67.6774 18.7105 67.8253 18.669 67.9177 18.6122C68.01 18.5554 68.0562 18.4631 68.0562 18.3352V18.3104C68.0562 18.0002 67.9686 17.7599 67.7934 17.5895C67.6206 17.419 67.3625 17.3338 67.0192 17.3338C66.6618 17.3338 66.38 17.4131 66.1741 17.5717C65.9705 17.728 65.8296 17.902 65.7515 18.0938L64.7536 17.8665C64.872 17.535 65.0448 17.2675 65.2721 17.0639C65.5017 16.858 65.7657 16.7088 66.064 16.6165C66.3623 16.5218 66.676 16.4744 67.005 16.4744C67.2228 16.4744 67.4537 16.5005 67.6975 16.5526C67.9437 16.6023 68.1734 16.6946 68.3864 16.8295C68.6019 16.9645 68.7782 17.1574 68.9155 17.4084C69.0529 17.657 69.1215 17.9801 69.1215 18.3778V22H68.0846V21.2543H68.042C67.9733 21.3916 67.8703 21.5265 67.733 21.6591C67.5957 21.7917 67.4193 21.9018 67.2039 21.9893C66.9885 22.0769 66.7304 22.1207 66.4297 22.1207ZM66.6606 21.2685C66.9541 21.2685 67.2051 21.2105 67.4134 21.0945C67.6241 20.9785 67.7839 20.8269 67.8928 20.6399C68.0041 20.4505 68.0597 20.2481 68.0597 20.0327V19.3295C68.0218 19.3674 67.9485 19.4029 67.8396 19.4361C67.733 19.4669 67.6111 19.4941 67.4738 19.5178C67.3365 19.5391 67.2027 19.5592 67.0725 19.5781C66.9423 19.5947 66.8334 19.6089 66.7458 19.6207C66.5398 19.6468 66.3516 19.6906 66.1812 19.7521C66.0131 19.8137 65.8781 19.9025 65.7763 20.0185C65.6769 20.1321 65.6272 20.2836 65.6272 20.473C65.6272 20.7358 65.7243 20.9347 65.9184 21.0696C66.1125 21.2022 66.3599 21.2685 66.6606 21.2685ZM72.7227 24.1591C72.2894 24.1591 71.9166 24.1023 71.6041 23.9886C71.2939 23.875 71.0406 23.7247 70.8441 23.5376C70.6476 23.3506 70.5009 23.1458 70.4038 22.9233L71.3164 22.5469C71.3804 22.651 71.4656 22.7611 71.5721 22.8771C71.681 22.9955 71.8278 23.0961 72.0125 23.179C72.1995 23.2618 72.4398 23.3033 72.7333 23.3033C73.1358 23.3033 73.4684 23.205 73.7312 23.0085C73.994 22.8144 74.1254 22.5043 74.1254 22.0781V21.0057H74.0579C73.994 21.1217 73.9017 21.2507 73.7809 21.3928C73.6626 21.5348 73.4992 21.6579 73.2909 21.7621C73.0825 21.8662 72.8115 21.9183 72.4777 21.9183C72.0468 21.9183 71.6585 21.8177 71.3129 21.6165C70.9696 21.4129 70.6974 21.1134 70.4961 20.718C70.2973 20.3203 70.1978 19.8314 70.1978 19.2514C70.1978 18.6714 70.2961 18.1742 70.4926 17.7599C70.6914 17.3456 70.9637 17.0284 71.3093 16.8082C71.655 16.5857 72.0468 16.4744 72.4848 16.4744C72.8233 16.4744 73.0967 16.5312 73.3051 16.6449C73.5134 16.7562 73.6756 16.8864 73.7916 17.0355C73.9099 17.1847 74.0011 17.3161 74.065 17.4297H74.1431V16.5455H75.1836V22.1207C75.1836 22.5895 75.0747 22.9742 74.8569 23.2749C74.6391 23.5755 74.3444 23.7981 73.9727 23.9425C73.6034 24.0869 73.1867 24.1591 72.7227 24.1591ZM72.712 21.0376C73.0174 21.0376 73.2755 20.9666 73.4862 20.8246C73.6992 20.6802 73.8602 20.4742 73.9691 20.2067C74.0804 19.9368 74.136 19.6136 74.136 19.2372C74.136 18.8703 74.0816 18.5471 73.9727 18.2678C73.8638 17.9884 73.704 17.7706 73.4933 17.6143C73.2826 17.4557 73.0222 17.3764 72.712 17.3764C72.3924 17.3764 72.1261 17.4593 71.913 17.625C71.7 17.7884 71.539 18.0109 71.4301 18.2926C71.3235 18.5743 71.2703 18.8892 71.2703 19.2372C71.2703 19.5947 71.3247 19.9084 71.4336 20.1783C71.5425 20.4482 71.7035 20.6589 71.9166 20.8104C72.132 20.9619 72.3972 21.0376 72.712 21.0376ZM78.8585 22.1101C78.3211 22.1101 77.8582 21.9953 77.47 21.7656C77.0841 21.5336 76.7858 21.2081 76.5751 20.7891C76.3668 20.3677 76.2626 19.8741 76.2626 19.3082C76.2626 18.7495 76.3668 18.2571 76.5751 17.831C76.7858 17.4048 77.0794 17.0722 77.4558 16.8331C77.8346 16.594 78.2773 16.4744 78.7839 16.4744C79.0917 16.4744 79.39 16.5253 79.6788 16.6271C79.9676 16.7289 80.2268 16.8887 80.4565 17.1065C80.6861 17.3243 80.8672 17.6072 80.9998 17.9553C81.1324 18.3009 81.1987 18.7211 81.1987 19.2159V19.5923H76.8627V18.7969H80.1582C80.1582 18.5175 80.1014 18.2701 79.9877 18.0547C79.8741 17.8369 79.7143 17.6652 79.5083 17.5398C79.3047 17.4143 79.0656 17.3516 78.791 17.3516C78.4927 17.3516 78.2323 17.425 78.0098 17.5717C77.7896 17.7161 77.6191 17.9055 77.4984 18.1399C77.38 18.3719 77.3208 18.6241 77.3208 18.8963V19.5178C77.3208 19.8823 77.3848 20.1925 77.5126 20.4482C77.6428 20.7038 77.8239 20.8991 78.0559 21.0341C78.2879 21.1667 78.559 21.233 78.8691 21.233C79.0704 21.233 79.2538 21.2045 79.4196 21.1477C79.5853 21.0885 79.7285 21.0009 79.8492 20.8849C79.97 20.7689 80.0623 20.6257 80.1262 20.4553L81.1312 20.6364C81.0507 20.9323 80.9063 21.1915 80.698 21.4141C80.492 21.6342 80.2328 21.8059 79.9203 21.929C79.6101 22.0497 79.2562 22.1101 78.8585 22.1101ZM82.2768 22V16.5455H83.2959V17.4332H83.3634C83.4771 17.1326 83.6629 16.8982 83.9209 16.7301C84.179 16.5597 84.4879 16.4744 84.8478 16.4744C85.2124 16.4744 85.5178 16.5597 85.764 16.7301C86.0126 16.9006 86.196 17.1349 86.3144 17.4332H86.3712C86.5014 17.142 86.7086 16.91 86.9927 16.7372C87.2768 16.562 87.6153 16.4744 88.0083 16.4744C88.5031 16.4744 88.9067 16.6295 89.2192 16.9396C89.5341 17.2498 89.6915 17.7173 89.6915 18.3423V22H88.6298V18.4418C88.6298 18.0724 88.5291 17.8049 88.3279 17.6392C88.1267 17.4735 87.8864 17.3906 87.607 17.3906C87.2614 17.3906 86.9927 17.4972 86.8009 17.7102C86.6092 17.9209 86.5133 18.192 86.5133 18.5234V22H85.455V18.3743C85.455 18.0784 85.3627 17.8404 85.178 17.6605C84.9934 17.4806 84.7531 17.3906 84.4572 17.3906C84.2559 17.3906 84.0701 17.4439 83.8996 17.5504C83.7315 17.6546 83.5954 17.8002 83.4913 17.9872C83.3895 18.1742 83.3386 18.3909 83.3386 18.6371V22H82.2768ZM93.3655 22.1101C92.8281 22.1101 92.3653 21.9953 91.977 21.7656C91.5911 21.5336 91.2928 21.2081 91.0821 20.7891C90.8738 20.3677 90.7696 19.8741 90.7696 19.3082C90.7696 18.7495 90.8738 18.2571 91.0821 17.831C91.2928 17.4048 91.5864 17.0722 91.9628 16.8331C92.3416 16.594 92.7843 16.4744 93.2909 16.4744C93.5987 16.4744 93.897 16.5253 94.1858 16.6271C94.4746 16.7289 94.7339 16.8887 94.9635 17.1065C95.1932 17.3243 95.3743 17.6072 95.5068 17.9553C95.6394 18.3009 95.7057 18.7211 95.7057 19.2159V19.5923H91.3698V18.7969H94.6652C94.6652 18.5175 94.6084 18.2701 94.4948 18.0547C94.3811 17.8369 94.2213 17.6652 94.0154 17.5398C93.8118 17.4143 93.5727 17.3516 93.298 17.3516C92.9997 17.3516 92.7393 17.425 92.5168 17.5717C92.2966 17.7161 92.1262 17.9055 92.0054 18.1399C91.8871 18.3719 91.8279 18.6241 91.8279 18.8963V19.5178C91.8279 19.8823 91.8918 20.1925 92.0196 20.4482C92.1498 20.7038 92.3309 20.8991 92.563 21.0341C92.795 21.1667 93.066 21.233 93.3762 21.233C93.5774 21.233 93.7609 21.2045 93.9266 21.1477C94.0923 21.0885 94.2355 21.0009 94.3563 20.8849C94.477 20.7689 94.5693 20.6257 94.6333 20.4553L95.6382 20.6364C95.5577 20.9323 95.4133 21.1915 95.205 21.4141C94.999 21.6342 94.7398 21.8059 94.4273 21.929C94.1172 22.0497 93.7632 22.1101 93.3655 22.1101ZM97.8456 18.7614V22H96.7838V16.5455H97.803V17.4332H97.8704C97.9959 17.1444 98.1924 16.9124 98.4599 16.7372C98.7298 16.562 99.0695 16.4744 99.4791 16.4744C99.8508 16.4744 100.176 16.5526 100.456 16.7088C100.735 16.8627 100.952 17.0923 101.106 17.3977C101.259 17.7031 101.336 18.0807 101.336 18.5305V22H100.275V18.6584C100.275 18.263 100.172 17.9541 99.9656 17.7315C99.7597 17.5066 99.4767 17.3942 99.1169 17.3942C98.8707 17.3942 98.6517 17.4474 98.4599 17.554C98.2705 17.6605 98.1202 17.8168 98.0089 18.0227C97.9 18.2263 97.8456 18.4725 97.8456 18.7614ZM105.207 16.5455V17.3977H102.227V16.5455H105.207ZM103.026 15.2386H104.088V20.3984C104.088 20.6044 104.119 20.7595 104.18 20.8636C104.242 20.9654 104.321 21.0353 104.418 21.0732C104.518 21.1087 104.625 21.1264 104.741 21.1264C104.827 21.1264 104.901 21.1205 104.965 21.1087C105.029 21.0968 105.079 21.0874 105.114 21.0803L105.306 21.9574C105.244 21.9811 105.157 22.0047 105.043 22.0284C104.93 22.0545 104.787 22.0687 104.617 22.071C104.338 22.0758 104.077 22.026 103.836 21.9219C103.594 21.8177 103.399 21.6567 103.25 21.4389C103.101 21.2211 103.026 20.9477 103.026 20.6186V15.2386ZM111.374 16.5455V17.3977H108.394V16.5455H111.374ZM109.193 15.2386H110.255V20.3984C110.255 20.6044 110.286 20.7595 110.347 20.8636C110.409 20.9654 110.488 21.0353 110.585 21.0732C110.685 21.1087 110.793 21.1264 110.909 21.1264C110.994 21.1264 111.068 21.1205 111.132 21.1087C111.196 21.0968 111.246 21.0874 111.281 21.0803L111.473 21.9574C111.412 21.9811 111.324 22.0047 111.21 22.0284C111.097 22.0545 110.955 22.0687 110.784 22.071C110.505 22.0758 110.244 22.026 110.003 21.9219C109.761 21.8177 109.566 21.6567 109.417 21.4389C109.268 21.2211 109.193 20.9477 109.193 20.6186V15.2386ZM114.687 22.1101C114.176 22.1101 113.73 21.9929 113.348 21.7585C112.967 21.5241 112.671 21.1963 112.461 20.7749C112.25 20.3535 112.145 19.861 112.145 19.2976C112.145 18.7318 112.25 18.237 112.461 17.8132C112.671 17.3894 112.967 17.0604 113.348 16.826C113.73 16.5916 114.176 16.4744 114.687 16.4744C115.199 16.4744 115.645 16.5916 116.026 16.826C116.407 17.0604 116.703 17.3894 116.914 17.8132C117.125 18.237 117.23 18.7318 117.23 19.2976C117.23 19.861 117.125 20.3535 116.914 20.7749C116.703 21.1963 116.407 21.5241 116.026 21.7585C115.645 21.9929 115.199 22.1101 114.687 22.1101ZM114.691 21.2188C115.022 21.2188 115.297 21.1312 115.515 20.956C115.732 20.7808 115.893 20.5476 115.998 20.2564C116.104 19.9652 116.157 19.6444 116.157 19.294C116.157 18.946 116.104 18.6264 115.998 18.3352C115.893 18.0417 115.732 17.8061 115.515 17.6286C115.297 17.451 115.022 17.3622 114.691 17.3622C114.357 17.3622 114.08 17.451 113.86 17.6286C113.642 17.8061 113.48 18.0417 113.373 18.3352C113.269 18.6264 113.217 18.946 113.217 19.294C113.217 19.6444 113.269 19.9652 113.373 20.2564C113.48 20.5476 113.642 20.7808 113.86 20.956C114.08 21.1312 114.357 21.2188 114.691 21.2188ZM120.613 22.1101C120.101 22.1101 119.655 21.9929 119.274 21.7585C118.893 21.5241 118.597 21.1963 118.386 20.7749C118.175 20.3535 118.07 19.861 118.07 19.2976C118.07 18.7318 118.175 18.237 118.386 17.8132C118.597 17.3894 118.893 17.0604 119.274 16.826C119.655 16.5916 120.101 16.4744 120.613 16.4744C121.124 16.4744 121.57 16.5916 121.951 16.826C122.333 17.0604 122.628 17.3894 122.839 17.8132C123.05 18.237 123.155 18.7318 123.155 19.2976C123.155 19.861 123.05 20.3535 122.839 20.7749C122.628 21.1963 122.333 21.5241 121.951 21.7585C121.57 21.9929 121.124 22.1101 120.613 22.1101ZM120.616 21.2188C120.948 21.2188 121.222 21.1312 121.44 20.956C121.658 20.7808 121.819 20.5476 121.923 20.2564C122.03 19.9652 122.083 19.6444 122.083 19.294C122.083 18.946 122.03 18.6264 121.923 18.3352C121.819 18.0417 121.658 17.8061 121.44 17.6286C121.222 17.451 120.948 17.3622 120.616 17.3622C120.282 17.3622 120.005 17.451 119.785 17.6286C119.567 17.8061 119.405 18.0417 119.299 18.3352C119.195 18.6264 119.142 18.946 119.142 19.294C119.142 19.6444 119.195 19.9652 119.299 20.2564C119.405 20.5476 119.567 20.7808 119.785 20.956C120.005 21.1312 120.282 21.2188 120.616 21.2188ZM125.302 14.7273V22H124.24V14.7273H125.302ZM130.718 17.8771L129.756 18.0476C129.715 17.9245 129.652 17.8073 129.564 17.696C129.479 17.5848 129.363 17.4936 129.216 17.4226C129.069 17.3516 128.886 17.3161 128.665 17.3161C128.365 17.3161 128.114 17.3835 127.913 17.5185C127.711 17.651 127.611 17.8227 127.611 18.0334C127.611 18.2157 127.678 18.3625 127.813 18.4737C127.948 18.585 128.166 18.6761 128.467 18.7472L129.333 18.946C129.835 19.062 130.209 19.2408 130.455 19.4822C130.701 19.7237 130.825 20.0374 130.825 20.4233C130.825 20.75 130.73 21.0412 130.54 21.2969C130.353 21.5502 130.092 21.7491 129.756 21.8935C129.422 22.0379 129.035 22.1101 128.594 22.1101C127.984 22.1101 127.485 21.9799 127.099 21.7195C126.714 21.4567 126.477 21.0838 126.389 20.6009L127.415 20.4446C127.479 20.7121 127.611 20.9145 127.81 21.0518C128.009 21.1868 128.268 21.2543 128.587 21.2543C128.935 21.2543 129.214 21.1821 129.422 21.0376C129.63 20.8909 129.734 20.7121 129.734 20.5014C129.734 20.331 129.67 20.1877 129.543 20.0717C129.417 19.9557 129.224 19.8681 128.964 19.8089L128.04 19.6065C127.531 19.4905 127.155 19.3059 126.911 19.0526C126.67 18.7992 126.549 18.4785 126.549 18.0902C126.549 17.7682 126.639 17.4865 126.819 17.245C126.999 17.0036 127.247 16.8153 127.565 16.6804C127.882 16.5431 128.245 16.4744 128.655 16.4744C129.244 16.4744 129.708 16.6023 130.047 16.858C130.385 17.1113 130.609 17.451 130.718 17.8771Z" fill="black"/>
<g clip-path="url(#clip0_110_942)">
<path d="M18.1587 19.9238C22.2587 15.8238 22.2587 9.17624 18.1587 5.07618C14.0586 0.976125 7.41108 0.976125 3.31102 5.07618C-0.789038 9.17624 -0.789038 15.8238 3.31102 19.9238C7.41108 24.0239 14.0586 24.0239 18.1587 19.9238Z" fill="url(#paint0_radial_110_942)"/>
<path d="M18.1587 19.9238C22.2587 15.8238 22.2587 9.17624 18.1587 5.07618C14.0586 0.976125 7.41108 0.976125 3.31102 5.07618C-0.789038 9.17624 -0.789038 15.8238 3.31102 19.9238C7.41108 24.0239 14.0586 24.0239 18.1587 19.9238Z" fill="url(#paint1_radial_110_942)"/>
<path opacity="0.18" d="M3.12024 10.1236C2.96473 10.485 2.75113 10.8012 2.41534 10.7624C2.163 10.7334 2.00009 10.4753 1.93857 10.229C1.78962 9.63402 2.01006 9.00972 2.29287 8.46574C2.87958 7.3379 3.74311 6.26503 4.79719 5.54447C4.96437 5.43026 5.14835 5.32802 5.35 5.31007C5.55164 5.29213 5.77379 5.37786 5.86493 5.55871C6.13663 6.09871 4.99085 7.03999 4.67671 7.39971C4.17801 7.97018 3.75821 8.60928 3.43039 9.29254C3.34296 9.47481 3.25267 9.81573 3.12024 10.1239V10.1236Z" fill="white"/>
<path d="M9.66373 16.8304C9.30943 16.8239 8.97193 16.6769 8.72585 16.4217L5.28481 12.852C4.77244 12.3205 4.78811 11.4744 5.31956 10.962C5.85129 10.4496 6.69717 10.4653 7.20954 10.9967L9.72325 13.6044L14.8754 8.63796C15.4069 8.12559 16.253 8.14125 16.7654 8.67271C17.2778 9.20416 17.2621 10.0503 16.7307 10.5627L10.6164 16.4568C10.3612 16.7029 10.0186 16.8373 9.6643 16.8307L9.66373 16.8304Z" fill="white"/>
</g>
<defs>
<radialGradient id="paint0_radial_110_942" cx="0" cy="0" r="1" gradientUnits="userSpaceOnUse" gradientTransform="translate(9.33992 11.932) rotate(7.2) scale(13.6178)">
<stop stop-color="#75D982"/>
<stop offset="0.13" stop-color="#70D179"/>
<stop offset="0.47" stop-color="#67BF67"/>
<stop offset="0.74" stop-color="#51AA59"/>
<stop offset="0.84" stop-color="#48A153"/>
<stop offset="0.93" stop-color="#49A254"/>
<stop offset="0.96" stop-color="#50A958"/>
<stop offset="0.99" stop-color="#5CB460"/>
<stop offset="1" stop-color="#67BF67"/>
</radialGradient>
<radialGradient id="paint1_radial_110_942" cx="0" cy="0" r="1" gradientUnits="userSpaceOnUse" gradientTransform="translate(9.33992 11.932) rotate(7.2) scale(13.6178)">
<stop stop-color="#67BF67"/>
<stop offset="1" stop-color="#67BF67"/>
</radialGradient>
<clipPath id="clip0_110_942">
<rect width="21" height="21" fill="white" transform="translate(0.234863 2)"/>
</clipPath>
</defs>
</svg>
