<svg width="1323" height="978" viewBox="0 0 1323 978" fill="none" xmlns="http://www.w3.org/2000/svg">
<path fill-rule="evenodd" clip-rule="evenodd" d="M2980.73 977.906V1.06871C2660.86 144.62 2113.31 239.254 1491.55 239.254C868.255 239.254 319.529 144.15 0 0V977.906H14.6304C336.117 837.401 877.667 745.148 1491.55 745.148C2105.44 745.148 2646.99 837.401 2968.48 977.906H2980.73Z" fill="url(#paint0_linear_162_19)" fill-opacity="0.3"/>
<mask id="mask0_162_19" style="mask-type:alpha" maskUnits="userSpaceOnUse" x="0" y="0" width="2981" height="978">
<path fill-rule="evenodd" clip-rule="evenodd" d="M2980.73 977.906V1.06871C2660.86 144.62 2113.31 239.254 1491.55 239.254C868.255 239.254 319.529 144.15 0 0V977.906H14.6304C336.117 837.401 877.667 745.148 1491.55 745.148C2105.44 745.148 2646.99 837.401 2968.48 977.906H2980.73Z" fill="black"/>
</mask>
<g mask="url(#mask0_162_19)">
<path d="M725.703 1319.38C724.946 1308.81 704.433 1076.4 693.076 994.996C677.622 884.318 675.385 720.471 706.258 608.209L865.06 608.622C911.386 669.092 916.962 761.588 808.099 857.837L804.52 1072.89C799.357 1116.42 821.694 1134.81 809.889 1223.44C805.552 1255.95 798.944 1315.7 797.567 1319.35C795.261 1353.23 728.629 1359.74 725.738 1319.35L725.703 1319.38Z" fill="#FFC4B0"/>
<path d="M709.665 608.209L865.06 608.622C882.131 697.674 920.369 825.742 923.983 932.839C925.772 986.283 929.455 1024.82 939.161 1064.56C955.785 1132.57 963.012 1149.24 966.075 1215.8C967.073 1237.25 966.11 1330.37 966.075 1348.34C917.96 1417.56 893.592 1348.34 893.592 1348.34C893.592 1348.34 875.729 1282.26 870.464 1261.39C853.152 1193.14 842.964 1134.01 824.585 1091.31C789.169 1009.01 756.714 852.292 756.714 852.292C756.714 852.292 704.296 689.306 709.665 608.209Z" fill="#FFC4B0"/>
<path d="M969.001 1203.16C969.001 1159.91 965.697 1148.27 956.92 1113.9C942.878 1059.18 935.272 1029.88 929.903 961.455C920.438 840.86 957.609 703.976 873.699 617.714L701.921 617.404C661.756 702.977 662.616 838.897 676.383 969.065C683.611 1037.46 688.223 1040.55 692.766 1079.47C699.581 1138.32 702.506 1150.34 710.043 1208.09C745.012 1228.54 789.066 1227.23 815.086 1208.16C821.556 1175.72 818.287 1141.35 815.568 1113.11C812.677 1083.05 811.678 1068.86 811.678 1068.86C811.678 1068.86 813.124 1074.58 824.138 1107.4C826.856 1115.56 838.765 1151.44 853.048 1213.32C882.097 1233.57 948.006 1230.78 969.035 1203.13L969.001 1203.16Z" fill="#0FB287"/>
<path d="M853.633 620.537C873.63 649.567 911.42 703.735 912.556 797.229C913.554 880.392 914.449 960.732 929.799 1036.39C942.603 1099.44 971.548 1139.66 969.035 1203.16" stroke="#303030" stroke-width="1.5" stroke-linecap="round" stroke-linejoin="round"/>
<path d="M895.588 700.153C870.739 709.486 860.586 694.093 849.228 670.16C837.87 646.226 824.723 622.259 824.723 622.259" stroke="#303030" stroke-width="1.5" stroke-linecap="round" stroke-linejoin="round"/>
<path d="M744.426 620.95C744.013 630.145 736.751 691.854 736.751 723.157C736.751 750.568 746.01 776.877 753.031 797.367C772.958 855.323 774.542 930.876 796.225 1013.38C801.697 1034.18 812.504 1079.43 812.504 1079.43" stroke="#303030" stroke-width="1.5" stroke-linecap="round" stroke-linejoin="round"/>
<path d="M736.751 731.904C744.495 728.15 757.574 725.602 759.914 687.378C762.255 649.154 765.524 622.293 765.524 622.293" stroke="#303030" stroke-width="1.5" stroke-linecap="round" stroke-linejoin="round"/>
<path d="M789.513 391.537C791.751 391.64 793.334 392.432 796.672 392.811C799.632 393.156 803.039 392.467 805.896 391.881C806.653 391.709 815.74 388.266 815.017 387.749C822.451 393.121 831.09 397.426 840.279 397.529C849.469 397.632 859.106 392.673 862.41 384.133C865.783 390.538 873.458 394.326 880.582 393.121C877.519 388.438 877.829 381.792 881.305 377.453C883.267 375.008 886.674 370.875 888.877 368.637C893.971 363.472 896.896 354.794 896.311 347.562C895.691 339.539 892.284 333.34 886.812 327.486C881.064 321.356 876.899 315.95 875.557 309.166C872.632 294.152 873.595 282.684 853.84 274.316C848.849 270.563 827.786 252.794 792.164 260.37C756.541 267.98 747.696 292.051 747.696 292.051C714.311 295.805 717.615 317.534 719.439 323.147C721.057 328.278 725.256 333.202 723.604 338.333C722.296 342.431 717.822 344.428 714.69 347.355C708.77 352.831 707.565 362.335 711.007 369.636C714.449 376.936 721.883 381.895 729.799 383.376C728.009 379.484 728.422 374.663 730.832 371.151C731.348 377.384 735.616 382.894 740.916 386.199C749.968 391.847 762.564 393.534 772.993 393.362C777.364 393.293 781.46 392.949 785.727 391.95C787.311 391.572 788.481 391.503 789.548 391.537H789.513Z" fill="#303030"/>
<path d="M854.322 500.045C856.455 499.357 858.348 500.011 861.653 499.357C864.578 498.771 867.366 496.361 869.706 494.295C870.326 493.744 876.899 484.687 875.97 484.136C885.745 489.956 896.07 493.571 904.64 490.197C913.21 486.822 919.508 475.148 917.96 460.031C924.499 469.053 933.688 472.221 939.643 467.538C934.308 461.167 931.038 450.32 931.933 441.917C932.449 437.2 933.379 429.245 934.239 424.803C936.201 414.506 934.239 399.389 929.834 387.921C924.946 375.214 918.476 366.537 910.25 359.167C901.646 351.454 894.865 344.36 889.978 333.926C879.205 310.784 873.94 291.913 851.155 286.059C844.513 281.927 815.43 261.334 786.485 287.299C757.505 313.264 762.22 355.586 762.22 355.586C733.275 374.526 748.006 408.273 752.687 416.676C756.954 424.32 763.494 430.691 764.698 439.576C765.662 446.669 762.633 451.628 761.257 457.551C758.71 468.674 762.702 484.515 769.792 494.949C776.882 505.383 786.45 510.548 794.573 509.894C790.821 504.315 788.619 496.395 788.997 489.749C792.818 499.632 799.735 506.864 806.447 510.17C817.873 515.817 830.436 513.682 840.038 509.378C844.031 507.587 847.679 505.417 851.086 502.215C852.36 501.01 853.392 500.39 854.39 500.08L854.322 500.045Z" fill="#303030"/>
<path d="M873.492 299.593C873.767 306.446 879.928 311.749 884.506 316.156C889.806 321.287 895.829 325.936 899.718 332.341C906.292 343.223 904.537 358.1 895.898 367.329C892.904 370.531 889.083 372.597 885.745 375.352C883.232 377.418 879.137 380.38 878.861 383.892C878.62 387.198 873.458 387.198 873.699 383.892C874.215 376.971 881.167 372.184 886.33 368.499C892.043 364.436 896.276 359.753 897.894 352.728C899.305 346.701 898.479 340.227 895.244 334.89C891.458 328.657 885.332 324.077 880.169 319.084C874.662 313.746 868.674 307.616 868.329 299.524C868.192 296.184 873.354 296.218 873.492 299.524V299.593Z" fill="#303030"/>
<path d="M740.193 291.397C729.351 293.635 717.34 299.558 718.785 312.575C719.129 315.64 720.162 318.636 721.642 321.322C723.122 324.008 725.118 326.625 726.323 329.552C728.56 334.924 727.286 341.191 722.674 344.911C717.512 349.077 709.837 348.32 705.328 343.568C703.022 341.157 706.67 337.507 708.976 339.917C712.659 343.809 719.095 343.223 721.539 338.23C724.258 332.651 718.992 327.658 716.686 322.975C714.036 317.637 712.762 311.542 714.001 305.653C715.068 300.419 718.372 296.115 722.571 292.981C727.286 289.468 733.103 287.574 738.816 286.404C742.051 285.715 743.428 290.708 740.193 291.397Z" fill="#303030"/>
<path d="M740.875 326.543C734.071 291.81 756.696 258.135 791.41 251.327C826.124 244.519 859.781 267.156 866.585 301.889C873.389 336.621 850.764 370.297 816.05 377.105C781.337 383.913 747.679 361.275 740.875 326.543Z" fill="#303030"/>
<path d="M836.941 272.595C832.81 315.192 853.977 326.212 853.977 326.212C850.673 331.481 848.023 337.163 846.13 343.051C851.327 337.231 858.796 332.824 866.849 332.824C874.903 332.824 883.163 338.161 884.609 345.737C886.054 353.244 880.513 360.82 873.182 363.713C865.851 366.605 856.146 366.054 847.748 360.889C843.893 367.948 836.355 374.698 826.03 378.727L825.583 409.1L856.042 419.121C856.042 419.121 832.638 460.823 774.645 450.492C733.654 443.191 749.348 413.714 749.348 413.714L776.848 404.692L781.219 382.687C767.933 380.277 729.902 364.953 740.537 314.435C742.671 304.276 746.801 295.15 752.205 287.437C772.58 259.957 808.89 259.234 836.975 272.664L836.941 272.595Z" fill="#FFC4B0"/>
<path d="M781.15 366.536C780.806 367.432 780.565 368.327 780.427 369.291L780.531 368.603C780.393 369.67 780.393 370.772 780.531 371.84L780.427 371.151C780.496 371.702 780.599 372.218 780.737 372.735C781.081 374.043 780.29 375.593 778.947 375.903C777.605 376.213 776.159 375.49 775.781 374.112C774.989 371.22 775.093 367.983 776.194 365.193C776.435 364.539 776.745 364.023 777.364 363.644C777.915 363.334 778.741 363.196 779.36 363.368C779.98 363.54 780.599 363.954 780.909 364.539C781.219 365.124 781.425 365.882 781.184 366.536H781.15Z" fill="#303030"/>
<path d="M874.8 345.634C873.045 344.256 868.57 343.016 863.924 343.981C859.277 344.945 855.32 348.32 853.736 352.59" stroke="#303030" stroke-width="1.5" stroke-linecap="round" stroke-linejoin="round"/>
<path d="M866.746 350.145C865.438 349.146 860.792 346.494 856.008 348.733" stroke="#303030" stroke-width="1.5" stroke-linecap="round" stroke-linejoin="round"/>
<path d="M834.91 329.173C834.876 330.344 835.771 331.308 836.941 331.377C838.111 331.412 839.075 330.516 839.144 329.345C839.178 328.175 838.283 327.21 837.113 327.142C835.943 327.107 834.979 328.002 834.91 329.173Z" fill="#303030"/>
<path d="M809.441 382.239C809.441 382.239 798.496 385.752 781.116 382.618L779.704 390.022C779.704 390.022 796.603 392.398 809.441 382.205V382.239Z" fill="#303030"/>
<path d="M789.858 305.378C789.273 309.751 787.689 315.02 781.976 322.768C781.322 323.663 780.599 324.593 780.255 325.661C779.773 327.279 780.255 329.035 781.116 330.482C782.011 331.894 783.284 333.03 784.592 334.132" stroke="#303030" stroke-width="1.5" stroke-linecap="round" stroke-linejoin="round"/>
<path d="M751.035 307.823C753.685 303.484 759.157 301.073 764.354 301.9C769.551 302.761 776.297 306.962 775.884 314.434C772.236 321.149 755.509 319.324 751.035 307.823Z" fill="white"/>
<path d="M754.064 310.474C754.993 314.262 758.951 316.604 762.943 315.674C766.936 314.744 769.414 310.888 768.519 307.1C767.59 303.312 763.632 300.97 759.639 301.9C755.647 302.829 753.169 306.686 754.064 310.474Z" fill="#303030"/>
<path d="M769.069 307.031L761.291 308.787L769.173 311.094L769.069 307.031Z" fill="white"/>
<path d="M775.884 314.434C773.957 307.685 769.448 305.068 765.008 303.587C760.121 301.934 756.129 302.451 751.241 306.066" stroke="#303030" stroke-width="1.5" stroke-linecap="round" stroke-linejoin="round"/>
<path d="M747.042 301.9C747.524 303.897 749.245 305.515 751.241 305.963" stroke="#303030" stroke-width="1.5" stroke-linecap="round" stroke-linejoin="round"/>
<path d="M775.505 288.332C768.14 286.266 760.672 287.609 754.683 291.397" stroke="#303030" stroke-width="1.5" stroke-linecap="round" stroke-linejoin="round"/>
<path d="M825.687 318.395C824.172 313.539 819.457 309.854 814.226 309.407C808.96 308.959 801.422 311.37 799.977 318.704C801.87 326.108 818.528 328.45 825.687 318.395Z" fill="white"/>
<path d="M801.973 318.808C802.971 322.596 806.998 324.834 810.956 323.836C814.914 322.837 817.323 318.946 816.325 315.158C815.327 311.37 811.3 309.131 807.342 310.13C803.384 311.129 800.975 315.02 801.973 318.808Z" fill="#303030"/>
<path d="M816.875 315.02L809.166 316.983L817.082 319.118L816.875 315.02Z" fill="white"/>
<path d="M799.977 318.705C803.487 312.609 808.512 311.198 813.193 310.853C818.321 310.44 822.107 311.921 825.927 316.604" stroke="#303030" stroke-width="1.5" stroke-linecap="round" stroke-linejoin="round"/>
<path d="M831.021 313.608C830.057 315.433 827.992 316.604 825.962 316.501" stroke="#303030" stroke-width="1.5" stroke-linecap="round" stroke-linejoin="round"/>
<path d="M808.271 292.464C817.564 292.327 823.311 294.221 829.369 301.004" stroke="#303030" stroke-width="1.5" stroke-linecap="round" stroke-linejoin="round"/>
<path d="M790.993 347.493C786.829 347.631 781.735 348.354 780.186 351.97C778.19 347.562 774.955 346.185 774.955 346.185C774.955 346.185 778.947 344.084 783.249 344.635C787.517 345.186 791.028 347.493 791.028 347.493H790.993Z" fill="#303030"/>
<path d="M797.877 349.628C796.5 351.591 791.062 356.24 782.63 354.794C780.806 354.415 780.737 353.279 780.186 351.97C780.531 350.248 783.456 347.011 790.993 347.493C792.921 348.836 795.846 349.491 797.877 349.594V349.628Z" fill="white"/>
<path d="M770.928 346.253C775.093 346.529 779.119 344.256 783.25 344.635C786.485 344.945 789.307 346.804 792.301 348.078C795.296 349.353 798.978 350.007 801.594 348.044" stroke="#303030" stroke-width="1.5" stroke-linecap="round" stroke-linejoin="round"/>
<path d="M774.576 346.322C777.26 347.838 779.429 349.869 780.53 352.796C780.702 353.278 780.978 354.415 782.63 354.828C785.658 355.586 794.159 355 798.049 349.422" stroke="#303030" stroke-width="1.5" stroke-linecap="round" stroke-linejoin="round"/>
<path d="M796.087 257.615C783.835 268.875 781.735 290.329 787.311 295.736C792.886 301.142 843.962 307.065 843.962 307.065C843.962 307.065 853.152 282.202 842.172 270.873C831.228 259.543 796.087 257.615 796.087 257.615Z" fill="#303030"/>
<path d="M796.087 257.615C781.391 259.027 772.821 276.383 769.31 284.957C765.8 293.497 761.394 296.459 745.287 295.563C729.18 294.668 747.318 244.357 796.087 257.615Z" fill="#303030"/>
<path d="M719.715 503.558C719.13 504.901 694.349 564.888 684.024 580.66C673.699 596.432 666.987 602.562 652.428 602.562C635.426 602.562 577.089 602.562 577.089 602.562L558.985 557.485L630.918 545.053C630.918 545.053 655.801 494.845 664.578 476.766C673.354 458.687 671.289 446.359 715.585 429.761L719.68 503.558H719.715Z" fill="#FFC4B0"/>
<path d="M704.055 429.796C682.062 437.027 675.867 442.812 665.576 463.44C651.671 491.298 637.113 523.944 637.113 523.944C637.113 523.944 649.331 551.596 704.055 557.519V429.796Z" fill="#5E8DD3"/>
<path d="M702.196 597.327L701.198 620.641C701.198 620.641 715 634.209 755.578 636.998C796.19 639.787 849.503 630.524 873.664 617.714L872.012 591.611L702.162 597.327H702.196Z" fill="#303030"/>
<path d="M816.979 639.856L807.72 640.201L802.799 606.246L812.091 605.868L816.979 639.856Z" fill="#00826F"/>
<path d="M709.252 632.624L716.686 632.659L719.715 598.533L712.281 598.498L709.252 632.624Z" fill="#00826F"/>
<path d="M748.212 613.512C729.868 611.859 727.114 631.178 746.939 633.244C760.706 634.691 762.702 634.312 763.012 625.427C763.39 613.685 760.844 614.649 748.212 613.512Z" stroke="white" stroke-width="1.5" stroke-linecap="round" stroke-linejoin="round"/>
<path d="M762.978 624.808L753.272 624.188" stroke="white" stroke-width="1.5" stroke-linecap="round" stroke-linejoin="round"/>
<path d="M704.055 429.796C727.493 420.567 756.679 411.303 756.679 411.303C752.687 444.156 820.765 451.008 847.679 415.539C864.303 421.703 880.273 427.11 898.273 437.716C898.273 437.716 909.906 452.386 886.984 522.257C873.699 562.754 883.99 585.826 872.976 594.848C861.962 603.87 837.457 613.237 776.332 612.824C735.168 612.548 704.812 598.395 701.164 594.194C692.146 583.863 695.141 545.019 695.141 545.019C695.141 545.019 683.542 526.458 685.71 508.31C687.844 490.369 693.145 480.968 701.99 466.78L704.089 429.865L704.055 429.796Z" fill="#5E8DD3"/>
<path d="M701.955 466.677L703.573 437.854" stroke="#2C5E9B" stroke-width="1.5" stroke-linecap="round" stroke-linejoin="round"/>
<path d="M872.976 594.779C861.962 603.801 837.457 613.168 776.331 612.755C735.168 612.479 704.812 598.326 701.163 594.125C692.146 583.794 695.14 544.95 695.14 544.95C695.14 544.95 683.542 526.389 685.71 508.241C687.844 490.3 693.144 480.899 701.99 466.711" stroke="#2C5E9B" stroke-width="1.5" stroke-linecap="round" stroke-linejoin="round"/>
<path d="M701.955 466.677C710.422 453.763 716.617 447.496 716.617 447.496" stroke="#2C5E9B" stroke-width="1.5" stroke-linecap="round" stroke-linejoin="round"/>
<path d="M845.924 507.69C854.976 466.401 865.886 448.012 897.309 443.777C929.765 456.656 924.499 489.474 902.541 586.446C899.477 600.013 891.802 615.096 886.33 620.331L842.241 614.167L828.509 577.837L845.924 507.656V507.69Z" fill="#FFC4B0"/>
<path d="M857.832 591.508C854.597 586.205 841.794 577.63 828.474 577.871" stroke="#303030" stroke-width="1.5" stroke-linecap="round" stroke-linejoin="round"/>
<path d="M897.068 436.993C916.583 449.252 928.457 457.723 923.639 496.636C918.82 535.549 912.935 565.612 912.935 565.612C912.935 565.612 906.327 570.639 884.093 567.609C861.859 564.579 837.526 551.631 833.499 544.399C841.931 501.251 846.406 473.598 859.484 460.065" fill="#5E8DD3"/>
<path d="M912.935 565.646C912.935 565.646 906.326 570.674 884.093 567.644C861.859 564.613 837.526 551.665 833.499 544.434C841.931 501.285 846.406 473.633 859.484 460.099" fill="#5E8DD3"/>
<path d="M912.935 565.646C912.935 565.646 906.326 570.674 884.093 567.644C861.859 564.613 837.526 551.665 833.499 544.434C841.931 501.285 846.406 473.633 859.484 460.099" stroke="#2C5E9B" stroke-width="1.5" stroke-linecap="round" stroke-linejoin="round"/>
<path d="M883.37 578.801C872.907 559.275 852.601 551.321 823.036 526.802C792.37 501.423 768.175 481.381 761.222 474.838C755.303 469.294 750.415 468.915 739.78 474.218C731.107 478.557 726.151 481.209 717.202 486.719C709.149 491.677 700.647 496.739 704.261 500.562C706.395 502.8 713.761 501.836 719.577 499.667C725.394 497.497 737.818 491.264 737.818 491.264C737.818 491.264 735.444 498.048 733.585 504.419C731.761 510.789 735.581 515.783 739.952 514.853C740.882 523.014 746.801 522.842 749.486 521.017C752.136 527.388 755.303 528.007 758.951 528.903C768.106 531.176 768.794 527.835 768.794 527.835C768.794 527.835 770.033 531.107 773.268 535.549C776.504 539.991 779.532 542.298 784.316 543.469C791.923 545.294 795.881 549.014 802.076 560.446C811.678 578.043 818.975 591.404 830.952 606.143C841.518 619.125 872.184 635.93 886.261 620.365C895.726 609.931 890.563 592.3 883.336 578.801H883.37Z" fill="#FFC4B0"/>
<path d="M749.279 493.916C746.388 499.804 742.189 508.689 739.987 514.887" stroke="#303030" stroke-width="1.5" stroke-linecap="round" stroke-linejoin="round"/>
<path d="M758.297 499.597C755.406 505.486 751.207 515.541 749.52 521.017" stroke="#303030" stroke-width="1.5" stroke-linecap="round" stroke-linejoin="round"/>
<path d="M743.704 482.724C741.673 484.824 739.952 487.028 737.818 491.264" stroke="#303030" stroke-width="1.5" stroke-linecap="round" stroke-linejoin="round"/>
<path d="M646.887 609.724L606.516 513.889C605.965 512.58 604.76 511.685 603.384 511.513L545.184 504.625C543.91 504.488 542.774 504.935 541.983 505.727C541.054 506.657 538.163 509.687 537.337 510.514C536.304 511.581 535.891 513.2 536.545 514.75L576.917 610.585C577.467 611.894 578.672 612.789 580.049 612.961L613.916 616.922L638.249 619.849C639.556 619.986 640.727 619.504 641.518 618.678C642.413 617.748 645.27 614.786 646.061 613.96C647.094 612.892 647.507 611.274 646.853 609.724H646.887Z" fill="white" stroke="#303030" stroke-width="1.5" stroke-linecap="round" stroke-linejoin="round"/>
<path d="M638.73 617.3C639.35 617.3 639.729 616.887 639.832 616.68C639.969 616.474 640.176 616.061 639.969 615.544L599.598 519.743C599.391 519.226 598.978 518.916 598.496 518.847L540.262 511.96C539.505 511.96 539.161 512.373 539.023 512.545C538.885 512.752 538.679 513.2 538.92 513.785L579.291 609.621C579.463 610.069 579.876 610.379 580.358 610.413L614.225 614.373L638.73 617.3Z" fill="#5E8DD3"/>
<path d="M542.155 514.784L581.391 607.934L614.535 611.825L636.7 614.477L597.464 521.327L542.155 514.784ZM540.124 509.377C540.124 509.377 540.434 509.377 540.606 509.377L598.806 516.265C600.217 516.437 601.387 517.332 601.972 518.71L642.344 614.545C643.411 617.059 641.449 619.883 638.73 619.883C638.558 619.883 638.421 619.883 638.248 619.883L613.915 616.956L580.048 612.996C578.637 612.824 577.467 611.928 576.916 610.62L536.545 514.784C535.443 512.167 537.405 509.377 540.124 509.377Z" fill="#303030"/>
<path d="M601.938 547.291L595.227 546.499L585.865 545.398C585.487 545.363 585.143 545.088 585.005 544.743L576.882 525.459C576.573 524.701 577.192 523.875 578.018 523.978L594.091 525.872C594.47 525.907 594.814 526.182 594.986 526.561L603.109 545.845C603.418 546.568 602.799 547.395 601.973 547.291H601.938Z" fill="#303030"/>
<path d="M552.893 559.034L558.675 572.912L548.797 570.88L545.562 558.862L552.893 559.034Z" fill="#AD6163"/>
<path d="M543.532 549.805C533.206 550.77 535.031 561.686 539.918 565.887C536.889 569.331 538.989 578.628 544.908 581.865C540.262 585.137 545.838 593.884 552.618 595.468C550.622 601.184 553.754 605.764 562.874 607.21C571.995 608.691 579.257 608.175 582.733 606.212C586.244 604.249 585.28 598.911 583.181 597.603C588.343 595.778 588.653 588.512 581.77 585.068C584.316 578.938 581.804 576.597 573.819 573.601C566.867 571.018 554.476 568.125 551.344 567.402C550.863 567.299 550.518 566.955 550.312 566.541C549.933 565.612 550.587 564.578 551.62 564.544C554.993 564.406 561.67 564.027 565.869 562.788C571.685 561.066 573.475 554.282 567.383 552.319C561.291 550.356 546.87 549.495 543.532 549.805Z" fill="#FFC4B0"/>
<path d="M553.719 578.181C562.943 580.454 572.305 581.9 581.77 582.52C585.074 582.727 585.108 587.892 581.77 587.685C571.857 587.065 562.014 585.55 552.377 583.174C549.142 582.382 550.518 577.389 553.754 578.181H553.719Z" fill="#303030"/>
<path d="M558.09 591.025C566.247 593.608 574.679 594.951 583.215 594.951C586.553 594.951 586.553 600.116 583.215 600.116C574.232 600.116 565.284 598.739 556.714 596.019C553.547 595.02 554.924 590.027 558.09 591.025Z" fill="#303030"/>
<path d="M631.95 541.816C636.768 541.61 641.656 542.78 646.13 544.468C649.985 545.914 653.84 547.739 657.178 550.15C658.314 550.976 658.865 552.388 658.107 553.697C657.453 554.799 655.698 555.453 654.562 554.626C651.568 552.457 648.195 550.77 644.753 549.461C640.658 547.911 636.355 546.844 631.95 547.016C628.612 547.154 628.646 541.988 631.95 541.851V541.816Z" fill="#303030"/>
</g>
<defs>
<linearGradient id="paint0_linear_162_19" x1="2980.73" y1="108.831" x2="8.42014" y2="777.604" gradientUnits="userSpaceOnUse">
<stop stop-color="white"/>
<stop offset="0.42066" stop-color="#FFAFAB"/>
<stop offset="0.588582" stop-color="#98E5CD"/>
<stop offset="1" stop-color="white"/>
</linearGradient>
</defs>
</svg>
