<svg width="10" height="10" viewBox="0 0 10 10" fill="none" xmlns="http://www.w3.org/2000/svg">
<path d="M3.8424 4.92287C3.8424 4.0882 4.51865 3.41139 5.35308 3.41139C6.1875 3.41139 6.86412 4.0882 6.86412 4.92287C6.86412 5.75754 6.1875 6.43435 5.35308 6.43435C4.51865 6.43435 3.8424 5.75754 3.8424 4.92287ZM3.02556 4.92287C3.02556 6.20873 4.06759 7.25106 5.35308 7.25106C6.63857 7.25106 7.6806 6.20873 7.6806 4.92287C7.6806 3.637 6.63857 2.59467 5.35308 2.59467C4.06759 2.59467 3.02556 3.637 3.02556 4.92287ZM7.22881 2.50236C7.22877 2.60997 7.26062 2.71518 7.32036 2.80468C7.38009 2.89418 7.46501 2.96395 7.56438 3.00517C7.66376 3.04639 7.77312 3.05721 7.87864 3.03626C7.98416 3.0153 8.0811 2.96352 8.1572 2.88746C8.2333 2.8114 8.28515 2.71447 8.30618 2.60894C8.32721 2.5034 8.31648 2.394 8.27535 2.29457C8.23422 2.19513 8.16454 2.11013 8.07511 2.05031C7.98569 1.99049 7.88054 1.95853 7.77296 1.95849H7.77274C7.62854 1.95856 7.49026 2.01587 7.38827 2.11785C7.28629 2.21982 7.22893 2.35812 7.22881 2.50236ZM3.52184 8.61349C3.07991 8.59336 2.83971 8.51973 2.68009 8.45752C2.46846 8.37511 2.31747 8.27696 2.15871 8.11837C1.99996 7.95979 1.90169 7.8089 1.81966 7.59721C1.75743 7.43761 1.68382 7.19727 1.66373 6.75521C1.64176 6.27729 1.63737 6.13372 1.63737 4.9229C1.63737 3.71209 1.64212 3.56892 1.66373 3.09059C1.68386 2.64854 1.75801 2.40867 1.81966 2.2486C1.90205 2.03691 2.00017 1.88587 2.15871 1.72707C2.31725 1.56827 2.4681 1.46997 2.68009 1.38792C2.83964 1.32568 3.07991 1.25205 3.52184 1.23195C3.99963 1.20997 4.14316 1.20558 5.35308 1.20558C6.563 1.20558 6.70667 1.21033 7.18486 1.23195C7.62678 1.25208 7.86659 1.32626 8.02661 1.38792C8.23824 1.46997 8.38923 1.56849 8.54799 1.72707C8.70674 1.88565 8.80465 2.03691 8.88704 2.2486C8.94926 2.4082 9.02288 2.64854 9.04297 3.09059C9.06494 3.56892 9.06933 3.71209 9.06933 4.9229C9.06933 6.13372 9.06494 6.27689 9.04297 6.75521C9.02284 7.19727 8.94886 7.43754 8.88704 7.59721C8.80465 7.8089 8.70653 7.95993 8.54799 8.11837C8.38945 8.27681 8.23824 8.37511 8.02661 8.45752C7.86706 8.51976 7.62678 8.5934 7.18486 8.61349C6.70707 8.63547 6.56354 8.63986 5.35308 8.63986C4.14261 8.63986 3.99948 8.63547 3.52184 8.61349ZM3.48431 0.416252C3.00177 0.438233 2.67204 0.514769 2.38408 0.626851C2.08586 0.742597 1.8334 0.89788 1.58113 1.14983C1.32885 1.40178 1.17401 1.65471 1.0583 1.95301C0.946251 2.24123 0.869738 2.57088 0.847763 3.05356C0.825425 3.537 0.820312 3.69156 0.820312 4.92287C0.820312 6.15418 0.825425 6.30873 0.847763 6.79217C0.869738 7.27489 0.946251 7.6045 1.0583 7.89272C1.17401 8.19085 1.32889 8.44406 1.58113 8.6959C1.83337 8.94775 2.08586 9.10281 2.38408 9.21888C2.67258 9.33097 3.00177 9.4075 3.48431 9.42948C3.96786 9.45146 4.12212 9.45694 5.35308 9.45694C6.58403 9.45694 6.73854 9.45183 7.22185 9.42948C7.70442 9.4075 8.03394 9.33097 8.32207 9.21888C8.62011 9.10281 8.87275 8.94785 9.12503 8.6959C9.3773 8.44396 9.53182 8.19085 9.64785 7.89272C9.7599 7.6045 9.83678 7.27485 9.85839 6.79217C9.88037 6.30837 9.88548 6.15418 9.88548 4.92287C9.88548 3.69156 9.88037 3.537 9.85839 3.05356C9.83642 2.57084 9.7599 2.24105 9.64785 1.95301C9.53182 1.65489 9.3769 1.40218 9.12503 1.14983C8.87315 0.897481 8.62011 0.742597 8.32244 0.626851C8.03394 0.514769 7.70439 0.437871 7.22221 0.416252C6.73891 0.394271 6.58439 0.388794 5.35344 0.388794C4.12249 0.388794 3.96786 0.393908 3.48431 0.416252Z" fill="black"/>
</svg>
