<svg width="11" height="8" viewBox="0 0 11 8" fill="none" xmlns="http://www.w3.org/2000/svg">
<path d="M10.1251 0.9758C9.82593 1.10468 9.51139 1.19442 9.18927 1.24281C9.33987 1.21697 9.56146 0.945654 9.64967 0.835837C9.78367 0.670187 9.8858 0.481085 9.95086 0.278136C9.95086 0.263063 9.96592 0.24153 9.95086 0.230764C9.94327 0.226618 9.93476 0.224445 9.92612 0.224445C9.91747 0.224445 9.90897 0.226618 9.90138 0.230764C9.55161 0.420344 9.17935 0.565037 8.79342 0.661421C8.77997 0.665534 8.76565 0.665903 8.75201 0.662489C8.73836 0.659074 8.7259 0.652006 8.71597 0.642041C8.68593 0.606238 8.65359 0.572432 8.61916 0.540837C8.46175 0.399678 8.28316 0.284146 8.08992 0.198465C7.82908 0.0913553 7.54733 0.0449686 7.26595 0.0628076C6.99292 0.0800658 6.72636 0.153361 6.48285 0.278136C6.24305 0.409685 6.03229 0.588399 5.86325 0.803538C5.68544 1.02497 5.55706 1.28195 5.48676 1.55719C5.42879 1.81899 5.42221 2.08958 5.4674 2.3539C5.4674 2.39912 5.4674 2.40558 5.42867 2.39912C3.89474 2.17303 2.63619 1.62825 1.60784 0.459012C1.56266 0.407333 1.53899 0.407333 1.50242 0.459012C1.05493 1.13945 1.27222 2.21609 1.83158 2.74795C1.90688 2.81901 1.98433 2.88792 2.06608 2.95252C1.80962 2.93429 1.55942 2.86473 1.33031 2.74795C1.28728 2.71996 1.26362 2.73503 1.26146 2.78671C1.25537 2.85836 1.25537 2.9304 1.26146 3.00204C1.30635 3.3454 1.44155 3.67067 1.65323 3.94459C1.86491 4.2185 2.14547 4.43123 2.46623 4.56102C2.54443 4.59454 2.6259 4.6198 2.70934 4.63638C2.47192 4.68317 2.22841 4.69044 1.98863 4.65792C1.937 4.64715 1.91763 4.67514 1.937 4.72467C2.25325 5.58598 2.93954 5.84868 3.44296 5.99511C3.5118 6.00587 3.58064 6.00587 3.65809 6.0231C3.65809 6.0231 3.65809 6.0231 3.64519 6.03602C3.49674 6.30733 2.89651 6.49036 2.62113 6.58511C2.1185 6.76581 1.5826 6.83488 1.05063 6.78752C0.966726 6.7746 0.947364 6.77675 0.92585 6.78752C0.904337 6.79828 0.92585 6.82197 0.949515 6.8435C1.05708 6.91456 1.16465 6.97701 1.27652 7.0373C1.60957 7.21911 1.96166 7.36354 2.32639 7.46796C4.2153 7.98905 6.34086 7.60576 7.75861 6.19536C8.87302 5.08857 9.26457 3.5619 9.26457 2.03306C9.26457 1.97492 9.33557 1.94047 9.37644 1.91033C9.65838 1.69045 9.90695 1.43079 10.1144 1.13945C10.1503 1.09602 10.1687 1.04073 10.166 0.984414C10.166 0.952114 10.166 0.958574 10.1251 0.9758Z" fill="black"/>
</svg>
