<svg width="9" height="30" viewBox="0 0 9 30" fill="none" xmlns="http://www.w3.org/2000/svg">
<path d="M2.51526 18.7059V13.8111H0.889758V18.7059H2.51543H2.51526ZM1.70285 13.1429C2.26958 13.1429 2.62241 12.7671 2.62241 12.2973C2.6118 11.8169 2.26958 11.4515 1.71363 11.4515C1.1573 11.4515 0.793945 11.8169 0.793945 12.2973C0.793945 12.767 1.14664 13.1429 1.6922 13.1429H1.70272L1.70285 13.1429ZM3.415 18.7059H5.04038V15.9727C5.04038 15.8266 5.05099 15.6801 5.09393 15.5758C5.21139 15.2834 5.47884 14.9807 5.92799 14.9807C6.51602 14.9807 6.75139 15.4295 6.75139 16.0876V18.7059H8.37673V15.8994C8.37673 14.396 7.57492 13.6963 6.50549 13.6963C5.62871 13.6963 5.24364 14.1868 5.02969 14.5209H5.04051V13.8113H3.41509C3.43631 14.2705 3.41496 18.7061 3.41496 18.7061L3.415 18.7059Z" fill="black"/>
</svg>
