<svg width="37" height="31" viewBox="0 0 37 31" fill="none" xmlns="http://www.w3.org/2000/svg">
<path d="M36.636 27.3317C36.6098 27.2412 36.5706 27.1508 36.5182 27.0733C36.5575 27.125 36.5837 27.1896 36.6098 27.2412C36.6229 27.2671 36.636 27.3058 36.636 27.3317ZM36.3351 26.8279C36.3351 26.8279 36.3874 26.8796 36.4005 26.9183C36.3743 26.8796 36.3351 26.8408 36.2958 26.8021C36.3089 26.815 36.322 26.815 36.3351 26.8279ZM8.5045 19.375H6.54184C5.8222 19.375 5.2334 19.9562 5.2334 20.6667C5.2334 21.3771 5.8222 21.9583 6.54184 21.9583H10.2186C11.7625 23.5471 13.9476 24.5417 16.3552 24.5417C18.2393 24.5417 19.9664 23.9475 21.3665 22.9271L22.5572 24.1025C22.3347 24.9679 22.5572 25.9108 23.2376 26.5954L26.9404 30.2508C27.961 31.2454 29.6227 31.2454 30.6433 30.2508C31.6508 29.2433 31.6508 27.6029 30.6433 26.5954L26.9404 22.94C26.4302 22.4362 25.7628 22.1779 25.0825 22.1908C24.86 22.1779 24.6376 22.2167 24.4152 22.2683L23.2245 21.0929C24.2581 19.7108 24.86 18.0058 24.86 16.1458C24.86 11.5087 21.0525 7.75 16.3552 7.75C14.6803 7.75 13.1233 8.22792 11.8149 9.04167H6.54184C5.8222 9.04167 5.2334 9.62292 5.2334 10.3333C5.2334 11.0437 5.8222 11.625 6.54184 11.625H9.18489C8.6746 12.4 8.29515 13.2783 8.0858 14.2083H6.54184C5.8222 14.2083 5.2334 14.7896 5.2334 15.5C5.2334 16.2104 5.8222 16.7917 6.54184 16.7917H7.87645C7.86337 16.5721 8.16431 18.5742 8.5045 19.375ZM10.8074 18.0833H17.0094C18.4487 18.0833 19.6263 16.9208 19.6263 15.5C19.6263 14.0792 18.4487 12.9167 17.0094 12.9167H11.4616C12.5214 11.3537 14.3271 10.3333 16.3552 10.3333C19.6001 10.3333 22.2431 12.9425 22.2431 16.1458C22.2431 19.3492 19.6001 21.9583 16.3552 21.9583C13.8037 21.9583 11.6186 20.3438 10.8074 18.0833Z" fill="#0FB287"/>
<path d="M23.5519 3.875V5.16667C23.5389 5.86417 22.9501 6.4325 22.2435 6.4325C21.5369 6.4325 20.9482 5.86417 20.9351 5.16667V3.875C20.9351 3.1775 20.3332 2.58333 19.6266 2.58333H3.92532C3.21877 2.58333 2.61688 3.1775 2.61688 3.875V27.125C2.61688 27.8225 3.21877 28.4167 3.92532 28.4167H18.3182C19.0378 28.4167 19.6266 28.9979 19.6266 29.7083C19.6266 30.4187 19.0378 31 18.3182 31H3.92532C1.7664 31 0 29.2562 0 27.125V3.875C0 1.74375 1.7664 0 3.92532 0H19.6266C21.7856 0 23.5519 1.74375 23.5519 3.875Z" fill="#0FB287"/>
</svg>
