<svg width="38" height="36" viewBox="0 0 38 36" fill="none" xmlns="http://www.w3.org/2000/svg">
<path d="M7.53809 14.9141C8.77561 13.7512 9.75421 12.3924 10.4311 10.8604C11.057 9.44421 11.5636 7.97951 12.1232 6.53559C12.6064 5.28862 13.0743 4.03571 13.5799 2.79764C13.7318 2.42552 13.9856 2.09399 14.2721 1.76245C14.3322 2.13357 14.3781 2.50767 14.4556 2.87483C14.8592 4.773 15.584 6.56726 16.3995 8.3249C18.5871 13.0446 21.2925 17.4664 24.5973 21.5339C25.6004 22.769 26.6758 23.9428 28.0214 24.8513C28.05 24.8701 28.0663 24.9057 28.1295 24.9859C27.5443 24.9859 26.9949 25.0512 26.4669 24.973C25.0214 24.7602 23.581 24.5029 22.1447 24.2347C20.2303 23.8774 18.318 23.4677 16.3577 23.5608C15.321 23.6102 14.2914 23.8101 13.2609 23.9556C13.0641 23.9833 12.9285 24.0308 12.794 23.8032C11.0672 20.8758 9.32709 17.9563 7.59007 15.0338C7.57173 15.0031 7.56153 14.9685 7.53809 14.9131V14.9141Z" fill="#0A3E94"/>
<path d="M22.6806 16.9856C24.6633 15.5001 24.7285 13.2516 23.857 11.774C23.0435 10.3954 21.0568 9.20089 18.6001 10.1628C18.3289 9.61358 18.0465 9.06432 17.7856 8.50714C16.8865 6.58225 16.0282 4.64053 15.6082 2.55234C15.5165 2.09611 15.4808 1.6181 15.5012 1.15296C15.5348 0.39389 16.0425 0.0702709 16.7173 0.439415C17.3738 0.798662 18.0007 1.24896 18.543 1.75764C20.3768 3.4757 21.8498 5.48273 23.2433 7.54123C25.6246 11.0605 27.7337 14.7252 29.2862 18.665C29.7704 19.8922 30.0905 21.1837 30.4258 22.4614C30.5319 22.8652 30.4952 23.3263 30.4258 23.7469C30.3382 24.2794 29.9314 24.5169 29.4421 24.2725C28.8285 23.9667 28.2383 23.5827 27.7133 23.1472C26.3514 22.015 23.5797 18.575 22.6796 16.9866L22.6806 16.9856Z" fill="#0A3E94"/>
<path d="M11.807 24.4417C10.2759 25.2839 8.83446 26.1816 7.30132 26.8941C4.88846 28.0164 1.98018 27.0297 0.670282 24.7604C-0.640635 22.4911 0.0158428 19.5825 2.25031 18.1524C3.63972 17.2637 5.11985 16.5076 6.59183 15.6733C8.32885 18.5928 10.0516 21.4896 11.808 24.4408L11.807 24.4417Z" fill="#0A3E94"/>
<path d="M7.07764 28.342C8.6067 27.5166 10.0797 26.7209 11.5823 25.9094C11.623 26.0519 11.6648 26.1895 11.7015 26.329C12.2571 28.437 13.2826 30.3015 14.7607 31.9365C15.4875 32.7411 15.6424 33.6605 15.1541 34.6194C14.6771 35.5557 13.8442 36.0069 12.7698 36C12.2041 35.9961 11.6913 35.8001 11.2734 35.429C9.096 33.4932 7.70048 31.119 7.08273 28.3153C7.07764 28.2935 7.08987 28.2678 7.07764 28.342Z" fill="#0A3E94"/>
<path d="M36.6424 12.9912C37.1042 12.9912 37.3539 13.1624 37.3814 13.5088C37.411 13.8779 37.1796 14.1135 36.7097 14.1362C34.9186 14.2214 33.1276 14.2986 31.3365 14.3688C30.9553 14.3837 30.7076 14.156 30.6923 13.8285C30.675 13.4821 30.9115 13.2376 31.308 13.2188C32.2224 13.1753 33.1378 13.1426 34.0522 13.105L36.6434 12.9912H36.6424Z" fill="#0A3E94"/>
<path d="M34.0899 5.67276C34.5007 5.46592 34.8034 5.50848 34.992 5.8034C35.1928 6.11811 35.098 6.43084 34.6913 6.66044C33.1408 7.53332 31.5852 8.40027 30.0256 9.25929C29.6933 9.44238 29.3661 9.35034 29.1979 9.06631C29.0195 8.76644 29.1133 8.44381 29.4568 8.25083C30.2488 7.80548 31.046 7.36805 31.8411 6.92765L34.0899 5.67276Z" fill="#0A3E94"/>
<path d="M28.4762 0.376191C28.7403 0.00803638 29.0287 -0.0919195 29.3366 0.08523C29.6648 0.273266 29.7311 0.592927 29.4803 0.979885C28.5252 2.45349 27.5639 3.92215 26.5955 5.38685C26.3896 5.69859 26.0552 5.7649 25.7698 5.58973C25.4681 5.40466 25.3967 5.07709 25.6087 4.7505C26.097 3.99835 26.5934 3.25116 27.0858 2.50297L28.4752 0.376191H28.4762Z" fill="#0A3E94"/>
</svg>
