<svg width="40" height="30" viewBox="0 0 40 30" fill="none" xmlns="http://www.w3.org/2000/svg">
<path d="M0 2.25445L6.02761 18.6174L18.8056 20.2595L15.6668 11.6322L7.33312 10.5197L12.1116 3.72906L0 2.25445Z" fill="#F5B51B"/>
<path d="M32.0006 2.30957L25.056 12.3842L20.7781 4.20201L15.6668 11.6322L7.33312 10.5197L14.6948 0L32.0006 2.30957Z" fill="#0FB287"/>
<path d="M26.9172 15.6397L17.0002 30L11.1668 19.2578L18.8056 20.2595L15.6668 11.6322L20.7781 4.20201L26.9172 15.6397Z" fill="#0A3E94"/>
<path d="M19.3939 15.9629C19.3939 15.2951 19.9366 14.7536 20.6061 14.7536H38.7879C39.4573 14.7536 40 15.2951 40 15.9629V20.8002C40 21.4681 39.4573 22.0095 38.7879 22.0095H20.6061C19.9366 22.0095 19.3939 21.4681 19.3939 20.8002V15.9629Z" fill="white"/>
<path d="M25.4179 18.3441C25.6132 18.4189 25.772 18.5567 25.8943 18.7574C26.0186 18.9582 26.0807 19.1816 26.0807 19.4276C26.0807 19.7563 25.9683 20.027 25.7434 20.2396C25.5185 20.4521 25.2363 20.5584 24.897 20.5584H22.7397V16.3866H24.7638C25.0795 16.3866 25.3439 16.488 25.5569 16.6907C25.772 16.8915 25.8795 17.1464 25.8795 17.4554C25.8795 17.6424 25.8361 17.8156 25.7493 17.975C25.6645 18.1345 25.554 18.2575 25.4179 18.3441ZM24.5271 17.234H23.6482V18.0193H24.5271C24.6356 18.0193 24.7274 17.9819 24.8023 17.9071C24.8773 17.8323 24.9148 17.7388 24.9148 17.6266C24.9148 17.5125 24.8773 17.419 24.8023 17.3462C24.7293 17.2714 24.6376 17.234 24.5271 17.234ZM24.6662 19.7111C24.7944 19.7111 24.901 19.6688 24.9858 19.5841C25.0726 19.4975 25.116 19.3912 25.116 19.2653C25.116 19.1373 25.0726 19.03 24.9858 18.9434C24.899 18.8549 24.7925 18.8106 24.6662 18.8106H23.6482V19.7111H24.6662Z" fill="black"/>
<path d="M27.5278 19.6756H29.4543V20.5584H26.5868V16.3866H29.4247V17.2694H27.5278V18.0193H29.2235V18.9021H27.5278V19.6756Z" fill="black"/>
<path d="M33.1327 16.3866V17.2694H31.9697V20.5584H31.0286V17.2694H29.8657V16.3866H33.1327Z" fill="black"/>
<path d="M35.9766 20.5584L35.7161 19.8262H34.0175L33.7571 20.5584H32.7509L34.3223 16.3866H35.4321L37.0064 20.5584H35.9766ZM34.3223 18.9612H35.4113L34.8668 17.42L34.3223 18.9612Z" fill="black"/>
</svg>
