<svg width="345" height="220" viewBox="0 0 345 220" fill="none" xmlns="http://www.w3.org/2000/svg">
<rect x="1" y="1" width="154" height="187" rx="20" fill="#F3F3F3" stroke="black" stroke-dasharray="3 3"/>
<rect x="178" y="1" width="154" height="108" rx="20" fill="#F3F3F3" stroke="black" stroke-dasharray="3 3"/>
<g filter="url(#filter0_d_478_1955)">
<rect x="174" y="126" width="158" height="37" rx="10" fill="white"/>
</g>
<path d="M186.409 150V138.364H193.386V139.614H187.818V143.545H192.864V144.795H187.818V150H186.409ZM198.636 150.182C197.795 150.182 197.07 149.996 196.46 149.625C195.854 149.25 195.386 148.727 195.057 148.057C194.731 147.383 194.568 146.598 194.568 145.705C194.568 144.811 194.731 144.023 195.057 143.341C195.386 142.655 195.845 142.121 196.432 141.739C197.023 141.352 197.712 141.159 198.5 141.159C198.955 141.159 199.403 141.235 199.847 141.386C200.29 141.538 200.693 141.784 201.057 142.125C201.42 142.462 201.71 142.909 201.926 143.466C202.142 144.023 202.25 144.708 202.25 145.523V146.091H195.523V144.932H200.886C200.886 144.439 200.788 144 200.591 143.614C200.398 143.227 200.121 142.922 199.761 142.699C199.405 142.475 198.985 142.364 198.5 142.364C197.966 142.364 197.504 142.496 197.114 142.761C196.727 143.023 196.43 143.364 196.222 143.784C196.013 144.205 195.909 144.655 195.909 145.136V145.909C195.909 146.568 196.023 147.127 196.25 147.585C196.481 148.04 196.801 148.386 197.21 148.625C197.619 148.86 198.095 148.977 198.636 148.977C198.989 148.977 199.307 148.928 199.591 148.83C199.879 148.727 200.127 148.576 200.335 148.375C200.544 148.17 200.705 147.917 200.818 147.614L202.114 147.977C201.977 148.417 201.748 148.803 201.426 149.136C201.104 149.466 200.706 149.723 200.233 149.909C199.759 150.091 199.227 150.182 198.636 150.182ZM206.858 150.205C206.305 150.205 205.803 150.1 205.352 149.892C204.902 149.68 204.544 149.375 204.278 148.977C204.013 148.576 203.881 148.091 203.881 147.523C203.881 147.023 203.979 146.617 204.176 146.307C204.373 145.992 204.636 145.746 204.966 145.568C205.295 145.39 205.659 145.258 206.057 145.17C206.458 145.08 206.862 145.008 207.267 144.955C207.797 144.886 208.227 144.835 208.557 144.801C208.89 144.763 209.133 144.701 209.284 144.614C209.439 144.527 209.517 144.375 209.517 144.159V144.114C209.517 143.553 209.364 143.117 209.057 142.807C208.754 142.496 208.294 142.341 207.676 142.341C207.036 142.341 206.534 142.481 206.17 142.761C205.807 143.042 205.551 143.341 205.403 143.659L204.131 143.205C204.358 142.674 204.661 142.261 205.04 141.966C205.422 141.667 205.839 141.458 206.29 141.341C206.744 141.22 207.191 141.159 207.631 141.159C207.911 141.159 208.233 141.193 208.597 141.261C208.964 141.326 209.318 141.46 209.659 141.665C210.004 141.869 210.29 142.178 210.517 142.591C210.744 143.004 210.858 143.557 210.858 144.25V150H209.517V148.818H209.449C209.358 149.008 209.206 149.21 208.994 149.426C208.782 149.642 208.5 149.826 208.148 149.977C207.795 150.129 207.366 150.205 206.858 150.205ZM207.062 149C207.593 149 208.04 148.896 208.403 148.688C208.771 148.479 209.047 148.21 209.233 147.881C209.422 147.551 209.517 147.205 209.517 146.841V145.614C209.46 145.682 209.335 145.744 209.142 145.801C208.953 145.854 208.733 145.902 208.483 145.943C208.237 145.981 207.996 146.015 207.761 146.045C207.53 146.072 207.343 146.095 207.199 146.114C206.85 146.159 206.525 146.233 206.222 146.335C205.922 146.434 205.68 146.583 205.494 146.784C205.313 146.981 205.222 147.25 205.222 147.591C205.222 148.057 205.394 148.409 205.739 148.648C206.087 148.883 206.528 149 207.062 149ZM217.101 141.273V142.409H212.578V141.273H217.101ZM213.896 139.182H215.237V147.5C215.237 147.879 215.292 148.163 215.402 148.352C215.516 148.538 215.66 148.663 215.834 148.727C216.012 148.788 216.199 148.818 216.396 148.818C216.544 148.818 216.665 148.811 216.76 148.795C216.855 148.777 216.93 148.761 216.987 148.75L217.26 149.955C217.169 149.989 217.042 150.023 216.879 150.057C216.716 150.095 216.51 150.114 216.26 150.114C215.881 150.114 215.51 150.032 215.146 149.869C214.786 149.706 214.487 149.458 214.249 149.125C214.014 148.792 213.896 148.371 213.896 147.864V139.182ZM224.618 146.432V141.273H225.959V150H224.618V148.523H224.527C224.322 148.966 224.004 149.343 223.572 149.653C223.141 149.96 222.595 150.114 221.936 150.114C221.391 150.114 220.906 149.994 220.482 149.756C220.057 149.513 219.724 149.15 219.482 148.665C219.239 148.176 219.118 147.561 219.118 146.818V141.273H220.459V146.727C220.459 147.364 220.637 147.871 220.993 148.25C221.353 148.629 221.811 148.818 222.368 148.818C222.701 148.818 223.04 148.733 223.385 148.562C223.733 148.392 224.025 148.131 224.26 147.778C224.499 147.426 224.618 146.977 224.618 146.432ZM228.415 150V141.273H229.71V142.591H229.801C229.96 142.159 230.248 141.809 230.665 141.54C231.081 141.271 231.551 141.136 232.074 141.136C232.172 141.136 232.295 141.138 232.443 141.142C232.591 141.146 232.703 141.152 232.778 141.159V142.523C232.733 142.511 232.629 142.494 232.466 142.472C232.307 142.445 232.138 142.432 231.96 142.432C231.536 142.432 231.157 142.521 230.824 142.699C230.494 142.873 230.233 143.116 230.04 143.426C229.85 143.733 229.756 144.083 229.756 144.477V150H228.415ZM237.761 150.182C236.92 150.182 236.195 149.996 235.585 149.625C234.979 149.25 234.511 148.727 234.182 148.057C233.856 147.383 233.693 146.598 233.693 145.705C233.693 144.811 233.856 144.023 234.182 143.341C234.511 142.655 234.97 142.121 235.557 141.739C236.148 141.352 236.837 141.159 237.625 141.159C238.08 141.159 238.528 141.235 238.972 141.386C239.415 141.538 239.818 141.784 240.182 142.125C240.545 142.462 240.835 142.909 241.051 143.466C241.267 144.023 241.375 144.708 241.375 145.523V146.091H234.648V144.932H240.011C240.011 144.439 239.913 144 239.716 143.614C239.523 143.227 239.246 142.922 238.886 142.699C238.53 142.475 238.11 142.364 237.625 142.364C237.091 142.364 236.629 142.496 236.239 142.761C235.852 143.023 235.555 143.364 235.347 143.784C235.138 144.205 235.034 144.655 235.034 145.136V145.909C235.034 146.568 235.148 147.127 235.375 147.585C235.606 148.04 235.926 148.386 236.335 148.625C236.744 148.86 237.22 148.977 237.761 148.977C238.114 148.977 238.432 148.928 238.716 148.83C239.004 148.727 239.252 148.576 239.46 148.375C239.669 148.17 239.83 147.917 239.943 147.614L241.239 147.977C241.102 148.417 240.873 148.803 240.551 149.136C240.229 149.466 239.831 149.723 239.358 149.909C238.884 150.091 238.352 150.182 237.761 150.182Z" fill="black"/>
<g filter="url(#filter1_d_478_1955)">
<rect x="174" y="169" width="158" height="37" rx="10" fill="white"/>
</g>
<path d="M186.409 193V181.364H193.386V182.614H187.818V186.545H192.864V187.795H187.818V193H186.409ZM198.523 193.182C197.735 193.182 197.044 192.994 196.449 192.619C195.858 192.244 195.396 191.72 195.062 191.045C194.733 190.371 194.568 189.583 194.568 188.682C194.568 187.773 194.733 186.979 195.062 186.301C195.396 185.623 195.858 185.097 196.449 184.722C197.044 184.347 197.735 184.159 198.523 184.159C199.311 184.159 200 184.347 200.591 184.722C201.186 185.097 201.648 185.623 201.977 186.301C202.311 186.979 202.477 187.773 202.477 188.682C202.477 189.583 202.311 190.371 201.977 191.045C201.648 191.72 201.186 192.244 200.591 192.619C200 192.994 199.311 193.182 198.523 193.182ZM198.523 191.977C199.121 191.977 199.614 191.824 200 191.517C200.386 191.21 200.672 190.807 200.858 190.307C201.044 189.807 201.136 189.265 201.136 188.682C201.136 188.098 201.044 187.555 200.858 187.051C200.672 186.547 200.386 186.14 200 185.83C199.614 185.519 199.121 185.364 198.523 185.364C197.924 185.364 197.432 185.519 197.045 185.83C196.659 186.14 196.373 186.547 196.188 187.051C196.002 187.555 195.909 188.098 195.909 188.682C195.909 189.265 196.002 189.807 196.188 190.307C196.373 190.807 196.659 191.21 197.045 191.517C197.432 191.824 197.924 191.977 198.523 191.977ZM205.865 181.364V193H204.524V181.364H205.865ZM209.662 181.364V193H208.321V181.364H209.662ZM215.663 193.182C214.875 193.182 214.184 192.994 213.589 192.619C212.999 192.244 212.536 191.72 212.203 191.045C211.874 190.371 211.709 189.583 211.709 188.682C211.709 187.773 211.874 186.979 212.203 186.301C212.536 185.623 212.999 185.097 213.589 184.722C214.184 184.347 214.875 184.159 215.663 184.159C216.451 184.159 217.141 184.347 217.732 184.722C218.326 185.097 218.788 185.623 219.118 186.301C219.451 186.979 219.618 187.773 219.618 188.682C219.618 189.583 219.451 190.371 219.118 191.045C218.788 191.72 218.326 192.244 217.732 192.619C217.141 192.994 216.451 193.182 215.663 193.182ZM215.663 191.977C216.262 191.977 216.754 191.824 217.141 191.517C217.527 191.21 217.813 190.807 217.999 190.307C218.184 189.807 218.277 189.265 218.277 188.682C218.277 188.098 218.184 187.555 217.999 187.051C217.813 186.547 217.527 186.14 217.141 185.83C216.754 185.519 216.262 185.364 215.663 185.364C215.065 185.364 214.572 185.519 214.186 185.83C213.8 186.14 213.514 186.547 213.328 187.051C213.143 187.555 213.05 188.098 213.05 188.682C213.05 189.265 213.143 189.807 213.328 190.307C213.514 190.807 213.8 191.21 214.186 191.517C214.572 191.824 215.065 191.977 215.663 191.977ZM223.345 193L220.686 184.273H222.095L223.982 190.955H224.072L225.936 184.273H227.368L229.209 190.932H229.3L231.186 184.273H232.595L229.936 193H228.618L226.709 186.295H226.572L224.663 193H223.345ZM239.368 187.386V188.636H234.277V187.386H239.368ZM247.227 189.432V184.273H248.568V193H247.227V191.523H247.136C246.932 191.966 246.614 192.343 246.182 192.653C245.75 192.96 245.205 193.114 244.545 193.114C244 193.114 243.515 192.994 243.091 192.756C242.667 192.513 242.333 192.15 242.091 191.665C241.848 191.176 241.727 190.561 241.727 189.818V184.273H243.068V189.727C243.068 190.364 243.246 190.871 243.602 191.25C243.962 191.629 244.42 191.818 244.977 191.818C245.311 191.818 245.65 191.733 245.994 191.562C246.343 191.392 246.634 191.131 246.869 190.778C247.108 190.426 247.227 189.977 247.227 189.432ZM251.024 196.273V184.273H252.32V185.659H252.479C252.577 185.508 252.714 185.314 252.888 185.08C253.066 184.841 253.32 184.629 253.649 184.443C253.982 184.254 254.433 184.159 255.001 184.159C255.736 184.159 256.384 184.343 256.945 184.71C257.505 185.078 257.943 185.598 258.257 186.273C258.571 186.947 258.729 187.742 258.729 188.659C258.729 189.583 258.571 190.384 258.257 191.062C257.943 191.737 257.507 192.259 256.95 192.631C256.393 192.998 255.751 193.182 255.024 193.182C254.464 193.182 254.015 193.089 253.678 192.903C253.34 192.714 253.081 192.5 252.899 192.261C252.717 192.019 252.577 191.818 252.479 191.659H252.365V196.273H251.024ZM252.342 188.636C252.342 189.295 252.439 189.877 252.632 190.381C252.825 190.881 253.107 191.273 253.479 191.557C253.85 191.837 254.304 191.977 254.842 191.977C255.403 191.977 255.871 191.83 256.246 191.534C256.625 191.235 256.909 190.833 257.098 190.33C257.291 189.822 257.388 189.258 257.388 188.636C257.388 188.023 257.293 187.47 257.104 186.977C256.918 186.481 256.636 186.089 256.257 185.801C255.882 185.509 255.411 185.364 254.842 185.364C254.297 185.364 253.839 185.502 253.467 185.778C253.096 186.051 252.816 186.434 252.626 186.926C252.437 187.415 252.342 187.985 252.342 188.636Z" fill="black"/>
<g filter="url(#filter2_d_478_1955)">
<rect x="120" y="83" width="158" height="37" rx="10" fill="white"/>
</g>
<circle cx="257.5" cy="101.5" r="9.5" fill="#EDEDED"/>
<path fill-rule="evenodd" clip-rule="evenodd" d="M253 104H262V100.135C262 100.09 261.971 100.052 261.924 100.035C261.877 100.018 261.826 100.027 261.79 100.058L259.668 101.928C259.64 101.952 259.604 101.963 259.565 101.959C259.526 101.954 259.495 101.936 259.475 101.906L259.121 101.365L257.606 99.054C257.584 99.0196 257.545 99 257.5 99C257.455 99 257.416 99.0196 257.394 99.054L255.879 101.365L255.525 101.905C255.505 101.935 255.474 101.954 255.435 101.959C255.396 101.963 255.36 101.952 255.332 101.928L253.21 100.058C253.174 100.027 253.123 100.018 253.076 100.035C253.029 100.052 253 100.09 253 100.135V104Z" fill="#F5B51B"/>
<path d="M131.773 96.6136V95.3636H140.5V96.6136H136.841V107H135.432V96.6136H131.773ZM143.834 101.75V107H142.493V95.3636H143.834V99.6364H143.947C144.152 99.1856 144.459 98.8277 144.868 98.5625C145.281 98.2936 145.83 98.1591 146.516 98.1591C147.11 98.1591 147.631 98.2784 148.078 98.517C148.525 98.7519 148.872 99.1136 149.118 99.6023C149.368 100.087 149.493 100.705 149.493 101.455V107H148.152V101.545C148.152 100.852 147.972 100.316 147.612 99.9375C147.256 99.5549 146.762 99.3636 146.129 99.3636C145.69 99.3636 145.296 99.4564 144.947 99.642C144.603 99.8277 144.33 100.098 144.129 100.455C143.932 100.811 143.834 101.242 143.834 101.75ZM155.605 107.182C154.764 107.182 154.039 106.996 153.429 106.625C152.823 106.25 152.355 105.727 152.026 105.057C151.7 104.383 151.537 103.598 151.537 102.705C151.537 101.811 151.7 101.023 152.026 100.341C152.355 99.6553 152.813 99.1212 153.401 98.7386C153.991 98.3523 154.681 98.1591 155.469 98.1591C155.923 98.1591 156.372 98.2348 156.815 98.3864C157.259 98.5379 157.662 98.7841 158.026 99.125C158.389 99.4621 158.679 99.9091 158.895 100.466C159.111 101.023 159.219 101.708 159.219 102.523V103.091H152.491V101.932H157.855C157.855 101.439 157.757 101 157.56 100.614C157.366 100.227 157.09 99.9223 156.73 99.6989C156.374 99.4754 155.954 99.3636 155.469 99.3636C154.935 99.3636 154.473 99.4962 154.082 99.7614C153.696 100.023 153.399 100.364 153.19 100.784C152.982 101.205 152.878 101.655 152.878 102.136V102.909C152.878 103.568 152.991 104.127 153.219 104.585C153.45 105.04 153.77 105.386 154.179 105.625C154.588 105.86 155.063 105.977 155.605 105.977C155.957 105.977 156.276 105.928 156.56 105.83C156.848 105.727 157.096 105.576 157.304 105.375C157.512 105.17 157.673 104.917 157.787 104.614L159.082 104.977C158.946 105.417 158.717 105.803 158.395 106.136C158.073 106.466 157.675 106.723 157.202 106.909C156.728 107.091 156.196 107.182 155.605 107.182ZM161.259 107V98.2727H162.554V99.6364H162.668C162.849 99.1705 163.143 98.8087 163.548 98.5511C163.954 98.2898 164.44 98.1591 165.009 98.1591C165.584 98.1591 166.063 98.2898 166.446 98.5511C166.832 98.8087 167.134 99.1705 167.349 99.6364H167.44C167.664 99.1856 167.999 98.8277 168.446 98.5625C168.893 98.2936 169.429 98.1591 170.054 98.1591C170.834 98.1591 171.473 98.4034 171.969 98.892C172.465 99.3769 172.713 100.133 172.713 101.159V107H171.372V101.159C171.372 100.515 171.196 100.055 170.844 99.7784C170.491 99.5019 170.077 99.3636 169.599 99.3636C168.986 99.3636 168.51 99.5492 168.173 99.9205C167.836 100.288 167.668 100.754 167.668 101.318V107H166.304V101.023C166.304 100.527 166.143 100.127 165.821 99.8239C165.499 99.517 165.084 99.3636 164.577 99.3636C164.228 99.3636 163.902 99.4564 163.599 99.642C163.3 99.8277 163.058 100.085 162.872 100.415C162.69 100.741 162.599 101.117 162.599 101.545V107H161.259ZM178.824 107.182C177.983 107.182 177.258 106.996 176.648 106.625C176.042 106.25 175.574 105.727 175.244 105.057C174.919 104.383 174.756 103.598 174.756 102.705C174.756 101.811 174.919 101.023 175.244 100.341C175.574 99.6553 176.032 99.1212 176.619 98.7386C177.21 98.3523 177.9 98.1591 178.688 98.1591C179.142 98.1591 179.591 98.2348 180.034 98.3864C180.477 98.5379 180.881 98.7841 181.244 99.125C181.608 99.4621 181.898 99.9091 182.114 100.466C182.33 101.023 182.438 101.708 182.438 102.523V103.091H175.71V101.932H181.074C181.074 101.439 180.975 101 180.778 100.614C180.585 100.227 180.309 99.9223 179.949 99.6989C179.593 99.4754 179.172 99.3636 178.688 99.3636C178.153 99.3636 177.691 99.4962 177.301 99.7614C176.915 100.023 176.617 100.364 176.409 100.784C176.201 101.205 176.097 101.655 176.097 102.136V102.909C176.097 103.568 176.21 104.127 176.438 104.585C176.669 105.04 176.989 105.386 177.398 105.625C177.807 105.86 178.282 105.977 178.824 105.977C179.176 105.977 179.494 105.928 179.778 105.83C180.066 105.727 180.314 105.576 180.523 105.375C180.731 105.17 180.892 104.917 181.006 104.614L182.301 104.977C182.165 105.417 181.936 105.803 181.614 106.136C181.292 106.466 180.894 106.723 180.42 106.909C179.947 107.091 179.415 107.182 178.824 107.182Z" fill="black"/>
<path d="M163.642 126.361C164.032 126.175 164.018 125.614 163.619 125.448L139.079 115.245C138.673 115.077 138.262 115.477 138.421 115.887L148.089 140.954C148.247 141.362 148.815 141.386 149.006 140.992L153.748 131.202C153.797 131.1 153.88 131.018 153.982 130.969L163.642 126.361Z" fill="black"/>
<rect x="14" y="131" width="50" height="18" rx="5" fill="#CDDCF5"/>
<path d="M25.6442 138.636C25.6101 138.348 25.4718 138.125 25.2294 137.966C24.987 137.807 24.6896 137.727 24.3374 137.727C24.0798 137.727 23.8544 137.769 23.6612 137.852C23.4699 137.936 23.3203 138.05 23.2124 138.196C23.1063 138.342 23.0533 138.508 23.0533 138.693C23.0533 138.848 23.0902 138.982 23.1641 139.094C23.2398 139.204 23.3364 139.295 23.4538 139.369C23.5713 139.441 23.6944 139.501 23.8232 139.548C23.9519 139.594 24.0703 139.631 24.1783 139.659L24.7692 139.818C24.9207 139.858 25.0893 139.913 25.2749 139.983C25.4624 140.053 25.6413 140.149 25.8118 140.27C25.9841 140.389 26.1262 140.543 26.2379 140.73C26.3497 140.918 26.4055 141.148 26.4055 141.42C26.4055 141.735 26.3232 142.019 26.1584 142.273C25.9955 142.527 25.7569 142.728 25.4425 142.878C25.13 143.027 24.7502 143.102 24.3033 143.102C23.8866 143.102 23.5258 143.035 23.2209 142.901C22.9179 142.766 22.6792 142.579 22.505 142.338C22.3326 142.098 22.2351 141.818 22.2124 141.5H22.9396C22.9586 141.72 23.0324 141.902 23.1612 142.045C23.2919 142.187 23.4567 142.294 23.6555 142.364C23.8563 142.432 24.0722 142.466 24.3033 142.466C24.5722 142.466 24.8137 142.422 25.0277 142.335C25.2417 142.246 25.4112 142.123 25.5362 141.966C25.6612 141.807 25.7237 141.621 25.7237 141.409C25.7237 141.216 25.6697 141.059 25.5618 140.938C25.4538 140.816 25.3118 140.718 25.1357 140.642C24.9595 140.566 24.7692 140.5 24.5646 140.443L23.8487 140.239C23.3942 140.108 23.0343 139.921 22.7692 139.679C22.504 139.437 22.3714 139.119 22.3714 138.727C22.3714 138.402 22.4595 138.117 22.6357 137.875C22.8137 137.631 23.0523 137.441 23.3516 137.307C23.6527 137.17 23.9889 137.102 24.3601 137.102C24.7351 137.102 25.0684 137.17 25.3601 137.304C25.6518 137.437 25.8828 137.618 26.0533 137.849C26.2256 138.08 26.3165 138.343 26.326 138.636H25.6442ZM29.3707 138.636V139.205H27.1094V138.636H29.3707ZM27.7685 137.591H28.4389V141.75C28.4389 141.939 28.4664 142.081 28.5213 142.176C28.5781 142.269 28.6501 142.331 28.7372 142.364C28.8262 142.394 28.92 142.409 29.0185 142.409C29.0923 142.409 29.1529 142.405 29.2003 142.398C29.2476 142.388 29.2855 142.381 29.3139 142.375L29.4503 142.977C29.4048 142.994 29.3414 143.011 29.2599 143.028C29.1785 143.047 29.0753 143.057 28.9503 143.057C28.7609 143.057 28.5753 143.016 28.3935 142.935C28.2135 142.853 28.0639 142.729 27.9446 142.562C27.8272 142.396 27.7685 142.186 27.7685 141.932V137.591ZM31.6634 143.102C31.3868 143.102 31.1359 143.05 30.9105 142.946C30.6851 142.84 30.5062 142.688 30.3736 142.489C30.241 142.288 30.1747 142.045 30.1747 141.761C30.1747 141.511 30.224 141.309 30.3224 141.153C30.4209 140.996 30.5526 140.873 30.7173 140.784C30.8821 140.695 31.0639 140.629 31.2628 140.585C31.4635 140.54 31.6652 140.504 31.8679 140.477C32.133 140.443 32.348 140.418 32.5128 140.401C32.6795 140.382 32.8007 140.35 32.8764 140.307C32.9541 140.263 32.9929 140.187 32.9929 140.08V140.057C32.9929 139.777 32.9162 139.559 32.7628 139.403C32.6113 139.248 32.3812 139.17 32.0724 139.17C31.7524 139.17 31.5014 139.241 31.3196 139.381C31.1378 139.521 31.0099 139.67 30.9361 139.83L30.2997 139.602C30.4134 139.337 30.5649 139.131 30.7543 138.983C30.9455 138.833 31.1539 138.729 31.3793 138.67C31.6065 138.61 31.83 138.58 32.0497 138.58C32.1899 138.58 32.3509 138.597 32.5327 138.631C32.7164 138.663 32.8935 138.73 33.0639 138.832C33.2363 138.935 33.3793 139.089 33.4929 139.295C33.6065 139.502 33.6634 139.778 33.6634 140.125V143H32.9929V142.409H32.9588C32.9134 142.504 32.8376 142.605 32.7315 142.713C32.6255 142.821 32.4844 142.913 32.3082 142.989C32.1321 143.064 31.9171 143.102 31.6634 143.102ZM31.7656 142.5C32.0308 142.5 32.2543 142.448 32.4361 142.344C32.6198 142.24 32.758 142.105 32.8509 141.94C32.9455 141.776 32.9929 141.602 32.9929 141.42V140.807C32.9645 140.841 32.902 140.872 32.8054 140.901C32.7107 140.927 32.6009 140.951 32.4759 140.972C32.3527 140.991 32.2325 141.008 32.1151 141.023C31.9995 141.036 31.9058 141.047 31.8338 141.057C31.6596 141.08 31.4967 141.116 31.3452 141.168C31.1955 141.217 31.0743 141.292 30.9815 141.392C30.8906 141.491 30.8452 141.625 30.8452 141.795C30.8452 142.028 30.9313 142.205 31.1037 142.324C31.2779 142.441 31.4986 142.5 31.7656 142.5ZM35.5575 140.375V143H34.8871V138.636H35.5348V139.318H35.5916C35.6939 139.097 35.8492 138.919 36.0575 138.784C36.2659 138.648 36.5348 138.58 36.8643 138.58C37.1598 138.58 37.4183 138.64 37.6399 138.761C37.8615 138.881 38.0339 139.062 38.157 139.307C38.2801 139.549 38.3416 139.856 38.3416 140.227V143H37.6712V140.273C37.6712 139.93 37.5821 139.663 37.4041 139.472C37.2261 139.278 36.9818 139.182 36.6712 139.182C36.4571 139.182 36.2659 139.228 36.0973 139.321C35.9306 139.414 35.799 139.549 35.7024 139.727C35.6058 139.905 35.5575 140.121 35.5575 140.375ZM41.2145 143.091C40.8509 143.091 40.5298 142.999 40.2514 142.815C39.973 142.63 39.7552 142.368 39.598 142.031C39.4408 141.692 39.3622 141.292 39.3622 140.83C39.3622 140.371 39.4408 139.973 39.598 139.636C39.7552 139.299 39.974 139.039 40.2543 138.855C40.5346 138.671 40.8584 138.58 41.2259 138.58C41.5099 138.58 41.7344 138.627 41.8991 138.722C42.0658 138.814 42.1927 138.92 42.2798 139.04C42.3688 139.157 42.438 139.254 42.4872 139.33H42.544V137.182H43.2145V143H42.5668V142.33H42.4872C42.438 142.409 42.3679 142.509 42.277 142.631C42.1861 142.75 42.0563 142.857 41.8878 142.952C41.7192 143.045 41.4948 143.091 41.2145 143.091ZM41.3054 142.489C41.5743 142.489 41.8016 142.419 41.9872 142.278C42.1728 142.136 42.3139 141.94 42.4105 141.69C42.5071 141.438 42.5554 141.148 42.5554 140.818C42.5554 140.492 42.508 140.207 42.4134 139.963C42.3187 139.717 42.1785 139.526 41.9929 139.389C41.8073 139.251 41.5781 139.182 41.3054 139.182C41.0213 139.182 40.7846 139.255 40.5952 139.401C40.4077 139.545 40.2666 139.741 40.1719 139.989C40.0791 140.235 40.0327 140.511 40.0327 140.818C40.0327 141.129 40.08 141.411 40.1747 141.665C40.2713 141.917 40.4134 142.117 40.6009 142.267C40.7902 142.415 41.0251 142.489 41.3054 142.489ZM45.8196 143.102C45.5431 143.102 45.2921 143.05 45.0668 142.946C44.8414 142.84 44.6624 142.688 44.5298 142.489C44.3973 142.288 44.331 142.045 44.331 141.761C44.331 141.511 44.3802 141.309 44.4787 141.153C44.5772 140.996 44.7088 140.873 44.8736 140.784C45.0384 140.695 45.2202 140.629 45.419 140.585C45.6198 140.54 45.8215 140.504 46.0241 140.477C46.2893 140.443 46.5043 140.418 46.669 140.401C46.8357 140.382 46.9569 140.35 47.0327 140.307C47.1103 140.263 47.1491 140.187 47.1491 140.08V140.057C47.1491 139.777 47.0724 139.559 46.919 139.403C46.7675 139.248 46.5374 139.17 46.2287 139.17C45.9086 139.17 45.6577 139.241 45.4759 139.381C45.294 139.521 45.1662 139.67 45.0923 139.83L44.456 139.602C44.5696 139.337 44.7211 139.131 44.9105 138.983C45.1018 138.833 45.3101 138.729 45.5355 138.67C45.7628 138.61 45.9863 138.58 46.206 138.58C46.3461 138.58 46.5071 138.597 46.6889 138.631C46.8726 138.663 47.0497 138.73 47.2202 138.832C47.3925 138.935 47.5355 139.089 47.6491 139.295C47.7628 139.502 47.8196 139.778 47.8196 140.125V143H47.1491V142.409H47.1151C47.0696 142.504 46.9938 142.605 46.8878 142.713C46.7817 142.821 46.6406 142.913 46.4645 142.989C46.2884 143.064 46.0734 143.102 45.8196 143.102ZM45.9219 142.5C46.187 142.5 46.4105 142.448 46.5923 142.344C46.776 142.24 46.9143 142.105 47.0071 141.94C47.1018 141.776 47.1491 141.602 47.1491 141.42V140.807C47.1207 140.841 47.0582 140.872 46.9616 140.901C46.867 140.927 46.7571 140.951 46.6321 140.972C46.509 140.991 46.3887 141.008 46.2713 141.023C46.1558 141.036 46.062 141.047 45.9901 141.057C45.8158 141.08 45.6529 141.116 45.5014 141.168C45.3518 141.217 45.2306 141.292 45.1378 141.392C45.0469 141.491 45.0014 141.625 45.0014 141.795C45.0014 142.028 45.0876 142.205 45.2599 142.324C45.4342 142.441 45.6548 142.5 45.9219 142.5ZM49.0433 143V138.636H49.6911V139.295H49.7365C49.8161 139.08 49.96 138.904 50.1683 138.77C50.3767 138.635 50.6115 138.568 50.8729 138.568C50.9221 138.568 50.9837 138.569 51.0575 138.571C51.1314 138.573 51.1873 138.576 51.2251 138.58V139.261C51.2024 139.256 51.1503 139.247 51.0689 139.236C50.9893 139.223 50.9051 139.216 50.8161 139.216C50.6039 139.216 50.4145 139.26 50.2479 139.349C50.0831 139.437 49.9524 139.558 49.8558 139.713C49.7611 139.866 49.7138 140.042 49.7138 140.239V143H49.0433ZM53.5348 143.091C53.1712 143.091 52.8501 142.999 52.5717 142.815C52.2933 142.63 52.0755 142.368 51.9183 142.031C51.7611 141.692 51.6825 141.292 51.6825 140.83C51.6825 140.371 51.7611 139.973 51.9183 139.636C52.0755 139.299 52.2943 139.039 52.5746 138.855C52.8549 138.671 53.1787 138.58 53.5462 138.58C53.8303 138.58 54.0547 138.627 54.2195 138.722C54.3861 138.814 54.513 138.92 54.6001 139.04C54.6892 139.157 54.7583 139.254 54.8075 139.33H54.8643V137.182H55.5348V143H54.8871V142.33H54.8075C54.7583 142.409 54.6882 142.509 54.5973 142.631C54.5064 142.75 54.3767 142.857 54.2081 142.952C54.0395 143.045 53.8151 143.091 53.5348 143.091ZM53.6257 142.489C53.8946 142.489 54.1219 142.419 54.3075 142.278C54.4931 142.136 54.6342 141.94 54.7308 141.69C54.8274 141.438 54.8757 141.148 54.8757 140.818C54.8757 140.492 54.8284 140.207 54.7337 139.963C54.639 139.717 54.4988 139.526 54.3132 139.389C54.1276 139.251 53.8984 139.182 53.6257 139.182C53.3416 139.182 53.1049 139.255 52.9155 139.401C52.728 139.545 52.5869 139.741 52.4922 139.989C52.3994 140.235 52.353 140.511 52.353 140.818C52.353 141.129 52.4003 141.411 52.495 141.665C52.5916 141.917 52.7337 142.117 52.9212 142.267C53.1106 142.415 53.3454 142.489 53.6257 142.489Z" fill="black"/>
<rect x="14" y="154" width="50" height="18" rx="5" fill="#BFE8DD"/>
<path d="M23.1889 166V160.182H25.1548C25.6113 160.182 25.9844 160.264 26.2741 160.429C26.5658 160.592 26.7817 160.812 26.9219 161.091C27.062 161.369 27.1321 161.68 27.1321 162.023C27.1321 162.366 27.062 162.677 26.9219 162.957C26.7836 163.238 26.5696 163.461 26.2798 163.628C25.9901 163.793 25.6188 163.875 25.1662 163.875H23.7571V163.25H25.1435C25.456 163.25 25.7069 163.196 25.8963 163.088C26.0857 162.98 26.223 162.834 26.3082 162.651C26.3954 162.465 26.4389 162.256 26.4389 162.023C26.4389 161.79 26.3954 161.581 26.3082 161.398C26.223 161.214 26.0848 161.07 25.8935 160.966C25.7022 160.86 25.4484 160.807 25.1321 160.807H23.8935V166H23.1889ZM28.1761 166V161.636H28.8239V162.295H28.8693C28.9489 162.08 29.0928 161.904 29.3011 161.77C29.5095 161.635 29.7443 161.568 30.0057 161.568C30.0549 161.568 30.1165 161.569 30.1903 161.571C30.2642 161.573 30.3201 161.576 30.358 161.58V162.261C30.3352 162.256 30.2831 162.247 30.2017 162.236C30.1222 162.223 30.0379 162.216 29.9489 162.216C29.7367 162.216 29.5473 162.26 29.3807 162.349C29.2159 162.437 29.0852 162.558 28.9886 162.713C28.8939 162.866 28.8466 163.042 28.8466 163.239V166H28.1761ZM32.8494 166.091C32.429 166.091 32.0663 165.998 31.7614 165.812C31.4583 165.625 31.2244 165.364 31.0597 165.028C30.8968 164.691 30.8153 164.299 30.8153 163.852C30.8153 163.405 30.8968 163.011 31.0597 162.67C31.2244 162.328 31.4536 162.061 31.7472 161.869C32.0426 161.676 32.3873 161.58 32.7812 161.58C33.0085 161.58 33.233 161.617 33.4545 161.693C33.6761 161.769 33.8778 161.892 34.0597 162.062C34.2415 162.231 34.3864 162.455 34.4943 162.733C34.6023 163.011 34.6562 163.354 34.6562 163.761V164.045H31.2926V163.466H33.9744C33.9744 163.22 33.9252 163 33.8267 162.807C33.7301 162.614 33.5919 162.461 33.4119 162.349C33.2339 162.238 33.0237 162.182 32.7812 162.182C32.5142 162.182 32.2831 162.248 32.0881 162.381C31.8949 162.511 31.7462 162.682 31.642 162.892C31.5379 163.102 31.4858 163.328 31.4858 163.568V163.955C31.4858 164.284 31.5426 164.563 31.6562 164.793C31.7718 165.02 31.9318 165.193 32.1364 165.312C32.3409 165.43 32.5786 165.489 32.8494 165.489C33.0256 165.489 33.1847 165.464 33.3267 165.415C33.4706 165.364 33.5947 165.288 33.6989 165.188C33.803 165.085 33.8835 164.958 33.9403 164.807L34.5881 164.989C34.5199 165.208 34.4053 165.402 34.2443 165.568C34.0833 165.733 33.8845 165.862 33.6477 165.955C33.411 166.045 33.1449 166.091 32.8494 166.091ZM35.6761 166V161.636H36.3239V162.318H36.3807C36.4716 162.085 36.6184 161.904 36.821 161.776C37.0237 161.645 37.267 161.58 37.5511 161.58C37.839 161.58 38.0786 161.645 38.2699 161.776C38.4631 161.904 38.6136 162.085 38.7216 162.318H38.767C38.8788 162.093 39.0464 161.914 39.2699 161.781C39.4934 161.647 39.7614 161.58 40.0739 161.58C40.464 161.58 40.7831 161.702 41.0312 161.946C41.2794 162.188 41.4034 162.566 41.4034 163.08V166H40.733V163.08C40.733 162.758 40.6449 162.527 40.4688 162.389C40.2926 162.251 40.0852 162.182 39.8466 162.182C39.5398 162.182 39.3021 162.275 39.1335 162.46C38.965 162.644 38.8807 162.877 38.8807 163.159V166H38.1989V163.011C38.1989 162.763 38.1184 162.563 37.9574 162.412C37.7964 162.259 37.589 162.182 37.3352 162.182C37.161 162.182 36.9981 162.228 36.8466 162.321C36.697 162.414 36.5758 162.543 36.483 162.707C36.392 162.87 36.3466 163.059 36.3466 163.273V166H35.6761ZM42.6293 166V161.636H43.2997V166H42.6293ZM42.9702 160.909C42.8395 160.909 42.7268 160.865 42.6321 160.776C42.5393 160.687 42.4929 160.58 42.4929 160.455C42.4929 160.33 42.5393 160.223 42.6321 160.134C42.7268 160.045 42.8395 160 42.9702 160C43.1009 160 43.2126 160.045 43.3054 160.134C43.4001 160.223 43.4474 160.33 43.4474 160.455C43.4474 160.58 43.4001 160.687 43.3054 160.776C43.2126 160.865 43.1009 160.909 42.9702 160.909ZM47.2777 164.216V161.636H47.9482V166H47.2777V165.261H47.2322C47.13 165.483 46.9709 165.671 46.755 165.827C46.5391 165.98 46.2663 166.057 45.9368 166.057C45.6641 166.057 45.4216 165.997 45.2095 165.878C44.9974 165.757 44.8307 165.575 44.7095 165.332C44.5883 165.088 44.5277 164.78 44.5277 164.409V161.636H45.1982V164.364C45.1982 164.682 45.2872 164.936 45.4652 165.125C45.6451 165.314 45.8743 165.409 46.1527 165.409C46.3194 165.409 46.4889 165.366 46.6612 165.281C46.8355 165.196 46.9813 165.065 47.0987 164.889C47.218 164.713 47.2777 164.489 47.2777 164.216ZM49.1761 166V161.636H49.8239V162.318H49.8807C49.9716 162.085 50.1184 161.904 50.321 161.776C50.5237 161.645 50.767 161.58 51.0511 161.58C51.339 161.58 51.5786 161.645 51.7699 161.776C51.9631 161.904 52.1136 162.085 52.2216 162.318H52.267C52.3788 162.093 52.5464 161.914 52.7699 161.781C52.9934 161.647 53.2614 161.58 53.5739 161.58C53.964 161.58 54.2831 161.702 54.5312 161.946C54.7794 162.188 54.9034 162.566 54.9034 163.08V166H54.233V163.08C54.233 162.758 54.1449 162.527 53.9688 162.389C53.7926 162.251 53.5852 162.182 53.3466 162.182C53.0398 162.182 52.8021 162.275 52.6335 162.46C52.465 162.644 52.3807 162.877 52.3807 163.159V166H51.6989V163.011C51.6989 162.763 51.6184 162.563 51.4574 162.412C51.2964 162.259 51.089 162.182 50.8352 162.182C50.661 162.182 50.4981 162.228 50.3466 162.321C50.197 162.414 50.0758 162.543 49.983 162.707C49.892 162.87 49.8466 163.059 49.8466 163.273V166H49.1761Z" fill="black"/>
<rect x="267" y="16" width="50" height="18" rx="5" fill="#FFEAB8"/>
<path d="M276.419 28V22.1818H278.385C278.842 22.1818 279.215 22.2642 279.505 22.429C279.796 22.5919 280.012 22.8125 280.152 23.0909C280.292 23.3693 280.363 23.6799 280.363 24.0227C280.363 24.3655 280.292 24.6771 280.152 24.9574C280.014 25.2377 279.8 25.4612 279.51 25.6278C279.221 25.7926 278.849 25.875 278.397 25.875H276.988V25.25H278.374C278.686 25.25 278.937 25.196 279.127 25.0881C279.316 24.9801 279.453 24.8343 279.539 24.6506C279.626 24.465 279.669 24.2557 279.669 24.0227C279.669 23.7898 279.626 23.5814 279.539 23.3977C279.453 23.214 279.315 23.0701 279.124 22.9659C278.933 22.8598 278.679 22.8068 278.363 22.8068H277.124V28H276.419ZM282.077 22.1818V28H281.407V22.1818H282.077ZM284.589 28.1023C284.313 28.1023 284.062 28.0502 283.836 27.946C283.611 27.84 283.432 27.6875 283.299 27.4886C283.167 27.2879 283.1 27.0455 283.1 26.7614C283.1 26.5114 283.15 26.3087 283.248 26.1534C283.347 25.9962 283.478 25.8731 283.643 25.7841C283.808 25.6951 283.99 25.6288 284.189 25.5852C284.389 25.5398 284.591 25.5038 284.794 25.4773C285.059 25.4432 285.274 25.4176 285.439 25.4006C285.605 25.3816 285.726 25.3504 285.802 25.3068C285.88 25.2633 285.919 25.1875 285.919 25.0795V25.0568C285.919 24.7765 285.842 24.5587 285.689 24.4034C285.537 24.2481 285.307 24.1705 284.998 24.1705C284.678 24.1705 284.427 24.2405 284.245 24.3807C284.064 24.5208 283.936 24.6705 283.862 24.8295L283.225 24.6023C283.339 24.3371 283.491 24.1307 283.68 23.983C283.871 23.8333 284.08 23.7292 284.305 23.6705C284.532 23.6098 284.756 23.5795 284.975 23.5795C285.116 23.5795 285.277 23.5966 285.458 23.6307C285.642 23.6629 285.819 23.7301 285.99 23.8324C286.162 23.9347 286.305 24.089 286.419 24.2955C286.532 24.5019 286.589 24.7784 286.589 25.125V28H285.919V27.4091H285.885C285.839 27.5038 285.763 27.6051 285.657 27.7131C285.551 27.821 285.41 27.9129 285.234 27.9886C285.058 28.0644 284.843 28.1023 284.589 28.1023ZM284.691 27.5C284.957 27.5 285.18 27.4479 285.362 27.3438C285.546 27.2396 285.684 27.1051 285.777 26.9403C285.871 26.7756 285.919 26.6023 285.919 26.4205V25.8068C285.89 25.8409 285.828 25.8722 285.731 25.9006C285.636 25.9271 285.527 25.9508 285.402 25.9716C285.279 25.9905 285.158 26.0076 285.041 26.0227C284.925 26.036 284.832 26.0473 284.76 26.0568C284.585 26.0795 284.422 26.1165 284.271 26.1676C284.121 26.2169 284 26.2917 283.907 26.392C283.816 26.4905 283.771 26.625 283.771 26.7955C283.771 27.0284 283.857 27.2045 284.029 27.3239C284.204 27.4413 284.424 27.5 284.691 27.5ZM289.711 23.6364V24.2045H287.449V23.6364H289.711ZM288.108 22.5909H288.779V26.75C288.779 26.9394 288.806 27.0814 288.861 27.1761C288.918 27.2689 288.99 27.3314 289.077 27.3636C289.166 27.3939 289.26 27.4091 289.358 27.4091C289.432 27.4091 289.493 27.4053 289.54 27.3977C289.587 27.3883 289.625 27.3807 289.654 27.375L289.79 27.9773C289.745 27.9943 289.681 28.0114 289.6 28.0284C289.518 28.0473 289.415 28.0568 289.29 28.0568C289.101 28.0568 288.915 28.0161 288.733 27.9347C288.553 27.8532 288.404 27.7292 288.284 27.5625C288.167 27.3958 288.108 27.1856 288.108 26.9318V22.5909ZM290.719 28V23.6364H291.39V28H290.719ZM291.06 22.9091C290.929 22.9091 290.817 22.8646 290.722 22.7756C290.629 22.6866 290.583 22.5795 290.583 22.4545C290.583 22.3295 290.629 22.2225 290.722 22.1335C290.817 22.0445 290.929 22 291.06 22C291.191 22 291.302 22.0445 291.395 22.1335C291.49 22.2225 291.537 22.3295 291.537 22.4545C291.537 22.5795 291.49 22.6866 291.395 22.7756C291.302 22.8646 291.191 22.9091 291.06 22.9091ZM293.288 25.375V28H292.618V23.6364H293.265V24.3182H293.322C293.424 24.0966 293.58 23.9186 293.788 23.7841C293.996 23.6477 294.265 23.5795 294.595 23.5795C294.89 23.5795 295.149 23.6402 295.37 23.7614C295.592 23.8807 295.764 24.0625 295.887 24.3068C296.011 24.5492 296.072 24.8561 296.072 25.2273V28H295.402V25.2727C295.402 24.9299 295.313 24.6629 295.135 24.4716C294.957 24.2784 294.712 24.1818 294.402 24.1818C294.188 24.1818 293.996 24.2282 293.828 24.321C293.661 24.4138 293.529 24.5492 293.433 24.7273C293.336 24.9053 293.288 25.1212 293.288 25.375ZM300.047 26.2159V23.6364H300.718V28H300.047V27.2614H300.002C299.9 27.483 299.74 27.6714 299.525 27.8267C299.309 27.9801 299.036 28.0568 298.706 28.0568C298.434 28.0568 298.191 27.9972 297.979 27.8778C297.767 27.7566 297.6 27.5748 297.479 27.3324C297.358 27.0881 297.297 26.7803 297.297 26.4091V23.6364H297.968V26.3636C297.968 26.6818 298.057 26.9356 298.235 27.125C298.415 27.3144 298.644 27.4091 298.922 27.4091C299.089 27.4091 299.258 27.3665 299.431 27.2812C299.605 27.196 299.751 27.0653 299.868 26.8892C299.988 26.7131 300.047 26.4886 300.047 26.2159ZM301.946 28V23.6364H302.593V24.3182H302.65C302.741 24.0852 302.888 23.9044 303.091 23.7756C303.293 23.6449 303.537 23.5795 303.821 23.5795C304.109 23.5795 304.348 23.6449 304.539 23.7756C304.733 23.9044 304.883 24.0852 304.991 24.3182H305.037C305.148 24.0928 305.316 23.9138 305.539 23.7812C305.763 23.6468 306.031 23.5795 306.343 23.5795C306.734 23.5795 307.053 23.7017 307.301 23.946C307.549 24.1884 307.673 24.5663 307.673 25.0795V28H307.002V25.0795C307.002 24.7576 306.914 24.5275 306.738 24.3892C306.562 24.2509 306.355 24.1818 306.116 24.1818C305.809 24.1818 305.572 24.2746 305.403 24.4602C305.234 24.6439 305.15 24.8769 305.15 25.1591V28H304.468V25.0114C304.468 24.7633 304.388 24.5634 304.227 24.4119C304.066 24.2585 303.859 24.1818 303.605 24.1818C303.431 24.1818 303.268 24.2282 303.116 24.321C302.967 24.4138 302.845 24.5426 302.752 24.7074C302.662 24.8703 302.616 25.0587 302.616 25.2727V28H301.946Z" fill="black"/>
<defs>
<filter id="filter0_d_478_1955" x="161" y="114" width="184" height="63" filterUnits="userSpaceOnUse" color-interpolation-filters="sRGB">
<feFlood flood-opacity="0" result="BackgroundImageFix"/>
<feColorMatrix in="SourceAlpha" type="matrix" values="0 0 0 0 0 0 0 0 0 0 0 0 0 0 0 0 0 0 127 0" result="hardAlpha"/>
<feOffset dy="1"/>
<feGaussianBlur stdDeviation="6.5"/>
<feComposite in2="hardAlpha" operator="out"/>
<feColorMatrix type="matrix" values="0 0 0 0 0 0 0 0 0 0 0 0 0 0 0 0 0 0 0.05 0"/>
<feBlend mode="normal" in2="BackgroundImageFix" result="effect1_dropShadow_478_1955"/>
<feBlend mode="normal" in="SourceGraphic" in2="effect1_dropShadow_478_1955" result="shape"/>
</filter>
<filter id="filter1_d_478_1955" x="161" y="157" width="184" height="63" filterUnits="userSpaceOnUse" color-interpolation-filters="sRGB">
<feFlood flood-opacity="0" result="BackgroundImageFix"/>
<feColorMatrix in="SourceAlpha" type="matrix" values="0 0 0 0 0 0 0 0 0 0 0 0 0 0 0 0 0 0 127 0" result="hardAlpha"/>
<feOffset dy="1"/>
<feGaussianBlur stdDeviation="6.5"/>
<feComposite in2="hardAlpha" operator="out"/>
<feColorMatrix type="matrix" values="0 0 0 0 0 0 0 0 0 0 0 0 0 0 0 0 0 0 0.05 0"/>
<feBlend mode="normal" in2="BackgroundImageFix" result="effect1_dropShadow_478_1955"/>
<feBlend mode="normal" in="SourceGraphic" in2="effect1_dropShadow_478_1955" result="shape"/>
</filter>
<filter id="filter2_d_478_1955" x="107" y="71" width="184" height="63" filterUnits="userSpaceOnUse" color-interpolation-filters="sRGB">
<feFlood flood-opacity="0" result="BackgroundImageFix"/>
<feColorMatrix in="SourceAlpha" type="matrix" values="0 0 0 0 0 0 0 0 0 0 0 0 0 0 0 0 0 0 127 0" result="hardAlpha"/>
<feOffset dy="1"/>
<feGaussianBlur stdDeviation="6.5"/>
<feComposite in2="hardAlpha" operator="out"/>
<feColorMatrix type="matrix" values="0 0 0 0 0 0 0 0 0 0 0 0 0 0 0 0 0 0 0.05 0"/>
<feBlend mode="normal" in2="BackgroundImageFix" result="effect1_dropShadow_478_1955"/>
<feBlend mode="normal" in="SourceGraphic" in2="effect1_dropShadow_478_1955" result="shape"/>
</filter>
</defs>
</svg>
