<svg width="259" height="250" viewBox="0 0 259 250" fill="none" xmlns="http://www.w3.org/2000/svg">
<path d="M243.996 237.013L178.14 248.747C169.062 250.34 160.415 244.256 158.686 235.13L129.721 69.4084C128.136 60.2821 134.188 51.5904 143.267 49.8521L209.122 38.1183C218.201 36.5249 226.847 42.609 228.576 51.7353L257.686 217.601C259.271 226.728 253.218 235.419 243.996 237.013Z" fill="#F3F3F3" stroke="#00112C" stroke-miterlimit="10" stroke-linecap="round" stroke-linejoin="round"/>
<path d="M191.319 61.8565L168.702 65.7294C166.016 66.1444 163.471 64.4845 163.047 61.8565C162.623 59.2284 164.32 56.7387 167.005 56.3237L189.622 52.4508C192.308 52.0358 194.852 53.6957 195.276 56.3237C195.842 58.9518 194.004 61.4415 191.319 61.8565Z" fill="#D9D9D9"/>
<path d="M80.6538 248.746L14.7984 237.005C5.71986 235.41 -0.332498 226.712 1.25264 217.435L30.3616 51.7448C31.9468 42.6123 40.593 36.524 49.8156 38.1185L115.671 49.8603C124.75 51.4549 130.802 60.1525 129.217 69.43L100.108 235.12C98.3786 244.253 89.7324 250.341 80.6538 248.746Z" stroke="#696D76" stroke-miterlimit="10" stroke-linecap="round" stroke-linejoin="round"/>
<path d="M90.2055 65.7333L67.6148 61.8699C64.9322 61.456 63.0967 58.9724 63.6614 56.3508C64.085 53.7292 66.6265 51.9355 69.3091 52.4874L91.8998 56.3508C94.5824 56.7647 96.4179 59.2483 95.8531 61.8699C95.4296 64.3535 92.8881 66.1472 90.2055 65.7333Z" fill="#F3F3F3"/>
<path d="M129.469 17.7568V1" stroke="#00112C" stroke-width="1.5" stroke-miterlimit="10" stroke-linecap="round" stroke-linejoin="round"/>
<path d="M85.9014 24.4595L74.7302 11.0541" stroke="#00112C" stroke-width="1.5" stroke-miterlimit="10" stroke-linecap="round" stroke-linejoin="round"/>
<path d="M173.037 24.4595L184.208 11.0541" stroke="#00112C" stroke-width="1.5" stroke-miterlimit="10" stroke-linecap="round" stroke-linejoin="round"/>
<path d="M170.191 95.5691C171.426 102.291 166.978 108.742 160.255 109.977C153.533 111.212 147.083 106.764 145.847 100.042C144.612 93.3195 149.061 86.8688 155.783 85.6338C162.505 84.3987 168.956 88.8469 170.191 95.5691Z" fill="#D9D9D9"/>
<rect x="174.604" y="86.9689" width="30.6439" height="5.89305" transform="rotate(-10.4108 174.604 86.9689)" fill="#D9D9D9"/>
<rect x="176.732" y="98.5602" width="12.9647" height="4.71444" transform="rotate(-10.4108 176.732 98.5602)" fill="#D9D9D9"/>
<rect x="175.881" y="93.9237" width="30.6439" height="1.17861" transform="rotate(-10.4108 175.881 93.9237)" fill="#D9D9D9"/>
<rect x="150.427" y="124.965" width="80.1455" height="23.5722" transform="rotate(-10.4108 150.427 124.965)" fill="#D9D9D9"/>
<rect x="161.715" y="186.402" width="80.1455" height="36.5369" transform="rotate(-10.4108 161.715 186.402)" fill="#F2F2F2"/>
<rect x="155.752" y="153.945" width="80.1455" height="3.53583" transform="rotate(-10.4108 155.752 153.945)" fill="#D9D9D9"/>
<rect x="158.094" y="166.697" width="80.1455" height="2.35722" transform="rotate(-10.4108 158.094 166.697)" fill="#D9D9D9"/>
<rect x="157.029" y="160.901" width="80.1455" height="2.35722" transform="rotate(-10.4108 157.029 160.901)" fill="#D9D9D9"/>
<rect x="159.159" y="172.492" width="80.1455" height="1.17861" transform="rotate(-10.4108 159.159 172.492)" fill="#D9D9D9"/>
<circle cx="208.118" cy="226.291" r="8.83957" transform="rotate(-10.4108 208.118 226.291)" fill="#D9D9D9"/>
<rect x="28.983" y="104.031" width="21.9746" height="21.9746" rx="6" transform="rotate(10.1157 28.983 104.031)" fill="#F2F2F2"/>
<rect x="34.3231" y="74.5661" width="21.9746" height="21.9746" rx="6" transform="rotate(10.1157 34.3231 74.5661)" fill="#F2F2F2"/>
<rect x="18.0475" y="165.323" width="21.9746" height="21.9746" rx="6" transform="rotate(10.1157 18.0475 165.323)" fill="#F2F2F2"/>
<rect x="23.5153" y="134.677" width="21.9746" height="21.9746" rx="6" transform="rotate(10.1157 23.5153 134.677)" fill="#F2F2F2"/>
<rect x="12.5797" y="195.971" width="21.9746" height="21.9746" rx="6" transform="rotate(10.1157 12.5797 195.971)" fill="#F2F2F2"/>
<rect x="90.2761" y="114.966" width="21.9746" height="21.9746" rx="6" transform="rotate(10.1157 90.2761 114.966)" fill="#F2F2F2"/>
<rect x="95.6173" y="85.5005" width="21.9746" height="21.9746" rx="6" transform="rotate(10.1157 95.6173 85.5005)" fill="#F2F2F2"/>
<rect x="79.3406" y="176.259" width="21.9746" height="21.9746" rx="6" transform="rotate(10.1157 79.3406 176.259)" fill="#F2F2F2"/>
<rect x="84.8083" y="145.614" width="21.9746" height="21.9746" rx="6" transform="rotate(10.1157 84.8083 145.614)" fill="#F2F2F2"/>
<rect x="73.8728" y="206.906" width="21.9746" height="21.9746" rx="6" transform="rotate(10.1157 73.8728 206.906)" fill="#F2F2F2"/>
<rect x="59.6295" y="109.498" width="21.9746" height="21.9746" rx="6" transform="rotate(10.1157 59.6295 109.498)" fill="#F2F2F2"/>
<rect x="64.9696" y="80.0328" width="21.9746" height="21.9746" rx="6" transform="rotate(10.1157 64.9696 80.0328)" fill="#F2F2F2"/>
<rect x="48.6951" y="170.793" width="21.9746" height="21.9746" rx="6" transform="rotate(10.1157 48.6951 170.793)" fill="#F2F2F2"/>
<rect x="54.1617" y="140.144" width="21.9746" height="21.9746" rx="6" transform="rotate(10.1157 54.1617 140.144)" fill="#F2F2F2"/>
<rect x="43.2262" y="201.438" width="21.9746" height="21.9746" rx="6" transform="rotate(10.1157 43.2262 201.438)" fill="#F2F2F2"/>
</svg>
