<svg width="1587" height="473" viewBox="0 0 1587 473" fill="none" xmlns="http://www.w3.org/2000/svg">
<path d="M529.173 236.5V96.6175C529.173 56.14 496.369 23.3364 455.892 23.3364H74.281C33.8036 23.3364 1 56.14 1 96.6175V443.743" stroke="black" stroke-miterlimit="10" stroke-linecap="round"/>
<path d="M1585.52 443.743V96.617C1585.52 56.1395 1552.71 23.3359 1512.24 23.3359H1130.65C1090.17 23.3359 1057.37 56.1395 1057.37 96.617V248.769" stroke="black" stroke-miterlimit="10" stroke-linecap="round"/>
<path d="M529.172 184.393V376.383C529.172 416.86 561.976 449.664 602.453 449.664H984.041C1024.52 449.664 1057.32 416.86 1057.32 376.383V245.24" stroke="black" stroke-miterlimit="10"/>
<circle cx="264.875" cy="23.3358" r="23.3358" fill="#0A3E94"/>
<path d="M267.74 13.7468V35.5649H263.127V18.1253H262.999L258.003 21.2574V17.1665L263.404 13.7468H267.74Z" fill="white"/>
<circle cx="792.887" cy="449.336" r="23.3358" fill="#0A3E94"/>
<path d="M784.476 460V456.676L792.242 449.485C792.903 448.846 793.457 448.271 793.904 447.759C794.359 447.248 794.703 446.747 794.938 446.257C795.172 445.76 795.289 445.224 795.289 444.648C795.289 444.009 795.143 443.459 794.852 442.997C794.561 442.528 794.163 442.17 793.659 441.921C793.155 441.665 792.583 441.538 791.944 441.538C791.276 441.538 790.694 441.673 790.197 441.942C789.7 442.212 789.316 442.599 789.046 443.104C788.776 443.608 788.641 444.208 788.641 444.904H784.263C784.263 443.477 784.586 442.237 785.232 441.186C785.879 440.135 786.784 439.322 787.949 438.746C789.114 438.171 790.456 437.884 791.976 437.884C793.538 437.884 794.898 438.161 796.056 438.714C797.221 439.261 798.126 440.021 798.773 440.994C799.419 441.967 799.742 443.082 799.742 444.339C799.742 445.163 799.579 445.977 799.252 446.779C798.933 447.582 798.361 448.473 797.537 449.453C796.713 450.426 795.552 451.594 794.053 452.958L790.868 456.08V456.229H800.03V460H784.476Z" fill="white"/>
<circle cx="1321.27" cy="23.3358" r="23.3358" fill="#0A3E94"/>
<path d="M1320.3 34.8632C1318.71 34.8632 1317.29 34.5898 1316.05 34.0429C1314.82 33.4889 1313.84 32.729 1313.12 31.7631C1312.41 30.7901 1312.05 29.6679 1312.02 28.3966H1316.67C1316.7 28.9293 1316.87 29.398 1317.19 29.8029C1317.52 30.2006 1317.95 30.5095 1318.49 30.7297C1319.03 30.9499 1319.64 31.06 1320.31 31.06C1321.02 31.06 1321.64 30.9357 1322.18 30.6871C1322.72 30.4385 1323.14 30.0941 1323.45 29.6537C1323.75 29.2134 1323.9 28.7056 1323.9 28.1303C1323.9 27.5479 1323.74 27.033 1323.41 26.5855C1323.09 26.131 1322.63 25.7759 1322.03 25.5202C1321.43 25.2645 1320.72 25.1367 1319.9 25.1367H1317.86V21.7489H1319.9C1320.59 21.7489 1321.21 21.6282 1321.74 21.3867C1322.28 21.1452 1322.7 20.8114 1323 20.3853C1323.3 19.952 1323.45 19.4478 1323.45 18.8725C1323.45 18.3256 1323.31 17.8462 1323.05 17.4343C1322.8 17.0152 1322.43 16.6885 1321.96 16.4541C1321.5 16.2198 1320.96 16.1026 1320.34 16.1026C1319.72 16.1026 1319.15 16.2162 1318.63 16.4435C1318.11 16.6637 1317.7 16.9797 1317.38 17.3916C1317.07 17.8036 1316.9 18.2865 1316.88 18.8405H1312.46C1312.48 17.5834 1312.84 16.4755 1313.54 15.5166C1314.23 14.5578 1315.17 13.8085 1316.35 13.2688C1317.54 12.7219 1318.87 12.4485 1320.37 12.4485C1321.87 12.4485 1323.19 12.7219 1324.32 13.2688C1325.45 13.8157 1326.33 14.5543 1326.95 15.4847C1327.58 16.408 1327.89 17.4449 1327.89 18.5955C1327.89 19.8171 1327.51 20.8362 1326.75 21.653C1325.99 22.4698 1325 22.9882 1323.78 23.2084V23.3789C1325.38 23.5848 1326.6 24.1424 1327.44 25.0514C1328.29 25.9534 1328.7 27.0827 1328.7 28.4392C1328.7 29.6821 1328.35 30.7865 1327.62 31.7524C1326.9 32.7184 1325.91 33.4783 1324.65 34.0323C1323.38 34.5862 1321.94 34.8632 1320.3 34.8632Z" fill="white"/>
</svg>
