<svg width="47" height="47" viewBox="0 0 47 47" fill="none" xmlns="http://www.w3.org/2000/svg">
<circle cx="23.336" cy="23.3358" r="23.3358" fill="#0A3E94"/>
<path d="M14.9251 34V30.6761L22.6914 23.4851C23.3519 22.8459 23.9059 22.2706 24.3534 21.7592C24.8079 21.2479 25.1524 20.7472 25.3867 20.2571C25.6211 19.7599 25.7383 19.2237 25.7383 18.6484C25.7383 18.0092 25.5927 17.4588 25.3015 16.9972C25.0103 16.5284 24.6126 16.1697 24.1083 15.9212C23.6041 15.6655 23.0323 15.5376 22.3931 15.5376C21.7255 15.5376 21.1431 15.6726 20.646 15.9425C20.1488 16.2124 19.7653 16.5994 19.4954 17.1037C19.2255 17.608 19.0906 18.2081 19.0906 18.9041H14.712C14.712 17.4766 15.0352 16.2372 15.6815 15.1861C16.3278 14.1349 17.2333 13.3217 18.3981 12.7464C19.5629 12.1712 20.9052 11.8835 22.4251 11.8835C23.9876 11.8835 25.3477 12.1605 26.5054 12.7145C27.6701 13.2614 28.5757 14.0213 29.222 14.9943C29.8683 15.9673 30.1914 17.0824 30.1914 18.3395C30.1914 19.1634 30.0281 19.9766 29.7014 20.7791C29.3818 21.5817 28.81 22.473 27.9862 23.4531C27.1623 24.4261 26.0011 25.5945 24.5025 26.9581L21.3171 30.0795V30.2287H30.4791V34H14.9251Z" fill="white"/>
</svg>
