<svg width="48" height="47" viewBox="0 0 48 47" fill="none" xmlns="http://www.w3.org/2000/svg">
<circle cx="23.7195" cy="23.3357" r="23.3358" fill="#0A3E94"/>
<path d="M22.7515 34.8634C21.1606 34.8634 19.7437 34.5899 18.5008 34.043C17.265 33.4891 16.2885 32.7291 15.5711 31.7632C14.8609 30.7902 14.4951 29.668 14.4738 28.3967H19.1187C19.1471 28.9294 19.3211 29.3982 19.6407 29.803C19.9674 30.2007 20.4007 30.5097 20.9404 30.7298C21.4802 30.95 22.0875 31.0601 22.7622 31.0601C23.4653 31.0601 24.0867 30.9358 24.6265 30.6872C25.1663 30.4386 25.5889 30.0942 25.8943 29.6538C26.1997 29.2135 26.3524 28.7057 26.3524 28.1304C26.3524 27.548 26.189 27.0331 25.8623 26.5857C25.5427 26.1311 25.0811 25.776 24.4774 25.5203C23.8808 25.2646 23.1706 25.1368 22.3467 25.1368H20.3119V21.749H22.3467C23.0427 21.749 23.6571 21.6283 24.1897 21.3868C24.7295 21.1453 25.1485 20.8115 25.4468 20.3854C25.7451 19.9521 25.8943 19.4479 25.8943 18.8726C25.8943 18.3257 25.7629 17.8463 25.5001 17.4344C25.2444 17.0153 24.8822 16.6886 24.4135 16.4543C23.9518 16.2199 23.412 16.1027 22.7941 16.1027C22.1691 16.1027 21.5974 16.2163 21.0789 16.4436C20.5605 16.6638 20.145 16.9798 19.8325 17.3918C19.52 17.8037 19.3531 18.2867 19.3318 18.8406H14.9106C14.9319 17.5835 15.2906 16.4756 15.9866 15.5168C16.6826 14.558 17.6201 13.8087 18.7991 13.2689C19.9852 12.722 21.324 12.4486 22.8154 12.4486C24.3211 12.4486 25.6386 12.722 26.7679 13.2689C27.8971 13.8158 28.7742 14.5544 29.3992 15.4848C30.0314 16.4081 30.3439 17.445 30.3367 18.5956C30.3439 19.8172 29.9639 20.8364 29.1968 21.6531C28.4369 22.4699 27.4461 22.9884 26.2245 23.2085V23.379C27.8296 23.5849 29.0512 24.1425 29.8893 25.0516C30.7345 25.9536 31.1535 27.0828 31.1464 28.4394C31.1535 29.6823 30.7948 30.7867 30.0704 31.7526C29.3531 32.7185 28.3623 33.4784 27.0981 34.0324C25.8339 34.5864 24.385 34.8634 22.7515 34.8634Z" fill="white"/>
</svg>
