<svg width="164" height="50" viewBox="0 0 164 50" fill="none" xmlns="http://www.w3.org/2000/svg">
<path d="M155.494 0H7.72355C3.55521 0 0.164062 3.39254 0.164062 7.56259V42.0361C0.164062 46.2062 3.55521 49.5987 7.72355 49.5987H155.494C159.662 49.5987 163.053 46.2062 163.053 42.0361V7.56259C163.053 3.39254 159.662 0 155.494 0ZM161.036 42.0354C161.036 45.0969 158.554 47.5795 155.494 47.5795H7.72355C4.66328 47.5795 2.18167 45.0969 2.18167 42.0354V7.56259C2.18167 4.50107 4.66328 2.01844 7.72355 2.01844H155.494C158.554 2.01844 161.036 4.50107 161.036 7.56259V42.0361V42.0354Z" fill="white"/>
<path d="M32.3344 31.5975L18.1319 39.7521C15.9689 40.9938 13.3572 39.8845 12.5708 37.739L25.5221 24.7824L32.3344 31.5968V31.5975Z" fill="#EA4335"/>
<path d="M25.521 24.7832L12.5697 37.7398C12.4181 37.3272 12.335 36.8753 12.335 36.395V13.2037C12.335 12.7141 12.4219 12.2546 12.5789 11.835L25.521 24.7824V24.7832Z" fill="#4285F4"/>
<path d="M32.3243 17.9773L25.5212 24.7832L12.5791 11.8358C13.3755 9.7065 15.9733 8.6103 18.1287 9.8443L32.325 17.9781L32.3243 17.9773Z" fill="#34A853"/>
<path d="M38.3486 28.145L32.3343 31.5976L25.522 24.7832L32.3251 17.9774L38.3456 21.4269C40.9395 22.9134 40.9411 26.6562 38.3486 28.145Z" fill="#FBBC04"/>
<path d="M58.2932 30.4144H62.0137C61.9106 31.4652 61.4181 32.3674 60.5355 33.1211C59.6529 33.8686 58.6572 34.2427 57.5499 34.2427C56.2486 34.2427 55.0405 33.7431 53.9263 32.7446C52.7344 31.6684 52.1388 30.299 52.1388 28.6362C52.1388 26.9734 52.6736 25.6847 53.7424 24.6147C54.812 23.5254 56.1355 22.9812 57.7137 22.9812C59.4728 22.9812 60.9641 23.7964 62.1876 25.4268L63.7912 23.8895C62.857 22.8203 61.9067 22.0466 60.9402 21.5693C59.9291 21.0928 58.8403 20.8542 57.6745 20.8542C55.5038 20.8542 53.6608 21.6117 52.1472 23.1259C50.6336 24.6339 49.8765 26.4707 49.8765 28.6362C49.8765 30.8016 50.6206 32.5737 52.1088 34.088C53.597 35.596 55.3845 36.3496 57.4714 36.3496C59.5582 36.3496 61.3719 35.5698 62.757 34.0102C63.3687 33.3143 63.8035 32.5668 64.0613 31.7678C64.3252 30.904 64.4576 29.9117 64.4576 28.7901V28.2975H58.2924V30.4144H58.2932Z" fill="white"/>
<path d="M70.7096 26.3929C69.3114 26.3929 68.1264 26.8702 67.1538 27.824C66.1811 28.7777 65.6948 29.9348 65.6948 31.2942C65.6948 32.7376 66.1711 33.9362 67.1245 34.89C68.0779 35.8569 69.2599 36.3403 70.6711 36.3403C72.0824 36.3403 73.2959 35.8669 74.2754 34.9193C75.2481 33.9655 75.7344 32.7831 75.7344 31.372C75.7344 29.9609 75.2512 28.7947 74.2854 27.834C73.3059 26.874 72.1147 26.3937 70.7104 26.3937L70.7096 26.3929ZM72.7488 33.5752C72.2401 34.1233 71.5599 34.3966 70.7096 34.3966C69.8593 34.3966 69.186 34.1194 68.6712 33.5652C68.1687 33.0178 67.9171 32.2734 67.9171 31.332C67.9171 30.4559 68.1749 29.74 68.6904 29.1857C69.206 28.6315 69.8793 28.3544 70.7096 28.3544C71.5399 28.3544 72.2332 28.6315 72.7488 29.1857C73.2574 29.7338 73.5121 30.4652 73.5121 31.3805C73.5121 32.2958 73.2574 33.0271 72.7488 33.5752Z" fill="white"/>
<path d="M81.986 26.3929C80.5878 26.3929 79.4028 26.8702 78.4301 27.824C77.4575 28.7777 76.9712 29.9348 76.9712 31.2942C76.9712 32.7376 77.4475 33.9362 78.4009 34.89C79.3543 35.8569 80.5362 36.3403 81.9475 36.3403C83.3587 36.3403 84.5722 35.8669 85.5518 34.9193C86.5244 33.9655 87.0107 32.7831 87.0107 31.372C87.0107 29.9609 86.5275 28.7947 85.5618 27.834C84.5822 26.874 83.3911 26.3937 81.9867 26.3937L81.986 26.3929ZM84.0251 33.5752C83.5165 34.1233 82.8363 34.3966 81.986 34.3966C81.1357 34.3966 80.4624 34.1194 79.9468 33.5652C79.4443 33.0178 79.1927 32.2734 79.1927 31.332C79.1927 30.4559 79.4505 29.74 79.966 29.1857C80.4816 28.6315 81.1549 28.3544 81.9852 28.3544C82.8155 28.3544 83.5088 28.6315 84.0243 29.1857C84.533 29.7338 84.7877 30.4652 84.7877 31.3805C84.7877 32.2958 84.533 33.0271 84.0243 33.5752H84.0251Z" fill="white"/>
<path d="M95.6203 27.717C94.8346 26.834 93.8489 26.3929 92.6639 26.3929C91.3111 26.3929 90.2223 26.9017 89.3982 27.9202C88.6317 28.8809 88.2485 30.0472 88.2485 31.4197C88.2485 32.7923 88.661 34.0071 89.4851 34.9478C90.3031 35.8761 91.3534 36.3396 92.6354 36.3396C93.7627 36.3396 94.7577 35.8985 95.621 35.0155V36.3303C95.621 38.2826 94.8254 39.2595 93.2341 39.2595C92.3707 39.2595 91.7136 38.9662 91.2626 38.3796C91.0695 38.1278 90.931 37.7706 90.8471 37.3064H88.6633C88.7918 38.5374 89.275 39.5012 90.113 40.1971C90.9248 40.8737 91.9583 41.2117 93.2148 41.2117C94.703 41.2117 95.8719 40.7221 96.7222 39.7421C97.1731 39.2333 97.4763 38.6236 97.6302 37.9154C97.6817 37.6575 97.7217 37.3596 97.751 37.0209C97.7802 36.6821 97.7941 36.2911 97.7941 35.8461V26.6531H95.6203V27.7162V27.717ZM95.0408 33.4882C94.5576 34.094 93.9004 34.3966 93.0694 34.3966C92.2383 34.3966 91.5874 34.0971 91.1172 33.4974C90.6855 32.9501 90.47 32.2473 90.47 31.3905C90.47 30.5337 90.6855 29.8116 91.1172 29.2635C91.5935 28.6515 92.2445 28.3451 93.0694 28.3451C93.8427 28.3451 94.4768 28.6253 94.9731 29.1865C95.4625 29.7346 95.7072 30.4659 95.7072 31.3812C95.7072 32.238 95.4848 32.9409 95.0408 33.4882Z" fill="white"/>
<path d="M101.206 20.8533H99.0317V36.0686H101.206V20.8533Z" fill="white"/>
<path d="M108.52 34.0101C108.166 34.268 107.719 34.3966 107.177 34.3966C106.481 34.3966 105.911 34.171 105.466 33.7199C105.022 33.2626 104.771 32.6468 104.712 31.8739H111.457L111.467 31.3612C111.467 29.8085 111.067 28.5938 110.269 27.717C109.463 26.834 108.368 26.3929 106.983 26.3929C105.598 26.3929 104.509 26.8471 103.678 27.7562C102.853 28.6777 102.441 29.8832 102.441 31.3712C102.441 32.8593 102.866 34.0779 103.717 34.9862C104.568 35.8885 105.695 36.3396 107.099 36.3396C107.589 36.3396 108.043 36.288 108.462 36.1848C108.881 36.0817 109.271 35.9193 109.631 35.6968C109.992 35.4743 110.329 35.191 110.645 34.8461C110.96 34.5013 111.26 34.0871 111.544 33.6037L109.708 32.5791C109.263 33.275 108.867 33.7522 108.519 34.0094L108.52 34.0101ZM105.168 29.3697C105.303 29.1573 105.466 28.9748 105.656 28.8239C105.846 28.6723 106.056 28.5568 106.288 28.476C106.52 28.3952 106.768 28.3551 107.032 28.3551C108.192 28.3551 108.923 28.9356 109.226 30.0949H104.858C104.929 29.8239 105.032 29.5822 105.168 29.3697Z" fill="white"/>
<path d="M122.407 21.4045C121.769 21.2305 120.825 21.1436 119.576 21.1436H117.025V36.0694H119.276V30.0087H120.32C121.872 30.0087 123.106 29.6091 124.021 28.8101C124.936 28.011 125.393 26.9287 125.393 25.5623C125.393 24.2859 124.965 23.2297 124.108 22.3914C123.619 21.908 123.052 21.5793 122.407 21.4053L122.407 21.4045ZM120.117 27.9202H119.276V23.222H120.021C122.153 23.222 123.219 23.9918 123.219 25.5322C123.219 27.0726 122.185 27.9202 120.117 27.9202H120.117Z" fill="white"/>
<path d="M128.636 21.1436H126.462V36.0694H128.636V21.1436Z" fill="white"/>
<path d="M137.087 27.7462C136.218 26.844 135.235 26.3929 134.14 26.3929C132.871 26.3929 131.815 26.8632 130.97 27.8039C130.126 28.7446 129.705 29.9209 129.705 31.332C129.705 32.743 130.126 33.9678 130.97 34.9277C131.821 35.8684 132.896 36.3388 134.198 36.3388C135.228 36.3388 136.191 35.92 137.087 35.0817V36.0678H139.271V26.6523H137.087V27.7447V27.7462ZM136.478 33.566C135.982 34.1202 135.332 34.3973 134.526 34.3973C133.772 34.3973 133.147 34.111 132.652 33.5367C132.169 32.9701 131.927 32.235 131.927 31.3327C131.927 30.4883 132.175 29.78 132.671 29.2058C133.173 28.6384 133.798 28.3551 134.545 28.3551C135.338 28.3551 135.982 28.6353 136.478 29.1965C136.974 29.77 137.223 30.4983 137.223 31.3812C137.223 32.2642 136.975 32.9924 136.478 33.566Z" fill="white"/>
<path d="M148.427 26.6539L145.741 32.0672L142.862 26.6539H140.339L144.572 34.3196L140.9 41.1925H143.383L150.882 26.6539H148.427Z" fill="white"/>
<path d="M54.1435 12.1599H57.2692V12.41C57.2692 12.9782 57.2022 13.4816 57.0684 13.9196C56.9375 14.3246 56.7175 14.7041 56.4074 15.0566C55.7048 15.8472 54.8122 16.2429 53.728 16.2429C52.6438 16.2429 51.7635 15.8603 51.0094 15.0959C50.2553 14.3284 49.8774 13.4069 49.8774 12.3323C49.8774 11.2576 50.2614 10.3031 51.0286 9.53866C51.7958 8.77116 52.73 8.38702 53.8303 8.38702C54.4213 8.38702 54.973 8.50788 55.4863 8.7496C55.9764 8.99132 56.4581 9.38316 56.9314 9.92587L56.118 10.7049C55.4978 9.87814 54.7414 9.46475 53.8496 9.46475C53.0493 9.46475 52.3783 9.74112 51.8366 10.2931C51.2941 10.8358 51.0232 11.5148 51.0232 12.3315C51.0232 13.1483 51.3256 13.8688 51.9297 14.4146C52.4945 14.9212 53.107 15.1744 53.7665 15.1744C54.3282 15.1744 54.833 14.985 55.2801 14.6055C55.7271 14.2229 55.9772 13.7657 56.0295 13.233H54.1435V12.1599Z" fill="white"/>
<path d="M62.6195 9.60418H59.587V11.4225H62.531V12.4956H59.587V15.0244H62.6195V16.0975H58.4458V8.53107H62.6195V9.60418Z" fill="white"/>
<path d="M66.6776 9.60418V16.0975H65.5364V9.60418H63.7974V8.53107H68.412V9.60418H66.6776Z" fill="white"/>
<path d="M73.3394 8.5318V16.0982H72.1982V8.5318H73.3394Z" fill="white"/>
<path d="M77.3577 9.60491V16.0982H76.2166V9.60491H74.4775V8.5318H79.0922V9.60491H77.3577Z" fill="white"/>
<path d="M81.8394 12.2808C81.8394 11.2154 82.2295 10.3009 83.0105 9.53648C83.7877 8.77206 84.7219 8.38947 85.8122 8.38947C86.9026 8.38947 87.8145 8.77514 88.5847 9.54572C89.3588 10.3171 89.7459 11.2431 89.7459 12.3247C89.7459 13.4063 89.3573 14.3355 88.5801 15.0937C87.7998 15.8551 86.8572 16.2353 85.7537 16.2353C84.7773 16.2353 83.9 15.8974 83.1229 15.2207C82.2672 14.4725 81.8394 13.4925 81.8394 12.2801V12.2808ZM82.9905 12.2955C82.9905 13.1315 83.2714 13.8197 83.8331 14.3586C84.3918 14.8974 85.0366 15.1669 85.7684 15.1669C86.5617 15.1669 87.2312 14.8928 87.7767 14.3432C88.3223 13.7881 88.5947 13.1115 88.5947 12.3139C88.5947 11.5164 88.3254 10.8305 87.7868 10.2847C87.2512 9.73586 86.5879 9.46181 85.7976 9.46181C85.0073 9.46181 84.3456 9.73586 83.8039 10.2847C83.2614 10.8274 82.9905 11.4972 82.9905 12.2939V12.2955Z" fill="white"/>
<path d="M95.2998 13.7896V8.53107H96.441V16.0975H95.2998L91.8287 10.7997V16.0975H90.6875V8.53107H91.8287L95.2998 13.7896Z" fill="white"/>
</svg>
