<svg width="163" height="50" viewBox="0 0 163 50" fill="none" xmlns="http://www.w3.org/2000/svg">
<path d="M155.328 0H7.55949C3.39038 0 0 3.39254 0 7.56259V42.0361C0 46.2062 3.39038 49.5987 7.55949 49.5987H155.329C159.497 49.5987 162.888 46.2062 162.888 42.0361V7.56259C162.888 3.39254 159.497 0 155.329 0H155.328ZM160.87 42.0354C160.87 45.0969 158.388 47.5795 155.328 47.5795H7.55949C4.49768 47.5795 2.01761 45.0969 2.01761 42.0354V7.56259C2.01761 4.50107 4.49845 2.01844 7.55949 2.01844H155.329C158.389 2.01844 160.871 4.50107 160.871 7.56259V42.0361L160.87 42.0354Z" fill="white"/>
<path d="M40.8753 31.1664C38.8046 30.8423 37.1971 28.4413 37.1971 25.5261C37.1971 22.9734 38.4306 20.8141 40.1281 20.0981C40.3212 20.0165 40.3974 19.7802 40.2797 19.607C39.0285 17.7679 37.0924 16.5894 34.4315 16.5894C32.2185 16.5894 31.5013 17.9958 29.0836 18.0789C26.6666 17.9966 25.9494 16.5894 23.7356 16.5894C13.002 16.5894 14.0777 35.763 24.1742 40.1124C25.5847 40.595 26.3934 38.8522 29.0836 38.7644C31.7737 38.8522 32.5832 40.595 33.9937 40.1124C37.5126 38.5966 39.9365 35.2795 41.1454 31.5998C41.21 31.4028 41.0807 31.198 40.876 31.1657L40.8753 31.1664Z" fill="white"/>
<path d="M28.9728 16.1875C29.6607 16.1074 31.9138 15.731 33.2542 14.1483C34.5947 12.5656 34.5962 10.2808 34.5624 9.58871C34.557 9.47401 34.4562 9.38856 34.3423 9.40241C33.6544 9.48247 31.4013 9.85891 30.0608 11.4416C28.7204 13.0244 28.7189 15.3091 28.7527 16.0012C28.7581 16.1159 28.8589 16.2014 28.9728 16.1875Z" fill="white"/>
<path d="M61.301 34.0809H55.756L54.4717 37.9777H51.6938L57.0403 22.9025H60.079L65.4254 37.9777H62.5852L61.301 34.0809ZM56.3824 32.0017H60.6638L58.5646 25.5661H58.4915L56.3824 32.0017Z" fill="white"/>
<path d="M76.4747 28.011C77.3311 29.0626 77.7589 30.4837 77.7589 32.2735C77.7589 34.0633 77.3342 35.4735 76.4847 36.5251C75.6351 37.5767 74.4901 38.1024 73.0489 38.1024C71.3568 38.1024 70.1633 37.4304 69.4669 36.0863H69.4146V41.6443H66.8145V26.5584H69.3522V28.4806H69.4046C69.7177 27.854 70.1979 27.3559 70.8458 26.9864C71.4937 26.6169 72.214 26.4329 73.0073 26.4329C74.4624 26.4329 75.6182 26.9587 76.4747 28.0103V28.011ZM74.3132 34.9478C74.8349 34.2788 75.0965 33.3874 75.0965 32.2735C75.0965 31.1595 74.8356 30.2673 74.3132 29.5991C73.7976 28.9302 73.1089 28.5961 72.2455 28.5961C71.3822 28.5961 70.7104 28.934 70.1879 29.6091C69.6662 30.285 69.4046 31.1726 69.4046 32.2735C69.4046 33.3743 69.6654 34.2619 70.1879 34.9378C70.7104 35.6067 71.396 35.9408 72.2455 35.9408C73.095 35.9408 73.7976 35.6098 74.3132 34.9485V34.9478Z" fill="white"/>
<path d="M89.1626 28.011C90.0191 29.0626 90.4469 30.4837 90.4469 32.2735C90.4469 34.0633 90.0222 35.4735 89.1726 36.5251C88.3231 37.5767 87.1781 38.1024 85.7369 38.1024C84.0447 38.1024 82.8513 37.4304 82.1549 36.0863H82.1025V41.6443H79.5024V26.5584H82.0402V28.4806H82.0925C82.4057 27.854 82.8859 27.3559 83.5338 26.9864C84.1817 26.6169 84.902 26.4329 85.6953 26.4329C87.1504 26.4329 88.3062 26.9587 89.1626 28.0103V28.011ZM87.0011 34.9478C87.5228 34.2788 87.7845 33.3874 87.7845 32.2735C87.7845 31.1595 87.5236 30.2673 87.0011 29.5991C86.4856 28.9302 85.7969 28.5961 84.9335 28.5961C84.0701 28.5961 83.3984 28.934 82.8759 29.6091C82.3542 30.285 82.0925 31.1726 82.0925 32.2735C82.0925 33.3743 82.3534 34.2619 82.8759 34.9378C83.3984 35.6067 84.084 35.9408 84.9335 35.9408C85.783 35.9408 86.4856 35.6098 87.0011 34.9485V34.9478Z" fill="white"/>
<path d="M99.1872 33.736C99.2711 34.4258 99.6289 34.9831 100.263 35.408C100.882 35.826 101.655 36.0347 102.581 36.0347C103.508 36.0347 104.228 35.833 104.806 35.4288C105.377 35.0247 105.662 34.5097 105.662 33.8823C105.662 33.3388 105.454 32.9 105.036 32.5659C104.618 32.2249 103.936 31.9424 102.989 31.7199L101.036 31.2603C98.3069 30.6337 96.9426 29.258 96.9426 27.1334C96.9426 25.8031 97.4681 24.72 98.5193 23.884C99.5565 23.0619 100.9 22.6516 102.55 22.6516C104.2 22.6516 105.543 23.0626 106.56 23.884C107.569 24.6992 108.091 25.7716 108.126 27.1018H105.558C105.495 26.3982 105.188 25.8447 104.639 25.4406C104.103 25.0433 103.4 24.8447 102.53 24.8447C101.66 24.8447 100.991 25.0364 100.462 25.419C99.9405 25.8024 99.6789 26.3066 99.6789 26.934C99.6789 27.4359 99.8844 27.8431 100.295 28.1564C100.699 28.4698 101.364 28.7376 102.29 28.9609L104.023 29.3581C105.548 29.7061 106.655 30.2149 107.345 30.8831C108.034 31.5521 108.379 32.4466 108.379 33.5682C108.379 34.9962 107.842 36.1309 106.771 36.9738C105.706 37.8098 104.26 38.2278 102.437 38.2278C100.613 38.2278 99.3003 37.8275 98.2492 37.0262C97.1911 36.2186 96.634 35.1217 96.5786 33.7352H99.1895L99.1872 33.736Z" fill="white"/>
<path d="M113.515 24.0103V26.5591H115.677V28.5753H113.515V34.5929C113.515 35.5189 113.975 35.9824 114.893 35.9824C115.13 35.9824 115.387 35.9654 115.666 35.93V37.9254C115.353 37.9946 114.896 38.0301 114.298 38.0301C113.087 38.0301 112.219 37.7937 111.698 37.3195C111.175 36.8392 110.914 36.0486 110.914 34.9477V28.5753H109.358V26.5591H110.914V24.0103H113.514H113.515Z" fill="white"/>
<path d="M118.308 36.5674C117.32 35.5159 116.826 34.081 116.826 32.2634C116.826 30.4459 117.324 29.0387 118.319 27.9802C119.308 26.9287 120.641 26.4029 122.319 26.4029C123.997 26.4029 125.34 26.9287 126.329 27.9802C127.325 29.0318 127.822 30.4598 127.822 32.2634C127.822 34.0671 127.328 35.5159 126.34 36.5674C125.351 37.619 124.011 38.1448 122.319 38.1448C120.627 38.1448 119.297 37.619 118.309 36.5674H118.308ZM124.428 35.0632C124.93 34.402 125.18 33.472 125.18 32.2742C125.18 31.0764 124.926 30.1534 124.417 29.4852C123.916 28.8162 123.216 28.4821 122.318 28.4821C121.42 28.4821 120.731 28.8162 120.23 29.4852C119.721 30.1534 119.467 31.0833 119.467 32.2742C119.467 33.4651 119.721 34.395 120.23 35.0632C120.731 35.7322 121.427 36.0663 122.318 36.0663C123.209 36.0663 123.92 35.7322 124.427 35.0632H124.428Z" fill="white"/>
<path d="M129.556 26.5592H132.052V28.5445H132.104C132.285 27.8755 132.619 27.3574 133.107 26.9879C133.587 26.6184 134.165 26.4344 134.841 26.4344C135.161 26.4344 135.425 26.4691 135.634 26.5391V28.9109C135.405 28.8062 135.06 28.7539 134.6 28.7539C133.842 28.7539 133.243 28.9871 132.804 29.4536C132.373 29.9132 132.157 30.5468 132.157 31.3551V37.9785H129.557V26.5599L129.556 26.5592Z" fill="white"/>
<path d="M146.651 34.5829C146.484 35.6414 145.937 36.4982 145.011 37.1525C144.085 37.8145 142.957 38.1448 141.627 38.1448C139.942 38.1448 138.609 37.6228 137.628 36.5782C136.653 35.5336 136.166 34.1125 136.166 32.3158C136.166 30.5191 136.653 29.0841 137.628 28.0118C138.596 26.9394 139.897 26.4029 141.534 26.4029C143.17 26.4029 144.405 26.9117 145.345 27.9279C146.284 28.9448 146.755 30.3166 146.755 32.044V32.9008H138.766V33.0579C138.766 33.977 139.033 34.7153 139.57 35.2726C140.106 35.8369 140.809 36.1186 141.679 36.1186C142.305 36.1186 142.845 35.9793 143.297 35.7006C143.75 35.4289 144.053 35.0563 144.206 34.5829H146.65H146.651ZM139.633 29.1819C139.124 29.6907 138.843 30.352 138.787 31.1672H144.197C144.169 30.3451 143.911 29.6838 143.424 29.1819C142.937 28.68 142.307 28.4298 141.534 28.4298C140.762 28.4298 140.141 28.6808 139.634 29.1819H139.633Z" fill="white"/>
<path d="M56.0425 8.34857H52.8999V17.1244H56.0425C57.3514 17.1244 58.371 16.7372 59.1005 15.9627C59.8299 15.1883 60.1947 14.1083 60.1947 12.7211C60.1947 11.3339 59.8299 10.2639 59.1005 9.49789C58.371 8.73194 57.3514 8.34857 56.0425 8.34857ZM58.0609 15.1175C57.5623 15.6687 56.8474 15.9443 55.9148 15.9443H54.2611V9.52253H55.9148C56.8466 9.52253 57.5623 9.79812 58.0609 10.3493C58.5595 10.9051 58.8088 11.6995 58.8088 12.7334C58.8088 13.7672 58.5595 14.5617 58.0609 15.1175Z" fill="white"/>
<path d="M64.182 10.434C63.2294 10.434 62.4715 10.7403 61.9082 11.3523C61.3411 11.9643 61.0571 12.7873 61.0571 13.8211C61.0571 14.855 61.3388 15.6817 61.902 16.2899C62.4653 16.898 63.2256 17.2021 64.182 17.2021C65.1385 17.2021 65.8965 16.898 66.4559 16.2899C67.0192 15.6817 67.3008 14.8588 67.3008 13.8211C67.3008 12.7834 67.0192 11.9582 66.4559 11.3462C65.8926 10.738 65.1347 10.434 64.182 10.434ZM65.4948 15.5062C65.1785 15.9081 64.7407 16.1082 64.182 16.1082C63.6234 16.1082 63.1848 15.9073 62.8693 15.5062C62.553 15.1013 62.3953 14.5393 62.3953 13.8219C62.3953 13.1044 62.553 12.5425 62.8693 12.1375C63.1855 11.7319 63.6234 11.5294 64.182 11.5294C64.7407 11.5294 65.1793 11.7319 65.4948 12.1375C65.8064 12.5386 65.9626 13.1006 65.9626 13.8219C65.9626 14.5432 65.8064 15.1052 65.4948 15.5062Z" fill="white"/>
<path d="M74.474 15.7495H74.4501L73.0458 10.5194H71.7815L70.3834 15.7495H70.3587L69.1306 10.5194H67.8179L69.6416 17.1236H70.9966L72.3894 12.1491H72.4194L73.8238 17.1236H75.185L77.0033 10.5194H75.7021L74.474 15.7495Z" fill="white"/>
<path d="M81.2638 10.4463C80.2427 10.4463 79.5271 10.8412 79.1177 11.6318H79.0931V10.5187H77.835V17.1228H79.1539V13.31C79.1539 12.7911 79.3062 12.3716 79.6094 12.0513C79.9095 11.7349 80.3081 11.5771 80.8067 11.5771C81.3054 11.5771 81.6578 11.7126 81.9133 11.9844C82.1687 12.2523 82.2965 12.6372 82.2965 13.1398V17.1228H83.6154V12.8904C83.6154 12.1322 83.4068 11.534 82.989 11.0968C82.5673 10.6626 81.9918 10.4463 81.2623 10.4463H81.2638Z" fill="white"/>
<path d="M86.3091 7.95282H84.9902V17.1235H86.3091V7.95282Z" fill="white"/>
<path d="M90.5409 10.434C89.5883 10.434 88.8303 10.7403 88.2671 11.3523C87.7 11.9643 87.416 12.7873 87.416 13.8211C87.416 14.855 87.6976 15.6817 88.2609 16.2899C88.8242 16.898 89.5844 17.2021 90.5409 17.2021C91.4974 17.2021 92.2554 16.898 92.8148 16.2899C93.378 15.6817 93.6597 14.8588 93.6597 13.8211C93.6597 12.7834 93.378 11.9582 92.8148 11.3462C92.2515 10.738 91.4936 10.434 90.5409 10.434ZM91.8537 15.5062C91.5374 15.9081 91.0996 16.1082 90.5409 16.1082C89.9823 16.1082 89.5437 15.9073 89.2282 15.5062C88.9119 15.1013 88.7542 14.5393 88.7542 13.8219C88.7542 13.1044 88.9119 12.5425 89.2282 12.1375C89.5444 11.7319 89.9823 11.5294 90.5409 11.5294C91.0996 11.5294 91.5382 11.7319 91.8537 12.1375C92.1653 12.5386 92.3215 13.1006 92.3215 13.8219C92.3215 14.5432 92.1653 15.1052 91.8537 15.5062Z" fill="white"/>
<path d="M99.3069 11.0244C98.829 10.6311 98.1865 10.4348 97.3801 10.4348C96.6383 10.4348 96.0204 10.6272 95.5264 11.0129C95.0316 11.3978 94.7746 11.8828 94.7546 12.4663H95.9888C96.0458 12.1784 96.1958 11.9497 96.439 11.7788C96.686 11.6087 96.9884 11.5233 97.3447 11.5233C97.7864 11.5233 98.1265 11.6226 98.3658 11.8212C98.6089 12.0236 98.7305 12.3139 98.7305 12.6911V13.2022L96.9492 13.3054C96.1304 13.3585 95.5064 13.5486 95.077 13.8773C94.643 14.206 94.4268 14.6579 94.4268 15.2337C94.4268 15.8096 94.6337 16.2961 95.047 16.6571C95.4602 17.0135 95.9973 17.1921 96.6583 17.1921C97.1123 17.1921 97.5278 17.0867 97.9049 16.8757C98.2819 16.6648 98.5612 16.3815 98.7436 16.0243H98.7736V17.1252H100.032V12.5948C100.032 11.942 99.7909 11.4193 99.3084 11.026L99.3069 11.0244ZM98.7298 14.6425C98.7298 15.0767 98.5659 15.4354 98.2373 15.7187C97.9087 15.9982 97.4993 16.1383 97.0092 16.1383C96.6283 16.1383 96.3243 16.0528 96.0973 15.8827C95.8703 15.7164 95.7572 15.4916 95.7572 15.2076C95.7572 14.6156 96.2135 14.2915 97.1254 14.2345L98.7305 14.1252V14.6425H98.7298Z" fill="white"/>
<path d="M105.939 11.6141H105.908C105.508 10.8396 104.814 10.4524 103.829 10.4524C103.007 10.4524 102.34 10.7588 101.829 11.3708C101.315 11.9913 101.058 12.8057 101.058 13.8157C101.058 14.8257 101.315 15.6502 101.829 16.2668C102.34 16.8834 103.011 17.1913 103.842 17.1913C104.839 17.1913 105.541 16.7964 105.951 16.0058H105.975V17.1251H107.252V7.95441H105.939V11.6156V11.6141ZM105.459 15.4516C105.135 15.865 104.707 16.072 104.176 16.072C103.645 16.072 103.214 15.8673 102.894 15.4577C102.57 15.052 102.407 14.507 102.407 13.8219C102.407 13.1368 102.57 12.5956 102.894 12.186C103.218 11.7765 103.645 11.5717 104.176 11.5717C104.707 11.5717 105.131 11.7788 105.459 12.1922C105.783 12.6056 105.945 13.1491 105.945 13.8219C105.945 14.4947 105.783 15.0382 105.459 15.4516Z" fill="white"/>
<path d="M114.346 10.434C113.393 10.434 112.636 10.7403 112.072 11.3523C111.505 11.9643 111.221 12.7873 111.221 13.8211C111.221 14.855 111.503 15.6817 112.066 16.2899C112.629 16.898 113.39 17.2021 114.346 17.2021C115.303 17.2021 116.061 16.898 116.62 16.2899C117.183 15.6817 117.465 14.8588 117.465 13.8211C117.465 12.7834 117.183 11.9582 116.62 11.3462C116.057 10.738 115.299 10.434 114.346 10.434ZM115.659 15.5062C115.343 15.9081 114.905 16.1082 114.346 16.1082C113.787 16.1082 113.349 15.9073 113.033 15.5062C112.717 15.1013 112.559 14.5393 112.559 13.8219C112.559 13.1044 112.717 12.5425 113.033 12.1375C113.35 11.7319 113.787 11.5294 114.346 11.5294C114.905 11.5294 115.343 11.7319 115.659 12.1375C115.97 12.5386 116.127 13.1006 116.127 13.8219C116.127 14.5432 115.97 15.1052 115.659 15.5062Z" fill="white"/>
<path d="M121.951 10.4463C120.93 10.4463 120.214 10.8412 119.805 11.6318H119.78V10.5187H118.522V17.1228H119.841V13.31C119.841 12.7911 119.993 12.3716 120.297 12.0513C120.597 11.7349 120.997 11.5771 121.495 11.5771C121.992 11.5771 122.346 11.7126 122.601 11.9844C122.857 12.2523 122.984 12.6372 122.984 13.1398V17.1228H124.303V12.8904C124.303 12.1322 124.095 11.534 123.677 11.0968C123.255 10.6626 122.68 10.4463 121.95 10.4463H121.951Z" fill="white"/>
<path d="M130.2 9.03522H128.887V10.5194H127.975V11.5594H128.887V15.3846C128.887 16.0251 129.027 16.4816 129.306 16.7533C129.586 17.0289 130.056 17.1667 130.717 17.1667C131.033 17.1667 131.28 17.1444 131.459 17.0997V16.0597C131.317 16.0797 131.167 16.0897 131.008 16.0897C130.47 16.0897 130.2 15.8103 130.2 15.2506V11.5594H131.464V10.5194H130.2V9.03522Z" fill="white"/>
<path d="M136.115 10.4463C135.085 10.4463 134.37 10.8412 133.968 11.6318H133.938V7.95209H132.632V17.1228H133.951V13.34C133.951 12.8127 134.108 12.3869 134.425 12.0629C134.736 11.7388 135.148 11.5763 135.659 11.5763C136.141 11.5763 136.52 11.7164 136.796 11.9959C137.071 12.2753 137.209 12.6625 137.209 13.1575V17.1228H138.522V12.902C138.522 12.156 138.303 11.5602 137.865 11.1137C137.423 10.668 136.84 10.4447 136.115 10.4447V10.4463Z" fill="white"/>
<path d="M145.549 14.156V13.6941C145.549 12.6926 145.284 11.9004 144.753 11.3162C144.222 10.728 143.502 10.434 142.594 10.434C141.686 10.434 140.931 10.7442 140.376 11.3647C139.82 11.9851 139.543 12.8119 139.543 13.8457C139.543 14.8796 139.821 15.6964 140.376 16.2968C140.935 16.9011 141.693 17.2029 142.65 17.2029C143.392 17.2029 144.026 17.0166 144.553 16.6432C145.08 16.266 145.389 15.7818 145.483 15.1898H144.225C144.136 15.4777 143.952 15.7064 143.672 15.8773C143.392 16.0474 143.06 16.1328 142.675 16.1328C142.131 16.1328 141.696 15.9589 141.367 15.6101C141.039 15.2653 140.875 14.8072 140.875 14.236V14.1568H145.549V14.156ZM141.409 11.9851C141.721 11.6687 142.114 11.5109 142.589 11.5109C143.064 11.5109 143.456 11.6672 143.756 11.979C144.057 12.2915 144.214 12.7049 144.23 13.2199H140.881C140.917 12.7134 141.094 12.3015 141.409 11.9851Z" fill="white"/>
</svg>
