<svg width="304" height="97" viewBox="0 0 304 97" fill="none" xmlns="http://www.w3.org/2000/svg">
<path d="M11.2246 27.3418C9.80273 27.3418 8.46289 27.0866 7.20508 26.5762C5.95638 26.0566 4.88542 25.3548 3.99219 24.4707C3.09896 23.5866 2.39258 22.5293 1.87305 21.2988C1.35352 20.0592 1.09375 18.7376 1.09375 17.334C1.09375 15.4655 1.53125 13.7702 2.40625 12.248C3.29036 10.7168 4.50716 9.51823 6.05664 8.65234C7.60612 7.77734 9.32878 7.33984 11.2246 7.33984C13.002 7.33984 14.6335 7.72721 16.1191 8.50195C17.6048 9.27669 18.8034 10.3385 19.7148 11.6875L16.8574 13.4512C16.2467 12.5579 15.4492 11.8561 14.4648 11.3457C13.4805 10.8262 12.4004 10.5664 11.2246 10.5664C9.31055 10.5664 7.71094 11.2135 6.42578 12.5078C5.14974 13.793 4.51172 15.4017 4.51172 17.334C4.51172 19.2663 5.1543 20.8796 6.43945 22.1738C7.72461 23.4681 9.31966 24.1152 11.2246 24.1152C12.4004 24.1152 13.4805 23.86 14.4648 23.3496C15.4492 22.8301 16.2467 22.1237 16.8574 21.2305L19.7148 22.9941C18.8034 24.3431 17.6048 25.4049 16.1191 26.1797C14.6335 26.9544 13.002 27.3418 11.2246 27.3418ZM28.8887 27.3418C26.7103 27.3418 24.8919 26.6263 23.4336 25.1953C21.9753 23.7643 21.2461 21.987 21.2461 19.8633C21.2461 17.7396 21.9753 15.9622 23.4336 14.5312C24.8919 13.1003 26.7103 12.3848 28.8887 12.3848C30.3105 12.3848 31.6048 12.7129 32.7715 13.3691C33.9473 14.0163 34.8678 14.9141 35.5332 16.0625C36.1986 17.2018 36.5312 18.4688 36.5312 19.8633C36.5312 21.2578 36.1986 22.5293 35.5332 23.6777C34.8678 24.8171 33.9473 25.7148 32.7715 26.3711C31.6048 27.0182 30.3105 27.3418 28.8887 27.3418ZM25.7305 23.0352C26.5781 23.8828 27.6309 24.3066 28.8887 24.3066C30.1465 24.3066 31.1901 23.8828 32.0195 23.0352C32.8581 22.1784 33.2773 21.1211 33.2773 19.8633C33.2773 18.5964 32.8581 17.5391 32.0195 16.6914C31.1901 15.8346 30.1465 15.4062 28.8887 15.4062C27.6309 15.4062 26.5781 15.8346 25.7305 16.6914C24.8828 17.5482 24.459 18.6055 24.459 19.8633C24.459 21.1211 24.8828 22.1784 25.7305 23.0352ZM56.5332 12.3848C58.1556 12.3848 59.4499 12.8724 60.416 13.8477C61.3913 14.8229 61.8789 16.1172 61.8789 17.7305V27H58.7344V18.6602C58.7344 17.6758 58.4473 16.8874 57.873 16.2949C57.2988 15.7025 56.5332 15.4062 55.5762 15.4062C54.5645 15.4062 53.7441 15.7116 53.1152 16.3223C52.4954 16.9329 52.1855 17.7305 52.1855 18.7148V27H49.0547V18.6602C49.0547 17.6758 48.763 16.8874 48.1797 16.2949C47.6055 15.7025 46.8398 15.4062 45.8828 15.4062C44.8802 15.4062 44.0645 15.7116 43.4355 16.3223C42.8158 16.9238 42.5059 17.7214 42.5059 18.7148V27H39.3613V12.7266H42.5059V14.3945C43.5905 13.0547 45.0625 12.3848 46.9219 12.3848C47.9609 12.3848 48.877 12.6081 49.6699 13.0547C50.4629 13.4922 51.0781 14.1074 51.5156 14.9004C52.6732 13.2233 54.3457 12.3848 56.5332 12.3848ZM66.9375 10.3066C66.3724 10.3066 65.8984 10.1152 65.5156 9.73242C65.1328 9.34961 64.9414 8.88021 64.9414 8.32422C64.9414 7.75 65.1328 7.27604 65.5156 6.90234C65.8984 6.52865 66.3724 6.3418 66.9375 6.3418C67.5117 6.3418 67.9902 6.52865 68.373 6.90234C68.7559 7.27604 68.9473 7.75 68.9473 8.32422C68.9473 8.88932 68.7559 9.36328 68.373 9.74609C67.9902 10.1198 67.5117 10.3066 66.9375 10.3066ZM65.3652 27V12.7266H68.5098V27H65.3652ZM80.1855 12.3848C81.8809 12.3848 83.2435 12.8997 84.2734 13.9297C85.3125 14.9596 85.832 16.3223 85.832 18.0176V27H82.7012V19.043C82.7012 17.9492 82.3776 17.0697 81.7305 16.4043C81.0833 15.7389 80.222 15.4062 79.1465 15.4062C78.0163 15.4062 77.1048 15.7435 76.4121 16.418C75.7194 17.0924 75.373 17.9857 75.373 19.0977V27H72.2285V12.7266H75.373V14.5723C76.5488 13.1139 78.153 12.3848 80.1855 12.3848ZM98.3691 27.1367C99.7546 27.1367 100.908 27.4967 101.828 28.2168C102.749 28.946 103.314 29.9395 103.523 31.1973L100.27 32.0723C100.233 31.498 99.987 31.0378 99.5312 30.6914C99.0755 30.3542 98.4922 30.1855 97.7812 30.1855H92.873C91.6061 30.1855 90.5807 29.8483 89.7969 29.1738C89.013 28.5085 88.6211 27.6335 88.6211 26.5488C88.6211 25.8379 88.7897 25.1725 89.127 24.5527C89.4642 23.9238 89.9199 23.4408 90.4941 23.1035C89.209 21.9095 88.5664 20.4193 88.5664 18.6328C88.5664 16.8555 89.1999 15.3698 90.4668 14.1758C91.7337 12.9818 93.3105 12.3848 95.1973 12.3848C96.3639 12.3848 97.4486 12.6354 98.4512 13.1367C98.6335 12.3711 99.0345 11.7695 99.6543 11.332C100.283 10.8945 101.049 10.6758 101.951 10.6758H103.1V13.5879H102.115C101.678 13.5879 101.309 13.7018 101.008 13.9297C100.716 14.1484 100.552 14.4447 100.516 14.8184C101.4 15.9212 101.842 17.1927 101.842 18.6328C101.842 20.401 101.204 21.8822 99.9277 23.0762C98.6517 24.2702 97.0749 24.8672 95.1973 24.8672C94.222 24.8672 93.3379 24.7122 92.5449 24.4023C92.0345 24.7396 91.7793 25.1953 91.7793 25.7695C91.7793 26.1706 91.9342 26.4987 92.2441 26.7539C92.554 27.0091 92.9596 27.1367 93.4609 27.1367H98.3691ZM95.1973 15.3516C94.222 15.3516 93.4062 15.666 92.75 16.2949C92.1029 16.9147 91.7793 17.694 91.7793 18.6328C91.7793 19.5625 92.1029 20.3418 92.75 20.9707C93.4062 21.5905 94.222 21.9004 95.1973 21.9004C96.1634 21.9004 96.9701 21.5859 97.6172 20.957C98.2643 20.3281 98.5879 19.5534 98.5879 18.6328C98.5879 17.694 98.2643 16.9147 97.6172 16.2949C96.9701 15.666 96.1634 15.3516 95.1973 15.3516ZM118.494 27.3418C117.036 27.3418 115.6 27.0684 114.188 26.5215C112.775 25.9655 111.594 25.2272 110.646 24.3066L112.383 21.7637C113.158 22.5384 114.087 23.1628 115.172 23.6367C116.266 24.1016 117.373 24.334 118.494 24.334C119.615 24.334 120.559 24.0924 121.324 23.6094C122.09 23.1263 122.473 22.502 122.473 21.7363C122.473 21.4355 122.409 21.1576 122.281 20.9023C122.154 20.638 121.962 20.4102 121.707 20.2188C121.452 20.0273 121.197 19.8633 120.941 19.7266C120.686 19.5807 120.354 19.4486 119.943 19.3301C119.542 19.2025 119.21 19.1068 118.945 19.043C118.69 18.9701 118.353 18.888 117.934 18.7969C117.004 18.5781 116.161 18.3138 115.404 18.0039C114.648 17.6849 113.951 17.293 113.312 16.8281C112.674 16.3633 112.178 15.7982 111.822 15.1328C111.467 14.4583 111.289 13.7109 111.289 12.8906C111.289 11.2318 111.954 9.89193 113.285 8.87109C114.616 7.85026 116.343 7.33984 118.467 7.33984C119.825 7.33984 121.074 7.55859 122.213 7.99609C123.352 8.43359 124.286 9.01693 125.016 9.74609L123.443 12.2754C122.896 11.7103 122.163 11.2454 121.242 10.8809C120.331 10.5163 119.387 10.334 118.412 10.334C117.337 10.334 116.452 10.5618 115.76 11.0176C115.076 11.4733 114.734 12.0612 114.734 12.7812C114.734 14.1029 116.115 15.0417 118.877 15.5977C119.223 15.6706 119.547 15.748 119.848 15.8301C120.148 15.9121 120.549 16.0397 121.051 16.2129C121.552 16.3861 122.003 16.5729 122.404 16.7734C122.805 16.974 123.229 17.2383 123.676 17.5664C124.132 17.8854 124.51 18.2318 124.811 18.6055C125.12 18.9701 125.376 19.4121 125.576 19.9316C125.777 20.4512 125.877 21.0072 125.877 21.5996C125.877 23.2858 125.175 24.6667 123.771 25.7422C122.368 26.8086 120.609 27.3418 118.494 27.3418ZM135.311 27.3418C133.132 27.3418 131.314 26.6263 129.855 25.1953C128.397 23.7643 127.668 21.987 127.668 19.8633C127.668 17.7396 128.397 15.9622 129.855 14.5312C131.314 13.1003 133.132 12.3848 135.311 12.3848C136.732 12.3848 138.027 12.7129 139.193 13.3691C140.369 14.0163 141.29 14.9141 141.955 16.0625C142.62 17.2018 142.953 18.4688 142.953 19.8633C142.953 21.2578 142.62 22.5293 141.955 23.6777C141.29 24.8171 140.369 25.7148 139.193 26.3711C138.027 27.0182 136.732 27.3418 135.311 27.3418ZM132.152 23.0352C133 23.8828 134.053 24.3066 135.311 24.3066C136.568 24.3066 137.612 23.8828 138.441 23.0352C139.28 22.1784 139.699 21.1211 139.699 19.8633C139.699 18.5964 139.28 17.5391 138.441 16.6914C137.612 15.8346 136.568 15.4062 135.311 15.4062C134.053 15.4062 133 15.8346 132.152 16.6914C131.305 17.5482 130.881 18.6055 130.881 19.8633C130.881 21.1211 131.305 22.1784 132.152 23.0352ZM152.564 27.3418C150.386 27.3418 148.568 26.6263 147.109 25.1953C145.651 23.7643 144.922 21.987 144.922 19.8633C144.922 17.7396 145.651 15.9622 147.109 14.5312C148.568 13.1003 150.386 12.3848 152.564 12.3848C153.986 12.3848 155.281 12.7129 156.447 13.3691C157.623 14.0163 158.544 14.9141 159.209 16.0625C159.874 17.2018 160.207 18.4688 160.207 19.8633C160.207 21.2578 159.874 22.5293 159.209 23.6777C158.544 24.8171 157.623 25.7148 156.447 26.3711C155.281 27.0182 153.986 27.3418 152.564 27.3418ZM149.406 23.0352C150.254 23.8828 151.307 24.3066 152.564 24.3066C153.822 24.3066 154.866 23.8828 155.695 23.0352C156.534 22.1784 156.953 21.1211 156.953 19.8633C156.953 18.5964 156.534 17.5391 155.695 16.6914C154.866 15.8346 153.822 15.4062 152.564 15.4062C151.307 15.4062 150.254 15.8346 149.406 16.6914C148.559 17.5482 148.135 18.6055 148.135 19.8633C148.135 21.1211 148.559 22.1784 149.406 23.0352ZM170.994 12.3848C172.689 12.3848 174.052 12.8997 175.082 13.9297C176.121 14.9596 176.641 16.3223 176.641 18.0176V27H173.51V19.043C173.51 17.9492 173.186 17.0697 172.539 16.4043C171.892 15.7389 171.031 15.4062 169.955 15.4062C168.825 15.4062 167.913 15.7435 167.221 16.418C166.528 17.0924 166.182 17.9857 166.182 19.0977V27H163.037V12.7266H166.182V14.5723C167.357 13.1139 168.962 12.3848 170.994 12.3848ZM193.525 27.3418C191.347 27.3418 189.529 26.6263 188.07 25.1953C186.612 23.7643 185.883 21.987 185.883 19.8633C185.883 17.7396 186.612 15.9622 188.07 14.5312C189.529 13.1003 191.347 12.3848 193.525 12.3848C194.947 12.3848 196.242 12.7129 197.408 13.3691C198.584 14.0163 199.505 14.9141 200.17 16.0625C200.835 17.2018 201.168 18.4688 201.168 19.8633C201.168 21.2578 200.835 22.5293 200.17 23.6777C199.505 24.8171 198.584 25.7148 197.408 26.3711C196.242 27.0182 194.947 27.3418 193.525 27.3418ZM190.367 23.0352C191.215 23.8828 192.268 24.3066 193.525 24.3066C194.783 24.3066 195.827 23.8828 196.656 23.0352C197.495 22.1784 197.914 21.1211 197.914 19.8633C197.914 18.5964 197.495 17.5391 196.656 16.6914C195.827 15.8346 194.783 15.4062 193.525 15.4062C192.268 15.4062 191.215 15.8346 190.367 16.6914C189.52 17.5482 189.096 18.6055 189.096 19.8633C189.096 21.1211 189.52 22.1784 190.367 23.0352ZM211.955 12.3848C213.65 12.3848 215.013 12.8997 216.043 13.9297C217.082 14.9596 217.602 16.3223 217.602 18.0176V27H214.471V19.043C214.471 17.9492 214.147 17.0697 213.5 16.4043C212.853 15.7389 211.992 15.4062 210.916 15.4062C209.786 15.4062 208.874 15.7435 208.182 16.418C207.489 17.0924 207.143 17.9857 207.143 19.0977V27H203.998V12.7266H207.143V14.5723C208.318 13.1139 209.923 12.3848 211.955 12.3848Z" fill="#0B0B09"/>
<path d="M304 90.1124C304 93.6863 301.184 96.5021 297.61 96.5021H165.808C162.234 96.5021 159.419 93.6863 159.419 90.1124V55.5645C159.419 51.9906 162.234 49.1747 165.808 49.1747H297.61C301.184 49.1747 304 51.9906 304 55.5645V90.1124Z" fill="black"/>
<path d="M184.328 57.2973H172.523C171.115 57.2973 169.924 58.4886 169.924 59.8965V85.997C169.924 87.4049 171.115 88.5962 172.523 88.5962H184.328C185.736 88.5962 186.927 87.4049 186.927 85.997V59.7882C186.927 58.3803 185.844 57.2973 184.328 57.2973ZM178.48 86.5385C177.505 86.5385 176.747 85.7804 176.747 84.8057C176.747 83.831 177.505 83.0729 178.48 83.0729C179.454 83.0729 180.212 83.831 180.212 84.8057C180.212 85.7804 179.454 86.5385 178.48 86.5385ZM184.978 82.3148H172.09V63.0372H184.978V82.3148Z" fill="white"/>
<path d="M196.566 61.9543L195.808 64.1203H194.941L197.324 57.1891H198.407L200.789 64.1203H199.815L199.057 61.9543H196.566ZM198.84 61.1962L198.19 59.2468C198.082 58.8136 197.974 58.3804 197.865 57.9472C197.757 58.3804 197.649 58.8136 197.54 59.2468L196.891 61.1962H198.84Z" fill="white"/>
<path d="M201.656 59.1385L202.631 61.9543C202.847 62.3875 202.955 62.8207 203.064 63.2539C203.172 62.8207 203.28 62.3875 203.497 61.9543L204.472 59.1385H205.446L203.497 64.1203H202.631L200.789 59.1385H201.656Z" fill="white"/>
<path d="M209.454 62.929C209.454 63.3622 209.454 63.7954 209.562 64.1203H208.804L208.695 63.4705C208.479 63.9037 207.937 64.2286 207.179 64.2286C206.205 64.2286 205.663 63.4705 205.663 62.8207C205.663 61.6294 206.746 60.9796 208.587 60.9796V60.8713C208.587 60.4381 208.479 59.68 207.504 59.68C207.071 59.68 206.529 59.7883 206.205 60.0049L205.988 59.3551C206.421 59.1385 206.963 58.9219 207.612 58.9219C209.129 58.9219 209.454 60.0049 209.454 60.9796V62.929ZM208.587 61.5211C207.612 61.5211 206.529 61.6294 206.529 62.6041C206.529 63.1456 206.963 63.4705 207.396 63.4705C208.046 63.4705 208.479 63.0373 208.587 62.6041C208.587 62.4958 208.587 62.3875 208.587 62.2792V61.5211Z" fill="white"/>
<path d="M211.295 58.2721C210.97 58.2721 210.753 58.0555 210.753 57.7306C210.753 57.4057 210.97 57.1891 211.295 57.1891C211.62 57.1891 211.836 57.4057 211.836 57.7306C211.944 57.9472 211.728 58.2721 211.295 58.2721ZM210.861 64.1203V59.1385H211.728V64.1203H210.861Z" fill="white"/>
<path d="M213.244 56.8642H214.11V64.1203H213.244V56.8642Z" fill="white"/>
<path d="M219.092 62.929C219.092 63.3622 219.092 63.7954 219.201 64.1203H218.442L218.334 63.4705C218.118 63.9037 217.576 64.2286 216.818 64.2286C215.843 64.2286 215.302 63.4705 215.302 62.8207C215.302 61.6294 216.385 60.9796 218.226 60.9796V60.8713C218.226 60.4381 218.118 59.68 217.143 59.68C216.71 59.68 216.168 59.7883 215.843 60.0049L215.627 59.3551C216.06 59.1385 216.601 58.9219 217.251 58.9219C218.767 58.9219 219.092 60.0049 219.092 60.9796V62.929ZM218.226 61.5211C217.251 61.5211 216.168 61.6294 216.168 62.6041C216.168 63.1456 216.601 63.4705 217.035 63.4705C217.684 63.4705 218.118 63.0373 218.226 62.6041C218.226 62.4958 218.226 62.3875 218.226 62.2792V61.5211Z" fill="white"/>
<path d="M220.5 56.8642H221.367V60.0049C221.692 59.4634 222.233 59.1385 223.099 59.1385C224.291 59.1385 225.157 60.1132 225.157 61.6294C225.157 63.3622 224.074 64.3369 222.883 64.3369C222.125 64.3369 221.583 64.012 221.258 63.3622V64.2286H220.5C220.5 63.9037 220.5 63.3622 220.5 62.929V56.8642ZM221.367 62.0626C221.367 62.1709 221.367 62.2792 221.367 62.3875C221.583 63.0373 222.125 63.4705 222.666 63.4705C223.641 63.4705 224.182 62.7124 224.182 61.5211C224.182 60.5464 223.641 59.68 222.666 59.68C222.016 59.68 221.475 60.1132 221.258 60.763C221.258 60.8713 221.258 60.9796 221.258 61.0879V62.0626H221.367Z" fill="white"/>
<path d="M226.24 56.8642H227.106V64.1203H226.24V56.8642Z" fill="white"/>
<path d="M229.056 61.7377C229.056 62.929 229.814 63.4705 230.789 63.4705C231.439 63.4705 231.872 63.3622 232.197 63.2539L232.413 63.9037C232.088 64.012 231.547 64.2286 230.789 64.2286C229.273 64.2286 228.406 63.2539 228.406 61.7377C228.406 60.2215 229.273 59.0302 230.789 59.0302C232.413 59.0302 232.846 60.4381 232.846 61.4128C232.846 61.6294 232.846 61.7377 232.846 61.846L229.056 61.7377ZM231.655 61.0879C231.655 60.5464 231.439 59.5717 230.464 59.5717C229.598 59.5717 229.164 60.4381 229.056 61.0879H231.655Z" fill="white"/>
<path d="M237.72 64.2286C236.42 64.2286 235.337 63.2539 235.337 61.6294C235.337 60.0049 236.42 59.0302 237.828 59.0302C239.236 59.0302 240.211 60.1132 240.211 61.5211C240.211 63.3622 238.911 64.2286 237.72 64.2286ZM237.828 63.4705C238.695 63.4705 239.345 62.7124 239.345 61.5211C239.345 60.6547 238.911 59.68 237.828 59.68C236.745 59.68 236.312 60.6547 236.312 61.6294C236.312 62.7124 236.962 63.4705 237.828 63.4705Z" fill="white"/>
<path d="M241.294 60.4381C241.294 59.8966 241.294 59.4634 241.294 59.1385H242.052V59.8966C242.269 59.4634 242.918 59.0302 243.677 59.0302C244.326 59.0302 245.409 59.4634 245.409 61.0879V64.012H244.543V61.1962C244.543 60.4381 244.218 59.68 243.352 59.68C242.81 59.68 242.269 60.1132 242.16 60.5464C242.16 60.6547 242.052 60.8713 242.052 60.9796V64.012H241.186V60.4381H241.294Z" fill="white"/>
<path d="M250.175 57.9472V59.1385H251.474V59.7883H250.175V62.4958C250.175 63.1456 250.391 63.4705 250.824 63.4705C251.041 63.4705 251.258 63.4705 251.366 63.3622V64.012C251.149 64.1203 250.933 64.1203 250.608 64.1203C250.175 64.1203 249.85 64.012 249.633 63.7954C249.417 63.4705 249.308 63.0373 249.308 62.4958V59.7883H248.55V59.1385H249.308V58.2721L250.175 57.9472Z" fill="white"/>
<path d="M252.341 56.8642H253.207V60.0049C253.315 59.7883 253.532 59.4634 253.857 59.3551C254.073 59.1385 254.398 59.1385 254.832 59.1385C255.481 59.1385 256.564 59.5717 256.564 61.3045V64.2286H255.698V61.4128C255.698 60.6547 255.373 59.8966 254.507 59.8966C253.965 59.8966 253.424 60.3298 253.315 60.763C253.315 60.8713 253.207 60.9796 253.207 61.1962V64.2286H252.341V56.8642Z" fill="white"/>
<path d="M258.514 61.7377C258.514 62.929 259.272 63.4705 260.247 63.4705C260.896 63.4705 261.33 63.3622 261.654 63.2539L261.871 63.9037C261.546 64.012 261.005 64.2286 260.247 64.2286C258.73 64.2286 257.864 63.2539 257.864 61.7377C257.864 60.2215 258.73 59.0302 260.247 59.0302C261.871 59.0302 262.304 60.4381 262.304 61.4128C262.304 61.6294 262.304 61.7377 262.304 61.846L258.514 61.7377ZM261.113 61.0879C261.113 60.5464 260.896 59.5717 259.922 59.5717C259.055 59.5717 258.622 60.4381 258.514 61.0879H261.113Z" fill="white"/>
<path d="M265.662 58.2721C265.337 58.2721 265.12 58.0555 265.12 57.7306C265.12 57.4057 265.337 57.1891 265.662 57.1891C265.987 57.1891 266.203 57.4057 266.203 57.7306C266.203 57.9472 265.987 58.2721 265.662 58.2721ZM265.228 64.1203V59.1385H266.095V64.1203H265.228Z" fill="white"/>
<path d="M267.611 57.2974C268.044 57.1891 268.586 57.1891 269.344 57.1891C270.21 57.1891 270.86 57.4057 271.293 57.7306C271.618 58.0555 271.943 58.597 271.943 59.1385C271.943 59.7883 271.726 60.2215 271.401 60.6547C270.968 61.1962 270.21 61.4128 269.344 61.4128C269.127 61.4128 268.802 61.4128 268.586 61.3045V64.012H267.719V57.2974H267.611ZM268.477 60.5464C268.694 60.5464 268.911 60.6547 269.235 60.6547C270.318 60.6547 270.968 60.1132 270.968 59.1385C270.968 58.2721 270.318 57.7306 269.344 57.7306C268.911 57.7306 268.694 57.7306 268.477 57.8389V60.5464Z" fill="white"/>
<path d="M272.918 56.8642H273.784V60.0049C273.892 59.7883 274.109 59.4634 274.434 59.3551C274.651 59.1385 274.975 59.1385 275.409 59.1385C276.058 59.1385 277.141 59.5717 277.141 61.3045V64.2286H276.275V61.4128C276.275 60.6547 275.95 59.8966 275.084 59.8966C274.542 59.8966 274.001 60.3298 273.892 60.763C273.892 60.8713 273.784 60.9796 273.784 61.1962V64.2286H272.918V56.8642Z" fill="white"/>
<path d="M280.499 64.2286C279.199 64.2286 278.116 63.2539 278.116 61.6294C278.116 60.0049 279.199 59.0302 280.607 59.0302C282.015 59.0302 282.99 60.1132 282.99 61.5211C282.99 63.3622 281.69 64.2286 280.499 64.2286ZM280.499 63.4705C281.365 63.4705 282.015 62.7124 282.015 61.5211C282.015 60.6547 281.582 59.68 280.499 59.68C279.416 59.68 278.983 60.6547 278.983 61.6294C279.091 62.7124 279.632 63.4705 280.499 63.4705Z" fill="white"/>
<path d="M284.073 60.4381C284.073 59.8966 284.073 59.4634 284.073 59.1385H284.831V59.8966C285.047 59.4634 285.697 59.0302 286.455 59.0302C287.105 59.0302 288.188 59.4634 288.188 61.0879V64.012H287.322V61.1962C287.322 60.4381 286.997 59.68 286.13 59.68C285.589 59.68 285.047 60.1132 284.939 60.5464C284.939 60.6547 284.831 60.8713 284.831 60.9796V64.012H283.964V60.4381H284.073Z" fill="white"/>
<path d="M290.246 61.7377C290.246 62.929 291.004 63.4705 291.979 63.4705C292.628 63.4705 293.062 63.3622 293.387 63.2539L293.603 63.9037C293.278 64.012 292.737 64.2286 291.979 64.2286C290.462 64.2286 289.596 63.2539 289.596 61.7377C289.596 60.2215 290.462 59.0302 291.979 59.0302C293.603 59.0302 294.036 60.4381 294.036 61.4128C294.036 61.6294 294.036 61.7377 294.036 61.846L290.246 61.7377ZM292.845 61.0879C292.845 60.5464 292.629 59.5717 291.654 59.5717C290.679 59.5717 290.354 60.4381 290.246 61.0879H292.845Z" fill="white"/>
<path d="M200.79 68.7772L194.725 86.6468H197.541L199.382 81.1235H205.23L207.071 86.6468H209.887L203.822 68.7772H200.79ZM202.306 71.7013C202.522 72.4594 202.739 73.3259 203.064 74.1923L204.688 78.9575H200.031L201.656 74.1923C201.764 73.4342 202.089 72.5677 202.306 71.7013Z" fill="white"/>
<path d="M217.793 73.3259C215.952 73.3259 214.435 74.084 213.461 75.3836L213.352 73.6508H210.861V73.8674C210.97 74.9504 210.97 76.1417 210.97 77.9828V91.737H213.677V85.3472C214.544 86.322 215.843 86.9718 217.359 86.9718C218.984 86.9718 220.392 86.3219 221.475 85.2389C222.666 83.9393 223.316 82.2065 223.316 80.0405C223.316 78.0911 222.775 76.4666 221.8 75.2753C220.717 73.9757 219.309 73.3259 217.793 73.3259ZM217.143 75.6002C219.525 75.6002 220.608 77.8745 220.608 80.0405C220.608 82.8563 219.201 84.6974 217.035 84.6974C215.518 84.6974 214.219 83.7227 213.894 82.2065C213.786 81.9899 213.786 81.665 213.786 81.3401V79.1741C213.786 78.9575 213.786 78.7409 213.894 78.5243C213.894 78.416 213.894 78.416 213.894 78.3077C214.219 76.6832 215.627 75.6002 217.143 75.6002Z" fill="white"/>
<path d="M231.655 73.3259C229.814 73.3259 228.298 74.084 227.323 75.3836L227.215 73.6508H224.724V73.8674C224.832 74.9504 224.832 76.1417 224.832 77.9828V91.737H227.54V85.3472C228.406 86.322 229.706 86.9718 231.222 86.9718C232.846 86.9718 234.254 86.3219 235.337 85.2389C236.529 83.9393 237.179 82.2065 237.179 80.0405C237.179 78.0911 236.637 76.4666 235.662 75.2753C234.688 73.9757 233.28 73.3259 231.655 73.3259ZM231.005 75.6002C233.388 75.6002 234.471 77.8745 234.471 80.0405C234.471 82.8563 233.063 84.6974 230.897 84.6974C229.381 84.6974 228.081 83.7227 227.756 82.2065C227.648 81.9899 227.648 81.665 227.648 81.3401V79.1741C227.648 78.9575 227.648 78.7409 227.756 78.5243C227.756 78.416 227.756 78.416 227.756 78.3077C228.19 76.6832 229.489 75.6002 231.005 75.6002Z" fill="white"/>
<path d="M249.092 76.3583C246.601 75.3836 245.734 74.6255 245.734 73.2176C245.734 72.0262 246.709 70.8349 248.767 70.8349C250.499 70.8349 251.582 71.4847 251.907 71.593L252.124 71.7014L252.882 69.427L252.774 69.3187C252.341 69.1021 251.041 68.4523 248.875 68.4523C245.409 68.4523 243.027 70.5101 243.027 73.4342C243.027 75.8168 244.543 77.4413 247.792 78.6326C250.066 79.499 250.933 80.3654 250.933 81.8816C250.933 83.6144 249.633 84.5891 247.467 84.5891C246.059 84.5891 244.651 84.1559 243.568 83.5061L243.352 83.3978L242.594 85.6721L242.702 85.7804C243.677 86.4302 245.626 86.9718 247.251 86.9718C251.907 86.9718 253.532 84.1559 253.532 81.665C253.64 79.1741 252.341 77.5496 249.092 76.3583Z" fill="white"/>
<path d="M258.514 70.6183L255.915 71.4848V73.7591H253.965V75.9251H255.915V82.5314C255.915 84.1559 256.239 85.2389 256.889 85.997C257.539 86.6468 258.405 86.9718 259.488 86.9718C260.463 86.9718 261.221 86.7552 261.546 86.6469H261.654L261.546 84.4808L261.33 84.5891C261.005 84.6974 260.68 84.6974 260.03 84.6974C258.947 84.6974 258.514 84.0476 258.514 82.5314V76.0334H261.763V73.8674H258.514V70.6183Z" fill="white"/>
<path d="M268.477 73.3259C264.687 73.3259 262.088 76.1417 262.088 80.1488C262.088 84.0476 264.687 86.7551 268.261 86.7551C271.402 86.7551 274.651 84.5891 274.651 79.8239C274.651 77.8745 274.109 76.25 272.918 75.0587C271.835 73.9757 270.319 73.3259 268.477 73.3259ZM268.369 75.4919C270.752 75.4919 271.943 77.8745 271.943 80.0405C271.943 82.748 270.427 84.6974 268.369 84.6974C266.311 84.6974 264.795 82.748 264.795 80.1488C264.795 77.8745 265.878 75.4919 268.369 75.4919Z" fill="white"/>
<path d="M282.99 73.5425H282.881C282.665 73.4342 282.448 73.4342 282.232 73.4342C280.824 73.4342 279.524 74.3006 278.874 75.6002L278.766 73.7591H276.383V73.9757C276.492 75.0587 276.492 76.25 276.492 77.8745V86.6469H279.199V79.7156C279.199 79.3907 279.199 78.9575 279.307 78.6326C279.632 77.0081 280.715 75.9251 282.123 75.9251C282.448 75.9251 282.665 75.9251 282.881 75.9251H283.206V73.5425H282.99Z" fill="white"/>
<path d="M289.055 73.3259C285.481 73.3259 282.99 76.25 282.99 80.2571C282.99 84.2642 285.481 86.7551 289.379 86.7551C291.437 86.7551 292.845 86.322 293.603 85.8888L293.711 85.7804L293.17 83.7227L292.953 83.831C292.195 84.1559 291.221 84.4808 289.596 84.4808C288.405 84.4808 285.697 84.0476 285.589 80.582H294.253V80.3654C294.361 80.0405 294.361 79.7156 294.361 79.2824C294.361 76.6832 292.953 73.3259 289.055 73.3259ZM288.838 75.3836C289.704 75.3836 290.354 75.6002 290.787 76.1417C291.545 76.8998 291.654 78.0911 291.762 78.6326H285.589C285.914 77.1164 286.888 75.3836 288.838 75.3836Z" fill="white"/>
<path d="M144.581 90.1124C144.581 93.6863 141.766 96.5021 138.192 96.5021H6.38977C2.81584 96.5021 0 93.6863 0 90.1124V55.5645C0 51.9906 2.81584 49.1747 6.38977 49.1747H138.192C141.766 49.1747 144.581 51.9906 144.581 55.5645V90.1124Z" fill="black"/>
<mask id="mask0_213_2305" style="mask-type:luminance" maskUnits="userSpaceOnUse" x="10" y="58" width="29" height="32">
<path d="M31.2989 69.9685L24.8009 66.1779C24.8009 66.1779 12.8878 59.355 12.238 58.9218C11.5882 58.4886 10.8301 58.8135 10.8301 59.5716C10.8301 60.9795 10.8301 74.1922 10.8301 74.1922C10.8301 74.1922 10.8301 88.4879 10.8301 89.1377C10.8301 89.7875 11.3716 90.0041 11.9131 89.6792C12.5629 89.3543 24.8009 82.2064 24.8009 82.2064L31.2989 78.4159C31.2989 78.4159 36.8222 75.2752 37.5803 74.842C38.3384 74.4088 38.2301 73.8673 37.5803 73.5424C37.0388 73.3258 31.2989 69.9685 31.2989 69.9685Z" fill="white"/>
</mask>
<g mask="url(#mask0_213_2305)">
<path d="M10.8301 58.272V74.3005V90.329L26.9669 74.3005L10.8301 58.272Z" fill="url(#paint0_linear_213_2305)"/>
</g>
<mask id="mask1_213_2305" style="mask-type:luminance" maskUnits="userSpaceOnUse" x="10" y="58" width="29" height="32">
<path d="M31.2989 69.9685L24.8009 66.1779C24.8009 66.1779 12.8878 59.355 12.238 58.9218C11.5882 58.4886 10.8301 58.8135 10.8301 59.5716C10.8301 60.9795 10.8301 74.1922 10.8301 74.1922C10.8301 74.1922 10.8301 88.4879 10.8301 89.1377C10.8301 89.7875 11.3716 90.0041 11.9131 89.6792C12.5629 89.3543 24.8009 82.2064 24.8009 82.2064L31.2989 78.4159C31.2989 78.4159 36.8222 75.2752 37.5803 74.842C38.3384 74.4088 38.2301 73.8673 37.5803 73.5424C37.0388 73.3258 31.2989 69.9685 31.2989 69.9685Z" fill="white"/>
</mask>
<g mask="url(#mask1_213_2305)">
<path d="M31.2989 69.9684L24.8009 66.1779L10.8301 58.1637V58.272L26.9669 74.3005L31.2989 69.9684Z" fill="url(#paint1_linear_213_2305)"/>
</g>
<mask id="mask2_213_2305" style="mask-type:luminance" maskUnits="userSpaceOnUse" x="10" y="58" width="29" height="32">
<path d="M31.2989 69.9685L24.8009 66.1779C24.8009 66.1779 12.8878 59.355 12.238 58.9218C11.5882 58.4886 10.8301 58.8135 10.8301 59.5716C10.8301 60.9795 10.8301 74.1922 10.8301 74.1922C10.8301 74.1922 10.8301 88.4879 10.8301 89.1377C10.8301 89.7875 11.3716 90.0041 11.9131 89.6792C12.5629 89.3543 24.8009 82.2064 24.8009 82.2064L31.2989 78.4159C31.2989 78.4159 36.8222 75.2752 37.5803 74.842C38.3384 74.4088 38.2301 73.8673 37.5803 73.5424C37.0388 73.3258 31.2989 69.9685 31.2989 69.9685Z" fill="white"/>
</mask>
<g mask="url(#mask2_213_2305)">
<path d="M10.8301 90.329V90.4373L24.8009 82.3147L31.2989 78.6325L26.9669 74.3005L10.8301 90.329Z" fill="url(#paint2_linear_213_2305)"/>
</g>
<mask id="mask3_213_2305" style="mask-type:luminance" maskUnits="userSpaceOnUse" x="10" y="58" width="29" height="32">
<path d="M31.2989 69.9685L24.8009 66.1779C24.8009 66.1779 12.8878 59.355 12.238 58.9218C11.5882 58.4886 10.8301 58.8135 10.8301 59.5716C10.8301 60.9795 10.8301 74.1922 10.8301 74.1922C10.8301 74.1922 10.8301 88.4879 10.8301 89.1377C10.8301 89.7875 11.3716 90.0041 11.9131 89.6792C12.5629 89.3543 24.8009 82.2064 24.8009 82.2064L31.2989 78.4159C31.2989 78.4159 36.8222 75.2752 37.5803 74.842C38.3384 74.4088 38.2301 73.8673 37.5803 73.5424C37.0388 73.3258 31.2989 69.9685 31.2989 69.9685Z" fill="white"/>
</mask>
<g mask="url(#mask3_213_2305)">
<path d="M31.2989 69.9684L26.9669 74.3005L31.2989 78.6325L38.7717 74.3005L31.2989 69.9684Z" fill="url(#paint3_linear_213_2305)"/>
</g>
<path d="M112.524 80.5821C111.875 80.5821 111.333 80.4738 110.9 80.2571C110.358 80.0405 109.925 79.7156 109.6 79.1741H109.492C109.6 79.7156 109.6 80.2572 109.6 80.6904V84.4809H108.192V70.9433H109.384L109.6 72.2429H109.709C110.034 71.7014 110.467 71.3765 111.008 71.1599C111.441 70.9433 112.091 70.835 112.633 70.835C113.824 70.835 114.799 71.2682 115.449 72.1346C116.098 73.001 116.423 74.1923 116.423 75.7085C116.423 77.2247 116.098 78.416 115.449 79.2824C114.69 80.1489 113.716 80.5821 112.524 80.5821ZM112.308 72.1346C111.333 72.1346 110.683 72.3512 110.25 72.8927C109.817 73.4342 109.6 74.3006 109.6 75.3836V75.7085C109.6 77.0081 109.817 77.9828 110.25 78.5243C110.683 79.0659 111.333 79.3908 112.308 79.3908C113.066 79.3908 113.716 79.0658 114.149 78.416C114.582 77.7662 114.799 76.8998 114.799 75.7085C114.799 74.5172 114.582 73.6508 114.149 73.001C113.824 72.4595 113.174 72.1346 112.308 72.1346Z" fill="#F9F9F9"/>
<path d="M119.672 80.3655H118.264V67.1528H119.672V80.3655Z" fill="#F9F9F9"/>
<path d="M127.795 80.3654L127.47 79.0658H127.362C126.928 79.6073 126.387 80.0405 125.954 80.2571C125.521 80.4737 124.871 80.582 124.221 80.582C123.246 80.582 122.596 80.3654 122.055 79.8239C121.513 79.3907 121.297 78.6326 121.297 77.7662C121.297 75.9251 122.813 74.9504 125.845 74.8421H127.47V74.3006C127.47 73.5425 127.362 73.001 127.037 72.6761C126.712 72.3512 126.17 72.1346 125.521 72.1346C124.762 72.1346 123.896 72.3512 122.921 72.8927L122.488 71.8097C122.921 71.5931 123.463 71.3765 124.004 71.2682C124.546 71.1599 125.087 71.0516 125.629 71.0516C126.712 71.0516 127.578 71.2682 128.12 71.8097C128.661 72.3512 128.878 73.1093 128.878 74.1923V80.582H127.795V80.3654ZM124.546 79.3907C125.412 79.3907 126.062 79.1741 126.604 78.6326C127.145 78.1994 127.362 77.4413 127.362 76.5749V75.7085L125.954 75.8168C124.871 75.8168 124.004 76.0334 123.571 76.3583C123.03 76.6832 122.813 77.1164 122.813 77.7662C122.813 78.3077 122.921 78.6326 123.246 78.9575C123.571 79.2824 124.004 79.3907 124.546 79.3907Z" fill="#F9F9F9"/>
<path d="M129.636 71.0516H131.152L133.21 76.3583C133.643 77.5496 133.968 78.416 134.076 78.9575H134.185C134.293 78.6326 134.401 78.1994 134.618 77.4413C134.834 76.7915 135.592 74.6255 136.892 70.9433H138.408L134.401 81.5568C133.968 82.6398 133.535 83.3979 132.993 83.8311C132.452 84.2643 131.802 84.4809 131.044 84.4809C130.611 84.4809 130.177 84.4809 129.744 84.3726V83.2896C130.069 83.3979 130.394 83.3979 130.827 83.3979C131.802 83.3979 132.452 82.8564 132.885 81.7734L133.426 80.4738L129.636 71.0516Z" fill="#F9F9F9"/>
<path d="M86.424 71.918C86.8572 72.2429 87.8318 73.1093 87.8318 74.5172C87.8318 75.9251 86.9654 76.6832 86.2073 77.333C85.9907 77.5496 85.6658 77.8745 85.6658 78.3077C85.6658 78.7409 85.9907 78.9575 86.2073 79.1741L86.8571 79.7156C87.7235 80.4737 88.4816 81.1235 88.4816 82.4231C88.4816 84.2643 86.7489 86.1054 83.3915 86.1054C80.5757 86.1054 79.1678 84.8058 79.1678 83.2896C79.1678 82.6398 79.4927 81.5567 80.684 80.9069C81.8753 80.1488 83.4999 80.0405 84.3663 80.0405C84.0414 79.7156 83.8248 79.2824 83.8248 78.7409C83.8248 78.416 83.933 78.1994 84.0413 77.9828C83.8247 77.9828 83.6081 77.9828 83.3915 77.9828C81.3338 77.9828 80.1425 76.4666 80.1425 74.9504C80.1425 74.084 80.5757 73.1093 81.4421 72.3512C82.5251 71.4848 83.8248 71.2682 84.9078 71.2682H88.9148L87.6153 71.918H86.424ZM85.016 80.582C84.9077 80.582 84.7994 80.582 84.5828 80.582C84.3662 80.582 83.3915 80.582 82.5251 80.9069C82.0919 81.0152 80.9006 81.5567 80.9006 82.9647C80.9006 84.3726 82.2003 85.3473 84.3663 85.3473C86.2074 85.3473 87.1821 84.4809 87.1821 83.2896C87.0738 82.2065 86.424 81.665 85.016 80.582ZM85.5576 76.8998C85.9908 76.4666 85.9908 75.8168 85.9908 75.4919C85.9908 74.084 85.1243 71.918 83.4998 71.918C82.9583 71.918 82.4169 72.1346 82.092 72.5678C81.7671 73.001 81.6588 73.5425 81.6588 73.9757C81.6588 75.2753 82.4168 77.4413 84.0413 77.4413C84.6911 77.4413 85.2327 77.2247 85.5576 76.8998Z" fill="#F9F9F9"/>
<path d="M74.0777 80.2571C70.937 80.2571 69.3124 77.8745 69.3124 75.7085C69.3124 73.1093 71.3701 70.9433 74.4025 70.9433C77.2183 70.9433 79.0595 73.2176 79.0595 75.4919C79.0595 77.8745 77.3267 80.2571 74.0777 80.2571ZM76.5685 78.7409C77.0017 78.0911 77.11 77.333 77.11 76.5749C77.11 74.8421 76.2436 71.5931 73.861 71.5931C73.2112 71.5931 72.5614 71.8097 72.1282 72.2429C71.3701 72.8927 71.2619 73.7591 71.2619 74.6255C71.2619 76.5749 72.2366 79.7156 74.6192 79.7156C75.269 79.7156 76.1353 79.2824 76.5685 78.7409Z" fill="#F9F9F9"/>
<path d="M63.5724 80.2571C60.4317 80.2571 58.8073 77.8745 58.8073 75.7085C58.8073 73.1093 60.865 70.9433 63.8974 70.9433C66.7132 70.9433 68.5544 73.2176 68.5544 75.4919C68.5544 77.8745 66.7132 80.2571 63.5724 80.2571ZM65.9551 78.7409C66.3883 78.0911 66.4966 77.333 66.4966 76.5749C66.4966 74.8421 65.6302 71.5931 63.2476 71.5931C62.5978 71.5931 61.948 71.8097 61.5148 72.2429C60.7567 72.8927 60.6484 73.7591 60.6484 74.6255C60.6484 76.5749 61.6231 79.7156 64.0057 79.7156C64.7638 79.7156 65.5219 79.2824 65.9551 78.7409Z" fill="#F9F9F9"/>
<path d="M57.2911 79.9323L54.4753 80.5821C53.3923 80.7987 52.3093 80.907 51.2263 80.907C45.8112 80.907 43.7535 76.8998 43.7535 73.8674C43.7535 70.0769 46.6775 66.503 51.6594 66.503C52.7424 66.503 53.7171 66.6113 54.6918 66.9362C56.208 67.3694 56.8579 67.8026 57.2911 68.1275L55.6666 69.6437L55.0168 69.752L55.5583 68.9939C54.9085 68.3441 53.7171 67.1528 51.3345 67.1528C48.1938 67.1528 45.9195 69.5354 45.9195 72.8927C45.9195 76.5749 48.627 80.0405 52.8508 80.0405C54.1504 80.0405 54.8001 79.8239 55.3416 79.499V76.3583L52.4175 76.4666L53.9338 75.6002H58.0491L57.5076 76.1417C57.3993 76.25 57.3994 76.25 57.2911 76.4666C57.2911 76.6832 57.2911 77.2247 57.2911 77.4413V79.9323Z" fill="#F9F9F9"/>
<path d="M92.5971 79.3908C91.9473 79.2825 91.8391 79.1741 91.8391 78.416V78.1994V67.3694V67.2611C91.9474 66.6113 92.1639 66.503 92.7054 66.0698H89.8896L88.3734 66.8279H89.8896V78.1994V78.8492C89.8896 79.2825 89.7813 79.2825 89.3481 79.9323H92.8137L93.5718 79.499C93.2469 79.499 92.922 79.3908 92.5971 79.3908Z" fill="#F9F9F9"/>
<path d="M100.503 79.6074C100.287 79.7157 100.07 79.824 99.8532 79.9323C99.2034 80.2572 98.5536 80.2571 98.0121 80.2571C97.3623 80.2571 96.3876 80.2572 95.4129 79.499C94.005 78.5243 93.4636 76.8998 93.4636 75.3836C93.4636 72.3512 95.9545 70.9433 97.9039 70.9433C98.5537 70.9433 99.3117 71.1599 99.8532 71.4848C100.828 72.1346 101.045 73.001 101.261 73.4342L96.7126 75.2753L95.1963 75.3836C95.6295 77.8745 97.3623 79.2824 99.2034 79.2824C100.178 79.2824 100.936 78.9575 101.586 78.6326L100.503 79.6074ZM98.6619 73.7591C98.9868 73.6508 99.2034 73.5425 99.2034 73.2176C99.2034 72.4595 98.3371 71.5931 97.2541 71.5931C96.496 71.5931 94.9797 72.2429 94.9797 74.3006C94.9797 74.6255 94.9798 74.9504 95.0881 75.3836L98.6619 73.7591Z" fill="#F9F9F9"/>
<path d="M102.344 71.0516V72.3512H102.236V71.0516H101.803V70.9433H102.777V71.0516H102.344Z" fill="#F9F9F9"/>
<path d="M104.185 72.3512V71.0516L103.752 72.3512H103.644L103.211 71.0516V72.3512H103.102V70.9433H103.319L103.644 72.1346L103.969 70.9433H104.185V72.3512Z" fill="#F9F9F9"/>
<path d="M47.7606 62.7124H46.7858C46.7858 62.6041 46.6776 62.1709 46.461 61.6294H45.053C44.8364 62.2792 44.7282 62.6041 44.7282 62.7124H43.8618C43.8618 62.6041 44.0783 61.9543 44.6198 60.763C45.053 59.5717 45.378 58.9219 45.378 58.7053H46.5693C46.5693 58.8136 46.7858 59.4634 47.2191 60.6547C47.544 61.9543 47.7606 62.6041 47.7606 62.7124ZM46.3527 60.9796C46.0278 59.8966 45.8112 59.3551 45.8112 59.2468C45.8112 59.3551 45.5946 59.8966 45.2697 60.9796H46.3527Z" fill="#F8F8F8"/>
<path d="M51.6594 62.7124H50.9013C50.9013 62.6041 50.5764 62.1709 50.0348 61.4128C49.4933 60.5464 49.1686 60.0049 49.0602 59.68C49.0602 60.1132 49.1685 60.5464 49.1685 60.8713C49.1685 61.4128 49.1685 61.9543 49.1685 62.7124H48.4103C48.4103 62.0626 48.4103 61.4128 48.4103 60.6547C48.4103 59.8966 48.4103 59.2468 48.4103 58.8136H49.2768C49.2768 58.9219 49.4933 59.3551 50.0348 60.1132C50.5764 60.8713 50.9013 61.4128 50.9013 61.7377C50.9013 61.3045 50.793 60.8713 50.793 60.5464C50.793 60.0049 50.793 59.4634 50.793 58.8136H51.5511C51.5511 59.3551 51.5511 59.8966 51.5511 60.6547C51.6594 61.4128 51.6594 62.1709 51.6594 62.7124Z" fill="#F8F8F8"/>
<path d="M56.0998 60.6547C56.0998 61.1962 55.8832 61.7377 55.5583 62.1709C55.2334 62.6041 54.6919 62.8207 54.0421 62.8207C53.7171 62.8207 53.284 62.8207 52.8508 62.8207C52.8508 62.1709 52.8508 61.5211 52.8508 60.763C52.8508 60.0049 52.8508 59.3551 52.8508 58.9219H53.3923C53.5006 58.9219 53.6088 58.9219 53.8254 58.9219C54.042 58.9219 54.1503 58.9219 54.1503 58.9219C54.9084 58.9219 55.4499 59.1385 55.7748 59.4634C55.8831 59.68 56.0998 60.1132 56.0998 60.6547ZM55.2333 60.763C55.2333 60.3298 55.125 60.0049 54.9084 59.7883C54.6918 59.5717 54.3669 59.3551 53.8254 59.3551C53.7171 59.3551 53.6088 59.3551 53.5005 59.3551C53.5005 59.7883 53.5005 60.2215 53.5005 60.6547C53.5005 61.0879 53.5005 61.6294 53.5005 62.0626C53.6088 62.0626 53.7172 62.0626 53.9338 62.0626C54.367 62.0626 54.6918 61.9543 54.9084 61.6294C55.125 61.5211 55.2333 61.1962 55.2333 60.763Z" fill="#F8F8F8"/>
<path d="M60.1069 62.7124H59.2404C59.0238 61.9543 58.8072 61.5211 58.6989 61.4128C58.5906 61.1962 58.374 61.1962 58.0491 61.1962C57.9408 61.1962 57.8326 61.1962 57.7243 61.1962C57.7243 61.7377 57.7243 62.2792 57.7243 62.8207H56.8578C56.8578 62.1709 56.8578 61.5211 56.8578 60.763C56.8578 60.0049 56.8578 59.3551 56.8578 58.9219H57.3994C57.5077 58.9219 57.616 58.9219 57.8326 58.9219C58.0492 58.9219 58.1575 58.9219 58.3741 58.9219C59.3488 58.9219 59.7819 59.2468 59.7819 59.8966C59.7819 60.4381 59.5654 60.763 59.0239 60.9796C59.2405 61.0879 59.4571 61.1962 59.5654 61.4128C59.6737 61.5211 59.8903 62.0626 60.1069 62.7124ZM59.0239 60.0049C59.0239 59.5717 58.8073 59.3551 58.2658 59.3551C58.0492 59.3551 57.9409 59.3551 57.7243 59.3551C57.7243 59.68 57.7243 60.1132 57.7243 60.5464C57.8326 60.5464 57.9408 60.5464 58.0491 60.5464C58.6989 60.6547 59.0239 60.4381 59.0239 60.0049Z" fill="#F8F8F8"/>
<path d="M64.4389 60.6547C64.4389 61.3045 64.2223 61.7377 63.8974 62.1709C63.4642 62.6041 63.0309 62.8207 62.4894 62.8207C61.9479 62.8207 61.5148 62.6041 61.1899 62.2792C60.865 61.9543 60.6484 61.4128 60.6484 60.8713C60.6484 60.2215 60.865 59.7883 61.1899 59.3551C61.6231 58.9219 62.0563 58.7053 62.5978 58.7053C63.1393 58.7053 63.5725 58.9219 63.8974 59.2468C64.3306 59.68 64.4389 60.1132 64.4389 60.6547ZM63.6808 60.763C63.6808 60.3298 63.5725 60.0049 63.3559 59.68C63.1393 59.4634 62.9227 59.2468 62.5978 59.2468C62.2729 59.2468 62.0563 59.3551 61.8397 59.68C61.6231 59.8966 61.5148 60.3298 61.5148 60.6547C61.5148 61.0879 61.6231 61.4128 61.8397 61.6294C62.0563 61.846 62.2729 62.0626 62.5978 62.0626C62.9227 62.0626 63.1393 61.9543 63.3559 61.6294C63.5725 61.5211 63.6808 61.1962 63.6808 60.763Z" fill="#F8F8F8"/>
<path d="M66.1717 62.7124H65.3054C65.3054 62.0626 65.3054 61.4128 65.3054 60.6547C65.3054 59.8966 65.3054 59.2468 65.3054 58.8136H66.1717C66.1717 59.3551 66.1717 60.0049 66.1717 60.6547C66.1717 61.4128 66.1717 62.1709 66.1717 62.7124Z" fill="#F8F8F8"/>
<path d="M70.612 60.6547C70.612 61.1962 70.3954 61.7377 70.0705 62.1709C69.7456 62.6041 69.2042 62.8207 68.5544 62.8207C68.2295 62.8207 67.7962 62.8207 67.363 62.8207C67.363 62.1709 67.363 61.5211 67.363 60.763C67.363 60.0049 67.363 59.3551 67.363 58.9219H67.9045C68.0128 58.9219 68.1211 58.9219 68.3377 58.9219C68.5543 58.9219 68.6627 58.9219 68.6627 58.9219C69.4208 58.9219 69.9623 59.1385 70.2872 59.4634C70.3955 59.68 70.612 60.1132 70.612 60.6547ZM69.7457 60.763C69.7457 60.3298 69.6373 60.0049 69.4207 59.7883C69.2041 59.5717 68.8792 59.3551 68.3377 59.3551C68.2294 59.3551 68.1212 59.3551 68.0129 59.3551C68.0129 59.7883 68.0129 60.2215 68.0129 60.6547C68.0129 61.0879 68.0129 61.6294 68.0129 62.0626C68.1212 62.0626 68.2294 62.0626 68.446 62.0626C68.8792 62.0626 69.2041 61.9543 69.4207 61.6294C69.6373 61.5211 69.7457 61.1962 69.7457 60.763Z" fill="#F8F8F8"/>
<path d="M76.4603 62.7124H75.4855C75.4855 62.6041 75.3773 62.1709 75.1607 61.6294H73.7527C73.5361 62.2792 73.4279 62.6041 73.4279 62.7124H72.5615C72.5615 62.6041 72.778 61.9543 73.3195 60.763C73.7527 59.5717 74.0777 58.9219 74.0777 58.7053H75.269C75.269 58.8136 75.4856 59.4634 75.9188 60.6547C76.2437 61.9543 76.4603 62.6041 76.4603 62.7124ZM75.0524 60.9796C74.7275 59.8966 74.5109 59.3551 74.5109 59.2468C74.5109 59.3551 74.2943 59.8966 73.9694 60.9796H75.0524Z" fill="#F8F8F8"/>
<path d="M79.926 59.7883C79.926 60.2215 79.7094 60.6547 79.3845 60.8713C79.0596 61.0879 78.6263 61.1962 78.0848 61.1962C77.9765 61.1962 77.8682 61.1962 77.8682 61.1962C77.8682 61.6294 77.8682 62.0626 77.8682 62.7124H77.0018C77.0018 62.1709 77.0018 61.4128 77.0018 60.6547C77.0018 59.8966 77.0018 59.2468 77.0018 58.8136H77.5433C77.6516 58.8136 77.7599 58.8136 77.9765 58.8136C78.1931 58.8136 78.4097 58.8136 78.518 58.8136C78.9512 58.8136 79.2761 58.9219 79.4927 59.0302C79.8176 59.2468 79.926 59.4634 79.926 59.7883ZM79.1678 60.0049C79.1678 59.5717 78.843 59.3551 78.3015 59.3551C78.1932 59.3551 77.9765 59.3551 77.8682 59.3551C77.8682 59.7883 77.8682 60.2215 77.8682 60.6547C77.8682 60.6547 77.9765 60.6547 78.0848 60.6547C78.8429 60.6547 79.1678 60.4381 79.1678 60.0049Z" fill="#F8F8F8"/>
<path d="M83.6081 59.7883C83.6081 60.2215 83.3915 60.6547 83.0666 60.8713C82.7417 61.0879 82.3085 61.1962 81.767 61.1962C81.6587 61.1962 81.5505 61.1962 81.5505 61.1962C81.5505 61.6294 81.5505 62.0626 81.5505 62.7124H80.684C80.684 62.1709 80.684 61.4128 80.684 60.6547C80.684 59.8966 80.684 59.2468 80.684 58.8136H81.2255C81.3338 58.8136 81.4422 58.8136 81.6588 58.8136C81.8754 58.8136 82.092 58.8136 82.2003 58.8136C82.6335 58.8136 82.9584 58.9219 83.175 59.0302C83.4999 59.2468 83.6081 59.4634 83.6081 59.7883ZM82.85 60.0049C82.85 59.5717 82.5251 59.3551 81.9836 59.3551C81.8753 59.3551 81.6588 59.3551 81.5505 59.3551C81.5505 59.7883 81.5505 60.2215 81.5505 60.6547C81.5505 60.6547 81.6587 60.6547 81.767 60.6547C82.4168 60.6547 82.85 60.4381 82.85 60.0049Z" fill="#F8F8F8"/>
<path d="M89.5646 60.6547C89.5646 61.3045 89.348 61.7377 89.0231 62.1709C88.5899 62.6041 88.1568 62.8207 87.6153 62.8207C87.0738 62.8207 86.6405 62.6041 86.3156 62.2792C85.9907 61.9543 85.7741 61.4128 85.7741 60.8713C85.7741 60.2215 85.9907 59.7883 86.3156 59.3551C86.7488 58.9219 87.1821 58.7053 87.7236 58.7053C88.2651 58.7053 88.6982 58.9219 89.0231 59.2468C89.348 59.68 89.5646 60.1132 89.5646 60.6547ZM88.6983 60.763C88.6983 60.3298 88.59 60.0049 88.3734 59.68C88.1568 59.3551 87.9402 59.2468 87.6153 59.2468C87.2904 59.2468 87.0737 59.3551 86.8571 59.68C86.6405 59.8966 86.5323 60.3298 86.5323 60.6547C86.5323 61.0879 86.6405 61.4128 86.8571 61.6294C87.0737 61.846 87.2904 62.0626 87.6153 62.0626C87.9402 62.0626 88.1568 61.9543 88.3734 61.6294C88.59 61.5211 88.6983 61.1962 88.6983 60.763Z" fill="#F8F8F8"/>
<path d="M93.6801 62.7124H92.9221C92.9221 62.6041 92.5971 62.1709 92.0556 61.4128C91.5141 60.5464 91.1892 60.0049 91.0809 59.68C91.0809 60.1132 91.1891 60.5464 91.1891 60.8713C91.1891 61.4128 91.1891 61.9543 91.1891 62.7124H90.4311C90.4311 62.0626 90.4311 61.4128 90.4311 60.6547C90.4311 59.8966 90.4311 59.2468 90.4311 58.8136H91.2975C91.2975 58.9219 91.5141 59.3551 92.0556 60.1132C92.5971 60.8713 92.9221 61.4128 92.9221 61.7377C92.9221 61.3045 92.8137 60.8713 92.8137 60.5464C92.8137 60.0049 92.8137 59.4634 92.8137 58.8136H93.5718C93.5718 59.3551 93.5718 59.8966 93.5718 60.6547C93.6801 61.4128 93.6801 62.1709 93.6801 62.7124Z" fill="#F8F8F8"/>
<defs>
<linearGradient id="paint0_linear_213_2305" x1="18.9076" y1="58.279" x2="18.9076" y2="90.3064" gradientUnits="userSpaceOnUse">
<stop stop-color="#257DAF"/>
<stop offset="0.201" stop-color="#3B8FB2"/>
<stop offset="0.7393" stop-color="#72BCB8"/>
<stop offset="1" stop-color="#88CDBB"/>
</linearGradient>
<linearGradient id="paint1_linear_213_2305" x1="10.8325" y1="66.2278" x2="31.3204" y2="66.2278" gradientUnits="userSpaceOnUse">
<stop stop-color="#51BEAB"/>
<stop offset="1" stop-color="#DDE798"/>
</linearGradient>
<linearGradient id="paint2_linear_213_2305" x1="21.0762" y1="74.293" x2="21.0762" y2="90.4229" gradientUnits="userSpaceOnUse">
<stop stop-color="#EA403D"/>
<stop offset="0.1937" stop-color="#D54251"/>
<stop offset="0.7369" stop-color="#9E4886"/>
<stop offset="1" stop-color="#884A9B"/>
</linearGradient>
<linearGradient id="paint3_linear_213_2305" x1="32.8766" y1="69.9916" x2="32.8766" y2="78.5939" gradientUnits="userSpaceOnUse">
<stop stop-color="#F38679"/>
<stop offset="0.6121" stop-color="#F9AF76"/>
<stop offset="1" stop-color="#FCC574"/>
</linearGradient>
</defs>
</svg>
